/* XPM */
static char * exit_close_xpm[] = {
"40 40 461 2",
"  	c #DDB23B",
". 	c #FFBD43",
"+ 	c #E7A93C",
"@ 	c #694717",
"# 	c #A42D17",
"$ 	c #994825",
"% 	c #CD4E1C",
"& 	c #985728",
"* 	c #45452E",
"= 	c #5B4326",
"- 	c #4C3C24",
"; 	c #3B2D1E",
"> 	c #5C3E24",
", 	c #6A4C2C",
"' 	c #634B30",
") 	c #54422A",
"! 	c #523D25",
"~ 	c #5B452A",
"{ 	c #533F2A",
"] 	c #5D4931",
"^ 	c #5D492C",
"/ 	c #4B3623",
"( 	c #862818",
"_ 	c #FEEC53",
": 	c #FEF356",
"< 	c #FFF559",
"[ 	c #7B4D25",
"} 	c #E9AE32",
"| 	c #8D4B1B",
"1 	c #B6762C",
"2 	c #FDD44A",
"3 	c #FFDC43",
"4 	c #FFFE55",
"5 	c #FDCD43",
"6 	c #FFC52C",
"7 	c #FBFA4B",
"8 	c #FFB829",
"9 	c #443421",
"0 	c #2E233B",
"a 	c #11134A",
"b 	c #0C104A",
"c 	c #020355",
"d 	c #131449",
"e 	c #42303D",
"f 	c #4D3E2A",
"g 	c #8C3F21",
"h 	c #FEE446",
"i 	c #FCB33D",
"j 	c #5D4018",
"k 	c #534126",
"l 	c #E3892B",
"m 	c #FEAA32",
"n 	c #D97929",
"o 	c #FC8123",
"p 	c #F67927",
"q 	c #EE8822",
"r 	c #383525",
"s 	c #C95819",
"t 	c #FEC43B",
"u 	c #262A24",
"v 	c #694C25",
"w 	c #CD6826",
"x 	c #573A37",
"y 	c #0E114A",
"z 	c #111542",
"A 	c #000057",
"B 	c #111543",
"C 	c #151741",
"D 	c #4B3B23",
"E 	c #62462B",
"F 	c #F46E21",
"G 	c #FEC241",
"H 	c #2D2B2B",
"I 	c #634A2D",
"J 	c #C2652C",
"K 	c #FFFE5B",
"L 	c #FF9B35",
"M 	c #313129",
"N 	c #EA8D2C",
"O 	c #B8551C",
"P 	c #74522C",
"Q 	c #8D532B",
"R 	c #F5842C",
"S 	c #FAC836",
"T 	c #181742",
"U 	c #010256",
"V 	c #0C0F4B",
"W 	c #41313E",
"X 	c #453A24",
"Y 	c #D2752C",
"Z 	c #FE832C",
"` 	c #493913",
" .	c #423B2B",
"..	c #FF732D",
"+.	c #FDA533",
"@.	c #FDD344",
"#.	c #844322",
"$.	c #E38B31",
"%.	c #FE7A2B",
"&.	c #F7561A",
"*.	c #FAEF56",
"=.	c #2A2D39",
"-.	c #000056",
";.	c #00004C",
">.	c #00004D",
",.	c #010156",
"'.	c #0B0952",
").	c #5A4229",
"!.	c #CD9B33",
"~.	c #F89729",
"{.	c #EB5617",
"].	c #835A31",
"^.	c #FD9B2C",
"/.	c #FC8B30",
"(.	c #FF7523",
"_.	c #FC671A",
":.	c #FFCB3E",
"<.	c #2C2C52",
"[.	c #00004B",
"}.	c #000026",
"|.	c #00004A",
"1.	c #000019",
"2.	c #00001A",
"3.	c #000049",
"4.	c #00004E",
"5.	c #0D0E4D",
"6.	c #5A4338",
"7.	c #322722",
"8.	c #F4C739",
"9.	c #EC772A",
"0.	c #B54A22",
"a.	c #693B1A",
"b.	c #7A4C2B",
"c.	c #ED7623",
"d.	c #FE942D",
"e.	c #FEA238",
"f.	c #FFDC50",
"g.	c #FFFF63",
"h.	c #CD3615",
"i.	c #C95624",
"j.	c #542622",
"k.	c #090157",
"l.	c #000052",
"m.	c #010115",
"n.	c #010216",
"o.	c #010117",
"p.	c #13173F",
"q.	c #4D3C3D",
"r.	c #6E5032",
"s.	c #FE6422",
"t.	c #FEEB4E",
"u.	c #FFEB43",
"v.	c #D95521",
"w.	c #F5A637",
"x.	c #DE4216",
"y.	c #FEDA4C",
"z.	c #FC7919",
"A.	c #7E281C",
"B.	c #0F0C52",
"C.	c #00004F",
"D.	c #000039",
"E.	c #000027",
"F.	c #010105",
"G.	c #040510",
"H.	c #05060D",
"I.	c #000050",
"J.	c #16183F",
"K.	c #594531",
"L.	c #6A4524",
"M.	c #FF9225",
"N.	c #E76726",
"O.	c #45353B",
"P.	c #000051",
"Q.	c #00001D",
"R.	c #000024",
"S.	c #010205",
"T.	c #000017",
"U.	c #04060F",
"V.	c #4F3E3C",
"W.	c #524028",
"X.	c #624426",
"Y.	c #4D4026",
"Z.	c #6D3D24",
"`.	c #A46630",
" +	c #FEE24D",
".+	c #030355",
"++	c #000021",
"@+	c #000080",
"#+	c #000011",
"$+	c #04060E",
"%+	c #010217",
"&+	c #000053",
"*+	c #010118",
"=+	c #14183F",
"-+	c #433325",
";+	c #523621",
">+	c #423D30",
",+	c #FF7733",
"'+	c #FD8B2D",
")+	c #AD551F",
"!+	c #FEEA43",
"~+	c #0E0555",
"{+	c #00001E",
"]+	c #000018",
"^+	c #04060D",
"/+	c #000031",
"(+	c #000119",
"_+	c #02034D",
":+	c #3A2C36",
"<+	c #9B632D",
"[+	c #FEB735",
"}+	c #795125",
"|+	c #E4832B",
"1+	c #DD5A21",
"2+	c #C04D35",
"3+	c #00001B",
"4+	c #010150",
"5+	c #00001C",
"6+	c #040508",
"7+	c #000000",
"8+	c #000016",
"9+	c #040256",
"0+	c #FF8630",
"a+	c #FE9333",
"b+	c #5E3651",
"c+	c #03044D",
"d+	c #020228",
"e+	c #03050E",
"f+	c #040511",
"g+	c #020157",
"h+	c #665328",
"i+	c #FFCC33",
"j+	c #00002A",
"k+	c #010103",
"l+	c #000101",
"m+	c #020205",
"n+	c #00000A",
"o+	c #00000D",
"p+	c #523E37",
"q+	c #EE5423",
"r+	c #D97339",
"s+	c #020315",
"t+	c #03040A",
"u+	c #010104",
"v+	c #00002D",
"w+	c #00003C",
"x+	c #483837",
"y+	c #4C412A",
"z+	c #694A31",
"A+	c #322646",
"B+	c #000055",
"C+	c #00002B",
"D+	c #000010",
"E+	c #000001",
"F+	c #000002",
"G+	c #05060C",
"H+	c #010122",
"I+	c #000089",
"J+	c #00008A",
"K+	c #000034",
"L+	c #060851",
"M+	c #000047",
"N+	c #000029",
"O+	c #000032",
"P+	c #01010B",
"Q+	c #020204",
"R+	c #0F113C",
"S+	c #4848EF",
"T+	c #000088",
"U+	c #030455",
"V+	c #0E1248",
"W+	c #242A86",
"X+	c #0000A4",
"Y+	c #00006C",
"Z+	c #01011A",
"`+	c #010133",
" @	c #5050F9",
".@	c #5861AB",
"+@	c #2D347E",
"@@	c #000061",
"#@	c #151A3A",
"$@	c #453732",
"%@	c #7C532C",
"&@	c #8B6130",
"*@	c #14183D",
"=@	c #2C328B",
"-@	c #464F88",
";@	c #1616CB",
">@	c #01011F",
",@	c #000023",
"'@	c #5050F0",
")@	c #575BE0",
"!@	c #4F597F",
"~@	c #000065",
"{@	c #0E1148",
"]@	c #553F3C",
"^@	c #7F5A30",
"/@	c #0A0D4C",
"(@	c #1212CF",
"_@	c #000005",
":@	c #3A41B9",
"<@	c #5757FE",
"[@	c #545F86",
"}@	c #131787",
"|@	c #5E4B25",
"1@	c #000040",
"2@	c #0000AF",
"3@	c #000071",
"4@	c #5454FB",
"5@	c #58629E",
"6@	c #212673",
"7@	c #473739",
"8@	c #C6752C",
"9@	c #000022",
"0@	c #000090",
"a@	c #00007C",
"b@	c #000116",
"c@	c #00006B",
"d@	c #4A547F",
"e@	c #131778",
"f@	c #51412F",
"g@	c #8F5D30",
"h@	c #0E0EAE",
"i@	c #010270",
"j@	c #020306",
"k@	c #000042",
"l@	c #0A0D4D",
"m@	c #50362E",
"n@	c #D97931",
"o@	c #373CC4",
"p@	c #020246",
"q@	c #030407",
"r@	c #00003F",
"s@	c #493A27",
"t@	c #83542B",
"u@	c #00005D",
"v@	c #585CE4",
"w@	c #040566",
"x@	c #03040F",
"y@	c #030511",
"z@	c #000041",
"A@	c #4F3C27",
"B@	c #6E4729",
"C@	c #735130",
"D@	c #000045",
"E@	c #000095",
"F@	c #000091",
"G@	c #010149",
"H@	c #05070C",
"I@	c #070951",
"J@	c #423125",
"K@	c #010107",
"L@	c #00007F",
"M@	c #000063",
"N@	c #010116",
"O@	c #15193B",
"P@	c #714539",
"Q@	c #A55D2B",
"R@	c #6B3723",
"S@	c #000014",
"T@	c #000048",
"U@	c #000073",
"V@	c #02033A",
"W@	c #503E3C",
"X@	c #15193A",
"Y@	c #010102",
"Z@	c #00005A",
"`@	c #151A39",
" #	c #493937",
".#	c #84592E",
"+#	c #9F6430",
"@#	c #92652D",
"##	c #181D32",
"$#	c #000025",
"%#	c #000015",
"&#	c #00000C",
"*#	c #000058",
"=#	c #191C32",
"-#	c #42372C",
";#	c #AD6E30",
">#	c #8B5C2C",
",#	c #04050D",
"'#	c #090C4F",
")#	c #AA5723",
"!#	c #734D2B",
"~#	c #635031",
"{#	c #6E512E",
"]#	c #664532",
"^#	c #14193C",
"/#	c #00000F",
"(#	c #00003B",
"_#	c #452F2B",
":#	c #AD3F22",
"<#	c #712A22",
"[#	c #86553D",
"}#	c #191E2E",
"|#	c #03050B",
"1#	c #090C1B",
"2#	c #9F4C37",
"3#	c #5C3620",
"4#	c #1F212C",
"5#	c #03050A",
"6#	c #1E1B3A",
"7#	c #E49338",
"8#	c #ECB845",
"9#	c #E79536",
"0#	c #733921",
"a#	c #BB4422",
"b#	c #51412C",
"c#	c #000028",
"d#	c #01011B",
"e#	c #030508",
"f#	c #000086",
"g#	c #000157",
"h#	c #231E2F",
"i#	c #DC8C37",
"j#	c #F5D64D",
"k#	c #5F453F",
"l#	c #000084",
"m#	c #010151",
"n#	c #000115",
"o#	c #01021B",
"p#	c #121641",
"q#	c #261C4A",
"r#	c #FE8824",
"s#	c #F48B2B",
"t#	c #DF3322",
"u#	c #191E2D",
"v#	c #03041E",
"w#	c #00008B",
"x#	c #000087",
"y#	c #000085",
"z#	c #000062",
"A#	c #E27C3C",
"B#	c #412E21",
"C#	c #080A4F",
"D#	c #000020",
"E#	c #00011D",
"F#	c #000083",
"G#	c #00005F",
"H#	c #00002F",
"I#	c #1A1548",
"J#	c #F2B142",
"K#	c #F29B36",
"L#	c #221122",
"M#	c #4F3B2B",
"N#	c #0B0E4C",
"O#	c #00001F",
"P#	c #000013",
"Q#	c #00002E",
"R#	c #A96B33",
"S#	c #E59E2C",
"T#	c #FAAD3C",
"U#	c #FFA62A",
"V#	c #2C3725",
"W#	c #554432",
"X#	c #754828",
"Y#	c #474633",
"Z#	c #D79435",
"`#	c #A92C16",
" $	c #FFE453",
"  . + @ @ # # $ % & * = - ; > , ' ) ! ~ ) { ! = ) ) ~ ] ) ^ / ! / ) ( _ : < [ = ",
"} | 1 2 3 4 5 6 7 8 9 ^ ) ) 9 ; 0 a b c d e ) f ) ! ) - ' ^ , ! / > g h i j k ! ",
"l m n o p q r s t u v , w $ x y z A A A A B C D ! ) = = = E > - - r F G H = I ^ ",
"J < 2 K L M M N O P L Q R S T A A A A A A A U V W I { > ^ = X ! k Y Z `  .^ ^ I ",
"..L : _ 4 +.R @.#.$.%.&.*.=.A A A -.;.>.A A A ,.'.)./ = > - - > !.~.K {.$.I ].) ",
"^.< K /.: < _ 4 (._.:.K <.,.A A [.}.|.1.2.3.4.A ,.5.6.= { , r > 7.8.N !.9.0.a.b.",
"c.d./.e.f._ g.h.4 4 i.j.k.A -.l.2.1.m.m.n.o.[.-.-.p.q.^ ~ I r.X > u E #.s.m t.u.",
"v.w.x.h.< y.e.z._ A.k B.A A C.D.E.1.F.F.G.G.H.|.I.A J.K.I I , ! - I , - L.[ M.2 ",
") J 5 $.M.G * N.t./ O.U A C.P.D.Q.R.S.H.T.1.U.1.2.A A V.W.^ > X.- Y., I = @ p t.",
"K.s.Z.`.=  +&.i :.z..+A ;.++D.@+#+++$+%+&+1.*+1.1.I.A =+-+9 9 ;+> = ~ ) >+m ^.K ",
"0.,+Z.= '+s.: 9.)+!+~+A #+1.}.{+1.]+$+^+@+/+*+o.(+_+I.A :+/ > = = k r <+[+_.K ^.",
"8./ }+|+H +.< 1+) 2+A A 3+]+4+}.5+6+7+7+8+3.]+H.1.1.C.A 9+k k k ) f 0+9._.Z (./.",
"7.I r ~ Y a+g.[+1+b+A c+1.1.d+I.8+7+7+7+e+1.1.f+1.1.1.A g+^ h+~ I k L L e.4 G s.",
"I ! Y.X r ) g i+< B A T.1.U.]+j+k+7+7+7+l+*+G.m+1.n+o+A A p+I ^ ^ X f ~ ^ , q+L ",
"! ) X X k I 1 w r+A A 2.1.s+G.e+7+7+7+7+t+1.^+u+]+v+w+A A x+~ y+) ^ = ~ ) ~ k = ",
") - X Y.) I <+z+A+A B+C+D+1.E+7+7+7+7+7+F+1.G+E+H+I+J+K+A L+k Y.X - - > { ] ~ ~ ",
"y+Y.Y.X X E , I A A M+N+E+O+E+7+7+7+7+7+E+P+Q+7+R+S+T+K+I.U+! ) k - - ! ! k ~ ) ",
") ~ k Y.~ ) = I V+-.W+X+Y+Z+7+7+7+7+7+7+7+7+7+7+`+ @.@+@@@#@$@%@I I - - ! ) k ! ",
"^ ~ P &@k = ^ ) *@-.=@-@;@>@7+7+7+7+7+7+7+7+7+7+,@'@)@!@~@{@]@^ I ) - ! ! - > > ",
") Y.~ , ^@= = I /@A -.I+(@{+7+7+7+7+7+7+7+7+7+7+_@:@<@[@}@A ]@= = = |@X - k k k ",
"k ) Y.~ ^ ].f - A A 1@I+2@2.7+7+7+7+7+7+7+7+7+7+E+3@4@5@6@A 7@^ ^ = ~ ! ! k k k ",
"k ^ - f 8@I ~ I A A 9@0@a@7+7+7+7+7+7+7+7+7+7+7+7+b@c@d@e@A f@/ k k ~ - ! ! k { ",
") Y.~ ~ 8@g@I y+A A }.h@i@7+7+7+7+7+7+7+7+7+E+7+7+j@#+3.k@l@m@- ! / ! k ! / ! k ",
"k Y.<+n@E E ^ ^ A &+1@o@p@n+7+7+7+7+7+7+7+q@E+7+7+E+]+1.r@A s@! ! / ^ / k k - k ",
"~ ) ~ `.t@) K.Y.A A u@v@w@T.7+7+7+7+7+7+7+7+7+7+7+x@y@1.z@A A@B@Y.~ ~ Q - - ! > ",
"I I P %@v X.^ C@L+A D@E@F@%+7+7+7+7+7+7+7+7+7+7+E+G@O+H@j+I@J@^ }+Q Q b.I ! ! k ",
"- E = > ) ^ ^ ^@*@A ]+;.@+K@7+7+7+7+7+7+7+7+7+7+E+L@M@N@4.O@P@Q@R@Q { ' = = ~ = ",
"^ ~ z+- f ^ ~ ) *@A 1.S@T@E+7+7+7+7+7+7+7+7+7+7+E+U@V@3+B+O@W@, B@, , ~ ) ! { = ",
"~ ^ K.~ -  .y+) X@A 1.1.U.Y@7+7+7+7+7+7+7+7+7+7+E+1.1.3+Z@`@ #E X., , ) { ! k I ",
"I - B@.#Y n@+#@###A $#1.]+%#7+7+7+7+7+7+7+7+7+7+e+|.]+&#*#=#, -# .@#9 9 ;+! - ) ",
"k r.I .#^ ;#>#`.l@c 4.&#1.1.E+7+7+7+7+7+7+7+7+7+,#3+1.T@A '#r N.+.'+)#m ;#;#!#! ",
"^ I ~#Y.{#.#`.^@]#^#A /#(#2.E+7+7+7+7+7+7+7+7+E+b@1.1.[.A _#'+'+} n@y.N :#<#, ^ ",
"^ ' ) ' k ) ) n@[#}#A l.I+C.|#7+7+7+7+7+7+7+E+o.1#8+5+A U 2#a+n@Z.n@_ g.4 q+3#b.",
"~ ) Y.k k Y.Y.I ^ 4#A >.O+/#1.5#7+7+7+7+7+7+_@{+3+/#%#A 6#7#8#Q ' 1+9#/ 0#K a#X ",
"' k k - k k Y.~ I b#,.A 3+1.1.c#d#7+7+e#e#F+j+f#2.j+C.g#h#i#g.i.b.c.N.L.0#j#_ a#",
") k k k k k ! - - k#O@A M+1.]+l#m#Y@n#o#d#o.1.}.}.Q.B+p#q#t.c.d.(.y. +r#s#w.t#u.",
"^ ' I k Y.~ = , ) = u#B >.D@v#w#j+$+Q.x#y#]+l#z#5+-.,.u#A#$ 0.5 i < f.K 9.5 :.;+",
"B#X 9 = k Y.k k ) ! C#X@A k@1.D#E#H@w+f#,@3+F#G#H#A B I#)#t 3 2 d.< 9#J#K#4 q+L#",
"[ n | 9 ^ k ! ! ! ! M#N#A A O#5+1.P#1.&#1.]+Q##+T@A N#R#S#s '+'+'+Y T#$.T#K#J#4 ",
"K 7 U#V#! ! ! k ! ) k ! Y.^ ~ E ' { ^ E ~ E ^ ' I E W#9.X#;#Y#~#Z#L.u.)+`#T#+. $"};
