/* XPM */
static char *result[] = {
/* columns rows colors chars-per-pixel */
"40 40 189 2 ",
"   c #0C0505",
".  c #230000",
"X  c #230909",
"o  c #390D0D",
"O  c #3B2D1E",
"+  c #221122",
"@  c #262A24",
"#  c #2F2B2B",
"$  c #322A22",
"%  c #393425",
"&  c #313129",
"*  c #5A0000",
"=  c #7C1919",
"-  c #493913",
";  c #63381C",
":  c #552824",
">  c #443421",
",  c #4B3522",
"<  c #453A24",
"1  c #4D3C24",
"2  c #42372C",
"3  c #433B2C",
"4  c #4C3E2A",
"5  c #593521",
"6  c #523D25",
"7  c #5A3E26",
"8  c #533E29",
"9  c #6B2922",
"0  c #772A22",
"q  c #6D3D24",
"w  c #733921",
"e  c #5D4018",
"r  c #694717",
"t  c #4C4026",
"y  c #48442D",
"u  c #534126",
"i  c #5B4326",
"p  c #5F4826",
"a  c #54422A",
"s  c #5B452A",
"d  c #5D492C",
"f  c #494233",
"g  c #554432",
"h  c #5B4630",
"j  c #5D4931",
"k  c #624426",
"l  c #684624",
"z  c #694C25",
"x  c #62462B",
"c  c #6E4729",
"v  c #634A2D",
"b  c #6A4C2C",
"n  c #7C4D24",
"m  c #774628",
"M  c #734D2B",
"N  c #794C2B",
"B  c #6D502F",
"V  c #75532C",
"C  c #7D542D",
"Z  c #634B30",
"A  c #6B4D30",
"S  c #635031",
"D  c #6E5032",
"F  c #735130",
"G  c #7F5A30",
"H  c #910000",
"J  c #931E1E",
"K  c #BD0000",
"L  c #862818",
"P  c #A32E17",
"I  c #A92C16",
"U  c #8C3F21",
"Y  c #A92222",
"T  c #BF2727",
"R  c #AD3F22",
"E  c #CD3615",
"W  c #DF3322",
"Q  c #FE2424",
"!  c #8D4B1B",
"~  c #AD551F",
"^  c #854423",
"/  c #874826",
"(  c #994924",
")  c #84552C",
"_  c #8D532B",
"`  c #84582E",
"'  c #8A5C2D",
"]  c #975424",
"[  c #895C30",
"{  c #B84722",
"}  c #A85927",
"|  c #B75824",
" . c #92652D",
".. c #9B642D",
"X. c #8B6130",
"o. c #9E6130",
"O. c #A56A2B",
"+. c #B2712D",
"@. c #BA7B2A",
"#. c #A46630",
"$. c #AD6E30",
"%. c #BE7930",
"&. c #CD4E1C",
"*. c #DE4216",
"=. c #C8521C",
"-. c #F44D16",
";. c #E6591E",
":. c #F8571B",
">. c #FA6219",
",. c #FF6C1C",
"<. c #F67C1E",
"1. c #C95423",
"2. c #D65323",
"3. c #DD5A21",
"4. c #ED5522",
"5. c #CD6422",
"6. c #C3642B",
"7. c #DB6822",
"8. c #C6752C",
"9. c #D97926",
"0. c #D2752C",
"q. c #D47631",
"w. c #D77D30",
"e. c #DE7B31",
"r. c #E66727",
"t. c #FE6422",
"y. c #F86F24",
"u. c #ED7623",
"i. c #EC772A",
"p. c #FE7524",
"a. c #F67929",
"s. c #FF7733",
"d. c #FF5757",
"f. c #DD882F",
"g. c #CD9B33",
"h. c #D69431",
"j. c #E78629",
"k. c #EB8F2B",
"l. c #F98224",
"z. c #FF8824",
"x. c #F5872C",
"c. c #FF832B",
"v. c #FD8B2D",
"b. c #E59E2C",
"n. c #FE932D",
"m. c #FA9B28",
"M. c #FF9C2C",
"N. c #ED8532",
"B. c #FC8B30",
"V. c #E89337",
"C. c #FF9432",
"Z. c #F19A36",
"A. c #FF9C36",
"S. c #DDB23B",
"D. c #FFA62B",
"F. c #FFB624",
"G. c #E8A93F",
"H. c #F4A537",
"J. c #FEA434",
"K. c #FEAA32",
"L. c #FAAD3C",
"P. c #EAB136",
"I. c #FFBB37",
"U. c #FCB53C",
"Y. c #FFCC33",
"T. c #FEC53B",
"R. c #F7C83A",
"E. c #FFAF43",
"W. c #ECB845",
"Q. c #F2B142",
"!. c #FFBC44",
"~. c #FEC241",
"^. c #FDCD43",
"/. c #FDD444",
"(. c #FFDA42",
"). c #FDD549",
"_. c #FEDB4C",
"`. c #FEE446",
"'. c #FFEB43",
"]. c #FFE34D",
"[. c #FEEB4E",
"{. c #FFFF49",
"}. c #FFE152",
"|. c #FFEB54",
" X c #FEF255",
".X c #FFFF55",
"XX c #FFF55A",
"oX c #FFFF5B",
"OX c #FFFF63",
/* pixels */
"S.!.G.r r P P ( &.! y i 1 % i b j a 8 s a a 8 s 8 a d d a d 6 6 1 6 L [. X Xn u ",
"P.! @.)./..X^.F..XF.< v 8 6 > O O x 6 6 a a a 1 a 1 a 6 j s v 6 1 7 U `.E.e u u ",
"j.J.9.l.l.k.% =.T.@ z A 5.( l 1 a * * * * * * 6 8 d 8 i i s 8 6 1 % ,.T.# d x d ",
"+. X).oXC.& & k.| V A._ x.Y.m d * * * * * * * * u x 8 7 x i , 6 7 0.x.- 2 d d v ",
"p.A. X|.oXK.l.).^ j.a.-. XOX;.* * * * * * * * * * i , i i 6 1 6 g.n..X;.V.S G a ",
"C.XXoXB. XXX|..Xp.,./.oXoXv.* * * * * X . * * * * * Z i 7 v < u $ R.j.g.r.{ ; ^ ",
"u.C.v.A.}.|.OXE .X.X1.: L * * * * .   .   . . * * * * d d v b , u @ k / t.K.[.`.",
"2.H.*.E XX_.J.p.[.0 u a a * * * .         . * * * * * d v v A 1 1 v b t l n m./.",
"a 6.^.k.n.I.y 4. X: e S * * * * .   . .     * H * * * * a s 7 i 6 1 b x p l a.[.",
"d y.c ] p ].:.I./.<.1 z * * * .     . * * . * T * * * * > > > 7 7 i s a % K.M.oX",
"{ s.q i v.t.|.i.~ '.>.* * * . . .   . * . . * Q . * * * * 1 8 i i u 2  .T.,.oXM.",
"R., V N.# J. X3.a 3.[.* * . . . .           . * . . . * * 7 u u a 8 x.i.>.c.y.B.",
"$ x % d q.n.OXI.2.m.^.* * * . .               . . . . * * d v d v u A.A.A..X~.t.",
"v 1 t < % a / Y.XXOX* * * * . H                 . . . * * s v d s < 4 s d c 4.A.",
"6 a < < a x +.5.z.!.* * * . * .                   . . * * * i a a d i d d a i d ",
"a 1 < t a v  .D D 7.* * . . *                     * . . * * u t < 1 6 6 8 j s s ",
"t t < t 1 x b b b g * * . * *                     K K * * * 1 g a < 1 6 1 u i u ",
"s d u t a u s s a ] * * . * .                   . Q Q * * * 1 C b d 6 1 6 u u 8 ",
"d d B X.u i d s | * * . . *                       Q d.* * * * d d i 1 6 6 1 8 7 ",
"u t s B C p s d p.* * . . .                       * d.H . * * i i p s < 6 u u u ",
"u a t i x ` 1 1 3 * * . . .                       H d.d.* * * s k i d u 1 u u i ",
"u h 6 4 %.b d x o.* * . . .                       T d.K * * * 1 u 6 a 1 6 6 u 8 ",
"a y a d 8.' x y ) * * . *                         * d.K . * * 1 6 , 6 6 6 1 6 8 ",
"u a ] w.v x d d d * * . * .                       . H K . * * a 6 1 s 1 u 6 6 u ",
"s a s #.) a d t F o * * d.*                         H K . * o c 4 s i _ 1 6 6 8 ",
"v b b ) c k d F v * * H d.*                         * H . * * s C ) _ N x 6 6 u ",
"1 x 7 7 8 d d G v * * Y d.*                         * T * * * } q _ a d i s s i ",
"d d S 1 1 d d a a * * H d.J                         * K . * * D c c b s 8 6 u i ",
"s d h s < 2 4 8 d v * = d.K                         * H * * * d x b b 7 8 6 u x ",
"v 4 c ` q.f.#. . .i * * Y Y                       . * H * * b 2 %  .< > 7 6 1 a ",
"u B v ` d $.[ O.%.d * * * H .                   . . . H * o % r.A.v.} K.$.$.M 6 ",
"d v Z t B ` #.G C u o * . . *                   * . . H * * v.v.P.e.(.k.R 9 c d ",
"d Z a j a a s w...' o * * . .                   H * . * * * B.q.q e.|.OXoX4.5 F ",
"d a u u 1 u t v d D * * * . . .       . .     . Q H . * * V.W._ Z 3.Z., w oX{ , ",
"j i u 1 u u t d d d Z o * * . . .       * . . * d.E * * o V.OX| N u.7.c w _. X{ ",
"d u t u u u 6 1 1 F s * * * . .   . . . * K * H K J * * * [.u.n.p._.].z.x.H.W '.",
"s v v 1 u s i b i a 8 i o * *     . . * H H * H Y * * o B.( { /.U. X}.oXi.^.T.5 ",
"% < < i 6 t u u a a u a o * * .   . . . * * * H H * * * } T.(.).v.XXV.Q.Z..X4.+ ",
"^ 9.! < d u 6 6 6 6 6 t 8 8 u s x u v N ) x Z v g s 4 O.b.=.n.v.v.0.Q.N.L.Z.Q..X",
"oX{.D.@ 6 6 6 u a 1 6 6 u d d d j a x v s x d Z j Z g i.m $.f S h.z '.~ I L.J.}."
};
