/* XPM */
static char * walls_xpm[] = {
"40 40 126 2",
"  	c #282828",
". 	c #3F3F3F",
"+ 	c #3D3D3D",
"@ 	c #373737",
"# 	c #848484",
"$ 	c #747474",
"% 	c #757575",
"& 	c #5E5E5E",
"* 	c #4E4E4E",
"= 	c #626262",
"- 	c #868686",
"; 	c #5D5D5D",
"> 	c #6D6D6D",
", 	c #767676",
"' 	c #2E2E2E",
") 	c #545454",
"! 	c #484848",
"~ 	c #3A3A3A",
"{ 	c #4D4D4D",
"] 	c #4C4C4C",
"^ 	c #494949",
"/ 	c #434343",
"( 	c #3C3C3C",
"_ 	c #878787",
": 	c #888888",
"< 	c #777777",
"[ 	c #787878",
"} 	c #646464",
"| 	c #606060",
"1 	c #636363",
"2 	c #696969",
"3 	c #666666",
"4 	c #656565",
"5 	c #595959",
"6 	c #565656",
"7 	c #474747",
"8 	c #858585",
"9 	c #585858",
"0 	c #272727",
"a 	c #797979",
"b 	c #707070",
"c 	c #737373",
"d 	c #505050",
"e 	c #454545",
"f 	c #5B5B5B",
"g 	c #7A7A7A",
"h 	c #5F5F5F",
"i 	c #535353",
"j 	c #2F2F2F",
"k 	c #838383",
"l 	c #969696",
"m 	c #939393",
"n 	c #959595",
"o 	c #252525",
"p 	c #818181",
"q 	c #6E6E6E",
"r 	c #6A6A6A",
"s 	c #464646",
"t 	c #3E3E3E",
"u 	c #727272",
"v 	c #717171",
"w 	c #444444",
"x 	c #2D2D2D",
"y 	c #6B6B6B",
"z 	c #343434",
"A 	c #6C6C6C",
"B 	c #353535",
"C 	c #313131",
"D 	c #4B4B4B",
"E 	c #212121",
"F 	c #898989",
"G 	c #6F6F6F",
"H 	c #4F4F4F",
"I 	c #515151",
"J 	c #424242",
"K 	c #393939",
"L 	c #242424",
"M 	c #1F1F1F",
"N 	c #616161",
"O 	c #202020",
"P 	c #363636",
"Q 	c #8A8A8A",
"R 	c #979797",
"S 	c #989898",
"T 	c #404040",
"U 	c #323232",
"V 	c #303030",
"W 	c #292929",
"X 	c #2A2A2A",
"Y 	c #686868",
"Z 	c #808080",
"` 	c #929292",
" .	c #575757",
"..	c #3B3B3B",
"+.	c #2B2B2B",
"@.	c #676767",
"#.	c #232323",
"$.	c #999999",
"%.	c #383838",
"&.	c #5C5C5C",
"*.	c #828282",
"=.	c #8F8F8F",
"-.	c #7E7E7E",
";.	c #525252",
">.	c #7D7D7D",
",.	c #1E1E1E",
"'.	c #1B1B1B",
").	c #1C1C1C",
"!.	c #4A4A4A",
"~.	c #2C2C2C",
"{.	c #7F7F7F",
"].	c #9A9A9A",
"^.	c #7C7C7C",
"/.	c #919191",
"(.	c #5A5A5A",
"_.	c #414141",
":.	c #555555",
"<.	c #333333",
"[.	c #181818",
"}.	c #8B8B8B",
"|.	c #7B7B7B",
"1.	c #262626",
"2.	c #8E8E8E",
"3.	c #8D8D8D",
"4.	c #8C8C8C",
"5.	c #222222",
"                                                                                ",
". . . . . + @ # # # # # # $ % % & * = - & & & & ; > , ' ) & & & ; * ! ~ @ @ @ @ ",
"{ { ] ^ / ( @ _ : - - - _ < < [ & * } : | = 1 1 | > % ' ; 2 3 3 4 5 6 { 7 7 7 7 ",
"8 8 # < 9 0 @ _ 8 a a a a b c a d e f g h > < < | 9 i j k l - - - - m n 8 8 8 8 ",
"< [ [ < ! o @ : p 1 q r q h r a s t . * & ; 2 u v 9 w x k l h | | 1 1 } b < < & ",
"y u v r z o @ 8 p u 1 = 4 } A a . B C . D 7 . ( B C j E [ F | | | > > v y v G H ",
"I I d J ' o @ [ [ [ b A [ [ [ a . B x K   L M M M o   0 a F | | | N N ) ^ ^ ^ ! ",
"E E E O   x . [ c | | 4 | | r a . B x P , Q R S : a b . 5 N ! / T K U C V W     ",
"L L L L X j . c b 3 3 Y | | Y $ . B x P Z Q ` ` k , > ( I  .J + ..B V V V +.X X ",
"j j j j j U T | 3 [ [ u | | | N T B x z S : [ [ b 3 | j X 0         0 ' j j j j ",
"b b b b b @.#.H N : | 4 H | | N T B x z $.: $ b | 6 d j r [ H t %.d y b b b b b ",
"u A A A v | #.D &.*.| 3 ; | & &.T B x B =.-.y Y &.;.] j q >.) T K y % < u u u u ",
"[ = | | v ( E T J ! T T @ j X ,.M M #.  ' x L '.).,.M M > [ | w ~ S A h h I I | ",
"| d I h u ( E + ( P ).).).,.  B B B B z h [ Z [ v 6 . ' >.[ H t ~ _ Y | h I d | ",
"| N N | r K O y @. .!.] !.~.D 2 2 2 4 h b -.k -.g f . x {.[ H t ~ : b = | N = r ",
"| [ < = f B M S ` a v c u + A ].].].` F F F F F F 1 t x *.[ d t K F ^.4 = < a a ",
"! 7 7 ! P x ,.R ` a h h | z 2 ].< < @.] a y q [ a 6 P x *.[ 7 J T ~.z @ @ P @ . ",
"........C x +.R /.% @.@.(.V Y ].$ , r 6 G @.2 G G I @ x *.[ w _.T V z B U U U B ",
"@ :.5 A 1 & w S /.$ b v d L N ` ^., Y | 5 ; | | N ! <.x *.[ . + + G & { t ~ K x ",
"^ < >.S F *.I S ` [ b u d [.5 Q F a h | H 5 | | N s j x *.[ . ~ ~ $.Z 4 H ^ 7 K ",
"! , [ [ [ c I S ` [ [ u ! ,.j + ].}.q h | 9 5 N d t j x k [ . ~ ~ : |.} G ) * V ",
"! , [ [ % N ! S ` [ $ v ! ,.j + ].}.c q | &.; | ] ( j U c } ..K ~ : |.} G ) * V ",
"! , [ [ 2 6 T =.Q [ % c ! ,.~.K : p [ [ q q @.| / %.j @ d . %.%.K > 4 5 h ;.* V ",
"! , [ [ | &.T : 8 [ [ , ! ,.+.P a [ [ a a a A | . @ V %.~ ' %.%.%.H H d d d H V ",
"! , [ [ ; { T b u [ [ [ ! M 0 j H  .5 H 7 7 / . %.<.V %.B %.T ~ @ @ W 1.1.' j V ",
"! , [ [ r | _.:.h [ [ < ! M o +.J w / t ~ ~ %.@ <.C V %.e ! D ^ ! ! e w w s e V ",
"! , [ [ b r J t d [ [ , ! M #.  %.<.~.~.x x x x x x x P !.H H H H H H H H d * V ",
"! , [ [ b @.#.@ ] [ b A ! 0 o ,.H > F F F F F F F F F F $.$.$.$.$.$.$.$.: $ q   ",
"+ 1 1 6 :.H 0 @ e 4 :.) ! V +.M @ A : < [ [ [ [ [ [ [ [ 3 4 | 9 :.d d & h ;.*   ",
"%.& & I d D W @ w | d d ! V +.M z G }.< [ [ [ [ [ [ [ [ | | | ) d d d & h ;.*   ",
"%.E M M T + V %.( ! ! ! T V +.M +.> _ G b b @.h | 6 H b @.| d d d d & | d d * O ",
"%.z z z %.j V U C x x x X L #.O 0 9 > 9 5 5 4 > > 1 &.9 (.) d d d ; h 6 d D ! O ",
"%.~ ~ ~ %.~.C C x O O O O O O O o d = H H H 1 b b 3 | H :.d d d d | | ;.H ^ s O ",
"%.8 Q R n 8 a i H w B B B B z z z <.U <.C C z @ . . T T T T T T T . . . T T t   ",
"%./.m Z |.q 8 2.2.3.4.4.4.3._ >.-.[ G b (.] @ C <.<.<.<.j x x x x       ' <.<.P ",
"%._ F a G N @.-.g y | 1 h y v |.|.g [ a { T B z =.^.b (.J + P P P B B B P + t . ",
"%.&.&.! s 7 7 s s 7 7 7 7 7 s s s s s 7 . C j P < , , , i t R }._ [ u b N i H O ",
"%.' ~.0 0 0 0 0 0 0 0 0 0 0 0 0 0 0 0 0 o 5.j %.^ { H 6 T K >.% c [ v b % N &.O ",
"K o #.5.5.5.5.E E E E E E E E E E E E E E E j %.T e ! H ( @ , G > $ q > $ | f O ",
"T T . %.%.%.%.V V V V V V V V V V V V V V V V V T T T V V V T X O O O O O O O O "};
