/* XPM */
static char *result[] = {
/* columns rows colors chars-per-pixel */
"40 40 180 2 ",
"   c #2A211A",
".  c #3B2D1E",
"X  c #221122",
"o  c #370434",
"O  c #262A24",
"+  c #2F2B2B",
"@  c #322A22",
"#  c #363423",
"$  c #313129",
"%  c #493913",
"&  c #63381C",
"*  c #67183C",
"=  c #402E21",
"-  c #552824",
";  c #443422",
":  c #4C3723",
">  c #453A24",
",  c #4D3B24",
"<  c #42372C",
"1  c #433B2B",
"2  c #4D3E2C",
"3  c #593521",
"4  c #523E25",
"5  c #5B3E25",
"6  c #533E29",
"7  c #442B32",
"8  c #423D30",
"9  c #712A22",
"0  c #6E3923",
"q  c #733921",
"w  c #5D4018",
"e  c #694717",
"r  c #4C4026",
"t  c #46432D",
"y  c #534126",
"u  c #5B4326",
"i  c #54422A",
"p  c #5B452B",
"a  c #5D492C",
"s  c #474633",
"d  c #554433",
"f  c #5A4631",
"g  c #5D4931",
"h  c #614626",
"j  c #684624",
"k  c #6A4B26",
"l  c #62472B",
"z  c #634A2D",
"x  c #6A4C2C",
"c  c #7C4D24",
"v  c #784729",
"b  c #734D2B",
"n  c #6D502F",
"m  c #74532A",
"M  c #7D542D",
"N  c #634B30",
"B  c #635031",
"V  c #6E5032",
"C  c #735130",
"Z  c #7F5A30",
"A  c #681848",
"S  c #651B58",
"D  c #605469",
"F  c #862818",
"G  c #A42D17",
"H  c #A92C16",
"J  c #8C3F21",
"K  c #AD3F22",
"L  c #CD3615",
"P  c #DF3322",
"I  c #8D4B1B",
"U  c #AD551F",
"Y  c #864624",
"T  c #9B4622",
"R  c #84552C",
"E  c #8A572D",
"W  c #84582E",
"Q  c #985526",
"!  c #8F5D30",
"~  c #A24422",
"^  c #B94822",
"/  c #A85726",
"(  c #B75221",
")  c #8D612C",
"_  c #92652D",
"`  c #9C642D",
"'  c #A7682C",
"]  c #B6762C",
"[  c #A46630",
"{  c #AD6E30",
"}  c #DE4216",
"|  c #C9561A",
" . c #F8571B",
".. c #FA6219",
"X. c #FF6C1C",
"o. c #FB781B",
"O. c #CC5522",
"+. c #D65323",
"@. c #DD5A21",
"#. c #ED5522",
"$. c #CD6422",
"%. c #C2652C",
"&. c #D66925",
"*. c #D97926",
"=. c #D2752C",
"-. c #C76D30",
";. c #DA7A31",
":. c #E46627",
">. c #FE6422",
",. c #F86F24",
"<. c #EC7627",
"1. c #FF7623",
"2. c #F8772A",
"3. c #B3355B",
"4. c #991E62",
"5. c #C12460",
"6. c #A68033",
"7. c #DD882F",
"8. c #CD9B33",
"9. c #D69431",
"0. c #E8892A",
"q. c #F98224",
"w. c #FF8824",
"e. c #F5872C",
"r. c #FF812B",
"t. c #FD8B2C",
"y. c #E59E2C",
"u. c #FB9728",
"i. c #FE922D",
"p. c #FF9C2C",
"a. c #ED8532",
"s. c #FD8930",
"d. c #EA9534",
"f. c #FF9432",
"g. c #F19A36",
"h. c #FF9C36",
"j. c #DDB23B",
"k. c #FFA92D",
"l. c #FFB624",
"z. c #E9AD3B",
"x. c #FEAA32",
"c. c #FEA238",
"v. c #F6A83A",
"b. c #FFBB37",
"n. c #FCB53C",
"m. c #FFC02A",
"M. c #FFCC33",
"N. c #FEC53B",
"B. c #F7C83A",
"V. c #FFAF43",
"C. c #F2B142",
"Z. c #FFBC44",
"A. c #E08860",
"S. c #FEC241",
"D. c #FDCD43",
"F. c #FDD544",
"G. c #FFDC43",
"H. c #FDD549",
"J. c #FEDA4B",
"K. c #FEE446",
"L. c #FFEB43",
"P. c #FEE44C",
"I. c #FEEB4E",
"U. c #FFFF49",
"Y. c #FFE152",
"T. c #FFEC53",
"R. c #FEF355",
"E. c #FFFF55",
"W. c #FFF55A",
"Q. c #FFFF5A",
"!. c #FFD069",
"~. c #FFFF62",
"^. c #F16585",
"/. c #AF8394",
"(. c #B3A9A4",
"). c #D5C0C4",
"_. c #D9DCD7",
"`. c #EFE4D3",
"'. c #FFF3D9",
"]. c white",
/* pixels */
"j.Z.z.e e G G T | T t i , . u z z p 4 p i i 6 p i i p g i a , 4 , 6 F I.R.R.c u ",
"z.I ] F.H.E.F.m.E.l.> a i i ; . . a 4 4 i 4 i , i , u 4 l a z 4 : u J K.V.w y y ",
"0.x.*.2.q.e.# | N.O k x $.T j 2 i   4././.S y , 6 p 6 u u l 6 , , # o.N.+ a l a ",
"] T.H.Q.p.$ $ 0.( m f.R e.M.v a S /.5.).).).S 4 6 z 6 y p u : 6 u =.2.% 1 a p z ",
"1.h.R.T.Q.v.q.F.Y 0.2. .R.~...S `.5.^.'.`.).)./., p , u u 4 , 4 8.i.E.@.d.z Z i ",
"i.W.~.s.R.W.T.E.1.X.D.Q.Q.t.2./.`.5.^.'.`.).)./.6 l z u 5 z ; i @ B.a.8.:.( & Y ",
"<.i.t.h.Y.T.~.L E.E.O.- F s.S ).).5.`.`.).)././.S 4 a p p z n > 4 O h Y >.x.I.K.",
"+.v.} L W.J.c.1.I.9 u i r r S /.).5.`.`.).)././.S : : a z z x 4 , z x r j c p.F.",
"i %.B.d.i.b.s :.I.- w V i i /.`.4.5.`./.'.`././.S S u p 6 p 5 l 4 , k a u e <.T.",
"a D j / u P. .n.B.q., k s.> S S 4.).)./.S /././.`.S ).).).)./.3 6 p p f 1 x.p.Q.",
"^ D 0 u s.>.T.<.U L...r u # /.S S '.S 5.(./.)./.)./.).`.'.'.`./.5 i 1 ! b.X.Q.p.",
"B.(.o a.+ x.W.@.i @.L.Y p /.S o 4.).`.`.'.`./././.).`.`.`.'.'.)./.6 e.2...r.,.s.",
"O _.D p =.f.Q.b.@.g.B.H S /.S o ).).`.`.`././.S ).'.`.).`.`.`././.4 h.h.c.E.S.>.",
"z _.D > # 6 Y N.Q.W.u.W.S /.S /./.7 * /./.S /.).`.`.)./.`.`.`.`.)./.S u p k #.h.",
"r _.D o i o ] $.w.b.~ T.Q.S /.4.).7 * * S S ).`.o `././.`.`.`.`.`.)./.z a p i u ",
"i _.D D D D o V V :.G.Q.| o.4.4.4.5./.).`.`.'.'.o o ).S /.).)./.`.).).S S f a u ",
"r _.(.D D D o z x d y.E.0 S 4.S 4.5.`.`.`.`.'.'.o o /.S S /./.).`.`././.S y u 6 ",
"i (._.D D o o * * Q >.T.o S /.S S 4././././.).).D o D /./.S S ).).)./.* o S y 6 ",
"N D '.D D o o A.!.* P.D * * /./.S o ).).`.)./.S (.o D D S ].]./.* ^.^.3.* o 4 5 ",
"i r _._.D o o D A.* * * o o D o S S S /././././.'.D D o ].].].D (.'._._.D r i y ",
"4 i (.'.(.o o D * !.A.* (.o o D S o o /.S /.)./.'.(.D o D A.].o _.D D D (.y r y ",
"i f 4 '._.D o D o A.!.* o D D o S ].o S S /.).S '.'.D o o !.A.o D * * o o y y y ",
"y i i (._._.(.o o o S /.o o o o ].o * o * 3.* A.D '.D o o D A A.S o '.D D 4 3 u ",
"4 r ` ;.(._._.(.(.o S /.o S o * * * o * A.A.!.'.A.(.(.D o D D A /.D o o (.4 4 y ",
"p i p [ E i D , C o /./.S o S S S o * 3.o * 3.3.3.^.'._.o o o ).S 3.3.3.* 4 4 6 ",
"z z x R k h a C z o S ).o o /.).).S 3.3.o A.3.3.3.^.(._._._.o S S * 3.3.3.A A i ",
", z u 5 i a a Z z M x.o S )./.)./.S S * * * A.* ^.^.^.3.D o * o /.^.^.^.A !.A i ",
"a p N , 2 p p i i p 1 i./.)././././.)./.o o 3.A.^.^.^.3.)./.S ].o * * o A !.A 5 ",
"p p g p > < 2 6 a N 6 o * o S S S S S o i o * A.A.3.3.* /.S 3.o h k x p 6 A.4 l ",
"N 6 k W ;.7.` _ _ u x o 3.3.* o o o o p a u o 3.3.A.3.* 3.3.o o < ) ; ; 3 4 , i ",
"y z z W f ] W { 6.j m l * * * o o o i i u z o b A.* * o * * * o k.t./ x.{ { b 6 ",
"z N N y z W ` Z M y p 4 * * * o * o r p i 4 o 5 * o o o o * * o o ;.J.0.K 9 x a ",
"z N i N i i i ;.` ! i 4 o * o o o p a r y i l p o i y f o o * * o ;.T.~.E.#.3 M ",
"i i y y w r r g a B i > 3.o * o k z n x a i p N z a z s o * 3.3.3.o d., 0 Q.^ ; ",
"g y y , i y y a z a z o 3.3.* * > h z l k -.v a a f i ) o 3.3.3.3.o o v q J.R.^ ",
"i u y y y y , , S S S /.* 3.3.o o u l p k W x z u u z ! /././././.S S w.e.v.P L.",
"a N N y y i u S )././.S o * * o S z z a 2 ' i a 5 u 8 &.`.).S )././.S Q.<.D.N.3 ",
"= > ; u 4 y r y i y y i , u r y u R i j %.p a N z f v 0./ N.F.H.i.R.d.C.g.E.#.X ",
"c *.I > a y 4 4 4 4 , y 6 i y p l 6 z M R l N z p 6 2 { y.| t.t.t.=.C.a.v.g.C.E.",
"Q.U.k.O 4 4 4 y r 4 4 4 y a a a f 6 l l p l z N z l d <.b { s B 9.j L.U H V.x.Y."
};
