/* XPM */
static char * floor_xpm[] = {
"40 40 178 2",
"  	c #DDB23B",
". 	c #FFBD43",
"+ 	c #E7A93C",
"@ 	c #694717",
"# 	c #A42D17",
"$ 	c #994825",
"% 	c #886860",
"& 	c #985728",
"* 	c #45452E",
"= 	c #5B4326",
"- 	c #4C3C24",
"; 	c #3B2D1E",
"> 	c #5C3E24",
", 	c #6A4C2C",
"' 	c #634B30",
") 	c #54422A",
"! 	c #523D25",
"~ 	c #5B452A",
"{ 	c #533F2A",
"] 	c #5D4931",
"^ 	c #5D492C",
"/ 	c #503838",
"( 	c #685050",
"_ 	c #4B3623",
": 	c #862818",
"< 	c #FEEC53",
"[ 	c #FEF356",
"} 	c #FFF559",
"| 	c #7B4D25",
"1 	c #E9AE32",
"2 	c #8D4B1B",
"3 	c #B6762C",
"4 	c #FDD44A",
"5 	c #FFDC43",
"6 	c #FFFE55",
"7 	c #FDCD43",
"8 	c #FFC52C",
"9 	c #FFB829",
"0 	c #443421",
"a 	c #554432",
"b 	c #4D3E2A",
"c 	c #8C3F21",
"d 	c #FEE446",
"e 	c #FCB33D",
"f 	c #5D4018",
"g 	c #534126",
"h 	c #E3892B",
"i 	c #FEAA32",
"j 	c #D97929",
"k 	c #FC8123",
"l 	c #F67927",
"m 	c #EE8822",
"n 	c #383525",
"o 	c #C95819",
"p 	c #262A24",
"q 	c #694C25",
"r 	c #CD6826",
"s 	c #2A211A",
"t 	c #7C532C",
"u 	c #62462B",
"v 	c #F46E21",
"w 	c #FEC241",
"x 	c #2D2B2B",
"y 	c #634A2D",
"z 	c #C2652C",
"A 	c #FFFE5B",
"B 	c #FF9B35",
"C 	c #313129",
"D 	c #EA8D2C",
"E 	c #8D532B",
"F 	c #F5842C",
"G 	c #FFCC33",
"H 	c #754828",
"I 	c #594531",
"J 	c #523621",
"K 	c #D2752C",
"L 	c #FE832C",
"M 	c #493913",
"N 	c #423B2B",
"O 	c #FF732D",
"P 	c #FDA533",
"Q 	c #FDD344",
"R 	c #EB5617",
"S 	c #E8822F",
"T 	c #CD9B33",
"U 	c #F89729",
"V 	c #E38B31",
"W 	c #835A31",
"X 	c #FD9B2C",
"Y 	c #FC8B30",
"Z 	c #C8A890",
"` 	c #881818",
" .	c #B02020",
"..	c #281820",
"+.	c #322722",
"@.	c #F4C739",
"#.	c #EC772A",
"$.	c #B54A22",
"%.	c #693B1A",
"&.	c #7A4C2B",
"*.	c #ED7623",
"=.	c #FE942D",
"-.	c #FEA238",
";.	c #FFDC50",
">.	c #FFFF63",
",.	c #CD3615",
"'.	c #453A24",
").	c #844322",
"!.	c #FE6422",
"~.	c #FEEB4E",
"{.	c #FFEB43",
"].	c #D95521",
"^.	c #F5A637",
"/.	c #DE4216",
"(.	c #CCCCCC",
"_.	c #803030",
":.	c #6A4524",
"<.	c #FF9225",
"[.	c #601010",
"}.	c #6D3D24",
"|.	c #A46630",
"1.	c #FEE24D",
"2.	c #423D30",
"3.	c #FF7733",
"4.	c #FD8B2D",
"5.	c #9B632D",
"6.	c #FEB735",
"7.	c #FC671A",
"8.	c #795125",
"9.	c #E4832B",
"0.	c #FF8630",
"a.	c #FF7523",
"b.	c #4D4026",
"c.	c #0000E8",
"d.	c #000050",
"e.	c #EE5423",
"f.	c #A84848",
"g.	c #4848F8",
"h.	c #4C412A",
"i.	c #884808",
"j.	c #000000",
"k.	c #694A31",
"l.	c #6E4729",
"m.	c #84592E",
"n.	c #6E5032",
"o.	c #AD6E30",
"p.	c #734D2B",
"q.	c #635031",
"r.	c #AD3F22",
"s.	c #712A22",
"t.	c #5C3620",
"u.	c #733921",
"v.	c #BB4422",
"w.	c #E76726",
"x.	c #F5D64D",
"y.	c #FEDA4C",
"z.	c #FE8824",
"A.	c #F48B2B",
"B.	c #DF3322",
"C.	c #808080",
"D.	c #FFCB3E",
"E.	c #412E21",
"F.	c #AA5723",
"G.	c #FEC43B",
"H.	c #E79536",
"I.	c #F2B142",
"J.	c #F29B36",
"K.	c #221122",
"L.	c #E59E2C",
"M.	c #FAAD3C",
"N.	c #FBFA4B",
"O.	c #FFA62A",
"P.	c #2C3725",
"Q.	c #474633",
"R.	c #D79435",
"S.	c #AD551F",
"T.	c #A92C16",
"U.	c #FFE453",
"  . + @ @ # # $ % & * = - ; > , ' ) ! ~ ) { ! = ) ) ~ ] ) ^ / ( _ ) : < [ } | = ",
"1 2 3 4 5 6 7 8 % 9 0 ^ ) ) 0 ; ; ^ ! ! a ! ) b ) ! ) - ' ^ / / _ > c d e f g ! ",
"h i j k l m n o ( p q , r $ @ b ) s t - ! ! ! - ! ) = = = u % / - n v w x = y ^ ",
"z } 4 A B C C D ( % B E F G H I ^ ) ; J { ! ! ! { y { > ^ / % / g K L M N ^ ^ y ",
"O B [ < 6 P F Q / % % / % / R t S ~ _ 0 > ! J ! ! = % / % % ( / T U A R V y W ) ",
"X } A Y [ } < 6 / ( % Z % ( O ` ` `  . . .` ` ` ../ % Z % % / > +.@.D T #.$.%.&.",
"*.=.Y -.;./ >.,.../ ( % Z Z ` `  . . . . . . . .` % Z Z ( ( / '.> ( / ).!.i ~.{.",
"].^./.,.} ( % ..(./ ( % % Z _.` ` ` ` `  .` ` ` _.Z % % ( ( , ! / % / - :.| <.4 ",
") z 7 V <./ % % ( ` / ( % %  .`  . .` ` `  .` `  ._.% % / [./ % % ( , y = @ l ~.",
"I !.}.|.= 1./ ( %  .`  .` ` `  . .` ` [.[.`  . .` `  . .` [.( % / ..~ ) 2.i X A ",
"$.3.}.= 4.!.../ (  .` ` ` ` `  . . .` [.[. . . .` ` [.` ` ` _./ ..g n 5.6.7.A X ",
"@._ 8.9.x `  .` ` ` _.[.[.` `  . . .` ` `  . . .` [.[.[._.` ` ` ` ` 0.#.7.L a.Y ",
"+.y n ~ K  .[.`  .` _.[._._.[. . .` ` `  .`  . .[.[._.[._.`  .` [.` ` B -.6 w !.",
"y ! b.'.n [.` ` ` _._._._._._.[._.c.c.c.c.d._.[._._._.[._._.` `  .` [.~ ^ , e.B ",
"! ) '.'.g [.` [.` _.f._.[.f.f.[._.g.g.g.g.g._.[.f.f.[._.f._.[.[.` [.[.~ ) ~ g = ",
") - '.b.` [.[._.f.f.f.f.f._.f._._.c.g.g.g.c._._.f._.f.f.f.f.f._.[.[.` ` { ] ~ ~ ",
"h.b.b.` ` `  .` [.[._.f.f.f.f.f.f.f.f._.i.f.f.f.f.f.f._._.[._.[. .` ` ` ! g ~ ) ",
") ~ g [.[.[. .` / [._._.f.f.f.f.f.f.f._._.f.f.f.f.f.f._._._.( [. .` [.[.! ) g ! ",
"^ ~ ` ` [.[.[.[.[./ d.% ( / _._.f.f.f.f._.f.f._._._.( ( d./ .._.[.[.[.` ` - > > ",
") b.`  .` [.[._._...d.( % % _.[._._._._._._._.[._._.% ( d.d.[._.[.[.`  .` g g g ",
"g )  . .` [.[.[...j.j.d.../ d.% Z _._.f.f._.Z % j.d...d.d.d.j.[.[.[.[.`  .g g g ",
"g ^ ` ` [.[.[./ ..j.d.d.j.d.d.( % / % % / / % ( j.d.d.d.d.d.j._...[.[.` ` ! g { ",
") b.` `  .` _.% [.j.j.d.j.j.d.d.d.d.d.( / d.d.d.d.c.d.d.j.j.[.[.% ` `  .` _ ! g ",
"g b.` `  . .` ( [.j.j.j.d.j.d.d.d.d.d.d.d.d.c.d.j.d.d.d.d.j.[.[.( `  .` ` g - g ",
"~ ) ` `  . . . .[.j.d.j.d.j.d.d.d.c.c.c.c.d.d.d.d.d.d.j.j.d.[.[. . . .` ` - ! > ",
"y y ` `  . . . .[.j.d.j.d.j.d.d.d.d.c.c.c.d.d.d.d.d.j.j.j.j.[.`  . . .` ` ! ! g ",
"- u = ` ` `  .` / % j.d.j.d.d.d.d.c.c.c.c.c.d.d.d.d.j.j.j.[./ %  . .` ` = = ~ = ",
"^ ~ k.-  .`  .` ( Z d.c.d.d.d.d.d.c.c.g.g.c.c.d.d.d.d.d.[.( / %  .`  .` ) ! { = ",
"~ ^ I ~  .` `  .` _.[.d.j.d.d.d.d.c.c.g.g.c.c.d.d.d.c.d.` ` `  .` ` ` ` { ! g y ",
"y - l.m.` [.[._.`  .` [.j.d.d.d.d.c.g.g.c.c.c.d.c.d.[.[. . . .` _.[.` 0 J ! - ) ",
"g n.y m.` `  .` ` ` ` ` [.j.d.d.d.c.c.c.c.d.c.c.d.j.[.[.` ` ` `  .` ` i o.o.p.! ",
"^ y q.b.` [.`  .[._.` ` [.[./ ( / c.d.c.c.d./ ( / [.[.[.` ` _.` ` [.[.D r.s., ^ ",
"^ ' ) ' [.` [.` `  . .( _._.( % ( d.d.d.d.d.( % ( [._.(  . . .[.` (.[.>.6 e.t.&.",
"~ ) b.g g [.` [. . . . .` % _.Z % _.% ` % _.% Z _.` `  . . . .` [.` [._ u.A v.'.",
"' g g - g g [./ `  .`  . . .[.[.[.` _. .` ` [.[.[.`  . .`  . ./ [.[.w.:.u.x.< v.",
") g g g g g / % (  .`  .[.`  . . .` `  . .`  . . .` [.` `  ._.% / y.1.z.A.^.B.{.",
"^ ' y g b.~ / ( /  .[. .(.` [. . .` ` ` [.`  . .[.` C.[.[.` [.( ..} ;.A #.7 D.J ",
"E.'.0 = g b.g g ) ! ) ) ` [.` ` ` [.) [. .C.` ` ` ` ` ` F.G.5 4 =.} H.I.J.6 e.K.",
"| j 2 0 ^ g ! ! ! ! ! g ! [.` ` [.` ' [.` ` [.` ` [.b o.L.o 4.4.4.K M.V M.J.I.6 ",
"A N.O.P.! ! ! g ! ) g ! b.^ ~ u ' { ^ u ~ u ^ ' y u a #.H o.Q.q.R.:.{.S.T.M.P U."};
