/* XPM */
static char * floor (4th copy)_xpm[] = {
"40 40 260 2",
"  	c #DDB23B",
". 	c #FFBD43",
"+ 	c #E7A93C",
"@ 	c #694717",
"# 	c #A42D17",
"$ 	c #994825",
"% 	c #CD4E1C",
"& 	c #985728",
"* 	c #45452E",
"= 	c #5B4326",
"- 	c #4C3C24",
"; 	c #3B2D1E",
"> 	c #5C3E24",
", 	c #6A4C2C",
"' 	c #634B30",
") 	c #54422A",
"! 	c #523D25",
"~ 	c #5B452A",
"{ 	c #533F2A",
"] 	c #5D4931",
"^ 	c #5D492C",
"/ 	c #4B3623",
"( 	c #862818",
"_ 	c #FEEC53",
": 	c #FEF356",
"< 	c #FFF559",
"[ 	c #7B4D25",
"} 	c #E9AE32",
"| 	c #8D4B1B",
"1 	c #B6762C",
"2 	c #FDD44A",
"3 	c #FFDC43",
"4 	c #FFFE55",
"5 	c #FDCD43",
"6 	c #FFC52C",
"7 	c #FBFA4B",
"8 	c #FFB829",
"9 	c #443421",
"0 	c #554432",
"a 	c #4D3E2A",
"b 	c #8C3F21",
"c 	c #FEE446",
"d 	c #FCB33D",
"e 	c #5D4018",
"f 	c #534126",
"g 	c #E3892B",
"h 	c #FEAA32",
"i 	c #D97929",
"j 	c #FC8123",
"k 	c #F67927",
"l 	c #EE8822",
"m 	c #383525",
"n 	c #C95819",
"o 	c #FEC43B",
"p 	c #262A24",
"q 	c #694C25",
"r 	c #CD6826",
"s 	c #2A211A",
"t 	c #7C532C",
"u 	c #62462B",
"v 	c #F46E21",
"w 	c #FEC241",
"x 	c #2D2B2B",
"y 	c #634A2D",
"z 	c #C2652C",
"A 	c #FFFE5B",
"B 	c #FF9B35",
"C 	c #313129",
"D 	c #EA8D2C",
"E 	c #B8551C",
"F 	c #74522C",
"G 	c #8D532B",
"H 	c #F5842C",
"I 	c #FFCC33",
"J 	c #754828",
"K 	c #594531",
"L 	c #523621",
"M 	c #453A24",
"N 	c #D2752C",
"O 	c #FE832C",
"P 	c #493913",
"Q 	c #423B2B",
"R 	c #FF732D",
"S 	c #FDA533",
"T 	c #FDD344",
"U 	c #844322",
"V 	c #E38B31",
"W 	c #FE7A2B",
"X 	c #F7561A",
"Y 	c #FFFF63",
"Z 	c #EB5617",
"` 	c #E8822F",
" .	c #CD9B33",
"..	c #F89729",
"+.	c #835A31",
"@.	c #FD9B2C",
"#.	c #FC8B30",
"$.	c #FF7523",
"%.	c #FC671A",
"&.	c #FFCB3E",
"*.	c #FE9333",
"=.	c #EE5423",
"-.	c #6D5126",
";.	c #8C622C",
">.	c #322722",
",.	c #F4C739",
"'.	c #EC772A",
").	c #B54A22",
"!.	c #693B1A",
"~.	c #7A4C2B",
"{.	c #ED7623",
"].	c #FE942D",
"^.	c #FEA238",
"/.	c #FFDC50",
"(.	c #CD3615",
"_.	c #C95624",
":.	c #552623",
"<.	c #833118",
"[.	c #CE7A29",
"}.	c #DEB6DE",
"|.	c #E6C6E6",
"1.	c #5A006A",
"2.	c #52006A",
"3.	c #6E5032",
"4.	c #FE6422",
"5.	c #FEEB4E",
"6.	c #FFEB43",
"7.	c #D95521",
"8.	c #F5A637",
"9.	c #DE4216",
"0.	c #FEDA4C",
"a.	c #FC7919",
"b.	c #7E281C",
"c.	c #AC59A4",
"d.	c #830494",
"e.	c #73047B",
"f.	c #62046A",
"g.	c #5A048B",
"h.	c #6A4524",
"i.	c #FF9225",
"j.	c #E76726",
"k.	c #9C5DAC",
"l.	c #A44CA4",
"m.	c #B461C5",
"n.	c #94189C",
"o.	c #73009C",
"p.	c #624426",
"q.	c #4D4026",
"r.	c #6D3D24",
"s.	c #A46630",
"t.	c #FEE24D",
"u.	c #F79135",
"v.	c #AC48BD",
"w.	c #8B24A4",
"x.	c #412E21",
"y.	c #423D30",
"z.	c #FF7733",
"A.	c #FD8B2D",
"B.	c #AD551F",
"C.	c #2C3725",
"D.	c #F2B142",
"E.	c #9C48C5",
"F.	c #9B632D",
"G.	c #FEB735",
"H.	c #795125",
"I.	c #E4832B",
"J.	c #DD5A21",
"K.	c #9C59C5",
"L.	c #A4248B",
"M.	c #FF8630",
"N.	c #AC59BD",
"O.	c #8310AC",
"P.	c #665328",
"Q.	c #6B3723",
"R.	c #94089C",
"S.	c #FE8824",
"T.	c #A34625",
"U.	c #9428A4",
"V.	c #B96B2D",
"W.	c #4C412A",
"X.	c #694A31",
"Y.	c #B45DAC",
"Z.	c #94206A",
"`.	c #7B005A",
" +	c #734D2B",
".+	c #E79536",
"++	c #733921",
"@+	c #EF6B18",
"#+	c #7B0C62",
"$+	c #730041",
"%+	c #F48B2B",
"&+	c #5A291C",
"*+	c #AC4CAC",
"=+	c #A55D2B",
"-+	c #8B6130",
";+	c #B55825",
">+	c #FFAB2E",
",+	c #FE6E23",
"'+	c #FF831F",
")+	c #7F5A30",
"!+	c #F29B36",
"~+	c #635031",
"{+	c #D5A5CD",
"]+	c #730C41",
"^+	c #8B5C2C",
"/+	c #A9672A",
"(+	c #5E4B25",
"_+	c #EC8531",
":+	c #D79435",
"<+	c #BA8023",
"[+	c #BD50BD",
"}+	c #C6752C",
"|+	c #9F6430",
"1+	c #7E4621",
"2+	c #8F5D30",
"3+	c #FFE453",
"4+	c #83542B",
"5+	c #D97931",
"6+	c #C76D30",
"7+	c #BD7732",
"8+	c #7B206A",
"9+	c #B4288B",
"0+	c #A428A4",
"a+	c #704D30",
"b+	c #6E4729",
"c+	c #735130",
"d+	c #F5D64D",
"e+	c #B4388B",
"f+	c #B428A4",
"g+	c #9C28A4",
"h+	c #AC2073",
"i+	c #835127",
"j+	c #C52C6A",
"k+	c #831441",
"l+	c #AC205A",
"m+	c #9C1C4A",
"n+	c #84592E",
"o+	c #92652D",
"p+	c #42372C",
"q+	c #AD6E30",
"r+	c #AA5723",
"s+	c #6E512E",
"t+	c #AD3F22",
"u+	c #712A22",
"v+	c #AC184A",
"w+	c #941441",
"x+	c #5C3620",
"y+	c #474633",
"z+	c #ECB845",
"A+	c #BB4422",
"B+	c #965B2C",
"C+	c #DC8C37",
"D+	c #FAAD3C",
"E+	c #DF3322",
"F+	c #D86B27",
"G+	c #221122",
"H+	c #874B28",
"I+	c #E59E2C",
"J+	c #FFA62A",
"K+	c #A92C16",
"  . + @ @ # # $ % & * = - ; > , ' ) ! ~ ) { ! = ) ) ~ ] ) ^ / ! / ) ( _ : < [ = ",
"} | 1 2 3 4 5 6 7 8 9 ^ ) ) 9 ; ; ^ ! ! 0 ! ) a ) ! ) - ' ^ , ! / > b c d e f ! ",
"g h i j k l m n o p q , r $ @ a ) s t - ! ! ! - ! ) = = = u > - - m v w x = y ^ ",
"z < 2 A B C C D E F B G H I J K ^ ) ; L { ! ! ! { y { > ^ = M ! f N O P Q ^ ^ y ",
"R B : _ 4 S H T U V W X : Y Z t ` ~ / 9 > ! L ! ! = / = > - - >  ...A Z V y +.) ",
"@.< A #.: < _ 4 $.%.&.A A *.R =.-.;.^ M f = / { ! y y = { , m > >.,.D  .'.).!.~.",
"{.].#.^./._ Y (.4 4 _.:.<.#.A [.=.-.}.|.1.2.t L ! ! ^ ^ ~ y 3.M > p u U 4.h 5.6.",
"7.8.9.(.< 0.^.a._ b.f ) f - U a.< c.|.d.e.e.f.g.u / / K y y , ! - y , - h.[ i.2 ",
") z 5 V i.w * j.5./ f F f ) 9 U k.l.m.n.e.o.o.g.= { = ^ f ^ > p.- q., y = @ k 5.",
"K 4.r.s.= t.X d &.a./ h.O * u.!.k.l.l.v.w.o.o.o.g./ x.9 9 9 9 L > = ~ ) y.h @.A ",
").z.r.= A.4.: '.B.6.%.- f C.7.D.E.v.E.E.w.o.o.o.o.- 9 m 9 / > = = f m F.G.%.A @.",
",./ H.I.x S < J.) J.5.U ~ X 8 K.E.E.E.E.L.o.o.o.o.9 f f = f f f ) a M.'.%.O $.#.",
">.y m ~ N *.Y G.J...T # a...A N.v.v.E.E.L.d.O.d.o.f ) q.q.^ P.~ y f B B ^.4 w 4.",
"y ! q.M m ) b I < Y i.< 4 B.Q.E.v.N.v.E.L.w.R.R.d.M F ! = ~ y ^ ^ M a ~ ^ , =.B ",
"! ) M M f y 1 r S.d T.5.A n :.v.N.N.N.E.U.R.L.L.n.V.M > = f ~ W.) ^ = ~ ) ~ f = ",
") - M q.) y F.X.3.j.c 4 n a.Y l.N.Y.N.}.U.d.Z.`.`. += = q.M f q.M - - > { ] ~ ~ ",
"W.q.q.M M u , y q K .+4 ++@+A l.Y.Y.}.}.U.#+Z.`.$+= / = & = ! ) f - - ! ! f ~ ) ",
") ~ f q.~ ) = y ) & 4._ 4 %+&+*+Y.|.}.}.w.#+L.`.$+- G =+O p.- t y y - - ! ) f ! ",
"^ ~ F -+f = ^ ) ;+>+t.,+'+M y Y.}.}.}.}.w.#+L.#+$+~ F F.f = y ^ y ) - ! ! - > > ",
") q.~ , )+= = y $.Y t.!+M f > ~+{+}.}.v.w.#+L.]+a ^ , ^+/+^ y = = = (+M - f f f ",
"f ) q.~ ^ +.a - M _+'.:+$.<+C.T.{+}.[+v.w.#+L.]+) p. +- ~ ~ f ^ ^ = ~ ! ! f f f ",
"f ^ - a }+y ~ y |+1+B _ j j W &.{+[+[+v.w.U.`.$+M = p.! = y (+/ f f ~ - ! ! f { ",
") q.~ ~ }+2+y W.+.r 2 3+< Y A i.j l.[+w.d.U.`.$+) - u 4+^ - > - ! / ! f ! / ! f ",
"f q.F.5+u u ^ ^ ^ 6+T 3+_ )..+'+7+l.[+w.d.U.`.8+q.! y u u ^ f ! ! / ^ / f f - f ",
"~ ) ~ s.4+) K q.3.+.$._ b.-.D *.W Z.9+0+U.U.$+y t a+~ ~ ~ ! = b+q.~ ~ G - - ! > ",
"y y F t q p.^ c+y +.$.d+V #.0.A *.e+9+f+g+g+`.~.+.^ y ^ - - / ^ H.G G ~.y ! ! f ",
"- u = > ) ^ ^ )+y t h A d+0._ 0.o r h+9+0+#+8+ + +) ^ ^ ~ u i+=+Q.G { ' = = ~ = ",
"^ ~ X.- a ^ ~ ) ~ ^ Q ..2 < 5 4 3 o h+j+9+Z.k+^ ^ ^ = X.9 9 ^ , b+, , ~ ) ! { = ",
"~ ^ K ~ - Q W.) ~ ' ) ;.S.$.S.$.B >.l+j+h+m+k+q.) ~ y , M ^ f u p., , ) { ! f y ",
"y - b+n+N 5+|+o+|+) y a I ].[.> m ~ l+j+h+k+b+u ^ b+] ^ / = , p+Q o+9 9 L ! - ) ",
"f 3.y n+^ q+^+s.<+^ F y x F Q q.- ~ ) l+j+k+p.J b+^ ' , > ^ m j.S A.r+h q+q+ +! ",
"^ y ~+q.s+n+s.)+t f f f f = ) f f ~ q.l+j+k+y > 1+h.h.1+) L A.A.} 5+0.D t+u+, ^ ",
"^ ' ) ' f ) ) 5+F.-+f ! - - q.- f = ^ v+v+w+y = = ) ! K W.;+*.5+r.5+_ Y 4 =.x+~.",
"~ ) q.f f q.q.y ^ s+) M f , f M , y s+, y ) = ' ' ] ' y+i .+z+G ' J..+/ ++A A+M ",
"' f f - f f q.~ y ^ y y ~ F B+F - = y y , 6+~.] ~ ^ ) -+4.C+Y _.~.{.j.h.++d+_ A+",
") f f f f f ! - - 3.~ ~+F F f ^ ! f ^ p.q 4+q y = ) y B+D+5.{.].$.0.t.S.%+8.E+6.",
"^ ' y f q.~ = , ) = ! ) ) - f f ^ p.y ^ a /+) y > = y.F+#.$ ).5 d < /.A '.5 &.L ",
"x.M 9 = f q.f f ) ! ) ) ! f f f = 4+) y V.^ ^ ] ' K ~.I.r+o 3 2 ].< .+D.!+4 =.G+",
"[ i | 9 ^ f ! ! ! ! ! f ! ) f = u f ' ~.H+, ' y ~ { a q+I+n A.A.A.N D+V D+!+D.4 ",
"A 7 J+C.! ! ! f ! ) f ! q.^ ~ u ' { ^ u ~ u ^ ' y u 0 '.J q+y+~+:+h.6.B.K+D+S 3+"};
