/* XPM */
static char * floor (another copy)_xpm[] = {
"40 40 268 2",
"  	c #DDB23B",
". 	c #FFBD43",
"+ 	c #E7A93C",
"@ 	c #694717",
"# 	c #A42D17",
"$ 	c #994825",
"% 	c #CD4E1C",
"& 	c #985728",
"* 	c #45452E",
"= 	c #5B4326",
"- 	c #4C3C24",
"; 	c #3B2D1E",
"> 	c #5C3E24",
", 	c #6A4C2C",
"' 	c #634B30",
") 	c #54422A",
"! 	c #523D25",
"~ 	c #5B452A",
"{ 	c #533F2A",
"] 	c #5D4931",
"^ 	c #5D492C",
"/ 	c #4B3623",
"( 	c #862818",
"_ 	c #FEEC53",
": 	c #FEF356",
"< 	c #FFF559",
"[ 	c #7B4D25",
"} 	c #E9AE32",
"| 	c #8D4B1B",
"1 	c #B6762C",
"2 	c #FDD44A",
"3 	c #FFDC43",
"4 	c #FFFE55",
"5 	c #FDCD43",
"6 	c #FFC52C",
"7 	c #FBFA4B",
"8 	c #FFB829",
"9 	c #443421",
"0 	c #554432",
"a 	c #4D3E2A",
"b 	c #8C3F21",
"c 	c #FEE446",
"d 	c #FCB33D",
"e 	c #5D4018",
"f 	c #534126",
"g 	c #E3892B",
"h 	c #FEAA32",
"i 	c #D97929",
"j 	c #FC8123",
"k 	c #F67927",
"l 	c #EE8822",
"m 	c #383525",
"n 	c #C95819",
"o 	c #FEC43B",
"p 	c #262A24",
"q 	c #694C25",
"r 	c #CD6826",
"s 	c #2A211A",
"t 	c #7C532C",
"u 	c #62462B",
"v 	c #F46E21",
"w 	c #FEC241",
"x 	c #2D2B2B",
"y 	c #634A2D",
"z 	c #C2652C",
"A 	c #FFFE5B",
"B 	c #FF9B35",
"C 	c #313129",
"D 	c #EA8D2C",
"E 	c #B8551C",
"F 	c #74522C",
"G 	c #8D532B",
"H 	c #F5842C",
"I 	c #FFCC33",
"J 	c #754828",
"K 	c #594531",
"L 	c #523621",
"M 	c #453A24",
"N 	c #D2752C",
"O 	c #FE832C",
"P 	c #493913",
"Q 	c #423B2B",
"R 	c #FF732D",
"S 	c #FDA533",
"T 	c #FDD344",
"U 	c #844322",
"V 	c #E38B31",
"W 	c #FE7A2B",
"X 	c #F7561A",
"Y 	c #FFFF63",
"Z 	c #EB5617",
"` 	c #E8822F",
" .	c #CD9B33",
"..	c #F89729",
"+.	c #835A31",
"@.	c #FD9B2C",
"#.	c #FC8B30",
"$.	c #FF7523",
"%.	c #FC671A",
"&.	c #FFCB3E",
"*.	c #FE9333",
"=.	c #EE5423",
"-.	c #6D5126",
";.	c #8C622C",
">.	c #322722",
",.	c #F4C739",
"'.	c #EC772A",
").	c #B54A22",
"!.	c #693B1A",
"~.	c #7A4C2B",
"{.	c #ED7623",
"].	c #FE942D",
"^.	c #FEA238",
"/.	c #FFDC50",
"(.	c #CD3615",
"_.	c #C95624",
":.	c #552623",
"<.	c #833118",
"[.	c #CE7A29",
"}.	c #835DCD",
"|.	c #6E5032",
"1.	c #FE6422",
"2.	c #FEEB4E",
"3.	c #FFEB43",
"4.	c #D95521",
"5.	c #F5A637",
"6.	c #DE4216",
"7.	c #FEDA4C",
"8.	c #FC7919",
"9.	c #7E281C",
"0.	c #8B71D5",
"a.	c #AC79BD",
"b.	c #6A48CD",
"c.	c #C5B6DE",
"d.	c #BDAEDE",
"e.	c #965B2C",
"f.	c #6A4524",
"g.	c #FF9225",
"h.	c #E76726",
"i.	c #624426",
"j.	c #4D4026",
"k.	c #6D3D24",
"l.	c #A46630",
"m.	c #FEE24D",
"n.	c #F79135",
"o.	c #A475D5",
"p.	c #D5C2EE",
"q.	c #52045A",
"r.	c #412E21",
"s.	c #423D30",
"t.	c #FF7733",
"u.	c #FD8B2D",
"v.	c #AD551F",
"w.	c #2C3725",
"x.	c #9461B4",
"y.	c #8348CD",
"z.	c #9C59C5",
"A.	c #9B632D",
"B.	c #FEB735",
"C.	c #795125",
"D.	c #E4832B",
"E.	c #DD5A21",
"F.	c #E6C6E6",
"G.	c #945DCD",
"H.	c #FF8630",
"I.	c #DEB6DE",
"J.	c #9C48C5",
"K.	c #B461C5",
"L.	c #52006A",
"M.	c #665328",
"N.	c #6B3723",
"O.	c #A4248B",
"P.	c #AC48BD",
"Q.	c #7B107B",
"R.	c #FE8824",
"S.	c #A34625",
"T.	c #BD79D5",
"U.	c #8B24A4",
"V.	c #C56DC5",
"W.	c #BD50BD",
"X.	c #7B0C62",
"Y.	c #73047B",
"Z.	c #B96B2D",
"`.	c #4C412A",
" +	c #694A31",
".+	c #94189C",
"++	c #734D2B",
"@+	c #E79536",
"#+	c #733921",
"$+	c #EF6B18",
"%+	c #9C44AC",
"&+	c #F48B2B",
"*+	c #5A291C",
"=+	c #9C28A4",
"-+	c #A55D2B",
";+	c #8B6130",
">+	c #B55825",
",+	c #FFAB2E",
"'+	c #FE6E23",
")+	c #FF831F",
"!+	c #A428A4",
"~+	c #AC34AC",
"{+	c #52004A",
"]+	c #7F5A30",
"^+	c #F29B36",
"/+	c #635031",
"(+	c #B428A4",
"_+	c #B4388B",
":+	c #8B5C2C",
"<+	c #A9672A",
"[+	c #5E4B25",
"}+	c #EC8531",
"|+	c #D79435",
"1+	c #BA8023",
"2+	c #AC40AC",
"3+	c #940C7B",
"4+	c #7B207B",
"5+	c #C6752C",
"6+	c #9F6430",
"7+	c #7E4621",
"8+	c #B4288B",
"9+	c #94206A",
"0+	c #8F5D30",
"a+	c #FFE453",
"b+	c #942873",
"c+	c #83542B",
"d+	c #D97931",
"e+	c #C76D30",
"f+	c #BD7732",
"g+	c #AC2073",
"h+	c #7B206A",
"i+	c #B4187B",
"j+	c #704D30",
"k+	c #6E4729",
"l+	c #735130",
"m+	c #F5D64D",
"n+	c #AC1862",
"o+	c #943473",
"p+	c #AC349C",
"q+	c #835127",
"r+	c #AC044A",
"s+	c #940041",
"t+	c #B4047B",
"u+	c #84592E",
"v+	c #92652D",
"w+	c #BD044A",
"x+	c #5A0031",
"y+	c #42372C",
"z+	c #AD6E30",
"A+	c #AA5723",
"B+	c #6E512E",
"C+	c #AC184A",
"D+	c #AD3F22",
"E+	c #712A22",
"F+	c #5C3620",
"G+	c #474633",
"H+	c #ECB845",
"I+	c #BB4422",
"J+	c #DC8C37",
"K+	c #FAAD3C",
"L+	c #DF3322",
"M+	c #D86B27",
"N+	c #F2B142",
"O+	c #221122",
"P+	c #874B28",
"Q+	c #E59E2C",
"R+	c #FFA62A",
"S+	c #A92C16",
"  . + @ @ # # $ % & * = - ; > , ' ) ! ~ ) { ! = ) ) ~ ] ) ^ / ! / ) ( _ : < [ = ",
"} | 1 2 3 4 5 6 7 8 9 ^ ) ) 9 ; ; ^ ! ! 0 ! ) a ) ! ) - ' ^ , ! / > b c d e f ! ",
"g h i j k l m n o p q , r $ @ a ) s t - ! ! ! - ! ) = = = u > - - m v w x = y ^ ",
"z < 2 A B C C D E F B G H I J K ^ ) ; L { ! ! ! { y { > ^ = M ! f N O P Q ^ ^ y ",
"R B : _ 4 S H T U V W X : Y Z t ` ~ / 9 > ! L ! ! = / = > - - >  ...A Z V y +.) ",
"@.< A #.: < _ 4 $.%.&.A A *.R =.-.;.^ M f = / { ! y y = { , m > >.,.D  .'.).!.~.",
"{.].#.^./._ Y (.4 4 _.:.<.#.A [.=.-.}.}.}.}.t L ! ! ^ ^ ~ y |.M > p u U 1.h 2.3.",
"4.5.6.(.< 7.^.8._ 9.f ) f - U 8.0.a.}.b.b.c.d.e.u / / K y y , ! - y , - f.[ g.2 ",
") z 5 V g.w * h.2./ f F f ) 9 0.a.}.b.b.c.c.d.) = { = ^ f ^ > i.- j., y = @ k 2.",
"K 1.k.l.= m.X d &.8./ f.O * n.o.p.}.b.c.c.c.p.q.> / r.9 9 9 9 L > = ~ ) s.h @.A ",
").t.k.= u.1.: '.v.3.%.- f w.4.c.p.x.c.c.c.c.y.z.9 - 9 m 9 / > = = f m A.B.%.A @.",
",./ C.D.x S < E.) E.2.U ~ X 8 c.F.p.c.c.c.y.y.G./ 9 f f = f f f ) a H.'.%.O $.#.",
">.y m ~ N *.Y B.E...T # 8...A c.F.I.I.I.J.J.J.K.L.f ) j.j.^ M.~ y f B B ^.4 w 1.",
"y ! j.M m ) b I < Y g.< 4 v.N.I.O.O.F.J.J.J.P.K.Q.M F ! = ~ y ^ ^ M a ~ ^ , =.B ",
"! ) M M f y 1 r R.d S.2.A n :.T.O.U.O.V.V.W.V.X.Y.Z.M > = f ~ `.) ^ = ~ ) ~ f = ",
") - M j.) y A. +|.h.c 4 n 8.Y .+O.O.U.U.O.V.X.X.Y.++= = j.M f j.M - - > { ] ~ ~ ",
"`.j.j.M M u , y q K @+4 #+$+A .+O.O.U.U.%+X.X.X.Q.= / = & = ! ) f - - ! ! f ~ ) ",
") ~ f j.~ ) = y ) & 1._ 4 &+*+U.=+O.U.U.%+Y.X.X.Q.- G -+O i.- t y y - - ! ) f ! ",
"^ ~ F ;+f = ^ ) >+,+m.'+)+M y U.!+O.O.O.~+Y.Y..+{+~ F A.f = y ^ y ) - ! ! - > > ",
") j.~ , ]+= = y $.Y m.^+M f > /+=+(+O.O._+X.X.Q.a ^ , :+<+^ y = = = [+M - f f f ",
"f ) j.~ ^ +.a - M }+'.|+$.1+w.S.!+(+(+!+2+X.3+4+) i.++- ~ ~ f ^ ^ = ~ ! ! f f f ",
"f ^ - a 5+y ~ y 6+7+B _ j j W &.8+(+(+!+2+Q.9+{+M = i.! = y [+/ f f ~ - ! ! f { ",
") j.~ ~ 5+0+y `.+.r 2 a+< Y A g.j O.(+O.2+Q.b+{+) - u c+^ - > - ! / ! f ! / ! f ",
"f j.A.d+u u ^ ^ ^ e+T a+_ ).@+)+f+g+O.O.2+Q.h+) j.! y u u ^ f ! ! / ^ / f f - f ",
"~ ) ~ l.c+) K j.|.+.$._ 9.-.D *.W i+O.9+%+h+{+y t j+~ ~ ~ ! = k+j.~ ~ G - - ! > ",
"y y F t q i.^ l+y +.$.m+V #.7.A *.n+g+9+o+h+{+~.+.^ y ^ - - / ^ C.G G ~.y ! ! f ",
"- u = > ) ^ ^ ]+y t h A m+7._ 7.o p+g+9+o+h+{+++++) ^ ^ ~ u q+-+N.G { ' = = ~ = ",
"^ ~  +- a ^ ~ ) ~ ^ Q ..2 < 5 4 3 p+r+s+9+{+y ^ ^ ^ =  +9 9 ^ , k+, , ~ ) ! { = ",
"~ ^ K ~ - Q `.) ~ ' ) ;.R.$.R.$.B i+t+r+g+{+F j.) ~ y , M ^ f u i., , ) { ! f y ",
"y - k+u+N d+6+v+6+) y a I ].[.> m ~ r+w+g+x+k+u ^ k+] ^ / = , y+Q v+9 9 L ! - ) ",
"f |.y u+^ z+:+l.1+^ F y x F Q j.- ~ w+w+n+y i.J k+^ ' , > ^ m h.S u.A+h z+z+++! ",
"^ y /+j.B+u+l.]+t f f f f = ) f f ~ i+w+C+! y > 7+f.f.7+) L u.u.} d+7.D D+E+, ^ ",
"^ ' ) ' f ) ) d+A.;+f ! - - j.- f = ^ w+C+f y = = ) ! K `.>+*.d+k.d+_ Y 4 =.F+~.",
"~ ) j.f f j.j.y ^ B+) M f , f M , y B+, y ) = ' ' ] ' G+i @+H+G ' E.@+/ #+A I+M ",
"' f f - f f j.~ y ^ y y ~ F e.F - = y y , e+~.] ~ ^ ) ;+1.J+Y _.~.{.h.f.#+m+_ I+",
") f f f f f ! - - |.~ /+F F f ^ ! f ^ i.q c+q y = ) y e.K+2.{.].$.7.m.R.&+5.L+3.",
"^ ' y f j.~ = , ) = ! ) ) - f f ^ i.y ^ a <+) y > = s.M+#.$ ).5 d < /.A '.5 &.L ",
"r.M 9 = f j.f f ) ! ) ) ! f f f = c+) y Z.^ ^ ] ' K ~.D.A+o 3 2 ].< @+N+^+4 =.O+",
"[ i | 9 ^ f ! ! ! ! ! f ! ) f = u f ' ~.P+, ' y ~ { a z+Q+n u.u.u.N K+V K+^+N+4 ",
"A 7 R+w.! ! ! f ! ) f ! j.^ ~ u ' { ^ u ~ u ^ ' y u 0 '.J z+G+/+|+f.3.v.S+K+S a+"};
