/* XPM */
static char * floor (10th copy)_xpm[] = {
"40 40 267 2",
"  	c #DDB23B",
". 	c #FFBD43",
"+ 	c #E7A93C",
"@ 	c #694717",
"# 	c #A42D17",
"$ 	c #994825",
"% 	c #CD4E1C",
"& 	c #985728",
"* 	c #45452E",
"= 	c #5B4326",
"- 	c #4C3C24",
"; 	c #3B2D1E",
"> 	c #5C3E24",
", 	c #6A4C2C",
"' 	c #634B30",
") 	c #54422A",
"! 	c #523D25",
"~ 	c #5B452A",
"{ 	c #533F2A",
"] 	c #5D4931",
"^ 	c #5D492C",
"/ 	c #4B3623",
"( 	c #862818",
"_ 	c #FEEC53",
": 	c #FEF356",
"< 	c #FFF559",
"[ 	c #7B4D25",
"} 	c #E9AE32",
"| 	c #8D4B1B",
"1 	c #B6762C",
"2 	c #FDD44A",
"3 	c #FFDC43",
"4 	c #FFFE55",
"5 	c #FDCD43",
"6 	c #FFC52C",
"7 	c #FBFA4B",
"8 	c #FFB829",
"9 	c #443421",
"0 	c #554432",
"a 	c #4D3E2A",
"b 	c #8C3F21",
"c 	c #FEE446",
"d 	c #FCB33D",
"e 	c #5D4018",
"f 	c #534126",
"g 	c #E3892B",
"h 	c #FEAA32",
"i 	c #D97929",
"j 	c #FC8123",
"k 	c #F67927",
"l 	c #EE8822",
"m 	c #383525",
"n 	c #C95819",
"o 	c #FEC43B",
"p 	c #262A24",
"q 	c #694C25",
"r 	c #CD6826",
"s 	c #2A211A",
"t 	c #7C532C",
"u 	c #62462B",
"v 	c #F46E21",
"w 	c #FEC241",
"x 	c #2D2B2B",
"y 	c #634A2D",
"z 	c #C2652C",
"A 	c #FFFE5B",
"B 	c #FF9B35",
"C 	c #313129",
"D 	c #EA8D2C",
"E 	c #B8551C",
"F 	c #74522C",
"G 	c #8D532B",
"H 	c #F5842C",
"I 	c #FFCC33",
"J 	c #754828",
"K 	c #594531",
"L 	c #523621",
"M 	c #453A24",
"N 	c #D2752C",
"O 	c #FE832C",
"P 	c #493913",
"Q 	c #423B2B",
"R 	c #FF732D",
"S 	c #FDA533",
"T 	c #FDD344",
"U 	c #844322",
"V 	c #E38B31",
"W 	c #FE7A2B",
"X 	c #F7561A",
"Y 	c #FFFF63",
"Z 	c #EB5617",
"` 	c #E8822F",
" .	c #CD9B33",
"..	c #F89729",
"+.	c #835A31",
"@.	c #FD9B2C",
"#.	c #FC8B30",
"$.	c #FF7523",
"%.	c #FC671A",
"&.	c #FFCB3E",
"*.	c #FE9333",
"=.	c #EE5423",
"-.	c #6D5126",
";.	c #8C622C",
">.	c #322722",
",.	c #F4C739",
"'.	c #EC772A",
").	c #B54A22",
"!.	c #693B1A",
"~.	c #7A4C2B",
"{.	c #ED7623",
"].	c #FE942D",
"^.	c #FEA238",
"/.	c #FFDC50",
"(.	c #CD3615",
"_.	c #C95624",
":.	c #552623",
"<.	c #833118",
"[.	c #CE7A29",
"}.	c #C5B6DE",
"|.	c #9461B4",
"1.	c #6E5032",
"2.	c #FE6422",
"3.	c #FEEB4E",
"4.	c #FFEB43",
"5.	c #D95521",
"6.	c #F5A637",
"7.	c #DE4216",
"8.	c #FEDA4C",
"9.	c #FC7919",
"0.	c #7E281C",
"a.	c #8359AC",
"b.	c #9C6DBD",
"c.	c #7B206A",
"d.	c #6A4524",
"e.	c #FF9225",
"f.	c #E76726",
"g.	c #C76D30",
"h.	c #9C5DAC",
"i.	c #8348CD",
"j.	c #7B107B",
"k.	c #52045A",
"l.	c #624426",
"m.	c #4D4026",
"n.	c #6D3D24",
"o.	c #A46630",
"p.	c #FEE24D",
"q.	c #F79135",
"r.	c #A475D5",
"s.	c #6A48CD",
"t.	c #B461C5",
"u.	c #5A006A",
"v.	c #52006A",
"w.	c #412E21",
"x.	c #423D30",
"y.	c #FF7733",
"z.	c #FD8B2D",
"A.	c #AD551F",
"B.	c #2C3725",
"C.	c #F2B142",
"D.	c #835DCD",
"E.	c #5A048B",
"F.	c #62046A",
"G.	c #9B632D",
"H.	c #FEB735",
"I.	c #795125",
"J.	c #E4832B",
"K.	c #DD5A21",
"L.	c #8348AC",
"M.	c #73047B",
"N.	c #4A048B",
"O.	c #FF8630",
"P.	c #410C73",
"Q.	c #665328",
"R.	c #6B3723",
"S.	c #5A291C",
"T.	c #AC59A4",
"U.	c #9C48C5",
"V.	c #945DCD",
"W.	c #830494",
"X.	c #7B0C62",
"Y.	c #FE8824",
"Z.	c #A34625",
"`.	c #9C4B23",
" +	c #AC34AC",
".+	c #4C412A",
"++	c #694A31",
"@+	c #9C44AC",
"#+	c #C56DC5",
"$+	c #BD50BD",
"%+	c #AC48BD",
"&+	c #E79536",
"*+	c #733921",
"=+	c #EF6B18",
"-+	c #B4388B",
";+	c #F48B2B",
">+	c #A9672A",
",+	c #FFB42B",
"'+	c #B4149C",
")+	c #B428A4",
"!+	c #940C7B",
"~+	c #730C41",
"{+	c #A55D2B",
"]+	c #8B6130",
"^+	c #B55825",
"/+	c #FFAB2E",
"(+	c #FE6E23",
"_+	c #FF831F",
":+	c #C53073",
"<+	c #7F5A30",
"[+	c #F29B36",
"}+	c #635031",
"|+	c #AC40AC",
"1+	c #B4187B",
"2+	c #8B5C2C",
"3+	c #5E4B25",
"4+	c #EC8531",
"5+	c #D79435",
"6+	c #BA8023",
"7+	c #7B005A",
"8+	c #734D2B",
"9+	c #C6752C",
"0+	c #9F6430",
"a+	c #7E4621",
"b+	c #8F5D30",
"c+	c #FFE453",
"d+	c #AC1083",
"e+	c #83542B",
"f+	c #D97931",
"g+	c #BD7732",
"h+	c #AC349C",
"i+	c #AC1862",
"j+	c #94189C",
"k+	c #941441",
"l+	c #730041",
"m+	c #704D30",
"n+	c #6E4729",
"o+	c #735130",
"p+	c #F5D64D",
"q+	c #835127",
"r+	c #C52C6A",
"s+	c #84592E",
"t+	c #92652D",
"u+	c #AC184A",
"v+	c #42372C",
"w+	c #AD6E30",
"x+	c #AA5723",
"y+	c #6E512E",
"z+	c #AC0862",
"A+	c #AD3F22",
"B+	c #712A22",
"C+	c #AC2C6A",
"D+	c #5C3620",
"E+	c #474633",
"F+	c #ECB845",
"G+	c #BB4422",
"H+	c #965B2C",
"I+	c #DC8C37",
"J+	c #FAAD3C",
"K+	c #DF3322",
"L+	c #D86B27",
"M+	c #B96B2D",
"N+	c #221122",
"O+	c #874B28",
"P+	c #E59E2C",
"Q+	c #FFA62A",
"R+	c #A92C16",
"  . + @ @ # # $ % & * = - ; > , ' ) ! ~ ) { ! = ) ) ~ ] ) ^ / ! / ) ( _ : < [ = ",
"} | 1 2 3 4 5 6 7 8 9 ^ ) ) 9 ; ; ^ ! ! 0 ! ) a ) ! ) - ' ^ , ! / > b c d e f ! ",
"g h i j k l m n o p q , r $ @ a ) s t - ! ! ! - ! ) = = = u > - - m v w x = y ^ ",
"z < 2 A B C C D E F B G H I J K ^ ) ; L { ! ! ! { y { > ^ = M ! f N O P Q ^ ^ y ",
"R B : _ 4 S H T U V W X : Y Z t ` ~ / 9 > ! L ! ! = / = > - - >  ...A Z V y +.) ",
"@.< A #.: < _ 4 $.%.&.A A *.R =.-.;.^ M f = / { ! y y = { , m > >.,.D  .'.).!.~.",
"{.].#.^./._ Y (.4 4 _.:.<.#.A [.=.-.f }.|.|.t L ! ! ^ ^ ~ y 1.M > p u U 2.h 3.4.",
"5.6.7.(.< 8.^.9._ 0.f ) f - U 9.< F ^ a.b.b.|.c.u / / K y y , ! - y , - d.[ e.2 ",
") z 5 V e.w * f.3./ f F f ) 9 U 8.g.h.i.|.|.j.k.= { = ^ f ^ > l.- m., y = @ k 3.",
"K 2.n.o.= p.X d &.9./ d.O * q.!._ r.|.s.s.t.u.u.v./ w.9 9 9 9 L > = ~ ) x.h @.A ",
").y.n.= z.2.: '.A.4.%.- f B.5.C._ a.i.D.s.t.E.F.v.- 9 m 9 / > = = f m G.H.%.A @.",
",./ I.J.x S < K.) K.3.U ~ X 8 z.+ L.D.D.|.M.E.E.E.N.f f = f f f ) a O.'.%.O $.#.",
">.y m ~ N *.Y H.K...T # 9...A < 7 L.D.D.|.M.E.M.E.P.) m.m.^ Q.~ y f B B ^.4 w 2.",
"y ! m.M m ) b I < Y e.< 4 A.R.S.T.U.U.V.t.W.M.X.M.E.F ! = ~ y ^ ^ M a ~ ^ , =.B ",
"! ) M M f y 1 r Y.d Z.3.A n :.`. +t.U.U.t.W.X.X.X.F.M > = f ~ .+) ^ = ~ ) ~ f = ",
") - M m.) y G.++1.f.c 4 n 9.Y 8 @+#+$+%+t.W.X.j.X.j.= = m.M f m.M - - > { ] ~ ~ ",
".+m.m.M M u , y q K &+4 *+=+A 3 Y -+#+#+#+W.j.j.X.= / = & = ! ) f - - ! ! f ~ ) ",
") ~ f m.~ ) = y ) & 2._ 4 ;+S.>+,+-+ +'+)+!+j.X.~+- G {+O l.- t y y - - ! ) f ! ",
"^ ~ F ]+f = ^ ) ^+/+p.(+_+M y m.p -+ +'+'+:+X.X.~+~ F G.f = y ^ y ) - ! ! - > > ",
") m.~ , <+= = y $.Y p.[+M f > }+n.|+)+1+1+:+X.X.F.^ , 2+>+^ y = = = 3+M - f f f ",
"f ) m.~ ^ +.a - M 4+'.5+$.6+B.Z.Z |+:+1+1+:+7+7+F.l.8+- ~ ~ f ^ ^ = ~ ! ! f f f ",
"f ^ - a 9+y ~ y 0+a+B _ j j W &.A |+-+1+1+:+7+7+F.= l.! = y 3+/ f f ~ - ! ! f { ",
") m.~ ~ 9+b+y .++.r 2 c+< Y A e.j -+1+1+d+:+7+7+~+- u e+^ - > - ! / ! f ! / ! f ",
"f m.G.f+u u ^ ^ ^ g.T c+_ ).&+_+g+h+i+j+d+h+7+X.F.! y u u ^ f ! ! / ^ / f f - f ",
"~ ) ~ o.e+) K m.1.+.$._ 0.-.D *.W _.k+d+d+h+l+l+~+m+~ ~ ~ ! = n+m.~ ~ G - - ! > ",
"y y F t q l.^ o+y +.$.p+V #.8.A *.A k+k+k+h+l+l+~+^ y ^ - - / ^ I.G G ~.y ! ! f ",
"- u = > ) ^ ^ <+y t h A p+8._ 8.o r k+d+d+h+7+l+8+) ^ ^ ~ u q+{+R.G { ' = = ~ = ",
"^ ~ ++- a ^ ~ ) ~ ^ Q ..2 < 5 4 3 o k+d+d+h+7+l+^ ^ = ++9 9 ^ , n+, , ~ ) ! { = ",
"~ ^ K ~ - Q .+) ~ ' ) ;.Y.$.Y.$.B >.= k+1+r+7+l+) ~ y , M ^ f u l., , ) { ! f y ",
"y - n+s+N f+0+t+0+) y a I ].[.> m ~ a k+u+r+7+l+^ n+] ^ / = , v+Q t+9 9 L ! - ) ",
"f 1.y s+^ w+2+o.6+^ F y x F Q m.- ~ ) k+u+r+l+J n+^ ' , > ^ m f.S z.x+h w+w+8+! ",
"^ y }+m.y+s+o.<+t f f f f = ) f f ~ m.~ z+r+l+> a+d.d.a+) L z.z.} f+8.D A+B+, ^ ",
"^ ' ) ' f ) ) f+G.]+f ! - - m.- f = ^ f C+C+l+= = ) ! K .+^+*.f+n.f+_ Y 4 =.D+~.",
"~ ) m.f f m.m.y ^ y+) M f , f M , y y+, y ) = ' ' ] ' E+i &+F+G ' K.&+/ *+A G+M ",
"' f f - f f m.~ y ^ y y ~ F H+F - = y y , g.~.] ~ ^ ) ]+2.I+Y _.~.{.f.d.*+p+_ G+",
") f f f f f ! - - 1.~ }+F F f ^ ! f ^ l.q e+q y = ) y H+J+3.{.].$.8.p.Y.;+6.K+4.",
"^ ' y f m.~ = , ) = ! ) ) - f f ^ l.y ^ a >+) y > = x.L+#.$ ).5 d < /.A '.5 &.L ",
"w.M 9 = f m.f f ) ! ) ) ! f f f = e+) y M+^ ^ ] ' K ~.J.x+o 3 2 ].< &+C.[+4 =.N+",
"[ i | 9 ^ f ! ! ! ! ! f ! ) f = u f ' ~.O+, ' y ~ { a w+P+n z.z.z.N J+V J+[+C.4 ",
"A 7 Q+B.! ! ! f ! ) f ! m.^ ~ u ' { ^ u ~ u ^ ' y u 0 '.J w+E+}+5+d.4.A.R+J+S c+"};
