/* XPM */
static char * floor (6th copy)_xpm[] = {
"40 40 254 2",
"  	c #DDB23B",
". 	c #FFBD43",
"+ 	c #E7A93C",
"@ 	c #694717",
"# 	c #A42D17",
"$ 	c #994825",
"% 	c #CD4E1C",
"& 	c #985728",
"* 	c #45452E",
"= 	c #5B4326",
"- 	c #4C3C24",
"; 	c #3B2D1E",
"> 	c #5C3E24",
", 	c #6A4C2C",
"' 	c #634B30",
") 	c #54422A",
"! 	c #523D25",
"~ 	c #5B452A",
"{ 	c #533F2A",
"] 	c #5D4931",
"^ 	c #5D492C",
"/ 	c #4B3623",
"( 	c #862818",
"_ 	c #FEEC53",
": 	c #FEF356",
"< 	c #FFF559",
"[ 	c #7B4D25",
"} 	c #E9AE32",
"| 	c #8D4B1B",
"1 	c #B6762C",
"2 	c #FDD44A",
"3 	c #FFDC43",
"4 	c #FFFE55",
"5 	c #FDCD43",
"6 	c #FFC52C",
"7 	c #FBFA4B",
"8 	c #FFB829",
"9 	c #443421",
"0 	c #554432",
"a 	c #4D3E2A",
"b 	c #8C3F21",
"c 	c #FEE446",
"d 	c #FCB33D",
"e 	c #5D4018",
"f 	c #534126",
"g 	c #E3892B",
"h 	c #FEAA32",
"i 	c #D97929",
"j 	c #FC8123",
"k 	c #F67927",
"l 	c #EE8822",
"m 	c #383525",
"n 	c #C95819",
"o 	c #FEC43B",
"p 	c #262A24",
"q 	c #694C25",
"r 	c #CD6826",
"s 	c #2A211A",
"t 	c #7C532C",
"u 	c #62462B",
"v 	c #F46E21",
"w 	c #FEC241",
"x 	c #2D2B2B",
"y 	c #634A2D",
"z 	c #C2652C",
"A 	c #FFFE5B",
"B 	c #FF9B35",
"C 	c #313129",
"D 	c #EA8D2C",
"E 	c #B8551C",
"F 	c #74522C",
"G 	c #8D532B",
"H 	c #F5842C",
"I 	c #FFCC33",
"J 	c #754828",
"K 	c #594531",
"L 	c #523621",
"M 	c #453A24",
"N 	c #D2752C",
"O 	c #FE832C",
"P 	c #493913",
"Q 	c #423B2B",
"R 	c #FF732D",
"S 	c #FDA533",
"T 	c #FDD344",
"U 	c #844322",
"V 	c #E38B31",
"W 	c #FE7A2B",
"X 	c #F7561A",
"Y 	c #FFFF63",
"Z 	c #EB5617",
"` 	c #E8822F",
" .	c #CD9B33",
"..	c #F89729",
"+.	c #835A31",
"@.	c #FD9B2C",
"#.	c #FC8B30",
"$.	c #FF7523",
"%.	c #FC671A",
"&.	c #FFCB3E",
"*.	c #FE9333",
"=.	c #EE5423",
"-.	c #6D5126",
";.	c #8C622C",
">.	c #322722",
",.	c #F4C739",
"'.	c #EC772A",
").	c #B54A22",
"!.	c #693B1A",
"~.	c #7A4C2B",
"{.	c #ED7623",
"].	c #FE942D",
"^.	c #FEA238",
"/.	c #FFDC50",
"(.	c #CD3615",
"_.	c #C95624",
":.	c #552623",
"<.	c #833118",
"[.	c #CE7A29",
"}.	c #9461B4",
"|.	c #8359AC",
"1.	c #6E5032",
"2.	c #FE6422",
"3.	c #FEEB4E",
"4.	c #FFEB43",
"5.	c #D95521",
"6.	c #F5A637",
"7.	c #DE4216",
"8.	c #FEDA4C",
"9.	c #FC7919",
"0.	c #7E281C",
"a.	c #9C5DAC",
"b.	c #9C59C5",
"c.	c #965B2C",
"d.	c #6A4524",
"e.	c #FF9225",
"f.	c #E76726",
"g.	c #AC59BD",
"h.	c #624426",
"i.	c #4D4026",
"j.	c #6D3D24",
"k.	c #A46630",
"l.	c #FEE24D",
"m.	c #F79135",
"n.	c #B461C5",
"o.	c #412E21",
"p.	c #423D30",
"q.	c #FF7733",
"r.	c #FD8B2D",
"s.	c #AD551F",
"t.	c #2C3725",
"u.	c #F2B142",
"v.	c #C5B6DE",
"w.	c #9B632D",
"x.	c #FEB735",
"y.	c #795125",
"z.	c #E4832B",
"A.	c #DD5A21",
"B.	c #DEB6DE",
"C.	c #E6C6E6",
"D.	c #410C73",
"E.	c #FF8630",
"F.	c #9C6DBD",
"G.	c #730041",
"H.	c #665328",
"I.	c #6B3723",
"J.	c #A44CA4",
"K.	c #C548A4",
"L.	c #B475C5",
"M.	c #CD7DC5",
"N.	c #FE8824",
"O.	c #A34625",
"P.	c #AC48BD",
"Q.	c #C56DC5",
"R.	c #7B005A",
"S.	c #62046A",
"T.	c #B96B2D",
"U.	c #4C412A",
"V.	c #694A31",
"W.	c #AC34AC",
"X.	c #B4187B",
"Y.	c #52004A",
"Z.	c #734D2B",
"`.	c #E79536",
" +	c #733921",
".+	c #EF6B18",
"++	c #A4248B",
"@+	c #940C7B",
"#+	c #F48B2B",
"$+	c #5A291C",
"%+	c #A9672A",
"&+	c #D5A5CD",
"*+	c #A55D2B",
"=+	c #8B6130",
"-+	c #B55825",
";+	c #FFAB2E",
">+	c #FE6E23",
",+	c #FF831F",
"'+	c #7F5A30",
")+	c #F29B36",
"!+	c #635031",
"~+	c #8B5C2C",
"{+	c #5E4B25",
"]+	c #EC8531",
"^+	c #D79435",
"/+	c #BA8023",
"(+	c #B4388B",
"_+	c #AC349C",
":+	c #AC2073",
"<+	c #940C62",
"[+	c #AC0862",
"}+	c #C6752C",
"|+	c #9F6430",
"1+	c #7E4621",
"2+	c #B4288B",
"3+	c #8F5D30",
"4+	c #FFE453",
"5+	c #943473",
"6+	c #83542B",
"7+	c #D97931",
"8+	c #C76D30",
"9+	c #BD7732",
"0+	c #5A0031",
"a+	c #831441",
"b+	c #704D30",
"c+	c #6E4729",
"d+	c #735130",
"e+	c #F5D64D",
"f+	c #940041",
"g+	c #AC089C",
"h+	c #835127",
"i+	c #84592E",
"j+	c #92652D",
"k+	c #AC205A",
"l+	c #42372C",
"m+	c #AD6E30",
"n+	c #AC184A",
"o+	c #AA5723",
"p+	c #6E512E",
"q+	c #AD3F22",
"r+	c #712A22",
"s+	c #5C3620",
"t+	c #474633",
"u+	c #ECB845",
"v+	c #BB4422",
"w+	c #DC8C37",
"x+	c #FAAD3C",
"y+	c #DF3322",
"z+	c #D86B27",
"A+	c #221122",
"B+	c #874B28",
"C+	c #E59E2C",
"D+	c #FFA62A",
"E+	c #A92C16",
"  . + @ @ # # $ % & * = - ; > , ' ) ! ~ ) { ! = ) ) ~ ] ) ^ / ! / ) ( _ : < [ = ",
"} | 1 2 3 4 5 6 7 8 9 ^ ) ) 9 ; ; ^ ! ! 0 ! ) a ) ! ) - ' ^ , ! / > b c d e f ! ",
"g h i j k l m n o p q , r $ @ a ) s t - ! ! ! - ! ) = = = u > - - m v w x = y ^ ",
"z < 2 A B C C D E F B G H I J K ^ ) ; L { ! ! ! { y { > ^ = M ! f N O P Q ^ ^ y ",
"R B : _ 4 S H T U V W X : Y Z t ` ~ / 9 > ! L ! ! = / = > - - >  ...A Z V y +.) ",
"@.< A #.: < _ 4 $.%.&.A A *.R =.-.;.^ M f = / { ! y y = { , m > >.,.D  .'.).!.~.",
"{.].#.^./._ Y (.4 4 _.:.<.#.A [.=.-.}.}.|.}.t L ! ! ^ ^ ~ y 1.M > p u U 2.h 3.4.",
"5.6.7.(.< 8.^.9._ 0.f ) f - U 9.< }.a.a.a.b.}.c.u / / K y y , ! - y , - d.[ e.2 ",
") z 5 V e.w * f.3./ f F f ) 9 U 8.}.a.g.g.b.}.) = { = ^ f ^ > h.- i., y = @ k 3.",
"K 2.j.k.= l.X d &.9./ d.O * m.!.n.g.b.g.g.b.b.}.> / o.9 9 9 9 L > = ~ ) p.h @.A ",
").q.j.= r.2.: '.s.4.%.- f t.5.u.n.g.g.b.b.b.b.v.9 - 9 m 9 / > = = f m w.x.%.A @.",
",./ y.z.x S < A.) A.3.U ~ X 8 r.n.g.g.g.g.g.B.C.D.9 f f = f f f ) a E.'.%.O $.#.",
">.y m ~ N *.Y x.A...T # 9...A < F.n.n.n.g.B.B.C.G.f ) i.i.^ H.~ y f B B ^.4 w 2.",
"y ! i.M m ) b I < Y e.< 4 s.I.J.K.L.n.n.B.B.C.M.G.M F ! = ~ y ^ ^ M a ~ ^ , =.B ",
"! ) M M f y 1 r N.d O.3.A n :.J.P.Q.n.B.C.C.Q.R.S.T.M > = f ~ U.) ^ = ~ ) ~ f = ",
") - M i.) y w.V.1.f.c 4 n 9.Y J.P.W.C.C.C.M.X.R.Y.Z.= = i.M f i.M - - > { ] ~ ~ ",
"U.i.i.M M u , y q K `.4  +.+A 3 J.W.++@+@+@+++R.S.= / = & = ! ) f - - ! ! f ~ ) ",
") ~ f i.~ ) = y ) & 2._ 4 #+$+%+J.&+++@+@+@+++R.S.- G *+O h.- t y y - - ! ) f ! ",
"^ ~ F =+f = ^ ) -+;+l.>+,+M y i.&+&+++@+@+@+++R.G.~ F w.f = y ^ y ) - ! ! - > > ",
") i.~ , '+= = y $.Y l.)+M f > !+&+B.++@+@+@+++R.G.^ , ~+%+^ y = = = {+M - f f f ",
"f ) i.~ ^ +.a - M ]+'.^+$./+t.O.&+(+_+:+<+[+:+R.G.h.Z.- ~ ~ f ^ ^ = ~ ! ! f f f ",
"f ^ - a }+y ~ y |+1+B _ j j W &.J.W.W.2+[+[+:+G.M = h.! = y {+/ f f ~ - ! ! f { ",
") i.~ ~ }+3+y U.+.r 2 4+< Y A e.j 5+W.2+[+[+:+G.) - u 6+^ - > - ! / ! f ! / ! f ",
"f i.w.7+u u ^ ^ ^ 8+T 4+_ ).`.,+9+5+W.:+[+:+G.0+i.! y u u ^ f ! ! / ^ / f f - f ",
"~ ) ~ k.6+) K i.1.+.$._ 0.-.D *.W J.(+:+[+:+a+y t b+~ ~ ~ ! = c+i.~ ~ G - - ! > ",
"y y F t q h.^ d+y +.$.e+V #.8.A *.J.(+:+:+f+a+~.+.^ y ^ - - / ^ y.G G ~.y ! ! f ",
"- u = > ) ^ ^ '+y t h A e+8._ 8.o r @+g+:+f+a+Z.Z.) ^ ^ ~ u h+*+I.G { ' = = ~ = ",
"^ ~ V.- a ^ ~ ) ~ ^ Q ..2 < 5 4 3 o <+:+f+f+a+^ ^ ^ = V.9 9 ^ , c+, , ~ ) ! { = ",
"~ ^ K ~ - Q U.) ~ ' ) ;.N.$.N.$.B >.:+:+f+f+a+i.) ~ y , M ^ f u h., , ) { ! f y ",
"y - c+i+N 7+|+j+|+) y a I ].[.> m ~ k+:+f+G.c+u ^ c+] ^ / = , l+Q j+9 9 L ! - ) ",
"f 1.y i+^ m+~+k./+^ F y x F Q i.- ~ n+k+f+R.h.J c+^ ' , > ^ m f.S r.o+h m+m+Z.! ",
"^ y !+i.p+i+k.'+t f f f f = ) f f ~ i.n+f+G.y > 1+d.d.1+) L r.r.} 7+8.D q+r+, ^ ",
"^ ' ) ' f ) ) 7+w.=+f ! - - i.- f = ^ n+R.f y = = ) ! K U.-+*.7+j.7+_ Y 4 =.s+~.",
"~ ) i.f f i.i.y ^ p+) M f , f M , y p+, y ) = ' ' ] ' t+i `.u+G ' A.`./  +A v+M ",
"' f f - f f i.~ y ^ y y ~ F c.F - = y y , 8+~.] ~ ^ ) =+2.w+Y _.~.{.f.d. +e+_ v+",
") f f f f f ! - - 1.~ !+F F f ^ ! f ^ h.q 6+q y = ) y c.x+3.{.].$.8.l.N.#+6.y+4.",
"^ ' y f i.~ = , ) = ! ) ) - f f ^ h.y ^ a %+) y > = p.z+#.$ ).5 d < /.A '.5 &.L ",
"o.M 9 = f i.f f ) ! ) ) ! f f f = 6+) y T.^ ^ ] ' K ~.z.o+o 3 2 ].< `.u.)+4 =.A+",
"[ i | 9 ^ f ! ! ! ! ! f ! ) f = u f ' ~.B+, ' y ~ { a m+C+n r.r.r.N x+V x+)+u.4 ",
"A 7 D+t.! ! ! f ! ) f ! i.^ ~ u ' { ^ u ~ u ^ ' y u 0 '.J m+t+!+^+d.4.s.E+x+S 4+"};
