/* XPM */
static char * floor (12th copy)_xpm[] = {
"40 40 267 2",
"  	c #DDB23B",
". 	c #FFBD43",
"+ 	c #E7A93C",
"@ 	c #694717",
"# 	c #A42D17",
"$ 	c #994825",
"% 	c #CD4E1C",
"& 	c #985728",
"* 	c #45452E",
"= 	c #5B4326",
"- 	c #4C3C24",
"; 	c #3B2D1E",
"> 	c #5C3E24",
", 	c #6A4C2C",
"' 	c #634B30",
") 	c #54422A",
"! 	c #523D25",
"~ 	c #5B452A",
"{ 	c #533F2A",
"] 	c #5D4931",
"^ 	c #5D492C",
"/ 	c #4B3623",
"( 	c #862818",
"_ 	c #FEEC53",
": 	c #FEF356",
"< 	c #FFF559",
"[ 	c #7B4D25",
"} 	c #E9AE32",
"| 	c #8D4B1B",
"1 	c #B6762C",
"2 	c #FDD44A",
"3 	c #FFDC43",
"4 	c #FFFE55",
"5 	c #FDCD43",
"6 	c #FFC52C",
"7 	c #FBFA4B",
"8 	c #FFB829",
"9 	c #443421",
"0 	c #554432",
"a 	c #4D3E2A",
"b 	c #8C3F21",
"c 	c #FEE446",
"d 	c #FCB33D",
"e 	c #5D4018",
"f 	c #534126",
"g 	c #E3892B",
"h 	c #FEAA32",
"i 	c #D97929",
"j 	c #FC8123",
"k 	c #F67927",
"l 	c #EE8822",
"m 	c #383525",
"n 	c #C95819",
"o 	c #FEC43B",
"p 	c #262A24",
"q 	c #694C25",
"r 	c #CD6826",
"s 	c #2A211A",
"t 	c #7C532C",
"u 	c #62462B",
"v 	c #F46E21",
"w 	c #FEC241",
"x 	c #2D2B2B",
"y 	c #634A2D",
"z 	c #C2652C",
"A 	c #FFFE5B",
"B 	c #FF9B35",
"C 	c #313129",
"D 	c #EA8D2C",
"E 	c #B8551C",
"F 	c #74522C",
"G 	c #8D532B",
"H 	c #F5842C",
"I 	c #FFCC33",
"J 	c #754828",
"K 	c #594531",
"L 	c #523621",
"M 	c #453A24",
"N 	c #D2752C",
"O 	c #FE832C",
"P 	c #493913",
"Q 	c #423B2B",
"R 	c #FF732D",
"S 	c #FDA533",
"T 	c #FDD344",
"U 	c #844322",
"V 	c #E38B31",
"W 	c #FE7A2B",
"X 	c #F7561A",
"Y 	c #FFFF63",
"Z 	c #EB5617",
"` 	c #E8822F",
" .	c #CD9B33",
"..	c #F89729",
"+.	c #835A31",
"@.	c #FD9B2C",
"#.	c #FC8B30",
"$.	c #FF7523",
"%.	c #FC671A",
"&.	c #FFCB3E",
"*.	c #FE9333",
"=.	c #EE5423",
"-.	c #6D5126",
";.	c #8C622C",
">.	c #322722",
",.	c #F4C739",
"'.	c #EC772A",
").	c #B54A22",
"!.	c #693B1A",
"~.	c #7A4C2B",
"{.	c #ED7623",
"].	c #FE942D",
"^.	c #FEA238",
"/.	c #FFDC50",
"(.	c #CD3615",
"_.	c #C95624",
":.	c #552623",
"<.	c #833118",
"[.	c #CE7A29",
"}.	c #9479BD",
"|.	c #8B71D5",
"1.	c #A475D5",
"2.	c #73449C",
"3.	c #6E5032",
"4.	c #FE6422",
"5.	c #FEEB4E",
"6.	c #FFEB43",
"7.	c #D95521",
"8.	c #F5A637",
"9.	c #DE4216",
"0.	c #FEDA4C",
"a.	c #FC7919",
"b.	c #7E281C",
"c.	c #B489D5",
"d.	c #7B107B",
"e.	c #41187B",
"f.	c #965B2C",
"g.	c #6A4524",
"h.	c #FF9225",
"i.	c #E76726",
"j.	c #D5C2EE",
"k.	c #5A048B",
"l.	c #310094",
"m.	c #624426",
"n.	c #4D4026",
"o.	c #6D3D24",
"p.	c #A46630",
"q.	c #FEE24D",
"r.	c #F79135",
"s.	c #412E21",
"t.	c #423D30",
"u.	c #FF7733",
"v.	c #FD8B2D",
"w.	c #AD551F",
"x.	c #2C3725",
"y.	c #F2B142",
"z.	c #9B632D",
"A.	c #FEB735",
"B.	c #795125",
"C.	c #E4832B",
"D.	c #DD5A21",
"E.	c #39049C",
"F.	c #FF8630",
"G.	c #BD79D5",
"H.	c #AC79BD",
"I.	c #73047B",
"J.	c #4A048B",
"K.	c #665328",
"L.	c #6B3723",
"M.	c #8B40AC",
"N.	c #E6C6E6",
"O.	c #CD91CD",
"P.	c #FE8824",
"Q.	c #A34625",
"R.	c #AC40AC",
"S.	c #94089C",
"T.	c #A4248B",
"U.	c #73009C",
"V.	c #B96B2D",
"W.	c #4C412A",
"X.	c #694A31",
"Y.	c #9C44AC",
"Z.	c #AC34AC",
"`.	c #B428A4",
" +	c #A428A4",
".+	c #830494",
"++	c #94189C",
"@+	c #734D2B",
"#+	c #E79536",
"$+	c #733921",
"%+	c #EF6B18",
"&+	c #9C28A4",
"*+	c #7B005A",
"=+	c #F48B2B",
"-+	c #5A291C",
";+	c #8B24A4",
">+	c #A55D2B",
",+	c #8B6130",
"'+	c #B55825",
")+	c #FFAB2E",
"!+	c #FE6E23",
"~+	c #FF831F",
"{+	c #7F5A30",
"]+	c #F29B36",
"^+	c #AC089C",
"/+	c #7B0C62",
"(+	c #8B5C2C",
"_+	c #A9672A",
":+	c #5E4B25",
"<+	c #EC8531",
"[+	c #D79435",
"}+	c #BA8023",
"|+	c #C6752C",
"1+	c #9F6430",
"2+	c #7E4621",
"3+	c #B4149C",
"4+	c #C53073",
"5+	c #730041",
"6+	c #8F5D30",
"7+	c #FFE453",
"8+	c #B4388B",
"9+	c #B44094",
"0+	c #B4187B",
"a+	c #62046A",
"b+	c #83542B",
"c+	c #D97931",
"d+	c #C76D30",
"e+	c #AC349C",
"f+	c #730C41",
"g+	c #5A0031",
"h+	c #942873",
"i+	c #704D30",
"j+	c #6E4729",
"k+	c #735130",
"l+	c #F5D64D",
"m+	c #943473",
"n+	c #94206A",
"o+	c #835127",
"p+	c #9C1C4A",
"q+	c #7B206A",
"r+	c #AC1862",
"s+	c #AC2073",
"t+	c #84592E",
"u+	c #92652D",
"v+	c #831441",
"w+	c #42372C",
"x+	c #AD6E30",
"y+	c #AA5723",
"z+	c #635031",
"A+	c #6E512E",
"B+	c #C52C6A",
"C+	c #AD3F22",
"D+	c #712A22",
"E+	c #AC184A",
"F+	c #5C3620",
"G+	c #474633",
"H+	c #ECB845",
"I+	c #BB4422",
"J+	c #DC8C37",
"K+	c #FAAD3C",
"L+	c #DF3322",
"M+	c #D86B27",
"N+	c #221122",
"O+	c #874B28",
"P+	c #E59E2C",
"Q+	c #FFA62A",
"R+	c #A92C16",
"  . + @ @ # # $ % & * = - ; > , ' ) ! ~ ) { ! = ) ) ~ ] ) ^ / ! / ) ( _ : < [ = ",
"} | 1 2 3 4 5 6 7 8 9 ^ ) ) 9 ; ; ^ ! ! 0 ! ) a ) ! ) - ' ^ , ! / > b c d e f ! ",
"g h i j k l m n o p q , r $ @ a ) s t - ! ! ! - ! ) = = = u > - - m v w x = y ^ ",
"z < 2 A B C C D E F B G H I J K ^ ) ; L { ! ! ! { y { > ^ = M ! f N O P Q ^ ^ y ",
"R B : _ 4 S H T U V W X : Y Z t ` ~ / 9 > ! L ! ! = / = > - - >  ...A Z V y +.) ",
"@.< A #.: < _ 4 $.%.&.A A *.R =.-.;.^ M f = / { ! y y = { , m > >.,.D  .'.).!.~.",
"{.].#.^./._ Y (.4 4 _.:.<.#.A [.=.-.}.|.1.2.t L ! ! ^ ^ ~ y 3.M > p u U 4.h 5.6.",
"7.8.9.(.< 0.^.a._ b.f ) f - U a.< |.}.}.c.d.e.f.u / / K y y , ! - y , - g.[ h.2 ",
") z 5 V h.w * i.5./ f F f ) 9 U 0.|.}.}.j.k.l.) = { = ^ f ^ > m.- n., y = @ k 5.",
"K 4.o.p.= q.X d &.a./ g.O * r.!.}.}.}.j.j.k.l.= > / s.9 9 9 9 L > = ~ ) t.h @.A ",
").u.o.= v.4.: '.w.6.%.- f x.7.y.|.}.j.j.j.k.l.- 9 - 9 m 9 / > = = f m z.A.%.A @.",
",./ B.C.x S < D.) D.5.U ~ X 8 v.1.j.j.j.c.k.E.E./ 9 f f = f f f ) a F.'.%.O $.#.",
">.y m ~ N *.Y A.D...T # a...A G.j.j.j.H.c.I.J.E.f f ) n.n.^ K.~ y f B B ^.4 w 4.",
"y ! n.M m ) b I < Y h.< 4 w.L.M.N.N.G.G.O.I.k.J.- M F ! = ~ y ^ ^ M a ~ ^ , =.B ",
"! ) M M f y 1 r P.d Q.5.A n :.M.R.O.O.O.S.T.U.k.M V.M > = f ~ W.) ^ = ~ ) ~ f = ",
") - M n.) y z.X.3.i.c 4 n a.Y Y.Z.R.`.S.S. +.+++++@+= = n.M f n.M - - > { ] ~ ~ ",
"W.n.n.M M u , y q K #+4 $+%+A Y.Y.Y.&+S.S.S.T..+*+= / = & = ! ) f - - ! ! f ~ ) ",
") ~ f n.~ ) = y ) & 4._ 4 =+-+Y.Y.Y.;+S.S.S.`.I.I.- G >+O m.- t y y - - ! ) f ! ",
"^ ~ F ,+f = ^ ) '+)+q.!+~+M y Y.R.Y.T.S.S.T.I.I.> ~ F z.f = y ^ y ) - ! ! - > > ",
") n.~ , {+= = y $.Y q.]+M f > R.R.R.T.S.^+`./+*+a ^ , (+_+^ y = = = :+M - f f f ",
"f ) n.~ ^ +.a - M <+'.[+$.}+x.R.R.R.`.^+^+`./+*+) m.@+- ~ ~ f ^ ^ = ~ ! ! f f f ",
"f ^ - a |+y ~ y 1+2+B _ j j W &.R.R.`.3+4+/+/+5+M = m.! = y :+/ f f ~ - ! ! f { ",
") n.~ ~ |+6+y W.+.r 2 7+< Y A h.8+9+Z.0+4+/+5+a+) - u b+^ - > - ! / ! f ! / ! f ",
"f n.z.c+u u ^ ^ ^ d+T 7+_ ).#+~+8+R.e+T.e+f+g+) n.! y u u ^ f ! ! / ^ / f f - f ",
"~ ) ~ p.b+) K n.3.+.$._ b.-.D *.8+Y.h+e+f+5+g+y t i+~ ~ ~ ! = j+n.~ ~ G - - ! > ",
"y y F t q m.^ k+y +.$.l+V #.0.A *.m+h+h+5+5+g+~.+.^ y ^ - - / ^ B.G G ~.y ! ! f ",
"- u = > ) ^ ^ {+y t h A l+0._ 0.o m+n+n+5+5+5+@+@+) ^ ^ ~ u o+>+L.G { ' = = ~ = ",
"^ ~ X.- a ^ ~ ) ~ ^ Q ..2 < 5 4 3 p+n+q+5+5+y ^ ^ ^ = X.9 9 ^ , j+, , ~ ) ! { = ",
"~ ^ K ~ - Q W.) ~ ' ) ;.P.$.P.$.B r+s+q+5+5+F n.) ~ y , M ^ f u m., , ) { ! f y ",
"y - j+t+N c+1+u+1+) y a I ].[.> m ~ r+v+*+5+j+u ^ j+] ^ / = , w+Q u+9 9 L ! - ) ",
"f 3.y t+^ x+(+p.}+^ F y x F Q n.- ~ 0+p+5+5+m.J j+^ ' , > ^ m i.S v.y+h x+x+@+! ",
"^ y z+n.A+t+p.{+t f f f f = ) f f ~ 0+B+f+! y > 2+g.g.2+) L v.v.} c+0.D C+D+, ^ ",
"^ ' ) ' f ) ) c+z.,+f ! - - n.- f = ^ E+v+f y = = ) ! K W.'+*.c+o.c+_ Y 4 =.F+~.",
"~ ) n.f f n.n.y ^ A+) M f , f M , y A+, y ) = ' ' ] ' G+i #+H+G ' D.#+/ $+A I+M ",
"' f f - f f n.~ y ^ y y ~ F f.F - = y y , d+~.] ~ ^ ) ,+4.J+Y _.~.{.i.g.$+l+_ I+",
") f f f f f ! - - 3.~ z+F F f ^ ! f ^ m.q b+q y = ) y f.K+5.{.].$.0.q.P.=+8.L+6.",
"^ ' y f n.~ = , ) = ! ) ) - f f ^ m.y ^ a _+) y > = t.M+#.$ ).5 d < /.A '.5 &.L ",
"s.M 9 = f n.f f ) ! ) ) ! f f f = b+) y V.^ ^ ] ' K ~.C.y+o 3 2 ].< #+y.]+4 =.N+",
"[ i | 9 ^ f ! ! ! ! ! f ! ) f = u f ' ~.O+, ' y ~ { a x+P+n v.v.v.N K+V K+]+y.4 ",
"A 7 Q+x.! ! ! f ! ) f ! n.^ ~ u ' { ^ u ~ u ^ ' y u 0 '.J x+G+z+[+g.6.w.R+K+S 7+"};
