/* XPM */
static char * floor (4th copy)_xpm[] = {
"40 40 266 2",
"  	c #DDB23B",
". 	c #FFBD43",
"+ 	c #E7A93C",
"@ 	c #694717",
"# 	c #A42D17",
"$ 	c #994825",
"% 	c #CD4E1C",
"& 	c #985728",
"* 	c #45452E",
"= 	c #5B4326",
"- 	c #4C3C24",
"; 	c #3B2D1E",
"> 	c #5C3E24",
", 	c #6A4C2C",
"' 	c #634B30",
") 	c #54422A",
"! 	c #523D25",
"~ 	c #5B452A",
"{ 	c #533F2A",
"] 	c #5D4931",
"^ 	c #5D492C",
"/ 	c #4B3623",
"( 	c #862818",
"_ 	c #FEEC53",
": 	c #FEF356",
"< 	c #FFF559",
"[ 	c #7B4D25",
"} 	c #E9AE32",
"| 	c #8D4B1B",
"1 	c #B6762C",
"2 	c #FDD44A",
"3 	c #FFDC43",
"4 	c #FFFE55",
"5 	c #FDCD43",
"6 	c #FFC52C",
"7 	c #FBFA4B",
"8 	c #FFB829",
"9 	c #443421",
"0 	c #554432",
"a 	c #4D3E2A",
"b 	c #8C3F21",
"c 	c #FEE446",
"d 	c #FCB33D",
"e 	c #5D4018",
"f 	c #534126",
"g 	c #E3892B",
"h 	c #FEAA32",
"i 	c #D97929",
"j 	c #FC8123",
"k 	c #F67927",
"l 	c #EE8822",
"m 	c #383525",
"n 	c #C95819",
"o 	c #FEC43B",
"p 	c #262A24",
"q 	c #694C25",
"r 	c #CD6826",
"s 	c #2A211A",
"t 	c #7C532C",
"u 	c #62462B",
"v 	c #F46E21",
"w 	c #FEC241",
"x 	c #2D2B2B",
"y 	c #634A2D",
"z 	c #C2652C",
"A 	c #FFFE5B",
"B 	c #FF9B35",
"C 	c #313129",
"D 	c #EA8D2C",
"E 	c #B8551C",
"F 	c #74522C",
"G 	c #8D532B",
"H 	c #F5842C",
"I 	c #FFCC33",
"J 	c #754828",
"K 	c #594531",
"L 	c #523621",
"M 	c #453A24",
"N 	c #D2752C",
"O 	c #FE832C",
"P 	c #493913",
"Q 	c #423B2B",
"R 	c #FF732D",
"S 	c #FDA533",
"T 	c #FDD344",
"U 	c #844322",
"V 	c #E38B31",
"W 	c #FE7A2B",
"X 	c #F7561A",
"Y 	c #FFFF63",
"Z 	c #EB5617",
"` 	c #E8822F",
" .	c #CD9B33",
"..	c #F89729",
"+.	c #835A31",
"@.	c #FD9B2C",
"#.	c #FC8B30",
"$.	c #FF7523",
"%.	c #FC671A",
"&.	c #FFCB3E",
"*.	c #FE9333",
"=.	c #EE5423",
"-.	c #6D5126",
";.	c #8C622C",
">.	c #322722",
",.	c #F4C739",
"'.	c #EC772A",
").	c #B54A22",
"!.	c #693B1A",
"~.	c #7A4C2B",
"{.	c #ED7623",
"].	c #FE942D",
"^.	c #FEA238",
"/.	c #FFDC50",
"(.	c #CD3615",
"_.	c #C95624",
":.	c #552623",
"<.	c #833118",
"[.	c #CE7A29",
"}.	c #C5B6DE",
"|.	c #AC79BD",
"1.	c #9461B4",
"2.	c #8B71D5",
"3.	c #6E5032",
"4.	c #FE6422",
"5.	c #FEEB4E",
"6.	c #FFEB43",
"7.	c #D95521",
"8.	c #F5A637",
"9.	c #DE4216",
"0.	c #FEDA4C",
"a.	c #FC7919",
"b.	c #7E281C",
"c.	c #DEB6DE",
"d.	c #B489D5",
"e.	c #6224AC",
"f.	c #5224B4",
"g.	c #390073",
"h.	c #965B2C",
"i.	c #6A4524",
"j.	c #FF9225",
"k.	c #E76726",
"l.	c #D5C2EE",
"m.	c #39049C",
"n.	c #5218B4",
"o.	c #624426",
"p.	c #4D4026",
"q.	c #6D3D24",
"r.	c #A46630",
"s.	c #FEE24D",
"t.	c #F79135",
"u.	c #5204B4",
"v.	c #52006A",
"w.	c #412E21",
"x.	c #423D30",
"y.	c #FF7733",
"z.	c #FD8B2D",
"A.	c #AD551F",
"B.	c #2C3725",
"C.	c #7B24A4",
"D.	c #9B632D",
"E.	c #FEB735",
"F.	c #795125",
"G.	c #E4832B",
"H.	c #DD5A21",
"I.	c #8324A4",
"J.	c #5A048B",
"K.	c #73047B",
"L.	c #FF8630",
"M.	c #CD91CD",
"N.	c #CD9DC5",
"O.	c #B4047B",
"P.	c #73009C",
"Q.	c #94189C",
"R.	c #665328",
"S.	c #6B3723",
"T.	c #BD79D5",
"U.	c #A4248B",
"V.	c #8B24A4",
"W.	c #52004A",
"X.	c #FE8824",
"Y.	c #A34625",
"Z.	c #CD7DC5",
"`.	c #AC089C",
" +	c #830494",
".+	c #52045A",
"++	c #B96B2D",
"@+	c #4C412A",
"#+	c #694A31",
"$+	c #BD50BD",
"%+	c #B428A4",
"&+	c #734D2B",
"*+	c #E79536",
"=+	c #733921",
"-+	c #EF6B18",
";+	c #B4388B",
">+	c #C548A4",
",+	c #940C7B",
"'+	c #F48B2B",
")+	c #5A291C",
"!+	c #A9672A",
"~+	c #A55D2B",
"{+	c #8B6130",
"]+	c #B55825",
"^+	c #FFAB2E",
"/+	c #FE6E23",
"(+	c #FF831F",
"_+	c #7F5A30",
":+	c #F29B36",
"<+	c #635031",
"[+	c #C52C6A",
"}+	c #B4149C",
"|+	c #8B5C2C",
"1+	c #5E4B25",
"2+	c #EC8531",
"3+	c #D79435",
"4+	c #BA8023",
"5+	c #C6752C",
"6+	c #9F6430",
"7+	c #7E4621",
"8+	c #BD044A",
"9+	c #AC0862",
"0+	c #8F5D30",
"a+	c #FFE453",
"b+	c #AC044A",
"c+	c #730041",
"d+	c #83542B",
"e+	c #D97931",
"f+	c #C76D30",
"g+	c #AC2073",
"h+	c #C53073",
"i+	c #AC205A",
"j+	c #940041",
"k+	c #5A0031",
"l+	c #704D30",
"m+	c #6E4729",
"n+	c #735130",
"o+	c #F5D64D",
"p+	c #AC1862",
"q+	c #9C1C4A",
"r+	c #7B005A",
"s+	c #835127",
"t+	c #84592E",
"u+	c #92652D",
"v+	c #42372C",
"w+	c #AD6E30",
"x+	c #AC184A",
"y+	c #AA5723",
"z+	c #6E512E",
"A+	c #AD3F22",
"B+	c #712A22",
"C+	c #5C3620",
"D+	c #831441",
"E+	c #474633",
"F+	c #ECB845",
"G+	c #BB4422",
"H+	c #DC8C37",
"I+	c #FAAD3C",
"J+	c #DF3322",
"K+	c #D86B27",
"L+	c #F2B142",
"M+	c #221122",
"N+	c #874B28",
"O+	c #E59E2C",
"P+	c #FFA62A",
"Q+	c #A92C16",
"  . + @ @ # # $ % & * = - ; > , ' ) ! ~ ) { ! = ) ) ~ ] ) ^ / ! / ) ( _ : < [ = ",
"} | 1 2 3 4 5 6 7 8 9 ^ ) ) 9 ; ; ^ ! ! 0 ! ) a ) ! ) - ' ^ , ! / > b c d e f ! ",
"g h i j k l m n o p q , r $ @ a ) s t - ! ! ! - ! ) = = = u > - - m v w x = y ^ ",
"z < 2 A B C C D E F B G H I J K ^ ) ; L { ! ! ! { y { > ^ = M ! f N O P Q ^ ^ y ",
"R B : _ 4 S H T U V W X : Y Z t ` ~ / 9 > ! L ! ! = / = > - - >  ...A Z V y +.) ",
"@.< A #.: < _ 4 $.%.&.A A *.R =.-.;.^ M f = / { ! y y = { , m > >.,.D  .'.).!.~.",
"{.].#.^./._ Y (.4 4 _.:.<.#.A [.=.-.}.|.1.2.t L ! ! ^ ^ ~ y 3.M > p u U 4.h 5.6.",
"7.8.9.(.< 0.^.a._ b.f ) f - U a.< c.d.e.f.f.g.h.u / / K y y , ! - y , - i.[ j.2 ",
") z 5 V j.w * k.5./ f F f ) 9 U l.d.d.f.m.m.n.) = { = ^ f ^ > o.- p., y = @ k 5.",
"K 4.q.r.= s.X d &.a./ i.O * t.!.|.d.d.f.m.u.e.v.> / w.9 9 9 9 L > = ~ ) x.h @.A ",
").y.q.= z.4.: '.A.6.%.- f B.7.d.d.d.C.u.u.u.u.e.9 - 9 m 9 / > = = f m D.E.%.A @.",
",./ F.G.x S < H.) H.5.U ~ X 8 d.d.d.I.u.u.u.J.C.K.9 f f = f f f ) a L.'.%.O $.#.",
">.y m ~ N *.Y E.H...T # a...A d.M.N.O.C.u.J.P.P.Q.f ) p.p.^ R.~ y f B B ^.4 w 4.",
"y ! p.M m ) b I < Y j.< 4 A.S.T.N.O.O.U.P.P.K.V.W.M F ! = ~ y ^ ^ M a ~ ^ , =.B ",
"! ) M M f y 1 r X.d Y.5.A n :.Z.N.`.`.O.U. +K.V..+++M > = f ~ @+) ^ = ~ ) ~ f = ",
") - M p.) y D.#+3.k.c 4 n a.Y $+$+%+`.O.O.U. +U..+&+= = p.M f p.M - - > { ] ~ ~ ",
"@+p.p.M M u , y q K *+4 =+-+A ;+>+%+`.`.,+U. +Q.= = / = & = ! ) f - - ! ! f ~ ) ",
") ~ f p.~ ) = y ) & 4._ 4 '+)+!+;+%+`.`.O.O.U..+! - G ~+O o.- t y y - - ! ) f ! ",
"^ ~ F {+f = ^ ) ]+^+s./+(+M y p.;+%+`.`.`.O.%+.+> ~ F D.f = y ^ y ) - ! ! - > > ",
") p.~ , _+= = y $.Y s.:+M f > <+;+[+}+O.`.O.%+.+a ^ , |+!+^ y = = = 1+M - f f f ",
"f ) p.~ ^ +.a - M 2+'.3+$.4+B.Y.;+[+O.O.`.O.[+.+) o.&+- ~ ~ f ^ ^ = ~ ! ! f f f ",
"f ^ - a 5+y ~ y 6+7+B _ j j W &.;+[+8+9+O.O.[+W.M = o.! = y 1+/ f f ~ - ! ! f { ",
") p.~ ~ 5+0+y @++.r 2 a+< Y A j.;+[+9+b+b+[+c+W.) - u d+^ - > - ! / ! f ! / ! f ",
"f p.D.e+u u ^ ^ ^ f+T a+_ ).*+(+;+[+8+b+b+g+c+) p.! y u u ^ f ! ! / ^ / f f - f ",
"~ ) ~ r.d+) K p.3.+.$._ b.-.D *.;+h+i+j+j+g+k+y t l+~ ~ ~ ! = m+p.~ ~ G - - ! > ",
"y y F t q o.^ n+y +.$.o+V #.0.A *.;+i+j+p+j+q+~.+.^ y ^ - - / ^ F.G G ~.y ! ! f ",
"- u = > ) ^ ^ _+y t h A o+0._ 0.o i+i+i+r+j+q+&+&+) ^ ^ ~ u s+~+S.G { ' = = ~ = ",
"^ ~ #+- a ^ ~ ) ~ ^ Q ..2 < 5 4 3 h+i+q+j+j+y ^ ^ ^ = #+9 9 ^ , m+, , ~ ) ! { = ",
"~ ^ K ~ - Q @+) ~ ' ) ;.X.$.X.$.B h+i+q+j+j+F p.) ~ y , M ^ f u o., , ) { ! f y ",
"y - m+t+N e+6+u+6+) y a I ].[.> m h+i+p+j+q+m+u ^ m+] ^ / = , v+Q u+9 9 L ! - ) ",
"f 3.y t+^ w+|+r.4+^ F y x F Q p.- ~ x+x+j+y o.J m+^ ' , > ^ m k.S z.y+h w+w+&+! ",
"^ y <+p.z+t+r._+t f f f f = ) f f ~ x+x+j+! y > 7+i.i.7+) L z.z.} e+0.D A+B+, ^ ",
"^ ' ) ' f ) ) e+D.{+f ! - - p.- f = ^ x+q+f y = = ) ! K @+]+*.e+q.e+_ Y 4 =.C+~.",
"~ ) p.f f p.p.y ^ z+) M f , f M , y z+D+y ) = ' ' ] ' E+i *+F+G ' H.*+/ =+A G+M ",
"' f f - f f p.~ y ^ y y ~ F h.F - = y y , f+~.] ~ ^ ) {+4.H+Y _.~.{.k.i.=+o+_ G+",
") f f f f f ! - - 3.~ <+F F f ^ ! f ^ o.q d+q y = ) y h.I+5.{.].$.0.s.X.'+8.J+6.",
"^ ' y f p.~ = , ) = ! ) ) - f f ^ o.y ^ a !+) y > = x.K+#.$ ).5 d < /.A '.5 &.L ",
"w.M 9 = f p.f f ) ! ) ) ! f f f = d+) y ++^ ^ ] ' K ~.G.y+o 3 2 ].< *+L+:+4 =.M+",
"[ i | 9 ^ f ! ! ! ! ! f ! ) f = u f ' ~.N+, ' y ~ { a w+O+n z.z.z.N I+V I+:+L+4 ",
"A 7 P+B.! ! ! f ! ) f ! p.^ ~ u ' { ^ u ~ u ^ ' y u 0 '.J w+E+<+3+i.6.A.Q+I+S a+"};
