/* XPM */
static char * floor (7th copy)_xpm[] = {
"40 40 272 2",
"  	c #DDB23B",
". 	c #FFBD43",
"+ 	c #E7A93C",
"@ 	c #694717",
"# 	c #A42D17",
"$ 	c #994825",
"% 	c #CD4E1C",
"& 	c #985728",
"* 	c #45452E",
"= 	c #5B4326",
"- 	c #4C3C24",
"; 	c #3B2D1E",
"> 	c #5C3E24",
", 	c #6A4C2C",
"' 	c #634B30",
") 	c #54422A",
"! 	c #523D25",
"~ 	c #5B452A",
"{ 	c #533F2A",
"] 	c #5D4931",
"^ 	c #5D492C",
"/ 	c #4B3623",
"( 	c #862818",
"_ 	c #FEEC53",
": 	c #FEF356",
"< 	c #FFF559",
"[ 	c #7B4D25",
"} 	c #E9AE32",
"| 	c #8D4B1B",
"1 	c #B6762C",
"2 	c #FDD44A",
"3 	c #FFDC43",
"4 	c #FFFE55",
"5 	c #FDCD43",
"6 	c #FFC52C",
"7 	c #FBFA4B",
"8 	c #FFB829",
"9 	c #443421",
"0 	c #554432",
"a 	c #4D3E2A",
"b 	c #8C3F21",
"c 	c #FEE446",
"d 	c #FCB33D",
"e 	c #5D4018",
"f 	c #534126",
"g 	c #E3892B",
"h 	c #FEAA32",
"i 	c #D97929",
"j 	c #FC8123",
"k 	c #F67927",
"l 	c #EE8822",
"m 	c #383525",
"n 	c #C95819",
"o 	c #FEC43B",
"p 	c #262A24",
"q 	c #694C25",
"r 	c #CD6826",
"s 	c #2A211A",
"t 	c #7C532C",
"u 	c #62462B",
"v 	c #F46E21",
"w 	c #FEC241",
"x 	c #2D2B2B",
"y 	c #634A2D",
"z 	c #C2652C",
"A 	c #FFFE5B",
"B 	c #FF9B35",
"C 	c #313129",
"D 	c #EA8D2C",
"E 	c #B8551C",
"F 	c #74522C",
"G 	c #8D532B",
"H 	c #F5842C",
"I 	c #FFCC33",
"J 	c #754828",
"K 	c #594531",
"L 	c #523621",
"M 	c #453A24",
"N 	c #D2752C",
"O 	c #FE832C",
"P 	c #493913",
"Q 	c #423B2B",
"R 	c #FF732D",
"S 	c #FDA533",
"T 	c #FDD344",
"U 	c #844322",
"V 	c #E38B31",
"W 	c #FE7A2B",
"X 	c #F7561A",
"Y 	c #FFFF63",
"Z 	c #EB5617",
"` 	c #E8822F",
" .	c #CD9B33",
"..	c #F89729",
"+.	c #835A31",
"@.	c #FD9B2C",
"#.	c #FC8B30",
"$.	c #FF7523",
"%.	c #FC671A",
"&.	c #FFCB3E",
"*.	c #FE9333",
"=.	c #EE5423",
"-.	c #6D5126",
";.	c #8C622C",
">.	c #322722",
",.	c #F4C739",
"'.	c #EC772A",
").	c #B54A22",
"!.	c #693B1A",
"~.	c #7A4C2B",
"{.	c #ED7623",
"].	c #FE942D",
"^.	c #FEA238",
"/.	c #FFDC50",
"(.	c #CD3615",
"_.	c #C95624",
":.	c #552623",
"<.	c #833118",
"[.	c #CE7A29",
"}.	c #9479BD",
"|.	c #9461B4",
"1.	c #8359AC",
"2.	c #6E5032",
"3.	c #FE6422",
"4.	c #FEEB4E",
"5.	c #FFEB43",
"6.	c #D95521",
"7.	c #F5A637",
"8.	c #DE4216",
"9.	c #FEDA4C",
"0.	c #FC7919",
"a.	c #7E281C",
"b.	c #D5C2EE",
"c.	c #A475D5",
"d.	c #730C41",
"e.	c #965B2C",
"f.	c #6A4524",
"g.	c #FF9225",
"h.	c #E76726",
"i.	c #C5B6DE",
"j.	c #DEB6DE",
"k.	c #945DCD",
"l.	c #5A006A",
"m.	c #52045A",
"n.	c #624426",
"o.	c #4D4026",
"p.	c #6D3D24",
"q.	c #A46630",
"r.	c #FEE24D",
"s.	c #F79135",
"t.	c #BDAEDE",
"u.	c #6A44BD",
"v.	c #52006A",
"w.	c #412E21",
"x.	c #423D30",
"y.	c #FF7733",
"z.	c #FD8B2D",
"A.	c #AD551F",
"B.	c #2C3725",
"C.	c #F2B142",
"D.	c #9C48C5",
"E.	c #5A048B",
"F.	c #390073",
"G.	c #9B632D",
"H.	c #FEB735",
"I.	c #795125",
"J.	c #E4832B",
"K.	c #DD5A21",
"L.	c #9C59C5",
"M.	c #FF8630",
"N.	c #8B40AC",
"O.	c #8348CD",
"P.	c #62046A",
"Q.	c #410C73",
"R.	c #665328",
"S.	c #6B3723",
"T.	c #5A291C",
"U.	c #AC4CAC",
"V.	c #73047B",
"W.	c #FE8824",
"X.	c #A34625",
"Y.	c #9C4B23",
"Z.	c #9428A4",
"`.	c #BD50BD",
" +	c #9C44AC",
".+	c #7B0C62",
"++	c #B96B2D",
"@+	c #4C412A",
"#+	c #694A31",
"$+	c #AC34AC",
"%+	c #AC59BD",
"&+	c #AC40AC",
"*+	c #734D2B",
"=+	c #E79536",
"-+	c #733921",
";+	c #EF6B18",
">+	c #9C28A4",
",+	c #F48B2B",
"'+	c #A9672A",
")+	c #B428A4",
"!+	c #AC089C",
"~+	c #A55D2B",
"{+	c #8B6130",
"]+	c #B55825",
"^+	c #FFAB2E",
"/+	c #FE6E23",
"(+	c #FF831F",
"_+	c #7F5A30",
":+	c #F29B36",
"<+	c #635031",
"[+	c #8B5C2C",
"}+	c #5E4B25",
"|+	c #EC8531",
"1+	c #D79435",
"2+	c #BA8023",
"3+	c #AC349C",
"4+	c #B4388B",
"5+	c #7B005A",
"6+	c #C6752C",
"7+	c #9F6430",
"8+	c #7E4621",
"9+	c #730041",
"0+	c #8F5D30",
"a+	c #FFE453",
"b+	c #B4288B",
"c+	c #AC0862",
"d+	c #B4047B",
"e+	c #AC2073",
"f+	c #83542B",
"g+	c #D97931",
"h+	c #C76D30",
"i+	c #BD7732",
"j+	c #942873",
"k+	c #940C7B",
"l+	c #940041",
"m+	c #A4248B",
"n+	c #52004A",
"o+	c #94206A",
"p+	c #940C62",
"q+	c #5A0031",
"r+	c #704D30",
"s+	c #6E4729",
"t+	c #735130",
"u+	c #F5D64D",
"v+	c #835127",
"w+	c #AC044A",
"x+	c #BD044A",
"y+	c #C52C6A",
"z+	c #84592E",
"A+	c #92652D",
"B+	c #AC1862",
"C+	c #42372C",
"D+	c #AD6E30",
"E+	c #AA5723",
"F+	c #6E512E",
"G+	c #AC205A",
"H+	c #AD3F22",
"I+	c #712A22",
"J+	c #AC184A",
"K+	c #5C3620",
"L+	c #474633",
"M+	c #ECB845",
"N+	c #BB4422",
"O+	c #DC8C37",
"P+	c #FAAD3C",
"Q+	c #DF3322",
"R+	c #D86B27",
"S+	c #221122",
"T+	c #874B28",
"U+	c #E59E2C",
"V+	c #FFA62A",
"W+	c #A92C16",
"  . + @ @ # # $ % & * = - ; > , ' ) ! ~ ) { ! = ) ) ~ ] ) ^ / ! / ) ( _ : < [ = ",
"} | 1 2 3 4 5 6 7 8 9 ^ ) ) 9 ; ; ^ ! ! 0 ! ) a ) ! ) - ' ^ , ! / > b c d e f ! ",
"g h i j k l m n o p q , r $ @ a ) s t - ! ! ! - ! ) = = = u > - - m v w x = y ^ ",
"z < 2 A B C C D E F B G H I J K ^ ) ; L { ! ! ! { y { > ^ = M ! f N O P Q ^ ^ y ",
"R B : _ 4 S H T U V W X : Y Z t ` ~ / 9 > ! L ! ! = / = > - - >  ...A Z V y +.) ",
"@.< A #.: < _ 4 $.%.&.A A *.R =.-.;.^ M f = / { ! y y = { , m > >.,.D  .'.).!.~.",
"{.].#.^./._ Y (.4 4 _.:.<.#.A [.=.-.}.|.1.- t L ! ! ^ ^ ~ y 2.M > p u U 3.h 4.5.",
"6.7.8.(.< 9.^.0._ a.f ) f - U 0.< }.b.c.1.1.d.e.u / / K y y , ! - y , - f.[ g.2 ",
") z 5 V g.w * h.4./ f F f ) 9 U 9.i.j.i.i.k.l.m.= { = ^ f ^ > n.- o., y = @ k 4.",
"K 3.p.q.= r.X d &.0./ f.O * s.!.i.b.i.t.u.k.v.m.> / w.9 9 9 9 L > = ~ ) x.h @.A ",
").y.p.= z.3.: '.A.5.%.- f B.6.C.i.j.t.u.u.D.l.E.F.- 9 m 9 / > = = f m G.H.%.A @.",
",./ I.J.x S < K.) K.4.U ~ X 8 z.i.j.u.u.u.L.l.E.v.9 f f = f f f ) a M.'.%.O $.#.",
">.y m ~ N *.Y H.K...T # 0...A < t.N.N.O.O.L.P.P.Q.f ) o.o.^ R.~ y f B B ^.4 w 3.",
"y ! o.M m ) b I < Y g.< 4 A.S.T.U.N.N.N.N.L.P.V.l.M F ! = ~ y ^ ^ M a ~ ^ , =.B ",
"! ) M M f y 1 r W.d X.4.A n :.Y.Z.`. + + +`.V..+l.++M > = f ~ @+) ^ = ~ ) ~ f = ",
") - M o.) y G.#+2.h.c 4 n 0.Y 8 $+$+%+&+&+`..+.+l.*+= = o.M f o.M - - > { ] ~ ~ ",
"@+o.o.M M u , y q K =+4 -+;+A 3 >+$+`.`.`.`..+P.= = / = & = ! ) f - - ! ! f ~ ) ",
") ~ f o.~ ) = y ) & 3._ 4 ,+T.'+>+$+)+!+!+)+.+P.! - G ~+O n.- t y y - - ! ) f ! ",
"^ ~ F {+f = ^ ) ]+^+r./+(+M y o.>+$+)+!+!+)+.+P.> ~ F G.f = y ^ y ) - ! ! - > > ",
") o.~ , _+= = y $.Y r.:+M f > <+$+$+)+!+!+)+.+P.a ^ , [+'+^ y = = = }+M - f f f ",
"f ) o.~ ^ +.a - M |+'.1+$.2+B.X.3+4+)+!+!+)+5+P.) n.*+- ~ ~ f ^ ^ = ~ ! ! f f f ",
"f ^ - a 6+y ~ y 7+8+B _ j j W &.A 3+)+!+!+)+9+P.M = n.! = y }+/ f f ~ - ! ! f { ",
") o.~ ~ 6+0+y @++.r 2 a+< Y A g.j b+!+c+d+e+9+P.) - u f+^ - > - ! / ! f ! / ! f ",
"f o.G.g+u u ^ ^ ^ h+T a+_ ).=+(+i+j+k+k+l+m+9+n+o.! y u u ^ f ! ! / ^ / f f - f ",
"~ ) ~ q.f+) K o.2.+.$._ a.-.D *.W o+p+l+l+o+q+n+t r+~ ~ ~ ! = s+o.~ ~ G - - ! > ",
"y y F t q n.^ t+y +.$.u+V #.9.A *.o+l+l+l+o+n+~.+.^ y ^ - - / ^ I.G G ~.y ! ! f ",
"- u = > ) ^ ^ _+y t h A u+9._ 9.o o+l+l+l+e+q+*+*+) ^ ^ ~ u v+~+S.G { ' = = ~ = ",
"^ ~ #+- a ^ ~ ) ~ ^ Q ..2 < 5 4 3 o l+w+w+e+q+^ ^ ^ = #+9 9 ^ , s+, , ~ ) ! { = ",
"~ ^ K ~ - Q @+) ~ ' ) ;.W.$.W.$.B >.l+x+x+y+q+o.) ~ y , M ^ f u n., , ) { ! f y ",
"y - s+z+N g+7+A+7+) y a I ].[.> m ~ w+x+x+B+s+u ^ s+] ^ / = , C+Q A+9 9 L ! - ) ",
"f 2.y z+^ D+[+q.2+^ F y x F Q o.- ~ ) l+x+B+n.J s+^ ' , > ^ m h.S z.E+h D+D+*+! ",
"^ y <+o.F+z+q._+t f f f f = ) f f ~ o.l+G+9+y > 8+f.f.8+) L z.z.} g+9.D H+I+, ^ ",
"^ ' ) ' f ) ) g+G.{+f ! - - o.- f = ^ J+J+9+y = = ) ! K @+]+*.g+p.g+_ Y 4 =.K+~.",
"~ ) o.f f o.o.y ^ F+) M f , f M , y F+, y ) = ' ' ] ' L+i =+M+G ' K.=+/ -+A N+M ",
"' f f - f f o.~ y ^ y y ~ F e.F - = y y , h+~.] ~ ^ ) {+3.O+Y _.~.{.h.f.-+u+_ N+",
") f f f f f ! - - 2.~ <+F F f ^ ! f ^ n.q f+q y = ) y e.P+4.{.].$.9.r.W.,+7.Q+5.",
"^ ' y f o.~ = , ) = ! ) ) - f f ^ n.y ^ a '+) y > = x.R+#.$ ).5 d < /.A '.5 &.L ",
"w.M 9 = f o.f f ) ! ) ) ! f f f = f+) y ++^ ^ ] ' K ~.J.E+o 3 2 ].< =+C.:+4 =.S+",
"[ i | 9 ^ f ! ! ! ! ! f ! ) f = u f ' ~.T+, ' y ~ { a D+U+n z.z.z.N P+V P+:+C.4 ",
"A 7 V+B.! ! ! f ! ) f ! o.^ ~ u ' { ^ u ~ u ^ ' y u 0 '.J D+L+<+1+f.5.A.W+P+S a+"};
