/* XPM */
static char * floor_xpm[] = {
"40 40 262 2",
"  	c #DDB23B",
". 	c #FFBD43",
"+ 	c #E7A93C",
"@ 	c #694717",
"# 	c #A42D17",
"$ 	c #994825",
"% 	c #CD4E1C",
"& 	c #985728",
"* 	c #45452E",
"= 	c #5B4326",
"- 	c #4C3C24",
"; 	c #3B2D1E",
"> 	c #5C3E24",
", 	c #6A4C2C",
"' 	c #634B30",
") 	c #54422A",
"! 	c #523D25",
"~ 	c #5B452A",
"{ 	c #533F2A",
"] 	c #5D4931",
"^ 	c #5D492C",
"/ 	c #4B3623",
"( 	c #862818",
"_ 	c #FEEC53",
": 	c #FEF356",
"< 	c #FFF559",
"[ 	c #7B4D25",
"} 	c #E9AE32",
"| 	c #8D4B1B",
"1 	c #B6762C",
"2 	c #FDD44A",
"3 	c #FFDC43",
"4 	c #FFFE55",
"5 	c #FDCD43",
"6 	c #FFC52C",
"7 	c #FBFA4B",
"8 	c #FFB829",
"9 	c #443421",
"0 	c #554432",
"a 	c #4D3E2A",
"b 	c #8C3F21",
"c 	c #FEE446",
"d 	c #FCB33D",
"e 	c #5D4018",
"f 	c #534126",
"g 	c #E3892B",
"h 	c #FEAA32",
"i 	c #D97929",
"j 	c #FC8123",
"k 	c #F67927",
"l 	c #EE8822",
"m 	c #383525",
"n 	c #C95819",
"o 	c #FEC43B",
"p 	c #262A24",
"q 	c #694C25",
"r 	c #CD6826",
"s 	c #2A211A",
"t 	c #7C532C",
"u 	c #62462B",
"v 	c #F46E21",
"w 	c #FEC241",
"x 	c #2D2B2B",
"y 	c #634A2D",
"z 	c #C2652C",
"A 	c #FFFE5B",
"B 	c #FF9B35",
"C 	c #313129",
"D 	c #EA8D2C",
"E 	c #B8551C",
"F 	c #74522C",
"G 	c #8D532B",
"H 	c #F5842C",
"I 	c #FFCC33",
"J 	c #754828",
"K 	c #594531",
"L 	c #523621",
"M 	c #453A24",
"N 	c #D2752C",
"O 	c #FE832C",
"P 	c #493913",
"Q 	c #423B2B",
"R 	c #FF732D",
"S 	c #FDA533",
"T 	c #FDD344",
"U 	c #844322",
"V 	c #E38B31",
"W 	c #FE7A2B",
"X 	c #F7561A",
"Y 	c #FFFF63",
"Z 	c #EB5617",
"` 	c #E8822F",
" .	c #CD9B33",
"..	c #F89729",
"+.	c #835A31",
"@.	c #FD9B2C",
"#.	c #FC8B30",
"$.	c #FF7523",
"%.	c #FC671A",
"&.	c #FFCB3E",
"*.	c #FE9333",
"=.	c #EE5423",
"-.	c #6D5126",
";.	c #8C622C",
">.	c #322722",
",.	c #F4C739",
"'.	c #EC772A",
").	c #B54A22",
"!.	c #693B1A",
"~.	c #7A4C2B",
"{.	c #ED7623",
"].	c #FE942D",
"^.	c #FEA238",
"/.	c #FFDC50",
"(.	c #CD3615",
"_.	c #C95624",
":.	c #552623",
"<.	c #833118",
"[.	c #CE7A29",
"}.	c #AC79BD",
"|.	c #8359AC",
"1.	c #6E5032",
"2.	c #FE6422",
"3.	c #FEEB4E",
"4.	c #FFEB43",
"5.	c #D95521",
"6.	c #F5A637",
"7.	c #DE4216",
"8.	c #FEDA4C",
"9.	c #FC7919",
"0.	c #7E281C",
"a.	c #B489D5",
"b.	c #5218B4",
"c.	c #41187B",
"d.	c #965B2C",
"e.	c #6A4524",
"f.	c #FF9225",
"g.	c #E76726",
"h.	c #39049C",
"i.	c #624426",
"j.	c #4D4026",
"k.	c #6D3D24",
"l.	c #A46630",
"m.	c #FEE24D",
"n.	c #F79135",
"o.	c #412E21",
"p.	c #423D30",
"q.	c #FF7733",
"r.	c #FD8B2D",
"s.	c #AD551F",
"t.	c #2C3725",
"u.	c #4A048B",
"v.	c #9B632D",
"w.	c #FEB735",
"x.	c #795125",
"y.	c #E4832B",
"z.	c #DD5A21",
"A.	c #CD91CD",
"B.	c #6224AC",
"C.	c #5204B4",
"D.	c #FF8630",
"E.	c #B428A4",
"F.	c #8324A4",
"G.	c #5A048B",
"H.	c #5A006A",
"I.	c #665328",
"J.	c #6B3723",
"K.	c #BD79D5",
"L.	c #A4248B",
"M.	c #B4047B",
"N.	c #73047B",
"O.	c #62046A",
"P.	c #FE8824",
"Q.	c #A34625",
"R.	c #CD9DC5",
"S.	c #AC089C",
"T.	c #940C7B",
"U.	c #830494",
"V.	c #B96B2D",
"W.	c #4C412A",
"X.	c #694A31",
"Y.	c #BD50BD",
"Z.	c #C548A4",
"`.	c #734D2B",
" +	c #E79536",
".+	c #733921",
"++	c #EF6B18",
"@+	c #B4388B",
"#+	c #94189C",
"$+	c #F48B2B",
"%+	c #5A291C",
"&+	c #A9672A",
"*+	c #9C44AC",
"=+	c #AC0862",
"-+	c #A55D2B",
";+	c #8B6130",
">+	c #B55825",
",+	c #FFAB2E",
"'+	c #FE6E23",
")+	c #FF831F",
"!+	c #B44094",
"~+	c #7F5A30",
"{+	c #F29B36",
"]+	c #635031",
"^+	c #8B5C2C",
"/+	c #5E4B25",
"(+	c #EC8531",
"_+	c #D79435",
":+	c #BA8023",
"<+	c #AC2073",
"[+	c #940041",
"}+	c #C6752C",
"|+	c #9F6430",
"1+	c #7E4621",
"2+	c #8F5D30",
"3+	c #FFE453",
"4+	c #AC044A",
"5+	c #9C1C4A",
"6+	c #83542B",
"7+	c #D97931",
"8+	c #C76D30",
"9+	c #DEB6DE",
"0+	c #AC205A",
"a+	c #C53073",
"b+	c #940C62",
"c+	c #831441",
"d+	c #704D30",
"e+	c #6E4729",
"f+	c #735130",
"g+	c #F5D64D",
"h+	c #D5A5CD",
"i+	c #AC2C6A",
"j+	c #AC1083",
"k+	c #AC184A",
"l+	c #730041",
"m+	c #835127",
"n+	c #7B005A",
"o+	c #941441",
"p+	c #B4288B",
"q+	c #C52C6A",
"r+	c #84592E",
"s+	c #92652D",
"t+	c #42372C",
"u+	c #AD6E30",
"v+	c #AA5723",
"w+	c #6E512E",
"x+	c #AD3F22",
"y+	c #712A22",
"z+	c #5C3620",
"A+	c #474633",
"B+	c #ECB845",
"C+	c #BB4422",
"D+	c #DC8C37",
"E+	c #FAAD3C",
"F+	c #DF3322",
"G+	c #D86B27",
"H+	c #F2B142",
"I+	c #221122",
"J+	c #874B28",
"K+	c #E59E2C",
"L+	c #FFA62A",
"M+	c #A92C16",
"  . + @ @ # # $ % & * = - ; > , ' ) ! ~ ) { ! = ) ) ~ ] ) ^ / ! / ) ( _ : < [ = ",
"} | 1 2 3 4 5 6 7 8 9 ^ ) ) 9 ; ; ^ ! ! 0 ! ) a ) ! ) - ' ^ , ! / > b c d e f ! ",
"g h i j k l m n o p q , r $ @ a ) s t - ! ! ! - ! ) = = = u > - - m v w x = y ^ ",
"z < 2 A B C C D E F B G H I J K ^ ) ; L { ! ! ! { y { > ^ = M ! f N O P Q ^ ^ y ",
"R B : _ 4 S H T U V W X : Y Z t ` ~ / 9 > ! L ! ! = / = > - - >  ...A Z V y +.) ",
"@.< A #.: < _ 4 $.%.&.A A *.R =.-.;.^ M f = / { ! y y = { , m > >.,.D  .'.).!.~.",
"{.].#.^./._ Y (.4 4 _.:.<.#.A [.=.-.}.}.|.- t L ! ! ^ ^ ~ y 1.M > p u U 2.h 3.4.",
"5.6.7.(.< 8.^.9._ 0.f ) f - U 9.< }.a.a.b.c.) d.u / / K y y , ! - y , - e.[ f.2 ",
") z 5 V f.w * g.3./ f F f ) 9 U }.a.a.a.b.h.h.) = { = ^ f ^ > i.- j., y = @ k 3.",
"K 2.k.l.= m.X d &.9./ e.O * n.!.}.a.a.a.b.h.h.= > / o.9 9 9 9 L > = ~ ) p.h @.A ",
").q.k.= r.2.: '.s.4.%.- f t.5.a.a.a.a.a.b.h.u.u.9 - 9 m 9 / > = = f m v.w.%.A @.",
",./ x.y.x S < z.) z.3.U ~ X 8 a.a.a.a.A.B.C.C.u./ 9 f f = f f f ) a D.'.%.O $.#.",
">.y m ~ N *.Y w.z...T # 9...A a.a.a.A.E.F.G.G.H.f f ) j.j.^ I.~ y f B B ^.4 w 2.",
"y ! j.M m ) b I < Y f.< 4 s.J.K.A.A.A.L.M.F.N.O.- M F ! = ~ y ^ ^ M a ~ ^ , =.B ",
"! ) M M f y 1 r P.d Q.3.A n :.a.R.R.E.S.T.L.U.O.M V.M > = f ~ W.) ^ = ~ ) ~ f = ",
") - M j.) y v.X.1.g.c 4 n 9.Y Y.Z.Z.E.S.T.T.L.N.= `.= = j.M f j.M - - > { ] ~ ~ ",
"W.j.j.M M u , y q K  +4 .+++A 3 @+Z.L.S.T.T.T.#+= = / = & = ! ) f - - ! ! f ~ ) ",
") ~ f j.~ ) = y ) & 2._ 4 $+%+&+*+Z.E.S.=+T.T.T.! - G -+O i.- t y y - - ! ) f ! ",
"^ ~ F ;+f = ^ ) >+,+m.'+)+M y j.!+Z.E.S.=+S.T.#+> ~ F v.f = y ^ y ) - ! ! - > > ",
") j.~ , ~+= = y $.Y m.{+M f > ]+!+Z.E.S.=+S.M.L.a ^ , ^+&+^ y = = = /+M - f f f ",
"f ) j.~ ^ +.a - M (+'._+$.:+t.Q.!+!+<+M.=+=+[+m ) i.`.- ~ ~ f ^ ^ = ~ ! ! f f f ",
"f ^ - a }+y ~ y |+1+B _ j j W &.Y.!+Z.<+=+M.[+|+M = i.! = y /+/ f f ~ - ! ! f { ",
") j.~ ~ }+2+y W.+.r 2 3+< Y A f.Y.!+Z.<+4+4+5+- ) - u 6+^ - > - ! / ! f ! / ! f ",
"f j.v.7+u u ^ ^ ^ 8+T 3+_ ). +)+Y.!+9+0+[+[+5+) j.! y u u ^ f ! ! / ^ / f f - f ",
"~ ) ~ l.6+) K j.1.+.$._ 0.-.D *.Y.9+a+0+[+b+c+y t d+~ ~ ~ ! = e+j.~ ~ G - - ! > ",
"y y F t q i.^ f+y +.$.g+V #.8.A h+9+a+0+[+5+c+~.+.^ y ^ - - / ^ x.G G ~.y ! ! f ",
"- u = > ) ^ ^ ~+y t h A g+8._ 8.o i+j+k+5+l+c+`.`.) ^ ^ ~ u m+-+J.G { ' = = ~ = ",
"^ ~ X.- a ^ ~ ) ~ ^ Q ..2 < 5 4 3 i+j+a+n+n+o+^ ^ ^ = X.9 9 ^ , e+, , ~ ) ! { = ",
"~ ^ K ~ - Q W.) ~ ' ) ;.P.$.P.$.B p+j+q+[+n+F j.) ~ y , M ^ f u i., , ) { ! f y ",
"y - e+r+N 7+|+s+|+) y a I ].[.> m i+q+q+[+n+e+u ^ e+] ^ / = , t+Q s+9 9 L ! - ) ",
"f 1.y r+^ u+^+l.:+^ F y x F Q j.- ~ i+q+[+n+i.J e+^ ' , > ^ m g.S r.v+h u+u+`.! ",
"^ y ]+j.w+r+l.~+t f f f f = ) f f ~ i+q+n+! y > 1+e.e.1+) L r.r.} 7+8.D x+y+, ^ ",
"^ ' ) ' f ) ) 7+v.;+f ! - - j.- f = i+i+o+f y = = ) ! K W.>+*.7+k.7+_ Y 4 =.z+~.",
"~ ) j.f f j.j.y ^ w+) M f , f M , y w+, l+) = ' ' ] ' A+i  +B+G ' z. +/ .+A C+M ",
"' f f - f f j.~ y ^ y y ~ F d.F - = y y , 8+~.] ~ ^ ) ;+2.D+Y _.~.{.g.e..+g+_ C+",
") f f f f f ! - - 1.~ ]+F F f ^ ! f ^ i.q 6+q y = ) y d.E+3.{.].$.8.m.P.$+6.F+4.",
"^ ' y f j.~ = , ) = ! ) ) - f f ^ i.y ^ a &+) y > = p.G+#.$ ).5 d < /.A '.5 &.L ",
"o.M 9 = f j.f f ) ! ) ) ! f f f = 6+) y V.^ ^ ] ' K ~.y.v+o 3 2 ].<  +H+{+4 =.I+",
"[ i | 9 ^ f ! ! ! ! ! f ! ) f = u f ' ~.J+, ' y ~ { a u+K+n r.r.r.N E+V E+{+H+4 ",
"A 7 L+t.! ! ! f ! ) f ! j.^ ~ u ' { ^ u ~ u ^ ' y u 0 '.J u+A+]+_+e.4.s.M+E+S 3+"};
