/* XPM */
static char * floor (7th copy)_xpm[] = {
"40 40 261 2",
"  	c #DDB23B",
". 	c #FFBD43",
"+ 	c #E7A93C",
"@ 	c #694717",
"# 	c #A42D17",
"$ 	c #994825",
"% 	c #CD4E1C",
"& 	c #985728",
"* 	c #45452E",
"= 	c #5B4326",
"- 	c #4C3C24",
"; 	c #3B2D1E",
"> 	c #5C3E24",
", 	c #6A4C2C",
"' 	c #634B30",
") 	c #54422A",
"! 	c #523D25",
"~ 	c #5B452A",
"{ 	c #533F2A",
"] 	c #5D4931",
"^ 	c #5D492C",
"/ 	c #4B3623",
"( 	c #862818",
"_ 	c #FEEC53",
": 	c #FEF356",
"< 	c #FFF559",
"[ 	c #7B4D25",
"} 	c #E9AE32",
"| 	c #8D4B1B",
"1 	c #B6762C",
"2 	c #FDD44A",
"3 	c #FFDC43",
"4 	c #FFFE55",
"5 	c #FDCD43",
"6 	c #FFC52C",
"7 	c #FBFA4B",
"8 	c #FFB829",
"9 	c #443421",
"0 	c #554432",
"a 	c #4D3E2A",
"b 	c #8C3F21",
"c 	c #FEE446",
"d 	c #FCB33D",
"e 	c #5D4018",
"f 	c #534126",
"g 	c #E3892B",
"h 	c #FEAA32",
"i 	c #D97929",
"j 	c #FC8123",
"k 	c #F67927",
"l 	c #EE8822",
"m 	c #383525",
"n 	c #C95819",
"o 	c #FEC43B",
"p 	c #262A24",
"q 	c #694C25",
"r 	c #CD6826",
"s 	c #2A211A",
"t 	c #7C532C",
"u 	c #62462B",
"v 	c #F46E21",
"w 	c #FEC241",
"x 	c #2D2B2B",
"y 	c #634A2D",
"z 	c #C2652C",
"A 	c #FFFE5B",
"B 	c #FF9B35",
"C 	c #313129",
"D 	c #EA8D2C",
"E 	c #B8551C",
"F 	c #74522C",
"G 	c #8D532B",
"H 	c #F5842C",
"I 	c #FFCC33",
"J 	c #754828",
"K 	c #594531",
"L 	c #523621",
"M 	c #453A24",
"N 	c #D2752C",
"O 	c #FE832C",
"P 	c #493913",
"Q 	c #423B2B",
"R 	c #FF732D",
"S 	c #FDA533",
"T 	c #FDD344",
"U 	c #844322",
"V 	c #E38B31",
"W 	c #FE7A2B",
"X 	c #F7561A",
"Y 	c #FFFF63",
"Z 	c #EB5617",
"` 	c #E8822F",
" .	c #CD9B33",
"..	c #F89729",
"+.	c #835A31",
"@.	c #FD9B2C",
"#.	c #FC8B30",
"$.	c #FF7523",
"%.	c #FC671A",
"&.	c #FFCB3E",
"*.	c #FE9333",
"=.	c #EE5423",
"-.	c #6D5126",
";.	c #8C622C",
">.	c #322722",
",.	c #F4C739",
"'.	c #EC772A",
").	c #B54A22",
"!.	c #693B1A",
"~.	c #7A4C2B",
"{.	c #ED7623",
"].	c #FE942D",
"^.	c #FEA238",
"/.	c #FFDC50",
"(.	c #CD3615",
"_.	c #C95624",
":.	c #552623",
"<.	c #833118",
"[.	c #CE7A29",
"}.	c #BD79D5",
"|.	c #73309C",
"1.	c #6224AC",
"2.	c #6E5032",
"3.	c #FE6422",
"4.	c #FEEB4E",
"5.	c #FFEB43",
"6.	c #D95521",
"7.	c #F5A637",
"8.	c #DE4216",
"9.	c #FEDA4C",
"0.	c #FC7919",
"a.	c #7E281C",
"b.	c #9C6DBD",
"c.	c #B4388B",
"d.	c #7B24A4",
"e.	c #7B1494",
"f.	c #965B2C",
"g.	c #6A4524",
"h.	c #FF9225",
"i.	c #E76726",
"j.	c #A44CA4",
"k.	c #AC34AC",
"l.	c #8324A4",
"m.	c #7314AC",
"n.	c #624426",
"o.	c #4D4026",
"p.	c #6D3D24",
"q.	c #A46630",
"r.	c #FEE24D",
"s.	c #F79135",
"t.	c #9C5DAC",
"u.	c #B461C5",
"v.	c #8B24A4",
"w.	c #412E21",
"x.	c #423D30",
"y.	c #FF7733",
"z.	c #FD8B2D",
"A.	c #AD551F",
"B.	c #2C3725",
"C.	c #F2B142",
"D.	c #AC59BD",
"E.	c #9C44AC",
"F.	c #9B632D",
"G.	c #FEB735",
"H.	c #795125",
"I.	c #E4832B",
"J.	c #DD5A21",
"K.	c #B45DAC",
"L.	c #FF8630",
"M.	c #665328",
"N.	c #6B3723",
"O.	c #9C28A4",
"P.	c #A4248B",
"Q.	c #94189C",
"R.	c #FE8824",
"S.	c #A34625",
"T.	c #B428A4",
"U.	c #AC40AC",
"V.	c #B96B2D",
"W.	c #4C412A",
"X.	c #694A31",
"Y.	c #94089C",
"Z.	c #940041",
"`.	c #7B005A",
" +	c #734D2B",
".+	c #E79536",
"++	c #733921",
"@+	c #EF6B18",
"#+	c #7B107B",
"$+	c #F48B2B",
"%+	c #5A291C",
"&+	c #AC59A4",
"*+	c #9428A4",
"=+	c #94206A",
"-+	c #7B0C62",
";+	c #A55D2B",
">+	c #8B6130",
",+	c #B55825",
"'+	c #FFAB2E",
")+	c #FE6E23",
"!+	c #FF831F",
"~+	c #7F5A30",
"{+	c #F29B36",
"]+	c #635031",
"^+	c #940C7B",
"/+	c #8B5C2C",
"(+	c #A9672A",
"_+	c #5E4B25",
":+	c #EC8531",
"<+	c #D79435",
"[+	c #BA8023",
"}+	c #A428A4",
"|+	c #940C62",
"1+	c #C6752C",
"2+	c #9F6430",
"3+	c #7E4621",
"4+	c #8F5D30",
"5+	c #FFE453",
"6+	c #83542B",
"7+	c #D97931",
"8+	c #C76D30",
"9+	c #BD7732",
"0+	c #943473",
"a+	c #8310AC",
"b+	c #AC349C",
"c+	c #704D30",
"d+	c #6E4729",
"e+	c #735130",
"f+	c #F5D64D",
"g+	c #B4288B",
"h+	c #831441",
"i+	c #835127",
"j+	c #5A0031",
"k+	c #C53073",
"l+	c #AC2073",
"m+	c #9C1C4A",
"n+	c #84592E",
"o+	c #92652D",
"p+	c #AC2C6A",
"q+	c #AC1862",
"r+	c #42372C",
"s+	c #AD6E30",
"t+	c #AC184A",
"u+	c #AA5723",
"v+	c #6E512E",
"w+	c #AD3F22",
"x+	c #712A22",
"y+	c #5C3620",
"z+	c #730C41",
"A+	c #474633",
"B+	c #ECB845",
"C+	c #BB4422",
"D+	c #DC8C37",
"E+	c #FAAD3C",
"F+	c #DF3322",
"G+	c #D86B27",
"H+	c #221122",
"I+	c #874B28",
"J+	c #E59E2C",
"K+	c #FFA62A",
"L+	c #A92C16",
"  . + @ @ # # $ % & * = - ; > , ' ) ! ~ ) { ! = ) ) ~ ] ) ^ / ! / ) ( _ : < [ = ",
"} | 1 2 3 4 5 6 7 8 9 ^ ) ) 9 ; ; ^ ! ! 0 ! ) a ) ! ) - ' ^ , ! / > b c d e f ! ",
"g h i j k l m n o p q , r $ @ a ) s t - ! ! ! - ! ) = = = u > - - m v w x = y ^ ",
"z < 2 A B C C D E F B G H I J K ^ ) ; L { ! ! ! { y { > ^ = M ! f N O P Q ^ ^ y ",
"R B : _ 4 S H T U V W X : Y Z t ` ~ / 9 > ! L ! ! = / = > - - >  ...A Z V y +.) ",
"@.< A #.: < _ 4 $.%.&.A A *.R =.-.;.^ M f = / { ! y y = { , m > >.,.D  .'.).!.~.",
"{.].#.^./._ Y (.4 4 _.:.<.#.A [.=.-.}.|.1.|.t L ! ! ^ ^ ~ y 2.M > p u U 3.h 4.5.",
"6.7.8.(.< 9.^.0._ a.f ) f - U 0.< b.c.d.d.e.e.f.u / / K y y , ! - y , - g.[ h.2 ",
") z 5 V h.w * i.4./ f F f ) 9 U 9.j.k.l.l.l.d.m.= { = ^ f ^ > n.- o., y = @ k 4.",
"K 3.p.q.= r.X d &.0./ g.O * s.!.t.u.c.v.l.l.d.l.m./ w.9 9 9 9 L > = ~ ) x.h @.A ",
").y.p.= z.3.: '.A.5.%.- f B.6.C.t.u.D.E.v.l.l.l.d.- 9 m 9 / > = = f m F.G.%.A @.",
",./ H.I.x S < J.) J.4.U ~ X 8 z.t.u.K.k.v.v.v.v.l.9 f f = f f f ) a L.'.%.O $.#.",
">.y m ~ N *.Y G.J...T # 0...A D.u.u.u.k.v.v.v.v.l.f ) o.o.^ M.~ y f B B ^.4 w 3.",
"y ! o.M m ) b I < Y h.< 4 A.N.D.u.u.u.k.v.O.v.P.Q.M F ! = ~ y ^ ^ M a ~ ^ , =.B ",
"! ) M M f y 1 r R.d S.4.A n :.D.u.u.u.T.U.O.P.c.k.V.M > = f ~ W.) ^ = ~ ) ~ f = ",
") - M o.) y F.X.2.i.c 4 n 0.Y D.u.u.u.O.Y.c.c.Z.`. += = o.M f o.M - - > { ] ~ ~ ",
"W.o.o.M M u , y q K .+4 ++@+A D.u.u.u.O.O.Z.`.`.#+= / = & = ! ) f - - ! ! f ~ ) ",
") ~ f o.~ ) = y ) & 3._ 4 $+%+&+u.u.u.*+=+`.-+-+! - G ;+O n.- t y y - - ! ) f ! ",
"^ ~ F >+f = ^ ) ,+'+r.)+!+M y K.u.u.*+-+P.`.-+-+> ~ F F.f = y ^ y ) - ! ! - > > ",
") o.~ , ~+= = y $.Y r.{+M f > ]+&+u.v.^+O.Z.-+-+a ^ , /+(+^ y = = = _+M - f f f ",
"f ) o.~ ^ +.a - M :+'.<+$.[+B.S.&+u.v.^+}+|+|+-+) n. +- ~ ~ f ^ ^ = ~ ! ! f f f ",
"f ^ - a 1+y ~ y 2+3+B _ j j W &.&+u.v.Y.}+|+|+-+M = n.! = y _+/ f f ~ - ! ! f { ",
") o.~ ~ 1+4+y W.+.r 2 5+< Y A h.&+u.P.Y.}+|+-+- ) - u 6+^ - > - ! / ! f ! / ! f ",
"f o.F.7+u u ^ ^ ^ 8+T 5+_ )..+!+9+0+O.a+}+Z.-+) o.! y u u ^ f ! ! / ^ / f f - f ",
"~ ) ~ q.6+) K o.2.+.$._ a.-.D *.W b+c.}+}+Z.`.y t c+~ ~ ~ ! = d+o.~ ~ G - - ! > ",
"y y F t q n.^ e+y +.$.f+V #.9.A *.b+c.T.g+Z.h+~.+.^ y ^ - - / ^ H.G G ~.y ! ! f ",
"- u = > ) ^ ^ ~+y t h A f+9._ 9.o b+c.T.|+^+h+ + +) ^ ^ ~ u i+;+N.G { ' = = ~ = ",
"^ ~ X.- a ^ ~ ) ~ ^ Q ..2 < 5 4 3 o b+=+|+=+j+^ ^ ^ = X.9 9 ^ , d+, , ~ ) ! { = ",
"~ ^ K ~ - Q W.) ~ ' ) ;.R.$.R.$.B >.k+l+Z.m+j+o.) ~ y , M ^ f u n., , ) { ! f y ",
"y - d+n+N 7+2+o+2+) y a I ].[.> m ~ p+k+q+m+d+u ^ d+] ^ / = , r+Q o+9 9 L ! - ) ",
"f 2.y n+^ s+/+q.[+^ F y x F Q o.- ~ p+k+t+m+n.J d+^ ' , > ^ m i.S z.u+h s+s+ +! ",
"^ y ]+o.v+n+q.~+t f f f f = ) f f ~ o.p+t+m+y > 3+g.g.3+) L z.z.} 7+9.D w+x+, ^ ",
"^ ' ) ' f ) ) 7+F.>+f ! - - o.- f = ^ p+t+m+y = = ) ! K W.,+*.7+p.7+_ Y 4 =.y+~.",
"~ ) o.f f o.o.y ^ v+) M f , f M , y v+, z+) = ' ' ] ' A+i .+B+G ' J..+/ ++A C+M ",
"' f f - f f o.~ y ^ y y ~ F f.F - = y y , 8+~.] ~ ^ ) >+3.D+Y _.~.{.i.g.++f+_ C+",
") f f f f f ! - - 2.~ ]+F F f ^ ! f ^ n.q 6+q y = ) y f.E+4.{.].$.9.r.R.$+7.F+5.",
"^ ' y f o.~ = , ) = ! ) ) - f f ^ n.y ^ a (+) y > = x.G+#.$ ).5 d < /.A '.5 &.L ",
"w.M 9 = f o.f f ) ! ) ) ! f f f = 6+) y V.^ ^ ] ' K ~.I.u+o 3 2 ].< .+C.{+4 =.H+",
"[ i | 9 ^ f ! ! ! ! ! f ! ) f = u f ' ~.I+, ' y ~ { a s+J+n z.z.z.N E+V E+{+C.4 ",
"A 7 K+B.! ! ! f ! ) f ! o.^ ~ u ' { ^ u ~ u ^ ' y u 0 '.J s+A+]+<+g.5.A.L+E+S 5+"};
