/* XPM */
static char * floor (11th copy)_xpm[] = {
"40 40 265 2",
"  	c #DDB23B",
". 	c #FFBD43",
"+ 	c #E7A93C",
"@ 	c #694717",
"# 	c #A42D17",
"$ 	c #994825",
"% 	c #CD4E1C",
"& 	c #985728",
"* 	c #45452E",
"= 	c #5B4326",
"- 	c #4C3C24",
"; 	c #3B2D1E",
"> 	c #5C3E24",
", 	c #6A4C2C",
"' 	c #634B30",
") 	c #54422A",
"! 	c #523D25",
"~ 	c #5B452A",
"{ 	c #533F2A",
"] 	c #5D4931",
"^ 	c #5D492C",
"/ 	c #4B3623",
"( 	c #862818",
"_ 	c #FEEC53",
": 	c #FEF356",
"< 	c #FFF559",
"[ 	c #7B4D25",
"} 	c #E9AE32",
"| 	c #8D4B1B",
"1 	c #B6762C",
"2 	c #FDD44A",
"3 	c #FFDC43",
"4 	c #FFFE55",
"5 	c #FDCD43",
"6 	c #FFC52C",
"7 	c #FBFA4B",
"8 	c #FFB829",
"9 	c #443421",
"0 	c #554432",
"a 	c #4D3E2A",
"b 	c #8C3F21",
"c 	c #FEE446",
"d 	c #FCB33D",
"e 	c #5D4018",
"f 	c #534126",
"g 	c #E3892B",
"h 	c #FEAA32",
"i 	c #D97929",
"j 	c #FC8123",
"k 	c #F67927",
"l 	c #EE8822",
"m 	c #383525",
"n 	c #C95819",
"o 	c #FEC43B",
"p 	c #262A24",
"q 	c #694C25",
"r 	c #CD6826",
"s 	c #2A211A",
"t 	c #7C532C",
"u 	c #62462B",
"v 	c #F46E21",
"w 	c #FEC241",
"x 	c #2D2B2B",
"y 	c #634A2D",
"z 	c #C2652C",
"A 	c #FFFE5B",
"B 	c #FF9B35",
"C 	c #313129",
"D 	c #EA8D2C",
"E 	c #B8551C",
"F 	c #74522C",
"G 	c #8D532B",
"H 	c #F5842C",
"I 	c #FFCC33",
"J 	c #754828",
"K 	c #594531",
"L 	c #523621",
"M 	c #453A24",
"N 	c #D2752C",
"O 	c #FE832C",
"P 	c #493913",
"Q 	c #423B2B",
"R 	c #FF732D",
"S 	c #FDA533",
"T 	c #FDD344",
"U 	c #844322",
"V 	c #E38B31",
"W 	c #FE7A2B",
"X 	c #F7561A",
"Y 	c #FFFF63",
"Z 	c #EB5617",
"` 	c #E8822F",
" .	c #CD9B33",
"..	c #F89729",
"+.	c #835A31",
"@.	c #FD9B2C",
"#.	c #FC8B30",
"$.	c #FF7523",
"%.	c #FC671A",
"&.	c #FFCB3E",
"*.	c #FE9333",
"=.	c #EE5423",
"-.	c #6D5126",
";.	c #8C622C",
">.	c #322722",
",.	c #F4C739",
"'.	c #EC772A",
").	c #B54A22",
"!.	c #693B1A",
"~.	c #7A4C2B",
"{.	c #ED7623",
"].	c #FE942D",
"^.	c #FEA238",
"/.	c #FFDC50",
"(.	c #CD3615",
"_.	c #C95624",
":.	c #552623",
"<.	c #833118",
"[.	c #CE7A29",
"}.	c #9479BD",
"|.	c #AC59A4",
"1.	c #73449C",
"2.	c #6E5032",
"3.	c #FE6422",
"4.	c #FEEB4E",
"5.	c #FFEB43",
"6.	c #D95521",
"7.	c #F5A637",
"8.	c #DE4216",
"9.	c #FEDA4C",
"0.	c #FC7919",
"a.	c #7E281C",
"b.	c #B489D5",
"c.	c #9461B4",
"d.	c #8348AC",
"e.	c #8B40AC",
"f.	c #965B2C",
"g.	c #6A4524",
"h.	c #FF9225",
"i.	c #E76726",
"j.	c #8324A4",
"k.	c #522CCD",
"l.	c #7B107B",
"m.	c #52045A",
"n.	c #624426",
"o.	c #4D4026",
"p.	c #6D3D24",
"q.	c #A46630",
"r.	c #FEE24D",
"s.	c #F79135",
"t.	c #732CC5",
"u.	c #391494",
"v.	c #412E21",
"w.	c #423D30",
"x.	c #FF7733",
"y.	c #FD8B2D",
"z.	c #AD551F",
"A.	c #2C3725",
"B.	c #AC79BD",
"C.	c #5218B4",
"D.	c #52006A",
"E.	c #390073",
"F.	c #9B632D",
"G.	c #FEB735",
"H.	c #795125",
"I.	c #E4832B",
"J.	c #DD5A21",
"K.	c #9428A4",
"L.	c #73309C",
"M.	c #FF8630",
"N.	c #CD9DC5",
"O.	c #7314AC",
"P.	c #5A006A",
"Q.	c #410C73",
"R.	c #665328",
"S.	c #6B3723",
"T.	c #CD7DC5",
"U.	c #A4248B",
"V.	c #FE8824",
"W.	c #A34625",
"X.	c #CD91CD",
"Y.	c #B428A4",
"Z.	c #A428A4",
"`.	c #8310AC",
" +	c #AC34AC",
".+	c #B96B2D",
"++	c #4C412A",
"@+	c #694A31",
"#+	c #AC40AC",
"$+	c #734D2B",
"%+	c #E79536",
"&+	c #733921",
"*+	c #EF6B18",
"=+	c #9C44AC",
"-+	c #F48B2B",
";+	c #5A291C",
">+	c #A9672A",
",+	c #94089C",
"'+	c #94189C",
")+	c #A55D2B",
"!+	c #8B6130",
"~+	c #B55825",
"{+	c #FFAB2E",
"]+	c #FE6E23",
"^+	c #FF831F",
"/+	c #940C7B",
"(+	c #7F5A30",
"_+	c #F29B36",
":+	c #635031",
"<+	c #8B5C2C",
"[+	c #5E4B25",
"}+	c #EC8531",
"|+	c #D79435",
"1+	c #BA8023",
"2+	c #AC089C",
"3+	c #52004A",
"4+	c #C6752C",
"5+	c #9F6430",
"6+	c #7E4621",
"7+	c #8F5D30",
"8+	c #FFE453",
"9+	c #AC349C",
"0+	c #94206A",
"a+	c #940C62",
"b+	c #940041",
"c+	c #5A0031",
"d+	c #83542B",
"e+	c #D97931",
"f+	c #C76D30",
"g+	c #BD7732",
"h+	c #9C28A4",
"i+	c #942873",
"j+	c #7B0C62",
"k+	c #7B005A",
"l+	c #7B206A",
"m+	c #704D30",
"n+	c #6E4729",
"o+	c #735130",
"p+	c #F5D64D",
"q+	c #943473",
"r+	c #831441",
"s+	c #835127",
"t+	c #9C1C4A",
"u+	c #84592E",
"v+	c #92652D",
"w+	c #42372C",
"x+	c #AD6E30",
"y+	c #AA5723",
"z+	c #6E512E",
"A+	c #AD3F22",
"B+	c #712A22",
"C+	c #5C3620",
"D+	c #474633",
"E+	c #ECB845",
"F+	c #BB4422",
"G+	c #DC8C37",
"H+	c #FAAD3C",
"I+	c #DF3322",
"J+	c #D86B27",
"K+	c #F2B142",
"L+	c #221122",
"M+	c #874B28",
"N+	c #E59E2C",
"O+	c #FFA62A",
"P+	c #A92C16",
"  . + @ @ # # $ % & * = - ; > , ' ) ! ~ ) { ! = ) ) ~ ] ) ^ / ! / ) ( _ : < [ = ",
"} | 1 2 3 4 5 6 7 8 9 ^ ) ) 9 ; ; ^ ! ! 0 ! ) a ) ! ) - ' ^ , ! / > b c d e f ! ",
"g h i j k l m n o p q , r $ @ a ) s t - ! ! ! - ! ) = = = u > - - m v w x = y ^ ",
"z < 2 A B C C D E F B G H I J K ^ ) ; L { ! ! ! { y { > ^ = M ! f N O P Q ^ ^ y ",
"R B : _ 4 S H T U V W X : Y Z t ` ~ / 9 > ! L ! ! = / = > - - >  ...A Z V y +.) ",
"@.< A #.: < _ 4 $.%.&.A A *.R =.-.;.^ M f = / { ! y y = { , m > >.,.D  .'.).!.~.",
"{.].#.^./._ Y (.4 4 _.:.<.#.A [.=.-.}.|.1.1.t L ! ! ^ ^ ~ y 2.M > p u U 3.h 4.5.",
"6.7.8.(.< 9.^.0._ a.f ) f - U 0.< }.b.b.c.d.e.f.u / / K y y , ! - y , - g.[ h.2 ",
") z 5 V h.w * i.4./ f F f ) 9 U }.b.b.j.k.k.l.m.= { = ^ f ^ > n.- o., y = @ k 4.",
"K 3.p.q.= r.X d &.0./ g.O * s.!.}.b.b.t.u.u.t.m.> / v.9 9 9 9 L > = ~ ) w.h @.A ",
").x.p.= y.3.: '.z.5.%.- f A.6.B.b.b.b.t.C.C.t.D.E.- 9 m 9 / > = = f m F.G.%.A @.",
",./ H.I.x S < J.) J.4.U ~ X 8 B.b.b.K.C.C.C.L.D.m.9 f f = f f f ) a M.'.%.O $.#.",
">.y m ~ N *.Y G.J...T # 0...A B.b.N.K.O.C.C.t.P.Q.f ) o.o.^ R.~ y f B B ^.4 w 3.",
"y ! o.M m ) b I < Y h.< 4 z.S.T.N.U.K.O.O.O.K.m.- M F ! = ~ y ^ ^ M a ~ ^ , =.B ",
"! ) M M f y 1 r V.d W.4.A n :.X.Y.Z.Y.`.`.`. +m.M .+M > = f ~ ++) ^ = ~ ) ~ f = ",
") - M o.) y F.@+2.i.c 4 n 0.Y #+#+Z.U. +`.`.Z.P.= $+= = o.M f o.M - - > { ] ~ ~ ",
"++o.o.M M u , y q K %+4 &+*+A 3 =+Z.Z.Y.Y.Y.Y.Y.= = / = & = ! ) f - - ! ! f ~ ) ",
") ~ f o.~ ) = y ) & 3._ 4 -+;+>+e.Z.U.Y.U.,+,+'+! - G )+O n.- t y y - - ! ) f ! ",
"^ ~ F !+f = ^ ) ~+{+r.]+^+M y o.=+U.U.Y.U.,+/+'+> ~ F F.f = y ^ y ) - ! ! - > > ",
") o.~ , (+= = y $.Y r._+M f > :+ +Y.Y.U./+/+U.m.a ^ , <+>+^ y = = = [+M - f f f ",
"f ) o.~ ^ +.a - M }+'.|+$.1+A.W. +Y.Y.U.2+/+U.3+) n.$+- ~ ~ f ^ ^ = ~ ! ! f f f ",
"f ^ - a 4+y ~ y 5+6+B _ j j W &.=+ +Y.U./+/+U.3+M = n.! = y [+/ f f ~ - ! ! f { ",
") o.~ ~ 4+7+y +++.r 2 8+< Y A h.=+ +9+0+a+b+'+c+) - u d+^ - > - ! / ! f ! / ! f ",
"f o.F.e+u u ^ ^ ^ f+T 8+_ ).%+^+g+h+i+j+j+k+l+) o.! y u u ^ f ! ! / ^ / f f - f ",
"~ ) ~ q.d+) K o.2.+.$._ a.-.D *.W i+0+j+k+k+l+y t m+~ ~ ~ ! = n+o.~ ~ G - - ! > ",
"y y F t q n.^ o+y +.$.p+V #.9.A *.q+0+k+k+k+l+~.+.^ y ^ - - / ^ H.G G ~.y ! ! f ",
"- u = > ) ^ ^ (+y t h A p+9._ 9.o l+k+k+k+k+r+$+$+) ^ ^ ~ u s+)+S.G { ' = = ~ = ",
"^ ~ @+- a ^ ~ ) ~ ^ Q ..2 < 5 4 3 l+k+b+b+b+0+^ ^ ^ = @+9 9 ^ , n+, , ~ ) ! { = ",
"~ ^ K ~ - Q ++) ~ ' ) ;.V.$.V.$.B >.k+b+b+t+F o.) ~ y , M ^ f u n., , ) { ! f y ",
"y - n+u+N e+5+v+5+) y a I ].[.> m ~ t+b+b+t+n+u ^ n+] ^ / = , w+Q v+9 9 L ! - ) ",
"f 2.y u+^ x+<+q.1+^ F y x F Q o.- ~ t+b+b+t+n.J n+^ ' , > ^ m i.S y.y+h x+x+$+! ",
"^ y :+o.z+u+q.(+t f f f f = ) f f ~ t+b+b+t+y > 6+g.g.6+) L y.y.} e+9.D A+B+, ^ ",
"^ ' ) ' f ) ) e+F.!+f ! - - o.- f = ^ t+t+f y = = ) ! K ++~+*.e+p.e+_ Y 4 =.C+~.",
"~ ) o.f f o.o.y ^ z+) M f , f M , y z+, y ) = ' ' ] ' D+i %+E+G ' J.%+/ &+A F+M ",
"' f f - f f o.~ y ^ y y ~ F f.F - = y y , f+~.] ~ ^ ) !+3.G+Y _.~.{.i.g.&+p+_ F+",
") f f f f f ! - - 2.~ :+F F f ^ ! f ^ n.q d+q y = ) y f.H+4.{.].$.9.r.V.-+7.I+5.",
"^ ' y f o.~ = , ) = ! ) ) - f f ^ n.y ^ a >+) y > = w.J+#.$ ).5 d < /.A '.5 &.L ",
"v.M 9 = f o.f f ) ! ) ) ! f f f = d+) y .+^ ^ ] ' K ~.I.y+o 3 2 ].< %+K+_+4 =.L+",
"[ i | 9 ^ f ! ! ! ! ! f ! ) f = u f ' ~.M+, ' y ~ { a x+N+n y.y.y.N H+V H+_+K+4 ",
"A 7 O+A.! ! ! f ! ) f ! o.^ ~ u ' { ^ u ~ u ^ ' y u 0 '.J x+D+:+|+g.5.z.P+H+S 8+"};
