/* XPM */
static char * floor (11th copy)_xpm[] = {
"40 40 262 2",
"  	c #DDB23B",
". 	c #FFBD43",
"+ 	c #E7A93C",
"@ 	c #694717",
"# 	c #A42D17",
"$ 	c #994825",
"% 	c #CD4E1C",
"& 	c #985728",
"* 	c #45452E",
"= 	c #5B4326",
"- 	c #4C3C24",
"; 	c #3B2D1E",
"> 	c #5C3E24",
", 	c #6A4C2C",
"' 	c #634B30",
") 	c #54422A",
"! 	c #523D25",
"~ 	c #5B452A",
"{ 	c #533F2A",
"] 	c #5D4931",
"^ 	c #5D492C",
"/ 	c #4B3623",
"( 	c #862818",
"_ 	c #FEEC53",
": 	c #FEF356",
"< 	c #FFF559",
"[ 	c #7B4D25",
"} 	c #E9AE32",
"| 	c #8D4B1B",
"1 	c #B6762C",
"2 	c #FDD44A",
"3 	c #FFDC43",
"4 	c #FFFE55",
"5 	c #FDCD43",
"6 	c #FFC52C",
"7 	c #FBFA4B",
"8 	c #FFB829",
"9 	c #443421",
"0 	c #554432",
"a 	c #4D3E2A",
"b 	c #8C3F21",
"c 	c #FEE446",
"d 	c #FCB33D",
"e 	c #5D4018",
"f 	c #534126",
"g 	c #E3892B",
"h 	c #FEAA32",
"i 	c #D97929",
"j 	c #FC8123",
"k 	c #F67927",
"l 	c #EE8822",
"m 	c #383525",
"n 	c #C95819",
"o 	c #FEC43B",
"p 	c #262A24",
"q 	c #694C25",
"r 	c #CD6826",
"s 	c #2A211A",
"t 	c #7C532C",
"u 	c #62462B",
"v 	c #F46E21",
"w 	c #FEC241",
"x 	c #2D2B2B",
"y 	c #634A2D",
"z 	c #C2652C",
"A 	c #FFFE5B",
"B 	c #FF9B35",
"C 	c #313129",
"D 	c #EA8D2C",
"E 	c #B8551C",
"F 	c #74522C",
"G 	c #8D532B",
"H 	c #F5842C",
"I 	c #FFCC33",
"J 	c #754828",
"K 	c #594531",
"L 	c #523621",
"M 	c #453A24",
"N 	c #D2752C",
"O 	c #FE832C",
"P 	c #493913",
"Q 	c #423B2B",
"R 	c #FF732D",
"S 	c #FDA533",
"T 	c #FDD344",
"U 	c #844322",
"V 	c #E38B31",
"W 	c #FE7A2B",
"X 	c #F7561A",
"Y 	c #FFFF63",
"Z 	c #EB5617",
"` 	c #E8822F",
" .	c #CD9B33",
"..	c #F89729",
"+.	c #835A31",
"@.	c #FD9B2C",
"#.	c #FC8B30",
"$.	c #FF7523",
"%.	c #FC671A",
"&.	c #FFCB3E",
"*.	c #FE9333",
"=.	c #EE5423",
"-.	c #6D5126",
";.	c #8C622C",
">.	c #322722",
",.	c #F4C739",
"'.	c #EC772A",
").	c #B54A22",
"!.	c #693B1A",
"~.	c #7A4C2B",
"{.	c #ED7623",
"].	c #FE942D",
"^.	c #FEA238",
"/.	c #FFDC50",
"(.	c #CD3615",
"_.	c #C95624",
":.	c #552623",
"<.	c #833118",
"[.	c #CE7A29",
"}.	c #B489D5",
"|.	c #310094",
"1.	c #3104AC",
"2.	c #6E5032",
"3.	c #FE6422",
"4.	c #FEEB4E",
"5.	c #FFEB43",
"6.	c #D95521",
"7.	c #F5A637",
"8.	c #DE4216",
"9.	c #FEDA4C",
"0.	c #FC7919",
"a.	c #7E281C",
"b.	c #9C6DBD",
"c.	c #8B71D5",
"d.	c #965B2C",
"e.	c #6A4524",
"f.	c #FF9225",
"g.	c #E76726",
"h.	c #835DCD",
"i.	c #624426",
"j.	c #4D4026",
"k.	c #6D3D24",
"l.	c #A46630",
"m.	c #FEE24D",
"n.	c #F79135",
"o.	c #A475D5",
"p.	c #412E21",
"q.	c #423D30",
"r.	c #FF7733",
"s.	c #FD8B2D",
"t.	c #AD551F",
"u.	c #2C3725",
"v.	c #5204B4",
"w.	c #39049C",
"x.	c #9B632D",
"y.	c #FEB735",
"z.	c #795125",
"A.	c #E4832B",
"B.	c #DD5A21",
"C.	c #945DCD",
"D.	c #9C59C5",
"E.	c #5A048B",
"F.	c #FF8630",
"G.	c #B461C5",
"H.	c #AC59BD",
"I.	c #B475C5",
"J.	c #7314AC",
"K.	c #73009C",
"L.	c #665328",
"M.	c #6B3723",
"N.	c #B4388B",
"O.	c #9C5DAC",
"P.	c #C56DC5",
"Q.	c #73047B",
"R.	c #94189C",
"S.	c #830494",
"T.	c #FE8824",
"U.	c #A34625",
"V.	c #AC59A4",
"W.	c #B96B2D",
"X.	c #4C412A",
"Y.	c #694A31",
"Z.	c #CD7DC5",
"`.	c #B45DAC",
" +	c #7B107B",
".+	c #734D2B",
"++	c #E79536",
"@+	c #733921",
"#+	c #EF6B18",
"$+	c #C548A4",
"%+	c #F48B2B",
"&+	c #5A291C",
"*+	c #62046A",
"=+	c #A55D2B",
"-+	c #8B6130",
";+	c #B55825",
">+	c #FFAB2E",
",+	c #FE6E23",
"'+	c #FF831F",
")+	c #7F5A30",
"!+	c #F29B36",
"~+	c #635031",
"{+	c #A4248B",
"]+	c #8B5C2C",
"^+	c #A9672A",
"/+	c #5E4B25",
"(+	c #EC8531",
"_+	c #D79435",
":+	c #BA8023",
"<+	c #940C7B",
"[+	c #94089C",
"}+	c #7B0C62",
"|+	c #C6752C",
"1+	c #9F6430",
"2+	c #7E4621",
"3+	c #B44094",
"4+	c #B4187B",
"5+	c #8F5D30",
"6+	c #FFE453",
"7+	c #C53073",
"8+	c #7B005A",
"9+	c #83542B",
"0+	c #D97931",
"a+	c #C76D30",
"b+	c #AC2073",
"c+	c #B4047B",
"d+	c #940041",
"e+	c #730041",
"f+	c #704D30",
"g+	c #6E4729",
"h+	c #735130",
"i+	c #F5D64D",
"j+	c #943473",
"k+	c #AC1862",
"l+	c #7B206A",
"m+	c #94206A",
"n+	c #835127",
"o+	c #AC2C6A",
"p+	c #C52C6A",
"q+	c #84592E",
"r+	c #92652D",
"s+	c #42372C",
"t+	c #AD6E30",
"u+	c #AA5723",
"v+	c #6E512E",
"w+	c #AD3F22",
"x+	c #712A22",
"y+	c #5C3620",
"z+	c #9C1C4A",
"A+	c #474633",
"B+	c #ECB845",
"C+	c #BB4422",
"D+	c #DC8C37",
"E+	c #FAAD3C",
"F+	c #DF3322",
"G+	c #D86B27",
"H+	c #F2B142",
"I+	c #221122",
"J+	c #874B28",
"K+	c #E59E2C",
"L+	c #FFA62A",
"M+	c #A92C16",
"  . + @ @ # # $ % & * = - ; > , ' ) ! ~ ) { ! = ) ) ~ ] ) ^ / ! / ) ( _ : < [ = ",
"} | 1 2 3 4 5 6 7 8 9 ^ ) ) 9 ; ; ^ ! ! 0 ! ) a ) ! ) - ' ^ , ! / > b c d e f ! ",
"g h i j k l m n o p q , r $ @ a ) s t - ! ! ! - ! ) = = = u > - - m v w x = y ^ ",
"z < 2 A B C C D E F B G H I J K ^ ) ; L { ! ! ! { y { > ^ = M ! f N O P Q ^ ^ y ",
"R B : _ 4 S H T U V W X : Y Z t ` ~ / 9 > ! L ! ! = / = > - - >  ...A Z V y +.) ",
"@.< A #.: < _ 4 $.%.&.A A *.R =.-.;.^ M f = / { ! y y = { , m > >.,.D  .'.).!.~.",
"{.].#.^./._ Y (.4 4 _.:.<.#.A [.=.-.f }.|.1.t L ! ! ^ ^ ~ y 2.M > p u U 3.h 4.5.",
"6.7.8.(.< 9.^.0._ a.f ) f - U 0.< F b.c.1.1.1.d.u / / K y y , ! - y , - e.[ f.2 ",
") z 5 V f.w * g.4./ f F f ) 9 U 9.h.h.c.1.1.1.1.= { = ^ f ^ > i.- j., y = @ k 4.",
"K 3.k.l.= m.X d &.0./ e.O * n.!.h.h.h.o.1.1.1.1.> / p.9 9 9 9 L > = ~ ) q.h @.A ",
").r.k.= s.3.: '.t.5.%.- f u.6.h.h.h.h.o.v.1.1.w.w.- 9 m 9 / > = = f m x.y.%.A @.",
",./ z.A.x S < B.) B.4.U ~ X 8 b.C.C.C.D.o.v.v.v.E.E.f f = f f f ) a F.'.%.O $.#.",
">.y m ~ N *.Y y.B...T # 0...A b.G.D.D.H.I.J.E.K.K.f ) j.j.^ L.~ y f B B ^.4 w 3.",
"y ! j.M m ) b I < Y f.< 4 t.M.N.I.G.O.H.P.Q.R.R.S.M F ! = ~ y ^ ^ M a ~ ^ , =.B ",
"! ) M M f y 1 r T.d U.4.A n :.N.P.G.V.I.S.Q.Q.Q.R.W.M > = f ~ X.) ^ = ~ ) ~ f = ",
") - M j.) y x.Y.2.g.c 4 n 0.Y N.Z.G.`.P.S.Q.Q.Q. +.+= = j.M f j.M - - > { ] ~ ~ ",
"X.j.j.M M u , y q K ++4 @+#+A N.$+P.I.S.S.Q.Q.Q. += / = & = ! ) f - - ! ! f ~ ) ",
") ~ f j.~ ) = y ) & 3._ 4 %+&+N.$+Z.P.S.S.S.Q.*+! - G =+O i.- t y y - - ! ) f ! ",
"^ ~ F -+f = ^ ) ;+>+m.,+'+M y N.$+$+R.K.S.S.Q. +> ~ F x.f = y ^ y ) - ! ! - > > ",
") j.~ , )+= = y $.Y m.!+M f > ~+N.$+{+S.S.S.S. +a ^ , ]+^+^ y = = = /+M - f f f ",
"f ) j.~ ^ +.a - M (+'._+$.:+u.U.N.$+{+<+[+<+}+ +) i..+- ~ ~ f ^ ^ = ~ ! ! f f f ",
"f ^ - a |+y ~ y 1+2+B _ j j W &.N.3+4+<+<+<+<+ +M = i.! = y /+/ f f ~ - ! ! f { ",
") j.~ ~ |+5+y X.+.r 2 6+< Y A f.N.3+7+{+<+<+8+- ) - u 9+^ - > - ! / ! f ! / ! f ",
"f j.x.0+u u ^ ^ ^ a+T 6+_ ).++'+N.3+7+b+c+d+8+) j.! y u u ^ f ! ! / ^ / f f - f ",
"~ ) ~ l.9+) K j.2.+.$._ a.-.D *.W N.7+4+d+8+e+y t f+~ ~ ~ ! = g+j.~ ~ G - - ! > ",
"y y F t q i.^ h+y +.$.i+V #.9.A *.j+b+k+d+8+l+~.+.^ y ^ - - / ^ z.G G ~.y ! ! f ",
"- u = > ) ^ ^ )+y t h A i+9._ 9.o m+b+4+k+8+l+.+.+) ^ ^ ~ u n+=+M.G { ' = = ~ = ",
"^ ~ Y.- a ^ ~ ) ~ ^ Q ..2 < 5 4 3 o+b+p+k+e+y ^ ^ ^ = Y.9 9 ^ , g+, , ~ ) ! { = ",
"~ ^ K ~ - Q X.) ~ ' ) ;.T.$.T.$.B 7+p+7+d+e+F j.) ~ y , M ^ f u i., , ) { ! f y ",
"y - g+q+N 0+1+r+1+) y a I ].[.> m ~ k+7+d+e+g+u ^ g+] ^ / = , s+Q r+9 9 L ! - ) ",
"f 2.y q+^ t+]+l.:+^ F y x F Q j.- ~ k+7+d+8+i.J g+^ ' , > ^ m g.S s.u+h t+t+.+! ",
"^ y ~+j.v+q+l.)+t f f f f = ) f f ~ 7+7+d+! y > 2+e.e.2+) L s.s.} 0+9.D w+x+, ^ ",
"^ ' ) ' f ) ) 0+x.-+f ! - - j.- f = d+7+d+f y = = ) ! K X.;+*.0+k.0+_ Y 4 =.y+~.",
"~ ) j.f f j.j.y ^ v+) M f , f M , y v+z+y ) = ' ' ] ' A+i ++B+G ' B.++/ @+A C+M ",
"' f f - f f j.~ y ^ y y ~ F d.F - = y y , a+~.] ~ ^ ) -+3.D+Y _.~.{.g.e.@+i+_ C+",
") f f f f f ! - - 2.~ ~+F F f ^ ! f ^ i.q 9+q y = ) y d.E+4.{.].$.9.m.T.%+7.F+5.",
"^ ' y f j.~ = , ) = ! ) ) - f f ^ i.y ^ a ^+) y > = q.G+#.$ ).5 d < /.A '.5 &.L ",
"p.M 9 = f j.f f ) ! ) ) ! f f f = 9+) y W.^ ^ ] ' K ~.A.u+o 3 2 ].< ++H+!+4 =.I+",
"[ i | 9 ^ f ! ! ! ! ! f ! ) f = u f ' ~.J+, ' y ~ { a t+K+n s.s.s.N E+V E+!+H+4 ",
"A 7 L+u.! ! ! f ! ) f ! j.^ ~ u ' { ^ u ~ u ^ ' y u 0 '.J t+A+~+_+e.5.t.M+E+S 6+"};
