/* XPM */
static char * floor (9th copy)_xpm[] = {
"40 40 265 2",
"  	c #DDB23B",
". 	c #FFBD43",
"+ 	c #E7A93C",
"@ 	c #694717",
"# 	c #A42D17",
"$ 	c #994825",
"% 	c #CD4E1C",
"& 	c #985728",
"* 	c #45452E",
"= 	c #5B4326",
"- 	c #4C3C24",
"; 	c #3B2D1E",
"> 	c #5C3E24",
", 	c #6A4C2C",
"' 	c #634B30",
") 	c #54422A",
"! 	c #523D25",
"~ 	c #5B452A",
"{ 	c #533F2A",
"] 	c #5D4931",
"^ 	c #5D492C",
"/ 	c #4B3623",
"( 	c #862818",
"_ 	c #FEEC53",
": 	c #FEF356",
"< 	c #FFF559",
"[ 	c #7B4D25",
"} 	c #E9AE32",
"| 	c #8D4B1B",
"1 	c #B6762C",
"2 	c #FDD44A",
"3 	c #FFDC43",
"4 	c #FFFE55",
"5 	c #FDCD43",
"6 	c #FFC52C",
"7 	c #FBFA4B",
"8 	c #FFB829",
"9 	c #443421",
"0 	c #554432",
"a 	c #4D3E2A",
"b 	c #8C3F21",
"c 	c #FEE446",
"d 	c #FCB33D",
"e 	c #5D4018",
"f 	c #534126",
"g 	c #E3892B",
"h 	c #FEAA32",
"i 	c #D97929",
"j 	c #FC8123",
"k 	c #F67927",
"l 	c #EE8822",
"m 	c #383525",
"n 	c #C95819",
"o 	c #FEC43B",
"p 	c #262A24",
"q 	c #694C25",
"r 	c #CD6826",
"s 	c #2A211A",
"t 	c #7C532C",
"u 	c #62462B",
"v 	c #F46E21",
"w 	c #FEC241",
"x 	c #2D2B2B",
"y 	c #634A2D",
"z 	c #C2652C",
"A 	c #FFFE5B",
"B 	c #FF9B35",
"C 	c #313129",
"D 	c #EA8D2C",
"E 	c #B8551C",
"F 	c #74522C",
"G 	c #8D532B",
"H 	c #F5842C",
"I 	c #FFCC33",
"J 	c #754828",
"K 	c #594531",
"L 	c #523621",
"M 	c #453A24",
"N 	c #D2752C",
"O 	c #FE832C",
"P 	c #493913",
"Q 	c #423B2B",
"R 	c #FF732D",
"S 	c #FDA533",
"T 	c #FDD344",
"U 	c #844322",
"V 	c #E38B31",
"W 	c #FE7A2B",
"X 	c #F7561A",
"Y 	c #FFFF63",
"Z 	c #EB5617",
"` 	c #E8822F",
" .	c #CD9B33",
"..	c #F89729",
"+.	c #835A31",
"@.	c #FD9B2C",
"#.	c #FC8B30",
"$.	c #FF7523",
"%.	c #FC671A",
"&.	c #FFCB3E",
"*.	c #FE9333",
"=.	c #EE5423",
"-.	c #6D5126",
";.	c #8C622C",
">.	c #322722",
",.	c #F4C739",
"'.	c #EC772A",
").	c #B54A22",
"!.	c #693B1A",
"~.	c #7A4C2B",
"{.	c #ED7623",
"].	c #FE942D",
"^.	c #FEA238",
"/.	c #FFDC50",
"(.	c #CD3615",
"_.	c #C95624",
":.	c #552623",
"<.	c #833118",
"[.	c #CE7A29",
"}.	c #8B71D5",
"|.	c #A475D5",
"1.	c #AC79BD",
"2.	c #5A006A",
"3.	c #6E5032",
"4.	c #FE6422",
"5.	c #FEEB4E",
"6.	c #FFEB43",
"7.	c #D95521",
"8.	c #F5A637",
"9.	c #DE4216",
"0.	c #FEDA4C",
"a.	c #FC7919",
"b.	c #7E281C",
"c.	c #9479BD",
"d.	c #CD7DC5",
"e.	c #A4248B",
"f.	c #62046A",
"g.	c #965B2C",
"h.	c #6A4524",
"i.	c #FF9225",
"j.	c #E76726",
"k.	c #8B24A4",
"l.	c #73047B",
"m.	c #94189C",
"n.	c #52006A",
"o.	c #624426",
"p.	c #4D4026",
"q.	c #6D3D24",
"r.	c #A46630",
"s.	c #FEE24D",
"t.	c #F79135",
"u.	c #73009C",
"v.	c #8324A4",
"w.	c #412E21",
"x.	c #423D30",
"y.	c #FF7733",
"z.	c #FD8B2D",
"A.	c #AD551F",
"B.	c #2C3725",
"C.	c #7B24A4",
"D.	c #9B632D",
"E.	c #FEB735",
"F.	c #795125",
"G.	c #E4832B",
"H.	c #DD5A21",
"I.	c #7B1494",
"J.	c #7314AC",
"K.	c #FF8630",
"L.	c #BD79D5",
"M.	c #8310AC",
"N.	c #665328",
"O.	c #6B3723",
"P.	c #B475C5",
"Q.	c #9C28A4",
"R.	c #732CC5",
"S.	c #730C41",
"T.	c #FE8824",
"U.	c #A34625",
"V.	c #B428A4",
"W.	c #94089C",
"X.	c #9428A4",
"Y.	c #52045A",
"Z.	c #B96B2D",
"`.	c #4C412A",
" +	c #694A31",
".+	c #734D2B",
"++	c #E79536",
"@+	c #733921",
"#+	c #EF6B18",
"$+	c #F48B2B",
"%+	c #5A291C",
"&+	c #A9672A",
"*+	c #AC34AC",
"=+	c #AC1083",
"-+	c #A55D2B",
";+	c #8B6130",
">+	c #B55825",
",+	c #FFAB2E",
"'+	c #FE6E23",
")+	c #FF831F",
"!+	c #940C7B",
"~+	c #7F5A30",
"{+	c #F29B36",
"]+	c #635031",
"^+	c #AC349C",
"/+	c #C53073",
"(+	c #8B5C2C",
"_+	c #5E4B25",
":+	c #EC8531",
"<+	c #D79435",
"[+	c #BA8023",
"}+	c #AC089C",
"|+	c #830494",
"1+	c #C6752C",
"2+	c #9F6430",
"3+	c #7E4621",
"4+	c #B4288B",
"5+	c #8F5D30",
"6+	c #FFE453",
"7+	c #A428A4",
"8+	c #C52C6A",
"9+	c #940041",
"0+	c #83542B",
"a+	c #D97931",
"b+	c #C76D30",
"c+	c #BD7732",
"d+	c #942873",
"e+	c #7B207B",
"f+	c #94206A",
"g+	c #7B005A",
"h+	c #940C62",
"i+	c #704D30",
"j+	c #6E4729",
"k+	c #735130",
"l+	c #F5D64D",
"m+	c #7B0C62",
"n+	c #AC2C6A",
"o+	c #9C1C4A",
"p+	c #835127",
"q+	c #AC0862",
"r+	c #AC1862",
"s+	c #AC044A",
"t+	c #84592E",
"u+	c #92652D",
"v+	c #42372C",
"w+	c #AD6E30",
"x+	c #AA5723",
"y+	c #6E512E",
"z+	c #AD3F22",
"A+	c #712A22",
"B+	c #B44094",
"C+	c #5C3620",
"D+	c #474633",
"E+	c #ECB845",
"F+	c #BB4422",
"G+	c #DC8C37",
"H+	c #FAAD3C",
"I+	c #DF3322",
"J+	c #D86B27",
"K+	c #F2B142",
"L+	c #221122",
"M+	c #874B28",
"N+	c #E59E2C",
"O+	c #FFA62A",
"P+	c #A92C16",
"  . + @ @ # # $ % & * = - ; > , ' ) ! ~ ) { ! = ) ) ~ ] ) ^ / ! / ) ( _ : < [ = ",
"} | 1 2 3 4 5 6 7 8 9 ^ ) ) 9 ; ; ^ ! ! 0 ! ) a ) ! ) - ' ^ , ! / > b c d e f ! ",
"g h i j k l m n o p q , r $ @ a ) s t - ! ! ! - ! ) = = = u > - - m v w x = y ^ ",
"z < 2 A B C C D E F B G H I J K ^ ) ; L { ! ! ! { y { > ^ = M ! f N O P Q ^ ^ y ",
"R B : _ 4 S H T U V W X : Y Z t ` ~ / 9 > ! L ! ! = / = > - - >  ...A Z V y +.) ",
"@.< A #.: < _ 4 $.%.&.A A *.R =.-.;.^ M f = / { ! y y = { , m > >.,.D  .'.).!.~.",
"{.].#.^./._ Y (.4 4 _.:.<.#.A [.=.-.}.|.1.2.t L ! ! ^ ^ ~ y 3.M > p u U 4.h 5.6.",
"7.8.9.(.< 0.^.a._ b.f ) f - U a.< c.1.1.d.e.f.g.u / / K y y , ! - y , - h.[ i.2 ",
") z 5 V i.w * j.5./ f F f ) 9 U 0.}.e.k.k.l.m.n.= { = ^ f ^ > o.- p., y = @ k 5.",
"K 4.q.r.= s.X d &.a./ h.O * t.!.}.c.k.u.l.u.v.2.> / w.9 9 9 9 L > = ~ ) x.h @.A ",
").y.q.= z.4.: '.A.6.%.- f B.7.}.c.1.k.u.u.u.C.f.9 - 9 m 9 / > = = f m D.E.%.A @.",
",./ F.G.x S < H.) H.5.U ~ X |.1.1.1.k.I.I.J.u.k.f.9 f f = f f f ) a K.'.%.O $.#.",
">.y m ~ N *.Y E.H...T # a...A |.1.L.k.M.M.M.J.v.l.f ) p.p.^ N.~ y f B B ^.4 w 4.",
"y ! p.M m ) b I < Y i.< 4 A.O.P.L.L.Q.M.M.M.J.R.S.M F ! = ~ y ^ ^ M a ~ ^ , =.B ",
"! ) M M f y 1 r T.d U.5.A n :.P.L.V.W.W.M.M.M.X.Y.Z.M > = f ~ `.) ^ = ~ ) ~ f = ",
") - M p.) y D. +3.j.c 4 n a.Y L.d.V.M.W.W.W.M.X.Y..+= = p.M f p.M - - > { ] ~ ~ ",
"`.p.p.M M u , y q K ++4 @+#+A 3 d.V.M.W.W.W.W.k.= = / = & = ! ) f - - ! ! f ~ ) ",
") ~ f p.~ ) = y ) & 4._ 4 $+%+&+*+V.W.W.=+W.W.k.! - G -+O o.- t y y - - ! ) f ! ",
"^ ~ F ;+f = ^ ) >+,+s.'+)+M y p.*+V.W.=+=+!+!+v.> ~ F D.f = y ^ y ) - ! ! - > > ",
") p.~ , ~+= = y $.Y s.{+M f > ]+^+/+V.!+!+!+W.v.a ^ , (+&+^ y = = = _+M - f f f ",
"f ) p.~ ^ +.a - M :+'.<+$.[+B.U.^+/+V.}+!+|+e.Y.) o..+- ~ ~ f ^ ^ = ~ ! ! f f f ",
"f ^ - a 1+y ~ y 2+3+B _ j j W &.^+^+4+!+!+|+e.Y.M = o.! = y _+/ f f ~ - ! ! f { ",
") p.~ ~ 1+5+y `.+.r 2 6+< Y A i.j 7+8+9+!+|+e.Y.) - u 0+^ - > - ! / ! f ! / ! f ",
"f p.D.a+u u ^ ^ ^ b+T 6+_ ).++)+c+d+^+e.9+!+e+) p.! y u u ^ f ! ! / ^ / f f - f ",
"~ ) ~ r.0+) K p.3.+.$._ b.-.D *.W d+^+f+g+h+e+y t i+~ ~ ~ ! = j+p.~ ~ G - - ! > ",
"y y F t q o.^ k+y +.$.l+V #.0.A *.d+^+f+m+h+f+~.+.^ y ^ - - / ^ F.G G ~.y ! ! f ",
"- u = > ) ^ ^ ~+y t h A l+0._ 0.o n+^+o+h+h+h+.+.+) ^ ^ ~ u p+-+O.G { ' = = ~ = ",
"^ ~  +- a ^ ~ ) ~ ^ Q ..2 < 5 4 3 n+^+o+h+q+o+^ ^ ^ =  +9 9 ^ , j+, , ~ ) ! { = ",
"~ ^ K ~ - Q `.) ~ ' ) ;.T.$.T.$.B >.n+r+9+s+o+p.) ~ y , M ^ f u o., , ) { ! f y ",
"y - j+t+N a+2+u+2+) y a I ].[.> m ~ n+r+9+9+j+u ^ j+] ^ / = , v+Q u+9 9 L ! - ) ",
"f 3.y t+^ w+(+r.[+^ F y x F Q p.- ~ n+r+9+9+o.J j+^ ' , > ^ m j.S z.x+h w+w+.+! ",
"^ y ]+p.y+t+r.~+t f f f f = ) f f ~ p.o+s+9+y > 3+h.h.3+) L z.z.} a+0.D z+A+, ^ ",
"^ ' ) ' f ) ) a+D.;+f ! - - p.- f = ^ B+o+f y = = ) ! K `.>+*.a+q.a+_ Y 4 =.C+~.",
"~ ) p.f f p.p.y ^ y+) M f , f M , y y+, y ) = ' ' ] ' D+i ++E+G ' H.++/ @+A F+M ",
"' f f - f f p.~ y ^ y y ~ F g.F - = y y , b+~.] ~ ^ ) ;+4.G+Y _.~.{.j.h.@+l+_ F+",
") f f f f f ! - - 3.~ ]+F F f ^ ! f ^ o.q 0+q y = ) y g.H+5.{.].$.0.s.T.$+8.I+6.",
"^ ' y f p.~ = , ) = ! ) ) - f f ^ o.y ^ a &+) y > = x.J+#.$ ).5 d < /.A '.5 &.L ",
"w.M 9 = f p.f f ) ! ) ) ! f f f = 0+) y Z.^ ^ ] ' K ~.G.x+o 3 2 ].< ++K+{+4 =.L+",
"[ i | 9 ^ f ! ! ! ! ! f ! ) f = u f ' ~.M+, ' y ~ { a w+N+n z.z.z.N H+V H+{+K+4 ",
"A 7 O+B.! ! ! f ! ) f ! p.^ ~ u ' { ^ u ~ u ^ ' y u 0 '.J w+D+]+<+h.6.A.P+H+S 6+"};
