/* XPM */
static char * floor (9th copy)_xpm[] = {
"40 40 264 2",
"  	c #DDB23B",
". 	c #FFBD43",
"+ 	c #E7A93C",
"@ 	c #694717",
"# 	c #A42D17",
"$ 	c #994825",
"% 	c #CD4E1C",
"& 	c #985728",
"* 	c #45452E",
"= 	c #5B4326",
"- 	c #4C3C24",
"; 	c #3B2D1E",
"> 	c #5C3E24",
", 	c #6A4C2C",
"' 	c #634B30",
") 	c #54422A",
"! 	c #523D25",
"~ 	c #5B452A",
"{ 	c #533F2A",
"] 	c #5D4931",
"^ 	c #5D492C",
"/ 	c #4B3623",
"( 	c #862818",
"_ 	c #FEEC53",
": 	c #FEF356",
"< 	c #FFF559",
"[ 	c #7B4D25",
"} 	c #E9AE32",
"| 	c #8D4B1B",
"1 	c #B6762C",
"2 	c #FDD44A",
"3 	c #FFDC43",
"4 	c #FFFE55",
"5 	c #FDCD43",
"6 	c #FFC52C",
"7 	c #FBFA4B",
"8 	c #FFB829",
"9 	c #443421",
"0 	c #554432",
"a 	c #4D3E2A",
"b 	c #8C3F21",
"c 	c #FEE446",
"d 	c #FCB33D",
"e 	c #5D4018",
"f 	c #534126",
"g 	c #E3892B",
"h 	c #FEAA32",
"i 	c #D97929",
"j 	c #FC8123",
"k 	c #F67927",
"l 	c #EE8822",
"m 	c #383525",
"n 	c #C95819",
"o 	c #FEC43B",
"p 	c #262A24",
"q 	c #694C25",
"r 	c #CD6826",
"s 	c #2A211A",
"t 	c #7C532C",
"u 	c #62462B",
"v 	c #F46E21",
"w 	c #FEC241",
"x 	c #2D2B2B",
"y 	c #634A2D",
"z 	c #C2652C",
"A 	c #FFFE5B",
"B 	c #FF9B35",
"C 	c #313129",
"D 	c #EA8D2C",
"E 	c #B8551C",
"F 	c #74522C",
"G 	c #8D532B",
"H 	c #F5842C",
"I 	c #FFCC33",
"J 	c #754828",
"K 	c #594531",
"L 	c #523621",
"M 	c #453A24",
"N 	c #D2752C",
"O 	c #FE832C",
"P 	c #493913",
"Q 	c #423B2B",
"R 	c #FF732D",
"S 	c #FDA533",
"T 	c #FDD344",
"U 	c #844322",
"V 	c #E38B31",
"W 	c #FE7A2B",
"X 	c #F7561A",
"Y 	c #FFFF63",
"Z 	c #EB5617",
"` 	c #E8822F",
" .	c #CD9B33",
"..	c #F89729",
"+.	c #835A31",
"@.	c #FD9B2C",
"#.	c #FC8B30",
"$.	c #FF7523",
"%.	c #FC671A",
"&.	c #FFCB3E",
"*.	c #FE9333",
"=.	c #EE5423",
"-.	c #6D5126",
";.	c #8C622C",
">.	c #322722",
",.	c #F4C739",
"'.	c #EC772A",
").	c #B54A22",
"!.	c #693B1A",
"~.	c #7A4C2B",
"{.	c #ED7623",
"].	c #FE942D",
"^.	c #FEA238",
"/.	c #FFDC50",
"(.	c #CD3615",
"_.	c #C95624",
":.	c #552623",
"<.	c #833118",
"[.	c #CE7A29",
"}.	c #8B71D5",
"|.	c #835DCD",
"1.	c #7B107B",
"2.	c #6E5032",
"3.	c #FE6422",
"4.	c #FEEB4E",
"5.	c #FFEB43",
"6.	c #D95521",
"7.	c #F5A637",
"8.	c #DE4216",
"9.	c #FEDA4C",
"0.	c #FC7919",
"a.	c #7E281C",
"b.	c #A475D5",
"c.	c #9479BD",
"d.	c #410C73",
"e.	c #965B2C",
"f.	c #6A4524",
"g.	c #FF9225",
"h.	c #E76726",
"i.	c #52006A",
"j.	c #624426",
"k.	c #4D4026",
"l.	c #6D3D24",
"m.	c #A46630",
"n.	c #FEE24D",
"o.	c #F79135",
"p.	c #62046A",
"q.	c #390073",
"r.	c #412E21",
"s.	c #423D30",
"t.	c #FF7733",
"u.	c #FD8B2D",
"v.	c #AD551F",
"w.	c #2C3725",
"x.	c #AC79BD",
"y.	c #9B632D",
"z.	c #FEB735",
"A.	c #795125",
"B.	c #E4832B",
"C.	c #DD5A21",
"D.	c #B489D5",
"E.	c #9C6DBD",
"F.	c #73047B",
"G.	c #4A048B",
"H.	c #FF8630",
"I.	c #A428A4",
"J.	c #BD79D5",
"K.	c #5A048B",
"L.	c #665328",
"M.	c #6B3723",
"N.	c #9428A4",
"O.	c #AC34AC",
"P.	c #B461C5",
"Q.	c #830494",
"R.	c #7B1494",
"S.	c #FE8824",
"T.	c #A34625",
"U.	c #CD7DC5",
"V.	c #C56DC5",
"W.	c #94089C",
"X.	c #B96B2D",
"Y.	c #4C412A",
"Z.	c #694A31",
"`.	c #9C28A4",
" +	c #940C7B",
".+	c #734D2B",
"++	c #E79536",
"@+	c #733921",
"#+	c #EF6B18",
"$+	c #943473",
"%+	c #8B24A4",
"&+	c #7B0C62",
"*+	c #F48B2B",
"=+	c #5A291C",
"-+	c #D5A5CD",
";+	c #8324A4",
">+	c #A55D2B",
",+	c #8B6130",
"'+	c #B55825",
")+	c #FFAB2E",
"!+	c #FE6E23",
"~+	c #FF831F",
"{+	c #A4248B",
"]+	c #7F5A30",
"^+	c #F29B36",
"/+	c #B4388B",
"(+	c #DEB6DE",
"_+	c #8B5C2C",
":+	c #A9672A",
"<+	c #5E4B25",
"[+	c #EC8531",
"}+	c #D79435",
"|+	c #BA8023",
"1+	c #AC349C",
"2+	c #730041",
"3+	c #C6752C",
"4+	c #9F6430",
"5+	c #7E4621",
"6+	c #CD9DC5",
"7+	c #8F5D30",
"8+	c #FFE453",
"9+	c #5A0031",
"0+	c #83542B",
"a+	c #D97931",
"b+	c #C76D30",
"c+	c #B4288B",
"d+	c #942873",
"e+	c #7B206A",
"f+	c #730C41",
"g+	c #704D30",
"h+	c #6E4729",
"i+	c #735130",
"j+	c #F5D64D",
"k+	c #AC2C6A",
"l+	c #835127",
"m+	c #AC0862",
"n+	c #941441",
"o+	c #84592E",
"p+	c #92652D",
"q+	c #AC1083",
"r+	c #C52C6A",
"s+	c #42372C",
"t+	c #AD6E30",
"u+	c #AC184A",
"v+	c #AA5723",
"w+	c #635031",
"x+	c #6E512E",
"y+	c #B4187B",
"z+	c #AD3F22",
"A+	c #712A22",
"B+	c #5C3620",
"C+	c #474633",
"D+	c #ECB845",
"E+	c #BB4422",
"F+	c #DC8C37",
"G+	c #FAAD3C",
"H+	c #DF3322",
"I+	c #D86B27",
"J+	c #F2B142",
"K+	c #221122",
"L+	c #874B28",
"M+	c #E59E2C",
"N+	c #FFA62A",
"O+	c #A92C16",
"  . + @ @ # # $ % & * = - ; > , ' ) ! ~ ) { ! = ) ) ~ ] ) ^ / ! / ) ( _ : < [ = ",
"} | 1 2 3 4 5 6 7 8 9 ^ ) ) 9 ; ; ^ ! ! 0 ! ) a ) ! ) - ' ^ , ! / > b c d e f ! ",
"g h i j k l m n o p q , r $ @ a ) s t - ! ! ! - ! ) = = = u > - - m v w x = y ^ ",
"z < 2 A B C C D E F B G H I J K ^ ) ; L { ! ! ! { y { > ^ = M ! f N O P Q ^ ^ y ",
"R B : _ 4 S H T U V W X : Y Z t ` ~ / 9 > ! L ! ! = / = > - - >  ...A Z V y +.) ",
"@.< A #.: < _ 4 $.%.&.A A *.R =.-.;.^ M f = / { ! y y = { , m > >.,.D  .'.).!.~.",
"{.].#.^./._ Y (.4 4 _.:.<.#.A [.=.-.}.|.}.1.t L ! ! ^ ^ ~ y 2.M > p u U 3.h 4.5.",
"6.7.8.(.< 9.^.0._ a.f ) f - U 0.b.}.}.}.}.c.d.e.u / / K y y , ! - y , - f.[ g.2 ",
") z 5 V g.w * h.4./ f F f ) 9 U b.c.}.}.}.c.i.) = { = ^ f ^ > j.- k., y = @ k 4.",
"K 3.l.m.= n.X d &.0./ f.O * o.!.}.}.}.}.}.c.p.q.> / r.9 9 9 9 L > = ~ ) s.h @.A ",
").t.l.= u.3.: '.v.5.%.- f w.6.b.x.}.}.}.}.c.p.q.9 - 9 m 9 / > = = f m y.z.%.A @.",
",./ A.B.x S < C.) C.4.U ~ X 8 D.x.E.E.E.E.x.F.G./ 9 f f = f f f ) a H.'.%.O $.#.",
">.y m ~ N *.Y z.C...T # 0...A I.J.b.E.E.E.E.J.K.G.f ) k.k.^ L.~ y f B B ^.4 w 3.",
"y ! k.M m ) b I < Y g.< 4 v.M.N.O.J.P.P.P.J.Q.R.G.M F ! = ~ y ^ ^ M a ~ ^ , =.B ",
"! ) M M f y 1 r S.d T.4.A n :.N.O.O.U.V.U.W.R.1.p.X.M > = f ~ Y.) ^ = ~ ) ~ f = ",
") - M k.) y y.Z.2.h.c 4 n 0.Y `.I.N.`.U. +Q.R.Q.1..+= = k.M f k.M - - > { ] ~ ~ ",
"Y.k.k.M M u , y q K ++4 @+#+A N.O.`.$+O.%+&+Q.%+p.= / = & = ! ) f - - ! ! f ~ ) ",
") ~ f k.~ ) = y ) & 3._ 4 *+=+N.O.O.N.-+;+&+Q.%+p.- G >+O j.- t y y - - ! ) f ! ",
"^ ~ F ,+f = ^ ) '+)+n.!+~+M y O.O.O.-+-+%+Q.Q.{+p.~ F y.f = y ^ y ) - ! ! - > > ",
") k.~ , ]+= = y $.Y n.^+M f > O./+(+(+(+%+ +{+p.a ^ , _+:+^ y = = = <+M - f f f ",
"f ) k.~ ^ +.a - M [+'.}+$.|+w.1+(+(+(+O.{+ +{+2+) j..+- ~ ~ f ^ ^ = ~ ! ! f f f ",
"f ^ - a 3+y ~ y 4+5+B _ j j W &.6+(+O./+`.I.&+p.M = j.! = y <+/ f f ~ - ! ! f { ",
") k.~ ~ 3+7+y Y.+.r 2 8+< Y A g.6+1+O./+`.I.&+9+) - u 0+^ - > - ! / ! f ! / ! f ",
"f k.y.a+u u ^ ^ ^ b+T 8+_ ).++~+c+1+1+d+1.d+9+) k.! y u u ^ f ! ! / ^ / f f - f ",
"~ ) ~ m.0+) K k.2.+.$._ a.-.D *.W d+$+e+d+f+9+y t g+~ ~ ~ ! = h+k.~ ~ G - - ! > ",
"y y F t q j.^ i+y +.$.j+V #.9.A *.d+$+e+e+9+9+~.+.^ y ^ - - / ^ A.G G ~.y ! ! f ",
"- u = > ) ^ ^ ]+y t h A j+9._ 9.o k+$+e+e+9+9+.+.+) ^ ^ ~ u l+>+M.G { ' = = ~ = ",
"^ ~ Z.- a ^ ~ ) ~ ^ Q ..2 < 5 4 3 m+n+d+9+9+y ^ ^ ^ = Z.9 9 ^ , h+, , ~ ) ! { = ",
"~ ^ K ~ - Q Y.) ~ ' ) ;.S.$.S.$.B >.n+k+2+9+F k.) ~ y , M ^ f u j., , ) { ! f y ",
"y - h+o+N a+4+p+4+) y a I ].[.> m ~ q+r+2+2+h+u ^ h+] ^ / = , s+Q p+9 9 L ! - ) ",
"f 2.y o+^ t+_+m.|+^ F y x F Q k.- ~ u+r+2+2+j.J h+^ ' , > ^ m h.S u.v+h t+t+.+! ",
"^ y w+k.x+o+m.]+t f f f f = ) f f ~ y+r+2+! y > 5+f.f.5+) L u.u.} a+9.D z+A+, ^ ",
"^ ' ) ' f ) ) a+y.,+f ! - - k.- f = ^ r+f+f y = = ) ! K Y.'+*.a+l.a+_ Y 4 =.B+~.",
"~ ) k.f f k.k.y ^ x+) M f , f M , y x+, y ) = ' ' ] ' C+i ++D+G ' C.++/ @+A E+M ",
"' f f - f f k.~ y ^ y y ~ F e.F - = y y , b+~.] ~ ^ ) ,+3.F+Y _.~.{.h.f.@+j+_ E+",
") f f f f f ! - - 2.~ w+F F f ^ ! f ^ j.q 0+q y = ) y e.G+4.{.].$.9.n.S.*+7.H+5.",
"^ ' y f k.~ = , ) = ! ) ) - f f ^ j.y ^ a :+) y > = s.I+#.$ ).5 d < /.A '.5 &.L ",
"r.M 9 = f k.f f ) ! ) ) ! f f f = 0+) y X.^ ^ ] ' K ~.B.v+o 3 2 ].< ++J+^+4 =.K+",
"[ i | 9 ^ f ! ! ! ! ! f ! ) f = u f ' ~.L+, ' y ~ { a t+M+n u.u.u.N G+V G+^+J+4 ",
"A 7 N+w.! ! ! f ! ) f ! k.^ ~ u ' { ^ u ~ u ^ ' y u 0 '.J t+C+w+}+f.5.v.O+G+S 8+"};
