/* XPM */
static char * floor (3rd copy)_xpm[] = {
"40 40 260 2",
"  	c #DDB23B",
". 	c #FFBD43",
"+ 	c #E7A93C",
"@ 	c #694717",
"# 	c #A42D17",
"$ 	c #994825",
"% 	c #CD4E1C",
"& 	c #985728",
"* 	c #45452E",
"= 	c #5B4326",
"- 	c #4C3C24",
"; 	c #3B2D1E",
"> 	c #5C3E24",
", 	c #6A4C2C",
"' 	c #634B30",
") 	c #54422A",
"! 	c #523D25",
"~ 	c #5B452A",
"{ 	c #533F2A",
"] 	c #5D4931",
"^ 	c #5D492C",
"/ 	c #4B3623",
"( 	c #862818",
"_ 	c #FEEC53",
": 	c #FEF356",
"< 	c #FFF559",
"[ 	c #7B4D25",
"} 	c #E9AE32",
"| 	c #8D4B1B",
"1 	c #B6762C",
"2 	c #FDD44A",
"3 	c #FFDC43",
"4 	c #FFFE55",
"5 	c #FDCD43",
"6 	c #FFC52C",
"7 	c #FBFA4B",
"8 	c #FFB829",
"9 	c #443421",
"0 	c #554432",
"a 	c #4D3E2A",
"b 	c #8C3F21",
"c 	c #FEE446",
"d 	c #FCB33D",
"e 	c #5D4018",
"f 	c #534126",
"g 	c #E3892B",
"h 	c #FEAA32",
"i 	c #D97929",
"j 	c #FC8123",
"k 	c #F67927",
"l 	c #EE8822",
"m 	c #383525",
"n 	c #C95819",
"o 	c #FEC43B",
"p 	c #262A24",
"q 	c #694C25",
"r 	c #CD6826",
"s 	c #2A211A",
"t 	c #7C532C",
"u 	c #62462B",
"v 	c #F46E21",
"w 	c #FEC241",
"x 	c #2D2B2B",
"y 	c #634A2D",
"z 	c #C2652C",
"A 	c #FFFE5B",
"B 	c #FF9B35",
"C 	c #313129",
"D 	c #EA8D2C",
"E 	c #B8551C",
"F 	c #74522C",
"G 	c #8D532B",
"H 	c #F5842C",
"I 	c #FFCC33",
"J 	c #754828",
"K 	c #594531",
"L 	c #523621",
"M 	c #453A24",
"N 	c #D2752C",
"O 	c #FE832C",
"P 	c #493913",
"Q 	c #423B2B",
"R 	c #FF732D",
"S 	c #FDA533",
"T 	c #FDD344",
"U 	c #844322",
"V 	c #E38B31",
"W 	c #FE7A2B",
"X 	c #F7561A",
"Y 	c #FFFF63",
"Z 	c #EB5617",
"` 	c #E8822F",
" .	c #CD9B33",
"..	c #F89729",
"+.	c #835A31",
"@.	c #FD9B2C",
"#.	c #FC8B30",
"$.	c #FF7523",
"%.	c #FC671A",
"&.	c #FFCB3E",
"*.	c #FE9333",
"=.	c #EE5423",
"-.	c #6D5126",
";.	c #8C622C",
">.	c #322722",
",.	c #F4C739",
"'.	c #EC772A",
").	c #B54A22",
"!.	c #693B1A",
"~.	c #7A4C2B",
"{.	c #ED7623",
"].	c #FE942D",
"^.	c #FEA238",
"/.	c #FFDC50",
"(.	c #CD3615",
"_.	c #C95624",
":.	c #552623",
"<.	c #833118",
"[.	c #CE7A29",
"}.	c #A44CA4",
"|.	c #8348AC",
"1.	c #6A389C",
"2.	c #6E5032",
"3.	c #FE6422",
"4.	c #FEEB4E",
"5.	c #FFEB43",
"6.	c #D95521",
"7.	c #F5A637",
"8.	c #DE4216",
"9.	c #FEDA4C",
"0.	c #FC7919",
"a.	c #7E281C",
"b.	c #8B40AC",
"c.	c #965B2C",
"d.	c #6A4524",
"e.	c #FF9225",
"f.	c #E76726",
"g.	c #624426",
"h.	c #4D4026",
"i.	c #6D3D24",
"j.	c #A46630",
"k.	c #FEE24D",
"l.	c #F79135",
"m.	c #9C5DAC",
"n.	c #BD50BD",
"o.	c #9C44AC",
"p.	c #412E21",
"q.	c #423D30",
"r.	c #FF7733",
"s.	c #FD8B2D",
"t.	c #AD551F",
"u.	c #2C3725",
"v.	c #F2B142",
"w.	c #9B632D",
"x.	c #FEB735",
"y.	c #795125",
"z.	c #E4832B",
"A.	c #DD5A21",
"B.	c #BDAEDE",
"C.	c #FF8630",
"D.	c #DEB6DE",
"E.	c #AC48BD",
"F.	c #665328",
"G.	c #6B3723",
"H.	c #AC34AC",
"I.	c #AC59BD",
"J.	c #AC40AC",
"K.	c #AC4CAC",
"L.	c #FE8824",
"M.	c #A34625",
"N.	c #D5A5CD",
"O.	c #E6C6E6",
"P.	c #B428A4",
"Q.	c #C548A4",
"R.	c #B96B2D",
"S.	c #4C412A",
"T.	c #694A31",
"U.	c #B461C5",
"V.	c #A428A4",
"W.	c #B45DAC",
"X.	c #940C7B",
"Y.	c #830494",
"Z.	c #94189C",
"`.	c #734D2B",
" +	c #E79536",
".+	c #733921",
"++	c #EF6B18",
"@+	c #9C28A4",
"#+	c #A4248B",
"$+	c #5A0031",
"%+	c #F48B2B",
"&+	c #5A291C",
"*+	c #AC59A4",
"=+	c #9428A4",
"-+	c #94206A",
";+	c #7B0C62",
">+	c #A55D2B",
",+	c #8B6130",
"'+	c #B55825",
")+	c #FFAB2E",
"!+	c #FE6E23",
"~+	c #FF831F",
"{+	c #940C62",
"]+	c #7F5A30",
"^+	c #F29B36",
"/+	c #635031",
"(+	c #8B5C2C",
"_+	c #A9672A",
":+	c #5E4B25",
"<+	c #EC8531",
"[+	c #D79435",
"}+	c #BA8023",
"|+	c #C6752C",
"1+	c #9F6430",
"2+	c #7E4621",
"3+	c #8F5D30",
"4+	c #FFE453",
"5+	c #AC0862",
"6+	c #9C1C4A",
"7+	c #83542B",
"8+	c #D97931",
"9+	c #C76D30",
"0+	c #BD7732",
"a+	c #704D30",
"b+	c #6E4729",
"c+	c #735130",
"d+	c #F5D64D",
"e+	c #AC349C",
"f+	c #B44094",
"g+	c #B4288B",
"h+	c #AC1862",
"i+	c #AC2073",
"j+	c #730041",
"k+	c #835127",
"l+	c #7B005A",
"m+	c #AC044A",
"n+	c #84592E",
"o+	c #92652D",
"p+	c #AC2C6A",
"q+	c #AC205A",
"r+	c #42372C",
"s+	c #AD6E30",
"t+	c #AA5723",
"u+	c #6E512E",
"v+	c #AC184A",
"w+	c #AD3F22",
"x+	c #712A22",
"y+	c #5C3620",
"z+	c #474633",
"A+	c #ECB845",
"B+	c #BB4422",
"C+	c #DC8C37",
"D+	c #FAAD3C",
"E+	c #DF3322",
"F+	c #D86B27",
"G+	c #221122",
"H+	c #874B28",
"I+	c #E59E2C",
"J+	c #FFA62A",
"K+	c #A92C16",
"  . + @ @ # # $ % & * = - ; > , ' ) ! ~ ) { ! = ) ) ~ ] ) ^ / ! / ) ( _ : < [ = ",
"} | 1 2 3 4 5 6 7 8 9 ^ ) ) 9 ; ; ^ ! ! 0 ! ) a ) ! ) - ' ^ , ! / > b c d e f ! ",
"g h i j k l m n o p q , r $ @ a ) s t - ! ! ! - ! ) = = = u > - - m v w x = y ^ ",
"z < 2 A B C C D E F B G H I J K ^ ) ; L { ! ! ! { y { > ^ = M ! f N O P Q ^ ^ y ",
"R B : _ 4 S H T U V W X : Y Z t ` ~ / 9 > ! L ! ! = / = > - - >  ...A Z V y +.) ",
"@.< A #.: < _ 4 $.%.&.A A *.R =.-.;.^ M f = / { ! y y = { , m > >.,.D  .'.).!.~.",
"{.].#.^./._ Y (.4 4 _.:.<.#.A [.=.-.}.|.1.|.t L ! ! ^ ^ ~ y 2.M > p u U 3.h 4.5.",
"6.7.8.(.< 9.^.0._ a.f ) f - U 0.< }.b.b.b.b.1.c.u / / K y y , ! - y , - d.[ e.2 ",
") z 5 V e.w * f.4./ f F f ) 9 U 9.}.b.b.b.b.b.) = { = ^ f ^ > g.- h., y = @ k 4.",
"K 3.i.j.= k.X d &.0./ d.O * l.!.m.n.o.b.b.b.b.b.> / p.9 9 9 9 L > = ~ ) q.h @.A ",
").r.i.= s.3.: '.t.5.%.- f u.6.v.m.n.o.o.b.b.b.b.9 - 9 m 9 / > = = f m w.x.%.A @.",
",./ y.z.x S < A.) A.4.U ~ X 8 s.B.n.o.o.o.o.o.b./ 9 f f = f f f ) a C.'.%.O $.#.",
">.y m ~ N *.Y x.A...T # 0...A B.D.n.o.o.o.o.o.o.E.f ) h.h.^ F.~ y f B B ^.4 w 3.",
"y ! h.M m ) b I < Y e.< 4 t.G.B.D.H.I.o.o.o.o.J.K.M F ! = ~ y ^ ^ M a ~ ^ , =.B ",
"! ) M M f y 1 r L.d M.4.A n :.N.O.o.P.I.J.J.n.n.Q.R.M > = f ~ S.) ^ = ~ ) ~ f = ",
") - M h.) y w.T.2.f.c 4 n 0.Y N.U.o.V.W.W.n.X.Y.Z.`.= = h.M f h.M - - > { ] ~ ~ ",
"S.h.h.M M u , y q K  +4 .+++A I.U.o.@+#+Z.Y.X.Z.$+= / = & = ! ) f - - ! ! f ~ ) ",
") ~ f h.~ ) = y ) & 3._ 4 %+&+*+U.o.=+#+-+;+X.-+$+- G >+O g.- t y y - - ! ) f ! ",
"^ ~ F ,+f = ^ ) '+)+k.!+~+M y W.U.o.=+#+-+{+{+#+$+~ F w.f = y ^ y ) - ! ! - > > ",
") h.~ , ]+= = y $.Y k.^+M f > /+*+o.@+#+-+{+{+-+a ^ , (+_+^ y = = = :+M - f f f ",
"f ) h.~ ^ +.a - M <+'.[+$.}+u.M.*+o.@+#+-+{+{+-+) g.`.- ~ ~ f ^ ^ = ~ ! ! f f f ",
"f ^ - a |+y ~ y 1+2+B _ j j W &.*+o.@+V.#+{+{+-+M = g.! = y :+/ f f ~ - ! ! f { ",
") h.~ ~ |+3+y S.+.r 2 4+< Y A e.*+o.@+V.#+{+5+6+) - u 7+^ - > - ! / ! f ! / ! f ",
"f h.w.8+u u ^ ^ ^ 9+T 4+_ ). +~+0+o.@+V.#+{+-+) h.! y u u ^ f ! ! / ^ / f f - f ",
"~ ) ~ j.7+) K h.2.+.$._ a.-.D *.W o.V.V.#+{+6+y t a+~ ~ ~ ! = b+h.~ ~ G - - ! > ",
"y y F t q g.^ c+y +.$.d+V #.9.A *.e+f+g+h+i+j+~.+.^ y ^ - - / ^ y.G G ~.y ! ! f ",
"- u = > ) ^ ^ ]+y t h A d+9._ 9.o e+f+#+X.i+j+`.`.) ^ ^ ~ u k+>+G.G { ' = = ~ = ",
"^ ~ T.- a ^ ~ ) ~ ^ Q ..2 < 5 4 3 o -+{+#+l+j+^ ^ ^ = T.9 9 ^ , b+, , ~ ) ! { = ",
"~ ^ K ~ - Q S.) ~ ' ) ;.L.$.L.$.B >.-+m+i+j+F h.) ~ y , M ^ f u g., , ) { ! f y ",
"y - b+n+N 8+1+o+1+) y a I ].[.> m ~ p+q+q+j+b+u ^ b+] ^ / = , r+Q o+9 9 L ! - ) ",
"f 2.y n+^ s+(+j.}+^ F y x F Q h.- ~ p+q+q+j+g.J b+^ ' , > ^ m f.S s.t+h s+s+`.! ",
"^ y /+h.u+n+j.]+t f f f f = ) f f ~ h.6+v+j+y > 2+d.d.2+) L s.s.} 8+9.D w+x+, ^ ",
"^ ' ) ' f ) ) 8+w.,+f ! - - h.- f = ^ v+v+f y = = ) ! K S.'+*.8+i.8+_ Y 4 =.y+~.",
"~ ) h.f f h.h.y ^ u+) M f , f M , y u+, j+) = ' ' ] ' z+i  +A+G ' A. +/ .+A B+M ",
"' f f - f f h.~ y ^ y y ~ F c.F - = y y , 9+~.] ~ ^ ) ,+3.C+Y _.~.{.f.d..+d+_ B+",
") f f f f f ! - - 2.~ /+F F f ^ ! f ^ g.q 7+q y = ) y c.D+4.{.].$.9.k.L.%+7.E+5.",
"^ ' y f h.~ = , ) = ! ) ) - f f ^ g.y ^ a _+) y > = q.F+#.$ ).5 d < /.A '.5 &.L ",
"p.M 9 = f h.f f ) ! ) ) ! f f f = 7+) y R.^ ^ ] ' K ~.z.t+o 3 2 ].<  +v.^+4 =.G+",
"[ i | 9 ^ f ! ! ! ! ! f ! ) f = u f ' ~.H+, ' y ~ { a s+I+n s.s.s.N D+V D+^+v.4 ",
"A 7 J+u.! ! ! f ! ) f ! h.^ ~ u ' { ^ u ~ u ^ ' y u 0 '.J s+z+/+[+d.5.t.K+D+S 4+"};
