/* XPM */
static char * floor (another copy)_xpm[] = {
"40 40 260 2",
"  	c #DDB23B",
". 	c #FFBD43",
"+ 	c #E7A93C",
"@ 	c #694717",
"# 	c #A42D17",
"$ 	c #994825",
"% 	c #CD4E1C",
"& 	c #985728",
"* 	c #45452E",
"= 	c #5B4326",
"- 	c #4C3C24",
"; 	c #3B2D1E",
"> 	c #5C3E24",
", 	c #6A4C2C",
"' 	c #634B30",
") 	c #54422A",
"! 	c #523D25",
"~ 	c #5B452A",
"{ 	c #533F2A",
"] 	c #5D4931",
"^ 	c #5D492C",
"/ 	c #4B3623",
"( 	c #862818",
"_ 	c #FEEC53",
": 	c #FEF356",
"< 	c #FFF559",
"[ 	c #7B4D25",
"} 	c #E9AE32",
"| 	c #8D4B1B",
"1 	c #B6762C",
"2 	c #FDD44A",
"3 	c #FFDC43",
"4 	c #FFFE55",
"5 	c #FDCD43",
"6 	c #FFC52C",
"7 	c #FBFA4B",
"8 	c #FFB829",
"9 	c #443421",
"0 	c #554432",
"a 	c #4D3E2A",
"b 	c #8C3F21",
"c 	c #FEE446",
"d 	c #FCB33D",
"e 	c #5D4018",
"f 	c #534126",
"g 	c #E3892B",
"h 	c #FEAA32",
"i 	c #D97929",
"j 	c #FC8123",
"k 	c #F67927",
"l 	c #EE8822",
"m 	c #383525",
"n 	c #C95819",
"o 	c #FEC43B",
"p 	c #262A24",
"q 	c #694C25",
"r 	c #CD6826",
"s 	c #2A211A",
"t 	c #7C532C",
"u 	c #62462B",
"v 	c #F46E21",
"w 	c #FEC241",
"x 	c #2D2B2B",
"y 	c #634A2D",
"z 	c #C2652C",
"A 	c #FFFE5B",
"B 	c #FF9B35",
"C 	c #313129",
"D 	c #EA8D2C",
"E 	c #B8551C",
"F 	c #74522C",
"G 	c #8D532B",
"H 	c #F5842C",
"I 	c #FFCC33",
"J 	c #754828",
"K 	c #594531",
"L 	c #523621",
"M 	c #453A24",
"N 	c #D2752C",
"O 	c #FE832C",
"P 	c #493913",
"Q 	c #423B2B",
"R 	c #FF732D",
"S 	c #FDA533",
"T 	c #FDD344",
"U 	c #844322",
"V 	c #E38B31",
"W 	c #FE7A2B",
"X 	c #F7561A",
"Y 	c #FFFF63",
"Z 	c #EB5617",
"` 	c #E8822F",
" .	c #CD9B33",
"..	c #F89729",
"+.	c #835A31",
"@.	c #FD9B2C",
"#.	c #FC8B30",
"$.	c #FF7523",
"%.	c #FC671A",
"&.	c #FFCB3E",
"*.	c #FE9333",
"=.	c #EE5423",
"-.	c #6D5126",
";.	c #8C622C",
">.	c #322722",
",.	c #F4C739",
"'.	c #EC772A",
").	c #B54A22",
"!.	c #693B1A",
"~.	c #7A4C2B",
"{.	c #ED7623",
"].	c #FE942D",
"^.	c #FEA238",
"/.	c #FFDC50",
"(.	c #CD3615",
"_.	c #C95624",
":.	c #552623",
"<.	c #833118",
"[.	c #CE7A29",
"}.	c #AC79BD",
"|.	c #C5B6DE",
"1.	c #310094",
"2.	c #6E5032",
"3.	c #FE6422",
"4.	c #FEEB4E",
"5.	c #FFEB43",
"6.	c #D95521",
"7.	c #F5A637",
"8.	c #DE4216",
"9.	c #FEDA4C",
"0.	c #FC7919",
"a.	c #7E281C",
"b.	c #8348CD",
"c.	c #6A48CD",
"d.	c #965B2C",
"e.	c #6A4524",
"f.	c #FF9225",
"g.	c #E76726",
"h.	c #6230BD",
"i.	c #624426",
"j.	c #4D4026",
"k.	c #6D3D24",
"l.	c #A46630",
"m.	c #FEE24D",
"n.	c #F79135",
"o.	c #39049C",
"p.	c #390073",
"q.	c #412E21",
"r.	c #423D30",
"s.	c #FF7733",
"t.	c #FD8B2D",
"u.	c #AD551F",
"v.	c #2C3725",
"w.	c #F2B142",
"x.	c #D5C2EE",
"y.	c #73309C",
"z.	c #4A048B",
"A.	c #9B632D",
"B.	c #FEB735",
"C.	c #795125",
"D.	c #E4832B",
"E.	c #DD5A21",
"F.	c #AC48BD",
"G.	c #52006A",
"H.	c #FF8630",
"I.	c #E6C6E6",
"J.	c #B4149C",
"K.	c #9C48C5",
"L.	c #9428A4",
"M.	c #62046A",
"N.	c #665328",
"O.	c #6B3723",
"P.	c #943473",
"Q.	c #A44CA4",
"R.	c #730C41",
"S.	c #FE8824",
"T.	c #A34625",
"U.	c #B428A4",
"V.	c #AC1083",
"W.	c #AC34AC",
"X.	c #AC4CAC",
"Y.	c #5A006A",
"Z.	c #52045A",
"`.	c #B96B2D",
" +	c #4C412A",
".+	c #694A31",
"++	c #B4187B",
"@+	c #9C28A4",
"#+	c #734D2B",
"$+	c #E79536",
"%+	c #733921",
"&+	c #EF6B18",
"*+	c #F48B2B",
"=+	c #5A291C",
"-+	c #A9672A",
";+	c #C548A4",
">+	c #A55D2B",
",+	c #8B6130",
"'+	c #B55825",
")+	c #FFAB2E",
"!+	c #FE6E23",
"~+	c #FF831F",
"{+	c #AC349C",
"]+	c #7F5A30",
"^+	c #F29B36",
"/+	c #635031",
"(+	c #C53073",
"_+	c #7B005A",
":+	c #7B0C62",
"<+	c #8B5C2C",
"[+	c #5E4B25",
"}+	c #EC8531",
"|+	c #D79435",
"1+	c #BA8023",
"2+	c #C6752C",
"3+	c #9F6430",
"4+	c #7E4621",
"5+	c #8F5D30",
"6+	c #FFE453",
"7+	c #C52C6A",
"8+	c #83542B",
"9+	c #D97931",
"0+	c #C76D30",
"a+	c #AC2C6A",
"b+	c #B4288B",
"c+	c #730041",
"d+	c #5A0031",
"e+	c #941441",
"f+	c #704D30",
"g+	c #6E4729",
"h+	c #735130",
"i+	c #F5D64D",
"j+	c #AC1862",
"k+	c #9C1C4A",
"l+	c #940041",
"m+	c #835127",
"n+	c #AC044A",
"o+	c #84592E",
"p+	c #92652D",
"q+	c #BD044A",
"r+	c #42372C",
"s+	c #AD6E30",
"t+	c #AA5723",
"u+	c #6E512E",
"v+	c #AC184A",
"w+	c #AD3F22",
"x+	c #712A22",
"y+	c #5C3620",
"z+	c #474633",
"A+	c #ECB845",
"B+	c #BB4422",
"C+	c #DC8C37",
"D+	c #FAAD3C",
"E+	c #DF3322",
"F+	c #D86B27",
"G+	c #221122",
"H+	c #874B28",
"I+	c #E59E2C",
"J+	c #FFA62A",
"K+	c #A92C16",
"  . + @ @ # # $ % & * = - ; > , ' ) ! ~ ) { ! = ) ) ~ ] ) ^ / ! / ) ( _ : < [ = ",
"} | 1 2 3 4 5 6 7 8 9 ^ ) ) 9 ; ; ^ ! ! 0 ! ) a ) ! ) - ' ^ , ! / > b c d e f ! ",
"g h i j k l m n o p q , r $ @ a ) s t - ! ! ! - ! ) = = = u > - - m v w x = y ^ ",
"z < 2 A B C C D E F B G H I J K ^ ) ; L { ! ! ! { y { > ^ = M ! f N O P Q ^ ^ y ",
"R B : _ 4 S H T U V W X : Y Z t ` ~ / 9 > ! L ! ! = / = > - - >  ...A Z V y +.) ",
"@.< A #.: < _ 4 $.%.&.A A *.R =.-.;.^ M f = / { ! y y = { , m > >.,.D  .'.).!.~.",
"{.].#.^./._ Y (.4 4 _.:.<.#.A [.=.-.}.|.|.1.t L ! ! ^ ^ ~ y 2.M > p u U 3.h 4.5.",
"6.7.8.(.< 9.^.0._ a.f ) f - U 0.< }.b.b.c.1.1.d.u / / K y y , ! - y , - e.[ f.2 ",
") z 5 V f.w * g.4./ f F f ) 9 U 9.}.b.h.h.c.1.1.= { = ^ f ^ > i.- j., y = @ k 4.",
"K 3.k.l.= m.X d &.0./ e.O * n.!.}.b.h.h.h.b.o.1.p./ q.9 9 9 9 L > = ~ ) r.h @.A ",
").s.k.= t.3.: '.u.5.%.- f v.6.w.x.b.h.h.h.y.b.z.z.- 9 m 9 / > = = f m A.B.%.A @.",
",./ C.D.x S < E.) E.4.U ~ X 8 x.F.y.y.y.y.y.b.z.G.9 f f = f f f ) a H.'.%.O $.#.",
">.y m ~ N *.Y B.E...T # 0...A I.J.K.y.y.y.y.L.F.M.f ) j.j.^ N.~ y f B B ^.4 w 3.",
"y ! j.M m ) b I < Y f.< 4 u.O.I.J.J.K.L.L.P.Q.M.R.M F ! = ~ y ^ ^ M a ~ ^ , =.B ",
"! ) M M f y 1 r S.d T.4.A n :.U.J.V.F.W.P.P.X.Y.Z.`.M > = f ~  +) ^ = ~ ) ~ f = ",
") - M j.) y A..+2.g.c 4 n 0.Y U.++++V.F.@+P.X.Y.Z.#+= = j.M f j.M - - > { ] ~ ~ ",
" +j.j.M M u , y q K $+4 %+&+A U.++++V.V.X.Q.M.Y.Z.= / = & = ! ) f - - ! ! f ~ ) ",
") ~ f j.~ ) = y ) & 3._ 4 *+=+-+U.++V.V.;+X.M.Z.! - G >+O i.- t y y - - ! ) f ! ",
"^ ~ F ,+f = ^ ) '+)+m.!+~+M y j.{+++J.V.J.;+M.Y.> ~ F A.f = y ^ y ) - ! ! - > > ",
") j.~ , ]+= = y $.Y m.^+M f > /+(+++++J.(+_+:+Y.a ^ , <+-+^ y = = = [+M - f f f ",
"f ) j.~ ^ +.a - M }+'.|+$.1+v.T.(+++J.J.(+_+:+Y.) i.#+- ~ ~ f ^ ^ = ~ ! ! f f f ",
"f ^ - a 2+y ~ y 3+4+B _ j j W &.{+++J.J.(+_+:+M.M = i.! = y [+/ f f ~ - ! ! f { ",
") j.~ ~ 2+5+y  ++.r 2 6+< Y A f.(+++V.V.7+_+_+M.) - u 8+^ - > - ! / ! f ! / ! f ",
"f j.A.9+u u ^ ^ ^ 0+T 6+_ ).$+~+a+V.V.V.b+_+c+d+j.! y u u ^ f ! ! / ^ / f f - f ",
"~ ) ~ l.8+) K j.2.+.$._ a.-.D *.W a+e+V.7+_+c+y t f+~ ~ ~ ! = g+j.~ ~ G - - ! > ",
"y y F t q i.^ h+y +.$.i+V #.9.A *.a+e+V.j+++c+~.+.^ y ^ - - / ^ C.G G ~.y ! ! f ",
"- u = > ) ^ ^ ]+y t h A i+9._ 9.o a+a+k+l+++c+#+#+) ^ ^ ~ u m+>+O.G { ' = = ~ = ",
"^ ~ .+- a ^ ~ ) ~ ^ Q ..2 < 5 4 3 a+j+l+n+++c+^ ^ ^ = .+9 9 ^ , g+, , ~ ) ! { = ",
"~ ^ K ~ - Q  +) ~ ' ) ;.S.$.S.$.B a+j+n+n+j+F j.) ~ y , M ^ f u i., , ) { ! f y ",
"y - g+o+N 9+3+p+3+) y a I ].[.> m ~ k+n+q+j+g+u ^ g+] ^ / = , r+Q p+9 9 L ! - ) ",
"f 2.y o+^ s+<+l.1+^ F y x F Q j.- ~ a+j+q+j+i.J g+^ ' , > ^ m g.S t.t+h s+s+#+! ",
"^ y /+j.u+o+l.]+t f f f f = ) f f ~ a+j+v+! y > 4+e.e.4+) L t.t.} 9+9.D w+x+, ^ ",
"^ ' ) ' f ) ) 9+A.,+f ! - - j.- f = ^ v+v+f y = = ) ! K  +'+*.9+k.9+_ Y 4 =.y+~.",
"~ ) j.f f j.j.y ^ u+) M f , f M , y u+c+y ) = ' ' ] ' z+i $+A+G ' E.$+/ %+A B+M ",
"' f f - f f j.~ y ^ y y ~ F d.F - = y y , 0+~.] ~ ^ ) ,+3.C+Y _.~.{.g.e.%+i+_ B+",
") f f f f f ! - - 2.~ /+F F f ^ ! f ^ i.q 8+q y = ) y d.D+4.{.].$.9.m.S.*+7.E+5.",
"^ ' y f j.~ = , ) = ! ) ) - f f ^ i.y ^ a -+) y > = r.F+#.$ ).5 d < /.A '.5 &.L ",
"q.M 9 = f j.f f ) ! ) ) ! f f f = 8+) y `.^ ^ ] ' K ~.D.t+o 3 2 ].< $+w.^+4 =.G+",
"[ i | 9 ^ f ! ! ! ! ! f ! ) f = u f ' ~.H+, ' y ~ { a s+I+n t.t.t.N D+V D+^+w.4 ",
"A 7 J+v.! ! ! f ! ) f ! j.^ ~ u ' { ^ u ~ u ^ ' y u 0 '.J s+z+/+|+e.5.u.K+D+S 6+"};
