/* XPM */
static char * floor (10th copy)_xpm[] = {
"40 40 264 2",
"  	c #DDB23B",
". 	c #FFBD43",
"+ 	c #E7A93C",
"@ 	c #694717",
"# 	c #A42D17",
"$ 	c #994825",
"% 	c #CD4E1C",
"& 	c #985728",
"* 	c #45452E",
"= 	c #5B4326",
"- 	c #4C3C24",
"; 	c #3B2D1E",
"> 	c #5C3E24",
", 	c #6A4C2C",
"' 	c #634B30",
") 	c #54422A",
"! 	c #523D25",
"~ 	c #5B452A",
"{ 	c #533F2A",
"] 	c #5D4931",
"^ 	c #5D492C",
"/ 	c #4B3623",
"( 	c #862818",
"_ 	c #FEEC53",
": 	c #FEF356",
"< 	c #FFF559",
"[ 	c #7B4D25",
"} 	c #E9AE32",
"| 	c #8D4B1B",
"1 	c #B6762C",
"2 	c #FDD44A",
"3 	c #FFDC43",
"4 	c #FFFE55",
"5 	c #FDCD43",
"6 	c #FFC52C",
"7 	c #FBFA4B",
"8 	c #FFB829",
"9 	c #443421",
"0 	c #554432",
"a 	c #4D3E2A",
"b 	c #8C3F21",
"c 	c #FEE446",
"d 	c #FCB33D",
"e 	c #5D4018",
"f 	c #534126",
"g 	c #E3892B",
"h 	c #FEAA32",
"i 	c #D97929",
"j 	c #FC8123",
"k 	c #F67927",
"l 	c #EE8822",
"m 	c #383525",
"n 	c #C95819",
"o 	c #FEC43B",
"p 	c #262A24",
"q 	c #694C25",
"r 	c #CD6826",
"s 	c #2A211A",
"t 	c #7C532C",
"u 	c #62462B",
"v 	c #F46E21",
"w 	c #FEC241",
"x 	c #2D2B2B",
"y 	c #634A2D",
"z 	c #C2652C",
"A 	c #FFFE5B",
"B 	c #FF9B35",
"C 	c #313129",
"D 	c #EA8D2C",
"E 	c #B8551C",
"F 	c #74522C",
"G 	c #8D532B",
"H 	c #F5842C",
"I 	c #FFCC33",
"J 	c #754828",
"K 	c #594531",
"L 	c #523621",
"M 	c #453A24",
"N 	c #D2752C",
"O 	c #FE832C",
"P 	c #493913",
"Q 	c #423B2B",
"R 	c #FF732D",
"S 	c #FDA533",
"T 	c #FDD344",
"U 	c #844322",
"V 	c #E38B31",
"W 	c #FE7A2B",
"X 	c #F7561A",
"Y 	c #FFFF63",
"Z 	c #EB5617",
"` 	c #E8822F",
" .	c #CD9B33",
"..	c #F89729",
"+.	c #835A31",
"@.	c #FD9B2C",
"#.	c #FC8B30",
"$.	c #FF7523",
"%.	c #FC671A",
"&.	c #FFCB3E",
"*.	c #FE9333",
"=.	c #EE5423",
"-.	c #6D5126",
";.	c #8C622C",
">.	c #322722",
",.	c #F4C739",
"'.	c #EC772A",
").	c #B54A22",
"!.	c #693B1A",
"~.	c #7A4C2B",
"{.	c #ED7623",
"].	c #FE942D",
"^.	c #FEA238",
"/.	c #FFDC50",
"(.	c #CD3615",
"_.	c #C95624",
":.	c #552623",
"<.	c #833118",
"[.	c #CE7A29",
"}.	c #9479BD",
"|.	c #6A44BD",
"1.	c #522CCD",
"2.	c #6E5032",
"3.	c #FE6422",
"4.	c #FEEB4E",
"5.	c #FFEB43",
"6.	c #D95521",
"7.	c #F5A637",
"8.	c #DE4216",
"9.	c #FEDA4C",
"0.	c #FC7919",
"a.	c #7E281C",
"b.	c #8B71D5",
"c.	c #6A48CD",
"d.	c #965B2C",
"e.	c #6A4524",
"f.	c #FF9225",
"g.	c #E76726",
"h.	c #AC79BD",
"i.	c #624426",
"j.	c #4D4026",
"k.	c #6D3D24",
"l.	c #A46630",
"m.	c #FEE24D",
"n.	c #F79135",
"o.	c #6230BD",
"p.	c #412E21",
"q.	c #423D30",
"r.	c #FF7733",
"s.	c #FD8B2D",
"t.	c #AD551F",
"u.	c #2C3725",
"v.	c #A475D5",
"w.	c #8348CD",
"x.	c #9B632D",
"y.	c #FEB735",
"z.	c #795125",
"A.	c #E4832B",
"B.	c #DD5A21",
"C.	c #BD79D5",
"D.	c #732CC5",
"E.	c #FF8630",
"F.	c #9C48C5",
"G.	c #73309C",
"H.	c #9428A4",
"I.	c #8B40AC",
"J.	c #665328",
"K.	c #6B3723",
"L.	c #B475C5",
"M.	c #CD7DC5",
"N.	c #8B24A4",
"O.	c #AC48BD",
"P.	c #AC34AC",
"Q.	c #9C44AC",
"R.	c #FE8824",
"S.	c #A34625",
"T.	c #A4248B",
"U.	c #830494",
"V.	c #C548A4",
"W.	c #62046A",
"X.	c #B96B2D",
"Y.	c #4C412A",
"Z.	c #694A31",
"`.	c #7B0C62",
" +	c #734D2B",
".+	c #E79536",
"++	c #733921",
"@+	c #EF6B18",
"#+	c #94089C",
"$+	c #F48B2B",
"%+	c #5A291C",
"&+	c #A55D2B",
"*+	c #8B6130",
"=+	c #B55825",
"-+	c #FFAB2E",
";+	c #FE6E23",
">+	c #FF831F",
",+	c #7F5A30",
"'+	c #F29B36",
")+	c #635031",
"!+	c #73047B",
"~+	c #8B5C2C",
"{+	c #A9672A",
"]+	c #5E4B25",
"^+	c #EC8531",
"/+	c #D79435",
"(+	c #BA8023",
"_+	c #A428A4",
":+	c #AC1083",
"<+	c #7B206A",
"[+	c #C6752C",
"}+	c #9F6430",
"|+	c #7E4621",
"1+	c #B4149C",
"2+	c #AC089C",
"3+	c #730C41",
"4+	c #8F5D30",
"5+	c #FFE453",
"6+	c #AC2073",
"7+	c #940C7B",
"8+	c #83542B",
"9+	c #D97931",
"0+	c #C76D30",
"a+	c #AC349C",
"b+	c #C52C6A",
"c+	c #B4047B",
"d+	c #B4187B",
"e+	c #940041",
"f+	c #94206A",
"g+	c #704D30",
"h+	c #6E4729",
"i+	c #735130",
"j+	c #F5D64D",
"k+	c #7B005A",
"l+	c #AC2C6A",
"m+	c #835127",
"n+	c #AC044A",
"o+	c #AC1862",
"p+	c #831441",
"q+	c #84592E",
"r+	c #92652D",
"s+	c #42372C",
"t+	c #AD6E30",
"u+	c #9C1C4A",
"v+	c #BD044A",
"w+	c #AA5723",
"x+	c #6E512E",
"y+	c #AC184A",
"z+	c #AD3F22",
"A+	c #712A22",
"B+	c #5C3620",
"C+	c #474633",
"D+	c #ECB845",
"E+	c #BB4422",
"F+	c #DC8C37",
"G+	c #FAAD3C",
"H+	c #DF3322",
"I+	c #D86B27",
"J+	c #F2B142",
"K+	c #221122",
"L+	c #874B28",
"M+	c #E59E2C",
"N+	c #FFA62A",
"O+	c #A92C16",
"  . + @ @ # # $ % & * = - ; > , ' ) ! ~ ) { ! = ) ) ~ ] ) ^ / ! / ) ( _ : < [ = ",
"} | 1 2 3 4 5 6 7 8 9 ^ ) ) 9 ; ; ^ ! ! 0 ! ) a ) ! ) - ' ^ , ! / > b c d e f ! ",
"g h i j k l m n o p q , r $ @ a ) s t - ! ! ! - ! ) = = = u > - - m v w x = y ^ ",
"z < 2 A B C C D E F B G H I J K ^ ) ; L { ! ! ! { y { > ^ = M ! f N O P Q ^ ^ y ",
"R B : _ 4 S H T U V W X : Y Z t ` ~ / 9 > ! L ! ! = / = > - - >  ...A Z V y +.) ",
"@.< A #.: < _ 4 $.%.&.A A *.R =.-.;.^ M f = / { ! y y = { , m > >.,.D  .'.).!.~.",
"{.].#.^./._ Y (.4 4 _.:.<.#.A [.=.-.}.|.1.|.t L ! ! ^ ^ ~ y 2.M > p u U 3.h 4.5.",
"6.7.8.(.< 9.^.0._ a.f ) f - U 0.b.}.c.1.1.1.|.d.u / / K y y , ! - y , - e.[ f.2 ",
") z 5 V f.w * g.4./ f F f ) 9 b.h.}.c.1.1.1.1.) = { = ^ f ^ > i.- j., y = @ k 4.",
"K 3.k.l.= m.X d &.0./ e.O * n.b.h.h.c.1.1.1.o.|.> / p.9 9 9 9 L > = ~ ) q.h @.A ",
").r.k.= s.3.: '.t.5.%.- f u.6.v.h.h.w.o.o.o.1.1.9 - 9 m 9 / > = = f m x.y.%.A @.",
",./ z.A.x S < B.) B.4.U ~ X 8 v.h.C.w.o.D.D.D.D./ 9 f f = f f f ) a E.'.%.O $.#.",
">.y m ~ N *.Y y.B...T # 0...A v.C.C.F.G.G.G.G.H.I.f ) j.j.^ J.~ y f B B ^.4 w 3.",
"y ! j.M m ) b I < Y f.< 4 t.K.L.C.M.N.O.F.P.P.P.Q.M F ! = ~ y ^ ^ M a ~ ^ , =.B ",
"! ) M M f y 1 r R.d S.4.A n :.C.M.T.U.U.U.V.P.V.W.X.M > = f ~ Y.) ^ = ~ ) ~ f = ",
") - M j.) y x.Z.2.g.c 4 n 0.Y C.M.T.U.U.U.U.V.`.W. += = j.M f j.M - - > { ] ~ ~ ",
"Y.j.j.M M u , y q K .+4 ++@+A C.T.#+#+U.U.U.N.`.W.= / = & = ! ) f - - ! ! f ~ ) ",
") ~ f j.~ ) = y ) & 3._ 4 $+%+M.T.#+#+U.U.N.W.W.! - G &+O i.- t y y - - ! ) f ! ",
"^ ~ F *+f = ^ ) =+-+m.;+>+M y j.#+#+#+#+U.N.W.W.> ~ F x.f = y ^ y ) - ! ! - > > ",
") j.~ , ,+= = y $.Y m.'+M f > )+#+#+#+#+#+T.!+`.a ^ , ~+{+^ y = = = ]+M - f f f ",
"f ) j.~ ^ +.a - M ^+'./+$.(+u.S._+:+:+#+#+T.`.<+) i. +- ~ ~ f ^ ^ = ~ ! ! f f f ",
"f ^ - a [+y ~ y }+|+B _ j j W &.T.1+1+2+#+_+3+}+M = i.! = y ]+/ f f ~ - ! ! f { ",
") j.~ ~ [+4+y Y.+.r 2 5+< Y A f.6+2+2+2+7+_+3+- ) - u 8+^ - > - ! / ! f ! / ! f ",
"f j.x.9+u u ^ ^ ^ 0+T 5+_ )..+>+a+b+c+c+7+_+<+) j.! y u u ^ f ! ! / ^ / f f - f ",
"~ ) ~ l.8+) K j.2.+.$._ a.-.D *.W d+c+e+e+f+<+y t g+~ ~ ~ ! = h+j.~ ~ G - - ! > ",
"y y F t q i.^ i+y +.$.j+V #.9.A *.d+c+e+k+<+- ~.+.^ y ^ - - / ^ z.G G ~.y ! ! f ",
"- u = > ) ^ ^ ,+y t h A j+9._ 9.o l+d+e+k+<+!  + +) ^ ^ ~ u m+&+K.G { ' = = ~ = ",
"^ ~ Z.- a ^ ~ ) ~ ^ Q ..2 < 5 4 3 l+d+n+k+<+y ^ ^ ^ = Z.9 9 ^ , h+, , ~ ) ! { = ",
"~ ^ K ~ - Q Y.) ~ ' ) ;.R.$.R.$.B l+o+e+e+p+F j.) ~ y , M ^ f u i., , ) { ! f y ",
"y - h+q+N 9+}+r+}+) y a I ].[.> m l+o+n+e+= h+u ^ h+] ^ / = , s+Q r+9 9 L ! - ) ",
"f 2.y q+^ t+~+l.(+^ F y x F Q j.- ~ u+v+e+y i.J h+^ ' , > ^ m g.S s.w+h t+t+ +! ",
"^ y )+j.x+q+l.,+t f f f f = ) f f ~ y+v+n+! y > |+e.e.|+) L s.s.} 9+9.D z+A+, ^ ",
"^ ' ) ' f ) ) 9+x.*+f ! - - j.- f = y+v+y+f y = = ) ! K Y.=+*.9+k.9+_ Y 4 =.B+~.",
"~ ) j.f f j.j.y ^ x+) M f , f M , y x+y+y ) = ' ' ] ' C+i .+D+G ' B..+/ ++A E+M ",
"' f f - f f j.~ y ^ y y ~ F d.F - = y y , 0+~.] ~ ^ ) *+3.F+Y _.~.{.g.e.++j+_ E+",
") f f f f f ! - - 2.~ )+F F f ^ ! f ^ i.q 8+q y = ) y d.G+4.{.].$.9.m.R.$+7.H+5.",
"^ ' y f j.~ = , ) = ! ) ) - f f ^ i.y ^ a {+) y > = q.I+#.$ ).5 d < /.A '.5 &.L ",
"p.M 9 = f j.f f ) ! ) ) ! f f f = 8+) y X.^ ^ ] ' K ~.A.w+o 3 2 ].< .+J+'+4 =.K+",
"[ i | 9 ^ f ! ! ! ! ! f ! ) f = u f ' ~.L+, ' y ~ { a t+M+n s.s.s.N G+V G+'+J+4 ",
"A 7 N+u.! ! ! f ! ) f ! j.^ ~ u ' { ^ u ~ u ^ ' y u 0 '.J t+C+)+/+e.5.t.O+G+S 5+"};
