/* XPM */
static char * floor (5th copy)_xpm[] = {
"40 40 268 2",
"  	c #DDB23B",
". 	c #FFBD43",
"+ 	c #E7A93C",
"@ 	c #694717",
"# 	c #A42D17",
"$ 	c #994825",
"% 	c #CD4E1C",
"& 	c #985728",
"* 	c #45452E",
"= 	c #5B4326",
"- 	c #4C3C24",
"; 	c #3B2D1E",
"> 	c #5C3E24",
", 	c #6A4C2C",
"' 	c #634B30",
") 	c #54422A",
"! 	c #523D25",
"~ 	c #5B452A",
"{ 	c #533F2A",
"] 	c #5D4931",
"^ 	c #5D492C",
"/ 	c #4B3623",
"( 	c #862818",
"_ 	c #FEEC53",
": 	c #FEF356",
"< 	c #FFF559",
"[ 	c #7B4D25",
"} 	c #E9AE32",
"| 	c #8D4B1B",
"1 	c #B6762C",
"2 	c #FDD44A",
"3 	c #FFDC43",
"4 	c #FFFE55",
"5 	c #FDCD43",
"6 	c #FFC52C",
"7 	c #FBFA4B",
"8 	c #FFB829",
"9 	c #443421",
"0 	c #554432",
"a 	c #4D3E2A",
"b 	c #8C3F21",
"c 	c #FEE446",
"d 	c #FCB33D",
"e 	c #5D4018",
"f 	c #534126",
"g 	c #E3892B",
"h 	c #FEAA32",
"i 	c #D97929",
"j 	c #FC8123",
"k 	c #F67927",
"l 	c #EE8822",
"m 	c #383525",
"n 	c #C95819",
"o 	c #FEC43B",
"p 	c #262A24",
"q 	c #694C25",
"r 	c #CD6826",
"s 	c #2A211A",
"t 	c #7C532C",
"u 	c #62462B",
"v 	c #F46E21",
"w 	c #FEC241",
"x 	c #2D2B2B",
"y 	c #634A2D",
"z 	c #C2652C",
"A 	c #FFFE5B",
"B 	c #FF9B35",
"C 	c #313129",
"D 	c #EA8D2C",
"E 	c #B8551C",
"F 	c #74522C",
"G 	c #8D532B",
"H 	c #F5842C",
"I 	c #FFCC33",
"J 	c #754828",
"K 	c #594531",
"L 	c #523621",
"M 	c #453A24",
"N 	c #D2752C",
"O 	c #FE832C",
"P 	c #493913",
"Q 	c #423B2B",
"R 	c #FF732D",
"S 	c #FDA533",
"T 	c #FDD344",
"U 	c #844322",
"V 	c #E38B31",
"W 	c #FE7A2B",
"X 	c #F7561A",
"Y 	c #FFFF63",
"Z 	c #EB5617",
"` 	c #E8822F",
" .	c #CD9B33",
"..	c #F89729",
"+.	c #835A31",
"@.	c #FD9B2C",
"#.	c #FC8B30",
"$.	c #FF7523",
"%.	c #FC671A",
"&.	c #FFCB3E",
"*.	c #FE9333",
"=.	c #EE5423",
"-.	c #6D5126",
";.	c #8C622C",
">.	c #322722",
",.	c #F4C739",
"'.	c #EC772A",
").	c #B54A22",
"!.	c #693B1A",
"~.	c #7A4C2B",
"{.	c #ED7623",
"].	c #FE942D",
"^.	c #FEA238",
"/.	c #FFDC50",
"(.	c #CD3615",
"_.	c #C95624",
":.	c #552623",
"<.	c #833118",
"[.	c #CE7A29",
"}.	c #AC79BD",
"|.	c #B489D5",
"1.	c #52045A",
"2.	c #52006A",
"3.	c #6E5032",
"4.	c #FE6422",
"5.	c #FEEB4E",
"6.	c #FFEB43",
"7.	c #D95521",
"8.	c #F5A637",
"9.	c #DE4216",
"0.	c #FEDA4C",
"a.	c #FC7919",
"b.	c #7E281C",
"c.	c #9479BD",
"d.	c #CD91CD",
"e.	c #CD9DC5",
"f.	c #73047B",
"g.	c #5A048B",
"h.	c #6A4524",
"i.	c #FF9225",
"j.	c #E76726",
"k.	c #C5B6DE",
"l.	c #9C44AC",
"m.	c #8B40AC",
"n.	c #830494",
"o.	c #624426",
"p.	c #4D4026",
"q.	c #6D3D24",
"r.	c #A46630",
"s.	c #FEE24D",
"t.	c #F79135",
"u.	c #8324A4",
"v.	c #7B24A4",
"w.	c #412E21",
"x.	c #423D30",
"y.	c #FF7733",
"z.	c #FD8B2D",
"A.	c #AD551F",
"B.	c #2C3725",
"C.	c #8B71D5",
"D.	c #9B632D",
"E.	c #FEB735",
"F.	c #795125",
"G.	c #E4832B",
"H.	c #DD5A21",
"I.	c #A475D5",
"J.	c #BD79D5",
"K.	c #8B24A4",
"L.	c #9428A4",
"M.	c #AC34AC",
"N.	c #73009C",
"O.	c #FF8630",
"P.	c #94189C",
"Q.	c #665328",
"R.	c #6B3723",
"S.	c #B475C5",
"T.	c #B4388B",
"U.	c #9C28A4",
"V.	c #7B1494",
"W.	c #FE8824",
"X.	c #A34625",
"Y.	c #A428A4",
"Z.	c #7B206A",
"`.	c #B96B2D",
" +	c #4C412A",
".+	c #694A31",
"++	c #C56DC5",
"@+	c #AC40AC",
"#+	c #62046A",
"$+	c #734D2B",
"%+	c #E79536",
"&+	c #733921",
"*+	c #EF6B18",
"=+	c #CD7DC5",
"-+	c #F48B2B",
";+	c #5A291C",
">+	c #B428A4",
",+	c #B44094",
"'+	c #A55D2B",
")+	c #8B6130",
"!+	c #B55825",
"~+	c #FFAB2E",
"{+	c #FE6E23",
"]+	c #FF831F",
"^+	c #7F5A30",
"/+	c #F29B36",
"(+	c #635031",
"_+	c #A4248B",
":+	c #8B5C2C",
"<+	c #A9672A",
"[+	c #5E4B25",
"}+	c #EC8531",
"|+	c #D79435",
"1+	c #BA8023",
"2+	c #AC349C",
"3+	c #C6752C",
"4+	c #9F6430",
"5+	c #7E4621",
"6+	c #B4288B",
"7+	c #6224AC",
"8+	c #8F5D30",
"9+	c #FFE453",
"0+	c #83542B",
"a+	c #D97931",
"b+	c #C76D30",
"c+	c #BD7732",
"d+	c #942873",
"e+	c #7B0C62",
"f+	c #94206A",
"g+	c #940041",
"h+	c #940C7B",
"i+	c #704D30",
"j+	c #6E4729",
"k+	c #735130",
"l+	c #F5D64D",
"m+	c #940C62",
"n+	c #7B107B",
"o+	c #9C1C4A",
"p+	c #AC0862",
"q+	c #835127",
"r+	c #AC044A",
"s+	c #84592E",
"t+	c #92652D",
"u+	c #C52C6A",
"v+	c #AC205A",
"w+	c #AC1862",
"x+	c #42372C",
"y+	c #AD6E30",
"z+	c #AC184A",
"A+	c #AA5723",
"B+	c #6E512E",
"C+	c #AD3F22",
"D+	c #712A22",
"E+	c #5C3620",
"F+	c #474633",
"G+	c #ECB845",
"H+	c #BB4422",
"I+	c #965B2C",
"J+	c #DC8C37",
"K+	c #FAAD3C",
"L+	c #DF3322",
"M+	c #D86B27",
"N+	c #F2B142",
"O+	c #221122",
"P+	c #874B28",
"Q+	c #E59E2C",
"R+	c #FFA62A",
"S+	c #A92C16",
"  . + @ @ # # $ % & * = - ; > , ' ) ! ~ ) { ! = ) ) ~ ] ) ^ / ! / ) ( _ : < [ = ",
"} | 1 2 3 4 5 6 7 8 9 ^ ) ) 9 ; ; ^ ! ! 0 ! ) a ) ! ) - ' ^ , ! / > b c d e f ! ",
"g h i j k l m n o p q , r $ @ a ) s t - ! ! ! - ! ) = = = u > - - m v w x = y ^ ",
"z < 2 A B C C D E F B G H I J K ^ ) ; L { ! ! ! { y { > ^ = M ! f N O P Q ^ ^ y ",
"R B : _ 4 S H T U V W X : Y Z t ` ~ / 9 > ! L ! ! = / = > - - >  ...A Z V y +.) ",
"@.< A #.: < _ 4 $.%.&.A A *.R =.-.;.^ M f = / { ! y y = { , m > >.,.D  .'.).!.~.",
"{.].#.^./._ Y (.4 4 _.:.<.#.A [.=.-.}.}.|.1.2.L ! ! ^ ^ ~ y 3.M > p u U 4.h 5.6.",
"7.8.9.(.< 0.^.a._ b.f ) f - U a.< c.|.d.e.f.g.2.u / / K y y , ! - y , - h.[ i.2 ",
") z 5 V i.w * j.5./ f F f ) 9 U k.|.l.l.m.n.f.g.g.{ = ^ f ^ > o.- p., y = @ k 5.",
"K 4.q.r.= s.X d &.a./ h.O * t.k.c.l.u.v.v.m.f.g.g./ w.9 9 9 9 L > = ~ ) x.h @.A ",
").y.q.= z.4.: '.A.6.%.- f B.7.C.}.l.u.u.u.m.n.f.g.- 9 m 9 / > = = f m D.E.%.A @.",
",./ F.G.x S < H.) H.5.U ~ X I.}.J.m.K.L.L.v.M.N.g.9 f f = f f f ) a O.'.%.O $.#.",
">.y m ~ N *.Y E.H...T # a...A I.J.l.L.L.L.u.l.P.f.f ) p.p.^ Q.~ y f B B ^.4 w 4.",
"y ! p.M m ) b I < Y i.< 4 A.R.S.T.L.L.U.U.L.m.f.V.M F ! = ~ y ^ ^ M a ~ ^ , =.B ",
"! ) M M f y 1 r W.d X.5.A n :.S.M.U.U.Y.Y.L.l.f.Z.`.M > = f ~  +) ^ = ~ ) ~ f = ",
") - M p.) y D..+3.j.c 4 n a.Y ++@+Y.Y.M.Y.U.l.#+Z.$+= = p.M f p.M - - > { ] ~ ~ ",
" +p.p.M M u , y q K %+4 &+*+A =+@+Y.M.M.Y.U.l.#+Z.= / = & = ! ) f - - ! ! f ~ ) ",
") ~ f p.~ ) = y ) & 4._ 4 -+;+>+,+Y.M.M.Y.U.l.#+Z.- G '+O o.- t y y - - ! ) f ! ",
"^ ~ F )+f = ^ ) !+~+s.{+]+M y p.T.>+Y.Y.Y.U.l.1.> ~ F D.f = y ^ y ) - ! ! - > > ",
") p.~ , ^+= = y $.Y s./+M f > (+T.>+>+Y._+l.#+1.a ^ , :+<+^ y = = = [+M - f f f ",
"f ) p.~ ^ +.a - M }+'.|+$.1+B.X.2+T._+_+_+M.#+Z.) o.$+- ~ ~ f ^ ^ = ~ ! ! f f f ",
"f ^ - a 3+y ~ y 4+5+B _ j j W &.6+T._+_+_+M.#+7+M = o.! = y [+/ f f ~ - ! ! f { ",
") p.~ ~ 3+8+y  ++.r 2 9+< Y A i.j 2+_+_+_+@+#+Z.) - u 0+^ - > - ! / ! f ! / ! f ",
"f p.D.a+u u ^ ^ ^ b+T 9+_ ).%+]+c+d+T._+Y.K.e+Z.p.! y u u ^ f ! ! / ^ / f f - f ",
"~ ) ~ r.0+) K p.3.+.$._ b.-.D *.W d+f+g+h+_+#+y t i+~ ~ ~ ! = j+p.~ ~ G - - ! > ",
"y y F t q o.^ k+y +.$.l+V #.0.A *.d+f+m+m+Y.n+~.+.^ y ^ - - / ^ F.G G ~.y ! ! f ",
"- u = > ) ^ ^ ^+y t h A l+0._ 0.o r o+m+p+p+f+$+$+) ^ ^ ~ u q+'+R.G { ' = = ~ = ",
"^ ~ .+- a ^ ~ ) ~ ^ Q ..2 < 5 4 3 o o+p+p+p+f+^ ^ ^ = .+9 9 ^ , j+, , ~ ) ! { = ",
"~ ^ K ~ - Q  +) ~ ' ) ;.W.$.W.$.B >.o+r+p+p+f+p.) ~ y , M ^ f u o., , ) { ! f y ",
"y - j+s+N a+4+t+4+) y a I ].[.> m ~ u+v+r+w+j+u ^ j+] ^ / = , x+Q t+9 9 L ! - ) ",
"f 3.y s+^ y+:+r.1+^ F y x F Q p.- ~ ) z+r+z+o.J j+^ ' , > ^ m j.S z.A+h y+y+$+! ",
"^ y (+p.B+s+r.^+t f f f f = ) f f ~ p.z+r+z+y > 5+h.h.5+) L z.z.} a+0.D C+D+, ^ ",
"^ ' ) ' f ) ) a+D.)+f ! - - p.- f = ^ z+g+f y = = ) ! K  +!+*.a+q.a+_ Y 4 =.E+~.",
"~ ) p.f f p.p.y ^ B+) M f , f M , y B+, y ) = ' ' ] ' F+i %+G+G ' H.%+/ &+A H+M ",
"' f f - f f p.~ y ^ y y ~ F I+F - = y y , b+~.] ~ ^ ) )+4.J+Y _.~.{.j.h.&+l+_ H+",
") f f f f f ! - - 3.~ (+F F f ^ ! f ^ o.q 0+q y = ) y I+K+5.{.].$.0.s.W.-+8.L+6.",
"^ ' y f p.~ = , ) = ! ) ) - f f ^ o.y ^ a <+) y > = x.M+#.$ ).5 d < /.A '.5 &.L ",
"w.M 9 = f p.f f ) ! ) ) ! f f f = 0+) y `.^ ^ ] ' K ~.G.A+o 3 2 ].< %+N+/+4 =.O+",
"[ i | 9 ^ f ! ! ! ! ! f ! ) f = u f ' ~.P+, ' y ~ { a y+Q+n z.z.z.N K+V K+/+N+4 ",
"A 7 R+B.! ! ! f ! ) f ! p.^ ~ u ' { ^ u ~ u ^ ' y u 0 '.J y+F+(+|+h.6.A.S+K+S 9+"};
