/* XPM */
static char * floor (3rd copy)_xpm[] = {
"40 40 270 2",
"  	c #DDB23B",
". 	c #FFBD43",
"+ 	c #E7A93C",
"@ 	c #694717",
"# 	c #A42D17",
"$ 	c #994825",
"% 	c #CD4E1C",
"& 	c #985728",
"* 	c #45452E",
"= 	c #5B4326",
"- 	c #4C3C24",
"; 	c #3B2D1E",
"> 	c #5C3E24",
", 	c #6A4C2C",
"' 	c #634B30",
") 	c #54422A",
"! 	c #523D25",
"~ 	c #5B452A",
"{ 	c #533F2A",
"] 	c #5D4931",
"^ 	c #5D492C",
"/ 	c #4B3623",
"( 	c #862818",
"_ 	c #FEEC53",
": 	c #FEF356",
"< 	c #FFF559",
"[ 	c #7B4D25",
"} 	c #E9AE32",
"| 	c #8D4B1B",
"1 	c #B6762C",
"2 	c #FDD44A",
"3 	c #FFDC43",
"4 	c #FFFE55",
"5 	c #FDCD43",
"6 	c #FFC52C",
"7 	c #FBFA4B",
"8 	c #FFB829",
"9 	c #443421",
"0 	c #554432",
"a 	c #4D3E2A",
"b 	c #8C3F21",
"c 	c #FEE446",
"d 	c #FCB33D",
"e 	c #5D4018",
"f 	c #534126",
"g 	c #E3892B",
"h 	c #FEAA32",
"i 	c #D97929",
"j 	c #FC8123",
"k 	c #F67927",
"l 	c #EE8822",
"m 	c #383525",
"n 	c #C95819",
"o 	c #FEC43B",
"p 	c #262A24",
"q 	c #694C25",
"r 	c #CD6826",
"s 	c #2A211A",
"t 	c #7C532C",
"u 	c #62462B",
"v 	c #F46E21",
"w 	c #FEC241",
"x 	c #2D2B2B",
"y 	c #634A2D",
"z 	c #C2652C",
"A 	c #FFFE5B",
"B 	c #FF9B35",
"C 	c #313129",
"D 	c #EA8D2C",
"E 	c #B8551C",
"F 	c #74522C",
"G 	c #8D532B",
"H 	c #F5842C",
"I 	c #FFCC33",
"J 	c #754828",
"K 	c #594531",
"L 	c #523621",
"M 	c #453A24",
"N 	c #D2752C",
"O 	c #FE832C",
"P 	c #493913",
"Q 	c #423B2B",
"R 	c #FF732D",
"S 	c #FDA533",
"T 	c #FDD344",
"U 	c #844322",
"V 	c #E38B31",
"W 	c #FE7A2B",
"X 	c #F7561A",
"Y 	c #FFFF63",
"Z 	c #EB5617",
"` 	c #E8822F",
" .	c #CD9B33",
"..	c #F89729",
"+.	c #835A31",
"@.	c #FD9B2C",
"#.	c #FC8B30",
"$.	c #FF7523",
"%.	c #FC671A",
"&.	c #FFCB3E",
"*.	c #FE9333",
"=.	c #EE5423",
"-.	c #6D5126",
";.	c #8C622C",
">.	c #322722",
",.	c #F4C739",
"'.	c #EC772A",
").	c #B54A22",
"!.	c #693B1A",
"~.	c #7A4C2B",
"{.	c #ED7623",
"].	c #FE942D",
"^.	c #FEA238",
"/.	c #FFDC50",
"(.	c #CD3615",
"_.	c #C95624",
":.	c #552623",
"<.	c #833118",
"[.	c #CE7A29",
"}.	c #391494",
"|.	c #3108C5",
"1.	c #6E5032",
"2.	c #FE6422",
"3.	c #FEEB4E",
"4.	c #FFEB43",
"5.	c #D95521",
"6.	c #F5A637",
"7.	c #DE4216",
"8.	c #FEDA4C",
"9.	c #FC7919",
"0.	c #7E281C",
"a.	c #8B71D5",
"b.	c #522CCD",
"c.	c #965B2C",
"d.	c #6A4524",
"e.	c #FF9225",
"f.	c #E76726",
"g.	c #835DCD",
"h.	c #9C6DBD",
"i.	c #624426",
"j.	c #4D4026",
"k.	c #6D3D24",
"l.	c #A46630",
"m.	c #FEE24D",
"n.	c #F79135",
"o.	c #9461B4",
"p.	c #412E21",
"q.	c #423D30",
"r.	c #FF7733",
"s.	c #FD8B2D",
"t.	c #AD551F",
"u.	c #2C3725",
"v.	c #732CC5",
"w.	c #5218B4",
"x.	c #5204B4",
"y.	c #9B632D",
"z.	c #FEB735",
"A.	c #795125",
"B.	c #E4832B",
"C.	c #DD5A21",
"D.	c #7314AC",
"E.	c #5A048B",
"F.	c #FF8630",
"G.	c #CD9DC5",
"H.	c #BD79D5",
"I.	c #9428A4",
"J.	c #665328",
"K.	c #D5A5CD",
"L.	c #B461C5",
"M.	c #94189C",
"N.	c #830494",
"O.	c #9C28A4",
"P.	c #8310AC",
"Q.	c #FE8824",
"R.	c #A34625",
"S.	c #B475C5",
"T.	c #C56DC5",
"U.	c #73009C",
"V.	c #B428A4",
"W.	c #AC34AC",
"X.	c #B96B2D",
"Y.	c #4C412A",
"Z.	c #694A31",
"`.	c #73047B",
" +	c #8B24A4",
".+	c #52045A",
"++	c #734D2B",
"@+	c #E79536",
"#+	c #733921",
"$+	c #EF6B18",
"%+	c #B4388B",
"&+	c #CD7DC5",
"*+	c #8324A4",
"=+	c #F48B2B",
"-+	c #5A291C",
";+	c #A4248B",
">+	c #A55D2B",
",+	c #8B6130",
"'+	c #B55825",
")+	c #FFAB2E",
"!+	c #FE6E23",
"~+	c #FF831F",
"{+	c #E6C6E6",
"]+	c #94089C",
"^+	c #7B1494",
"/+	c #7F5A30",
"(+	c #F29B36",
"_+	c #635031",
":+	c #8B5C2C",
"<+	c #A9672A",
"[+	c #5E4B25",
"}+	c #EC8531",
"|+	c #D79435",
"1+	c #BA8023",
"2+	c #940C7B",
"3+	c #52004A",
"4+	c #C6752C",
"5+	c #9F6430",
"6+	c #7E4621",
"7+	c #AC089C",
"8+	c #AC1083",
"9+	c #8F5D30",
"0+	c #FFE453",
"a+	c #B4288B",
"b+	c #83542B",
"c+	c #D97931",
"d+	c #C76D30",
"e+	c #C53073",
"f+	c #B4047B",
"g+	c #7B206A",
"h+	c #B4187B",
"i+	c #940041",
"j+	c #7B005A",
"k+	c #704D30",
"l+	c #6E4729",
"m+	c #735130",
"n+	c #F5D64D",
"o+	c #AC044A",
"p+	c #730041",
"q+	c #835127",
"r+	c #6B3723",
"s+	c #AC2C6A",
"t+	c #5A0031",
"u+	c #9C1C4A",
"v+	c #84592E",
"w+	c #92652D",
"x+	c #C52C6A",
"y+	c #42372C",
"z+	c #AD6E30",
"A+	c #AC184A",
"B+	c #AA5723",
"C+	c #6E512E",
"D+	c #AD3F22",
"E+	c #712A22",
"F+	c #B44094",
"G+	c #5C3620",
"H+	c #941441",
"I+	c #474633",
"J+	c #ECB845",
"K+	c #BB4422",
"L+	c #DC8C37",
"M+	c #FAAD3C",
"N+	c #DF3322",
"O+	c #D86B27",
"P+	c #F2B142",
"Q+	c #221122",
"R+	c #874B28",
"S+	c #E59E2C",
"T+	c #FFA62A",
"U+	c #A92C16",
"  . + @ @ # # $ % & * = - ; > , ' ) ! ~ ) { ! = ) ) ~ ] ) ^ / ! / ) ( _ : < [ = ",
"} | 1 2 3 4 5 6 7 8 9 ^ ) ) 9 ; ; ^ ! ! 0 ! ) a ) ! ) - ' ^ , ! / > b c d e f ! ",
"g h i j k l m n o p q , r $ @ a ) s t - ! ! ! - ! ) = = = u > - - m v w x = y ^ ",
"z < 2 A B C C D E F B G H I J K ^ ) ; L { ! ! ! { y { > ^ = M ! f N O P Q ^ ^ y ",
"R B : _ 4 S H T U V W X : Y Z t ` ~ / 9 > ! L ! ! = / = > - - >  ...A Z V y +.) ",
"@.< A #.: < _ 4 $.%.&.A A *.R =.-.;.^ M f = / { ! y y = { , m > >.,.D  .'.).!.~.",
"{.].#.^./._ Y (.4 4 _.:.<.#.A [.=.-.f }.|.- t L ! ! ^ ^ ~ y 1.M > p u U 2.h 3.4.",
"5.6.7.(.< 8.^.9._ 0.f ) f - U 9.< a.a.b.|.|.}.c.u / / K y y , ! - y , - d.[ e.2 ",
") z 5 V e.w * f.3./ f F f ) 9 U g.h.h.b.|.|.}.) = { = ^ f ^ > i.- j., y = @ k 3.",
"K 2.k.l.= m.X d &.9./ d.O * n.o.h.h.h.b.|.|.}.}.> / p.9 9 9 9 L > = ~ ) q.h @.A ",
").r.k.= s.2.: '.t.4.%.- f u.5.o.h.h.h.v.}.}.w.x.9 - 9 m 9 / > = = f m y.z.%.A @.",
",./ A.B.x S < C.) C.3.U ~ X 8 o.h.h.h.v.w.w.w.D.E.9 f f = f f f ) a F.'.%.O $.#.",
">.y m ~ N *.Y z.C...T # 9...G.H.h.h.h.I.v.D.D.D.D.f ) j.j.^ J.~ y f B B ^.4 w 2.",
"y ! j.M m ) b I < Y e.< 4 t.K.H.L.h.L.M.N.O.P.P.I.M F ! = ~ y ^ ^ M a ~ ^ , =.B ",
"! ) M M f y 1 r Q.d R.3.A n :.S.T.L.T.M.U.N.V.W.V.X.M > = f ~ Y.) ^ = ~ ) ~ f = ",
") - M j.) y y.Z.1.f.c 4 n 9.Y S.T.T.M.N.N.`.`. +.+++= = j.M f j.M - - > { ] ~ ~ ",
"Y.j.j.M M u , y q K @+4 #+$+A %+&+T.M.N.N.`.`.*+.+= / = & = ! ) f - - ! ! f ~ ) ",
") ~ f j.~ ) = y ) & 2._ 4 =+-+%+&+;+N.N.N.N.`.*+.+- G >+O i.- t y y - - ! ) f ! ",
"^ ~ F ,+f = ^ ) '+)+m.!+~+M y %+{+;+]+N.N.N.N.^+> ~ F y.f = y ^ y ) - ! ! - > > ",
") j.~ , /+= = y $.Y m.(+M f > _+%+;+]+]+]+N.;+.+a ^ , :+<+^ y = = = [+M - f f f ",
"f ) j.~ ^ +.a - M }+'.|+$.1+u.R.%+V.]+]+]+2+;+3+) i.++- ~ ~ f ^ ^ = ~ ! ! f f f ",
"f ^ - a 4+y ~ y 5+6+B _ j j W &.%+V.7+8+2+2+;+3+M = i.! = y [+/ f f ~ - ! ! f { ",
") j.~ ~ 4+9+y Y.+.r 2 0+< Y A e.%+a+7+7+7+2+ +- ) - u b+^ - > - ! / ! f ! / ! f ",
"f j.y.c+u u ^ ^ ^ d+T 0+_ ).@+~+%+e+a+f+2+N.g+) j.! y u u ^ f ! ! / ^ / f f - f ",
"~ ) ~ l.b+) K j.1.+.$._ 0.-.D *.W K.h+f+i+j+g+y t k+~ ~ ~ ! = l+j.~ ~ G - - ! > ",
"y y F t q i.^ m+y +.$.n+V #.8.A *.G.h+o+i+p+- ~.+.^ y ^ - - / ^ A.G G ~.y ! ! f ",
"- u = > ) ^ ^ /+y t h A n+8._ 8.o G.h+o+i+p+! ++++) ^ ^ ~ u q+>+r+G { ' = = ~ = ",
"^ ~ Z.- a ^ ~ ) ~ ^ Q ..2 < 5 4 3 s+e+h+i+t+y ^ ^ ^ = Z.9 9 ^ , l+, , ~ ) ! { = ",
"~ ^ K ~ - Q Y.) ~ ' ) ;.Q.$.Q.$.B s+e+u+i+p+F j.) ~ y , M ^ f u i., , ) { ! f y ",
"y - l+v+N c+5+w+5+) y a I ].[.> m ~ x+u+i+= l+u ^ l+] ^ / = , y+Q w+9 9 L ! - ) ",
"f 1.y v+^ z+:+l.1+^ F y x F Q j.- ~ x+A+i+y i.J l+^ ' , > ^ m f.S s.B+h z+z+++! ",
"^ y _+j.C+v+l./+t f f f f = ) f f ~ x+A+i+! y > 6+d.d.6+) L s.s.} c+8.D D+E+, ^ ",
"^ ' ) ' f ) ) c+y.,+f ! - - j.- f = F+A+i+f y = = ) ! K Y.'+*.c+k.c+_ Y 4 =.G+~.",
"~ ) j.f f j.j.y ^ C+) M f , f M , y C+H+y ) = ' ' ] ' I+i @+J+G ' C.@+/ #+A K+M ",
"' f f - f f j.~ y ^ y y ~ F c.F - = y y , d+~.] ~ ^ ) ,+2.L+Y _.~.{.f.d.#+n+_ K+",
") f f f f f ! - - 1.~ _+F F f ^ ! f ^ i.q b+q y = ) y c.M+3.{.].$.8.m.Q.=+6.N+4.",
"^ ' y f j.~ = , ) = ! ) ) - f f ^ i.y ^ a <+) y > = q.O+#.$ ).5 d < /.A '.5 &.L ",
"p.M 9 = f j.f f ) ! ) ) ! f f f = b+) y X.^ ^ ] ' K ~.B.B+o 3 2 ].< @+P+(+4 =.Q+",
"[ i | 9 ^ f ! ! ! ! ! f ! ) f = u f ' ~.R+, ' y ~ { a z+S+n s.s.s.N M+V M+(+P+4 ",
"A 7 T+u.! ! ! f ! ) f ! j.^ ~ u ' { ^ u ~ u ^ ' y u 0 '.J z+I+_+|+d.4.t.U+M+S 0+"};
