/* XPM */
static char * floor (8th copy)_xpm[] = {
"40 40 258 2",
"  	c #DDB23B",
". 	c #FFBD43",
"+ 	c #E7A93C",
"@ 	c #694717",
"# 	c #A42D17",
"$ 	c #994825",
"% 	c #CD4E1C",
"& 	c #985728",
"* 	c #45452E",
"= 	c #5B4326",
"- 	c #4C3C24",
"; 	c #3B2D1E",
"> 	c #5C3E24",
", 	c #6A4C2C",
"' 	c #634B30",
") 	c #54422A",
"! 	c #523D25",
"~ 	c #5B452A",
"{ 	c #533F2A",
"] 	c #5D4931",
"^ 	c #5D492C",
"/ 	c #4B3623",
"( 	c #862818",
"_ 	c #FEEC53",
": 	c #FEF356",
"< 	c #FFF559",
"[ 	c #7B4D25",
"} 	c #E9AE32",
"| 	c #8D4B1B",
"1 	c #B6762C",
"2 	c #FDD44A",
"3 	c #FFDC43",
"4 	c #FFFE55",
"5 	c #FDCD43",
"6 	c #FFC52C",
"7 	c #FBFA4B",
"8 	c #FFB829",
"9 	c #443421",
"0 	c #554432",
"a 	c #4D3E2A",
"b 	c #8C3F21",
"c 	c #FEE446",
"d 	c #FCB33D",
"e 	c #5D4018",
"f 	c #534126",
"g 	c #E3892B",
"h 	c #FEAA32",
"i 	c #D97929",
"j 	c #FC8123",
"k 	c #F67927",
"l 	c #EE8822",
"m 	c #383525",
"n 	c #C95819",
"o 	c #FEC43B",
"p 	c #262A24",
"q 	c #694C25",
"r 	c #CD6826",
"s 	c #2A211A",
"t 	c #7C532C",
"u 	c #62462B",
"v 	c #F46E21",
"w 	c #FEC241",
"x 	c #2D2B2B",
"y 	c #634A2D",
"z 	c #C2652C",
"A 	c #FFFE5B",
"B 	c #FF9B35",
"C 	c #313129",
"D 	c #EA8D2C",
"E 	c #B8551C",
"F 	c #74522C",
"G 	c #8D532B",
"H 	c #F5842C",
"I 	c #FFCC33",
"J 	c #754828",
"K 	c #594531",
"L 	c #523621",
"M 	c #453A24",
"N 	c #D2752C",
"O 	c #FE832C",
"P 	c #493913",
"Q 	c #423B2B",
"R 	c #FF732D",
"S 	c #FDA533",
"T 	c #FDD344",
"U 	c #844322",
"V 	c #E38B31",
"W 	c #FE7A2B",
"X 	c #F7561A",
"Y 	c #FFFF63",
"Z 	c #EB5617",
"` 	c #E8822F",
" .	c #CD9B33",
"..	c #F89729",
"+.	c #835A31",
"@.	c #FD9B2C",
"#.	c #FC8B30",
"$.	c #FF7523",
"%.	c #FC671A",
"&.	c #FFCB3E",
"*.	c #FE9333",
"=.	c #EE5423",
"-.	c #6D5126",
";.	c #8C622C",
">.	c #322722",
",.	c #F4C739",
"'.	c #EC772A",
").	c #B54A22",
"!.	c #693B1A",
"~.	c #7A4C2B",
"{.	c #ED7623",
"].	c #FE942D",
"^.	c #FEA238",
"/.	c #FFDC50",
"(.	c #CD3615",
"_.	c #C95624",
":.	c #552623",
"<.	c #833118",
"[.	c #CE7A29",
"}.	c #B489D5",
"|.	c #9479BD",
"1.	c #8348AC",
"2.	c #6A389C",
"3.	c #6E5032",
"4.	c #FE6422",
"5.	c #FEEB4E",
"6.	c #FFEB43",
"7.	c #D95521",
"8.	c #F5A637",
"9.	c #DE4216",
"0.	c #FEDA4C",
"a.	c #FC7919",
"b.	c #7E281C",
"c.	c #8359AC",
"d.	c #965B2C",
"e.	c #6A4524",
"f.	c #FF9225",
"g.	c #E76726",
"h.	c #7B1494",
"i.	c #5218B4",
"j.	c #41187B",
"k.	c #624426",
"l.	c #4D4026",
"m.	c #6D3D24",
"n.	c #A46630",
"o.	c #FEE24D",
"p.	c #F79135",
"q.	c #7314AC",
"r.	c #3104AC",
"s.	c #52045A",
"t.	c #412E21",
"u.	c #423D30",
"v.	c #FF7733",
"w.	c #FD8B2D",
"x.	c #AD551F",
"y.	c #2C3725",
"z.	c #F2B142",
"A.	c #6224AC",
"B.	c #39049C",
"C.	c #9B632D",
"D.	c #FEB735",
"E.	c #795125",
"F.	c #E4832B",
"G.	c #DD5A21",
"H.	c #AC79BD",
"I.	c #FF8630",
"J.	c #94189C",
"K.	c #5A048B",
"L.	c #5204B4",
"M.	c #665328",
"N.	c #6B3723",
"O.	c #CD9DC5",
"P.	c #73009C",
"Q.	c #FE8824",
"R.	c #A34625",
"S.	c #AC34AC",
"T.	c #830494",
"U.	c #B96B2D",
"V.	c #4C412A",
"W.	c #694A31",
"X.	c #C59DCD",
"Y.	c #AC40AC",
"Z.	c #734D2B",
"`.	c #E79536",
" +	c #733921",
".+	c #EF6B18",
"++	c #9C44AC",
"@+	c #B4187B",
"#+	c #F48B2B",
"$+	c #5A291C",
"%+	c #7B0C62",
"&+	c #A55D2B",
"*+	c #8B6130",
"=+	c #B55825",
"-+	c #FFAB2E",
";+	c #FE6E23",
">+	c #FF831F",
",+	c #940C7B",
"'+	c #7F5A30",
")+	c #F29B36",
"!+	c #B4149C",
"~+	c #8B5C2C",
"{+	c #A9672A",
"]+	c #5E4B25",
"^+	c #EC8531",
"/+	c #D79435",
"(+	c #BA8023",
"_+	c #B4388B",
":+	c #C6752C",
"<+	c #9F6430",
"[+	c #7E4621",
"}+	c #B428A4",
"|+	c #940C62",
"1+	c #7B005A",
"2+	c #8F5D30",
"3+	c #FFE453",
"4+	c #730041",
"5+	c #83542B",
"6+	c #D97931",
"7+	c #C76D30",
"8+	c #B44094",
"9+	c #941441",
"0+	c #730C41",
"a+	c #62046A",
"b+	c #704D30",
"c+	c #6E4729",
"d+	c #735130",
"e+	c #F5D64D",
"f+	c #942873",
"g+	c #943473",
"h+	c #835127",
"i+	c #9C1C4A",
"j+	c #7B206A",
"k+	c #AC1862",
"l+	c #940041",
"m+	c #84592E",
"n+	c #92652D",
"o+	c #831441",
"p+	c #42372C",
"q+	c #AD6E30",
"r+	c #AA5723",
"s+	c #635031",
"t+	c #6E512E",
"u+	c #AD3F22",
"v+	c #712A22",
"w+	c #5C3620",
"x+	c #474633",
"y+	c #ECB845",
"z+	c #BB4422",
"A+	c #DC8C37",
"B+	c #FAAD3C",
"C+	c #DF3322",
"D+	c #D86B27",
"E+	c #221122",
"F+	c #874B28",
"G+	c #E59E2C",
"H+	c #FFA62A",
"I+	c #A92C16",
"  . + @ @ # # $ % & * = - ; > , ' ) ! ~ ) { ! = ) ) ~ ] ) ^ / ! / ) ( _ : < [ = ",
"} | 1 2 3 4 5 6 7 8 9 ^ ) ) 9 ; ; ^ ! ! 0 ! ) a ) ! ) - ' ^ , ! / > b c d e f ! ",
"g h i j k l m n o p q , r $ @ a ) s t - ! ! ! - ! ) = = = u > - - m v w x = y ^ ",
"z < 2 A B C C D E F B G H I J K ^ ) ; L { ! ! ! { y { > ^ = M ! f N O P Q ^ ^ y ",
"R B : _ 4 S H T U V W X : Y Z t ` ~ / 9 > ! L ! ! = / = > - - >  ...A Z V y +.) ",
"@.< A #.: < _ 4 $.%.&.A A *.R =.-.;.^ M f = / { ! y y = { , m > >.,.D  .'.).!.~.",
"{.].#.^./._ Y (.4 4 _.:.<.#.A [.=.-.}.|.1.2.t L ! ! ^ ^ ~ y 3.M > p u U 4.h 5.6.",
"7.8.9.(.< 0.^.a._ b.f ) f - U a.< |.}.}.}.c.2.d.u / / K y y , ! - y , - e.[ f.2 ",
") z 5 V f.w * g.5./ f F f ) 9 U 0.|.}.}.h.i.j.) = { = ^ f ^ > k.- l., y = @ k 5.",
"K 4.m.n.= o.X d &.a./ e.O * p.!.|.}.}.}.q.r.i.s.> / t.9 9 9 9 L > = ~ ) u.h @.A ",
").v.m.= w.4.: '.x.6.%.- f y.7.z.|.}.}.}.A.B.r.q.9 - 9 m 9 / > = = f m C.D.%.A @.",
",./ E.F.x S < G.) G.5.U ~ X 8 H.}.}.}.}.A.B.B.q./ 9 f f = f f f ) a I.'.%.O $.#.",
">.y m ~ N *.Y D.G...T # a...A }.}.}.}.J.K.L.L.A.f f ) l.l.^ M.~ y f B B ^.4 w 4.",
"y ! l.M m ) b I < Y f.< 4 x.N.O.O.}.O.J.P.K.L.q.- M F ! = ~ y ^ ^ M a ~ ^ , =.B ",
"! ) M M f y 1 r Q.d R.5.A n :.O.O.O.J.S.T.P.P.h.M U.M > = f ~ V.) ^ = ~ ) ~ f = ",
") - M l.) y C.W.3.g.c 4 n a.Y X.Y.S.J.J.S.T.T.T.= Z.= = l.M f l.M - - > { ] ~ ~ ",
"V.l.l.M M u , y q K `.4  +.+A ++Y.S.J.J.S.@+J.J.= = / = & = ! ) f - - ! ! f ~ ) ",
") ~ f l.~ ) = y ) & 4._ 4 #+$+++Y.S.J.J.S.T.T.%+! - G &+O k.- t y y - - ! ) f ! ",
"^ ~ F *+f = ^ ) =+-+o.;+>+M y S.Y.S.J.J.S.T.,+%+> ~ F C.f = y ^ y ) - ! ! - > > ",
") l.~ , '+= = y $.Y o.)+M f > ++Y.S.J.!+S.,+,+%+a ^ , ~+{+^ y = = = ]+M - f f f ",
"f ) l.~ ^ +.a - M ^+'./+$.(+y.R._+_+@+_+,+,+,+J.) k.Z.- ~ ~ f ^ ^ = ~ ! ! f f f ",
"f ^ - a :+y ~ y <+[+B _ j j W &.++_+}+_+,+|+1+<+M = k.! = y ]+/ f f ~ - ! ! f { ",
") l.~ ~ :+2+y V.+.r 2 3+< Y A f._+_+}+_+|+%+4+- ) - u 5+^ - > - ! / ! f ! / ! f ",
"f l.C.6+u u ^ ^ ^ 7+T 3+_ ).`.>+_+_+8+9+%+1+4+) l.! y u u ^ f ! ! / ^ / f f - f ",
"~ ) ~ n.5+) K l.3.+.$._ b.-.D *._+++_+%+0+4+a+y t b+~ ~ ~ ! = c+l.~ ~ G - - ! > ",
"y y F t q k.^ d+y +.$.e+V #.0.A *.f+g+4+4+4+4+~.+.^ y ^ - - / ^ E.G G ~.y ! ! f ",
"- u = > ) ^ ^ '+y t h A e+0._ 0.o f+4+4+1+4+! Z.Z.) ^ ^ ~ u h+&+N.G { ' = = ~ = ",
"^ ~ W.- a ^ ~ ) ~ ^ Q ..2 < 5 4 3 i+j+1+1+4+y ^ ^ ^ = W.9 9 ^ , c+, , ~ ) ! { = ",
"~ ^ K ~ - Q V.) ~ ' ) ;.Q.$.Q.$.B k+i+1+l+1+F l.) ~ y , M ^ f u k., , ) { ! f y ",
"y - c+m+N 6+<+n+<+) y a I ].[.> m ~ o+l+l+1+c+u ^ c+] ^ / = , p+Q n+9 9 L ! - ) ",
"f 3.y m+^ q+~+n.(+^ F y x F Q l.- ~ k+i+4+y k.J c+^ ' , > ^ m g.S w.r+h q+q+Z.! ",
"^ y s+l.t+m+n.'+t f f f f = ) f f ~ @+i+4+! y > [+e.e.[+) L w.w.} 6+0.D u+v+, ^ ",
"^ ' ) ' f ) ) 6+C.*+f ! - - l.- f = ^ o+o+f y = = ) ! K V.=+*.6+m.6+_ Y 4 =.w+~.",
"~ ) l.f f l.l.y ^ t+) M f , f M , y t+, y ) = ' ' ] ' x+i `.y+G ' G.`./  +A z+M ",
"' f f - f f l.~ y ^ y y ~ F d.F - = y y , 7+~.] ~ ^ ) *+4.A+Y _.~.{.g.e. +e+_ z+",
") f f f f f ! - - 3.~ s+F F f ^ ! f ^ k.q 5+q y = ) y d.B+5.{.].$.0.o.Q.#+8.C+6.",
"^ ' y f l.~ = , ) = ! ) ) - f f ^ k.y ^ a {+) y > = u.D+#.$ ).5 d < /.A '.5 &.L ",
"t.M 9 = f l.f f ) ! ) ) ! f f f = 5+) y U.^ ^ ] ' K ~.F.r+o 3 2 ].< `.z.)+4 =.E+",
"[ i | 9 ^ f ! ! ! ! ! f ! ) f = u f ' ~.F+, ' y ~ { a q+G+n w.w.w.N B+V B+)+z.4 ",
"A 7 H+y.! ! ! f ! ) f ! l.^ ~ u ' { ^ u ~ u ^ ' y u 0 '.J q+x+s+/+e.6.x.I+B+S 3+"};
