/* XPM */
static char * floor (3rd copy)_xpm[] = {
"40 40 260 2",
"  	c #DDB23B",
". 	c #FFBD43",
"+ 	c #E7A93C",
"@ 	c #694717",
"# 	c #A42D17",
"$ 	c #994825",
"% 	c #CD4E1C",
"& 	c #985728",
"* 	c #45452E",
"= 	c #5B4326",
"- 	c #4C3C24",
"; 	c #3B2D1E",
"> 	c #5C3E24",
", 	c #6A4C2C",
"' 	c #634B30",
") 	c #54422A",
"! 	c #523D25",
"~ 	c #5B452A",
"{ 	c #533F2A",
"] 	c #5D4931",
"^ 	c #5D492C",
"/ 	c #4B3623",
"( 	c #862818",
"_ 	c #FEEC53",
": 	c #FEF356",
"< 	c #FFF559",
"[ 	c #7B4D25",
"} 	c #E9AE32",
"| 	c #8D4B1B",
"1 	c #B6762C",
"2 	c #FDD44A",
"3 	c #FFDC43",
"4 	c #FFFE55",
"5 	c #FDCD43",
"6 	c #FFC52C",
"7 	c #FBFA4B",
"8 	c #FFB829",
"9 	c #443421",
"0 	c #554432",
"a 	c #4D3E2A",
"b 	c #8C3F21",
"c 	c #FEE446",
"d 	c #FCB33D",
"e 	c #5D4018",
"f 	c #534126",
"g 	c #E3892B",
"h 	c #FEAA32",
"i 	c #D97929",
"j 	c #FC8123",
"k 	c #F67927",
"l 	c #EE8822",
"m 	c #383525",
"n 	c #C95819",
"o 	c #FEC43B",
"p 	c #262A24",
"q 	c #694C25",
"r 	c #CD6826",
"s 	c #2A211A",
"t 	c #7C532C",
"u 	c #62462B",
"v 	c #F46E21",
"w 	c #FEC241",
"x 	c #2D2B2B",
"y 	c #634A2D",
"z 	c #C2652C",
"A 	c #FFFE5B",
"B 	c #FF9B35",
"C 	c #313129",
"D 	c #EA8D2C",
"E 	c #B8551C",
"F 	c #74522C",
"G 	c #8D532B",
"H 	c #F5842C",
"I 	c #FFCC33",
"J 	c #754828",
"K 	c #594531",
"L 	c #523621",
"M 	c #453A24",
"N 	c #D2752C",
"O 	c #FE832C",
"P 	c #493913",
"Q 	c #423B2B",
"R 	c #FF732D",
"S 	c #FDA533",
"T 	c #FDD344",
"U 	c #844322",
"V 	c #E38B31",
"W 	c #FE7A2B",
"X 	c #F7561A",
"Y 	c #FFFF63",
"Z 	c #EB5617",
"` 	c #E8822F",
" .	c #CD9B33",
"..	c #F89729",
"+.	c #835A31",
"@.	c #FD9B2C",
"#.	c #FC8B30",
"$.	c #FF7523",
"%.	c #FC671A",
"&.	c #FFCB3E",
"*.	c #FE9333",
"=.	c #EE5423",
"-.	c #6D5126",
";.	c #8C622C",
">.	c #322722",
",.	c #F4C739",
"'.	c #EC772A",
").	c #B54A22",
"!.	c #693B1A",
"~.	c #7A4C2B",
"{.	c #ED7623",
"].	c #FE942D",
"^.	c #FEA238",
"/.	c #FFDC50",
"(.	c #CD3615",
"_.	c #C95624",
":.	c #552623",
"<.	c #833118",
"[.	c #CE7A29",
"}.	c #A475D5",
"|.	c #8B71D5",
"1.	c #8348AC",
"2.	c #6E5032",
"3.	c #FE6422",
"4.	c #FEEB4E",
"5.	c #FFEB43",
"6.	c #D95521",
"7.	c #F5A637",
"8.	c #DE4216",
"9.	c #FEDA4C",
"0.	c #FC7919",
"a.	c #7E281C",
"b.	c #AC79BD",
"c.	c #B489D5",
"d.	c #41187B",
"e.	c #965B2C",
"f.	c #6A4524",
"g.	c #FF9225",
"h.	c #E76726",
"i.	c #B475C5",
"j.	c #4A048B",
"k.	c #310094",
"l.	c #624426",
"m.	c #4D4026",
"n.	c #6D3D24",
"o.	c #A46630",
"p.	c #FEE24D",
"q.	c #F79135",
"r.	c #BD79D5",
"s.	c #39049C",
"t.	c #412E21",
"u.	c #423D30",
"v.	c #FF7733",
"w.	c #FD8B2D",
"x.	c #AD551F",
"y.	c #2C3725",
"z.	c #F2B142",
"A.	c #5A048B",
"B.	c #9B632D",
"C.	c #FEB735",
"D.	c #795125",
"E.	c #E4832B",
"F.	c #DD5A21",
"G.	c #7314AC",
"H.	c #52006A",
"I.	c #FF8630",
"J.	c #E6C6E6",
"K.	c #94189C",
"L.	c #5A006A",
"M.	c #665328",
"N.	c #6B3723",
"O.	c #73047B",
"P.	c #62046A",
"Q.	c #FE8824",
"R.	c #A34625",
"S.	c #9C4B23",
"T.	c #CD91CD",
"U.	c #830494",
"V.	c #940041",
"W.	c #B96B2D",
"X.	c #4C412A",
"Y.	c #694A31",
"Z.	c #B44094",
"`.	c #AC349C",
" +	c #7B005A",
".+	c #7B107B",
"++	c #734D2B",
"@+	c #E79536",
"#+	c #733921",
"$+	c #EF6B18",
"%+	c #AC34AC",
"&+	c #F48B2B",
"*+	c #5A291C",
"=+	c #A9672A",
"-+	c #9C44AC",
";+	c #A55D2B",
">+	c #8B6130",
",+	c #B55825",
"'+	c #FFAB2E",
")+	c #FE6E23",
"!+	c #FF831F",
"~+	c #B4388B",
"{+	c #940C62",
"]+	c #7F5A30",
"^+	c #F29B36",
"/+	c #635031",
"(+	c #C53073",
"_+	c #A4248B",
":+	c #8B5C2C",
"<+	c #5E4B25",
"[+	c #EC8531",
"}+	c #D79435",
"|+	c #BA8023",
"1+	c #AC2073",
"2+	c #C6752C",
"3+	c #9F6430",
"4+	c #7E4621",
"5+	c #94206A",
"6+	c #9C1C4A",
"7+	c #8F5D30",
"8+	c #FFE453",
"9+	c #83542B",
"0+	c #D97931",
"a+	c #C76D30",
"b+	c #C548A4",
"c+	c #831441",
"d+	c #730C41",
"e+	c #704D30",
"f+	c #6E4729",
"g+	c #735130",
"h+	c #F5D64D",
"i+	c #AC205A",
"j+	c #730041",
"k+	c #5A0031",
"l+	c #835127",
"m+	c #AC044A",
"n+	c #AC2C6A",
"o+	c #84592E",
"p+	c #92652D",
"q+	c #AC1862",
"r+	c #42372C",
"s+	c #AD6E30",
"t+	c #AC184A",
"u+	c #AA5723",
"v+	c #6E512E",
"w+	c #AD3F22",
"x+	c #712A22",
"y+	c #5C3620",
"z+	c #474633",
"A+	c #ECB845",
"B+	c #BB4422",
"C+	c #DC8C37",
"D+	c #FAAD3C",
"E+	c #DF3322",
"F+	c #D86B27",
"G+	c #221122",
"H+	c #874B28",
"I+	c #E59E2C",
"J+	c #FFA62A",
"K+	c #A92C16",
"  . + @ @ # # $ % & * = - ; > , ' ) ! ~ ) { ! = ) ) ~ ] ) ^ / ! / ) ( _ : < [ = ",
"} | 1 2 3 4 5 6 7 8 9 ^ ) ) 9 ; ; ^ ! ! 0 ! ) a ) ! ) - ' ^ , ! / > b c d e f ! ",
"g h i j k l m n o p q , r $ @ a ) s t - ! ! ! - ! ) = = = u > - - m v w x = y ^ ",
"z < 2 A B C C D E F B G H I J K ^ ) ; L { ! ! ! { y { > ^ = M ! f N O P Q ^ ^ y ",
"R B : _ 4 S H T U V W X : Y Z t ` ~ / 9 > ! L ! ! = / = > - - >  ...A Z V y +.) ",
"@.< A #.: < _ 4 $.%.&.A A *.R =.-.;.^ M f = / { ! y y = { , m > >.,.D  .'.).!.~.",
"{.].#.^./._ Y (.4 4 _.:.<.#.A [.=.-.f }.|.1.t L ! ! ^ ^ ~ y 2.M > p u U 3.h 4.5.",
"6.7.8.(.< 9.^.0._ a.f ) f - U 0.< }.}.b.c.d.) e.u / / K y y , ! - y , - f.[ g.2 ",
") z 5 V g.w * h.4./ f F f ) 9 U i.b.b.b.c.j.k.) = { = ^ f ^ > l.- m., y = @ k 4.",
"K 3.n.o.= p.X d &.0./ f.O * q.!.i.r.r.r.c.j.s.s.> / t.9 9 9 9 L > = ~ ) u.h @.A ",
").v.n.= w.3.: '.x.5.%.- f y.6.z.i.r.r.r.c.A.s.j.9 - 9 m 9 / > = = f m B.C.%.A @.",
",./ D.E.x S < F.) F.4.U ~ X 8 i.r.r.r.r.c.G.j.j.H.9 f f = f f f ) a I.'.%.O $.#.",
">.y m ~ N *.Y C.F...T # 0...A c.r.r.r.r.J.K.G.A.L.f ) m.m.^ M.~ y f B B ^.4 w 3.",
"y ! m.M m ) b I < Y g.< 4 x.N.r.r.r.r.J.J.K.K.O.P.M F ! = ~ y ^ ^ M a ~ ^ , =.B ",
"! ) M M f y 1 r Q.d R.4.A n :.S.r.T.J.J.K.U.V.K.P.W.M > = f ~ X.) ^ = ~ ) ~ f = ",
") - M m.) y B.Y.2.h.c 4 n 0.Y 8 Z.`.J.J.K.U. + +.+++= = m.M f m.M - - > { ] ~ ~ ",
"X.m.m.M M u , y q K @+4 #+$+A 3 Z.`.%+%+K.U. +O..+= / = & = ! ) f - - ! ! f ~ ) ",
") ~ f m.~ ) = y ) & 3._ 4 &+*+=+-+`.%+%+K.V. +U. +- G ;+O l.- t y y - - ! ) f ! ",
"^ ~ F >+f = ^ ) ,+'+p.)+!+M y m.Z.~+~+%+K.{+V. +> ~ F B.f = y ^ y ) - ! ! - > > ",
") m.~ , ]+= = y $.Y p.^+M f > /+Z.~+~+(+_+{+V. +a ^ , :+=+^ y = = = <+M - f f f ",
"f ) m.~ ^ +.a - M [+'.}+$.|+y.R.Z.~+~+~+1+V.V. +) l.++- ~ ~ f ^ ^ = ~ ! ! f f f ",
"f ^ - a 2+y ~ y 3+4+B _ j j W &.Z.~+~+~+5+V.V.6+M = l.! = y <+/ f f ~ - ! ! f { ",
") m.~ ~ 2+7+y X.+.r 2 8+< Y A g.Z.~+~+~+6+V.V.6+) - u 9+^ - > - ! / ! f ! / ! f ",
"f m.B.0+u u ^ ^ ^ a+T 8+_ ).@+!+~+b+~+(+6+ + +c+m.! y u u ^ f ! ! / ^ / f f - f ",
"~ ) ~ o.9+) K m.2.+.$._ a.-.D *.W Z.(+(+6+ +d+y t e+~ ~ ~ ! = f+m.~ ~ G - - ! > ",
"y y F t q l.^ g+y +.$.h+V #.9.A *.`.(+i+i+j+d+~.+.^ y ^ - - / ^ D.G G ~.y ! ! f ",
"- u = > ) ^ ^ ]+y t h A h+9._ 9.o `.1+V.i+c+k+++++) ^ ^ ~ u l+;+N.G { ' = = ~ = ",
"^ ~ Y.- a ^ ~ ) ~ ^ Q ..2 < 5 4 3 `.1+m+i+j+j+^ ^ ^ = Y.9 9 ^ , f+, , ~ ) ! { = ",
"~ ^ K ~ - Q X.) ~ ' ) ;.Q.$.Q.$.B n+1+m+i+j+j+m.) ~ y , M ^ f u l., , ) { ! f y ",
"y - f+o+N 0+3+p+3+) y a I ].[.> m ~ q+m+q+j+f+u ^ f+] ^ / = , r+Q p+9 9 L ! - ) ",
"f 2.y o+^ s+:+o.|+^ F y x F Q m.- ~ n+t+t+j+l.J f+^ ' , > ^ m h.S w.u+h s+s+++! ",
"^ y /+m.v+o+o.]+t f f f f = ) f f ~ n+t+t+d+y > 4+f.f.4+) L w.w.} 0+9.D w+x+, ^ ",
"^ ' ) ' f ) ) 0+B.>+f ! - - m.- f = Z.6+6+f y = = ) ! K X.,+*.0+n.0+_ Y 4 =.y+~.",
"~ ) m.f f m.m.y ^ v+) M f , f M , y v+, k+) = ' ' ] ' z+i @+A+G ' F.@+/ #+A B+M ",
"' f f - f f m.~ y ^ y y ~ F e.F - = y y , a+~.] ~ ^ ) >+3.C+Y _.~.{.h.f.#+h+_ B+",
") f f f f f ! - - 2.~ /+F F f ^ ! f ^ l.q 9+q y = ) y e.D+4.{.].$.9.p.Q.&+7.E+5.",
"^ ' y f m.~ = , ) = ! ) ) - f f ^ l.y ^ a =+) y > = u.F+#.$ ).5 d < /.A '.5 &.L ",
"t.M 9 = f m.f f ) ! ) ) ! f f f = 9+) y W.^ ^ ] ' K ~.E.u+o 3 2 ].< @+z.^+4 =.G+",
"[ i | 9 ^ f ! ! ! ! ! f ! ) f = u f ' ~.H+, ' y ~ { a s+I+n w.w.w.N D+V D+^+z.4 ",
"A 7 J+y.! ! ! f ! ) f ! m.^ ~ u ' { ^ u ~ u ^ ' y u 0 '.J s+z+/+}+f.5.x.K+D+S 8+"};
