/* XPM */
static char * floor (6th copy)_xpm[] = {
"40 40 263 2",
"  	c #DDB23B",
". 	c #FFBD43",
"+ 	c #E7A93C",
"@ 	c #694717",
"# 	c #A42D17",
"$ 	c #994825",
"% 	c #CD4E1C",
"& 	c #985728",
"* 	c #45452E",
"= 	c #5B4326",
"- 	c #4C3C24",
"; 	c #3B2D1E",
"> 	c #5C3E24",
", 	c #6A4C2C",
"' 	c #634B30",
") 	c #54422A",
"! 	c #523D25",
"~ 	c #5B452A",
"{ 	c #533F2A",
"] 	c #5D4931",
"^ 	c #5D492C",
"/ 	c #4B3623",
"( 	c #862818",
"_ 	c #FEEC53",
": 	c #FEF356",
"< 	c #FFF559",
"[ 	c #7B4D25",
"} 	c #E9AE32",
"| 	c #8D4B1B",
"1 	c #B6762C",
"2 	c #FDD44A",
"3 	c #FFDC43",
"4 	c #FFFE55",
"5 	c #FDCD43",
"6 	c #FFC52C",
"7 	c #FBFA4B",
"8 	c #FFB829",
"9 	c #443421",
"0 	c #554432",
"a 	c #4D3E2A",
"b 	c #8C3F21",
"c 	c #FEE446",
"d 	c #FCB33D",
"e 	c #5D4018",
"f 	c #534126",
"g 	c #E3892B",
"h 	c #FEAA32",
"i 	c #D97929",
"j 	c #FC8123",
"k 	c #F67927",
"l 	c #EE8822",
"m 	c #383525",
"n 	c #C95819",
"o 	c #FEC43B",
"p 	c #262A24",
"q 	c #694C25",
"r 	c #CD6826",
"s 	c #2A211A",
"t 	c #7C532C",
"u 	c #62462B",
"v 	c #F46E21",
"w 	c #FEC241",
"x 	c #2D2B2B",
"y 	c #634A2D",
"z 	c #C2652C",
"A 	c #FFFE5B",
"B 	c #FF9B35",
"C 	c #313129",
"D 	c #EA8D2C",
"E 	c #B8551C",
"F 	c #74522C",
"G 	c #8D532B",
"H 	c #F5842C",
"I 	c #FFCC33",
"J 	c #754828",
"K 	c #594531",
"L 	c #523621",
"M 	c #453A24",
"N 	c #D2752C",
"O 	c #FE832C",
"P 	c #493913",
"Q 	c #423B2B",
"R 	c #FF732D",
"S 	c #FDA533",
"T 	c #FDD344",
"U 	c #844322",
"V 	c #E38B31",
"W 	c #FE7A2B",
"X 	c #F7561A",
"Y 	c #FFFF63",
"Z 	c #EB5617",
"` 	c #E8822F",
" .	c #CD9B33",
"..	c #F89729",
"+.	c #835A31",
"@.	c #FD9B2C",
"#.	c #FC8B30",
"$.	c #FF7523",
"%.	c #FC671A",
"&.	c #FFCB3E",
"*.	c #FE9333",
"=.	c #EE5423",
"-.	c #6D5126",
";.	c #8C622C",
">.	c #322722",
",.	c #F4C739",
"'.	c #EC772A",
").	c #B54A22",
"!.	c #693B1A",
"~.	c #7A4C2B",
"{.	c #ED7623",
"].	c #FE942D",
"^.	c #FEA238",
"/.	c #FFDC50",
"(.	c #CD3615",
"_.	c #C95624",
":.	c #552623",
"<.	c #833118",
"[.	c #CE7A29",
"}.	c #8B71D5",
"|.	c #A475D5",
"1.	c #AC79BD",
"2.	c #6E5032",
"3.	c #FE6422",
"4.	c #FEEB4E",
"5.	c #FFEB43",
"6.	c #D95521",
"7.	c #F5A637",
"8.	c #DE4216",
"9.	c #FEDA4C",
"0.	c #FC7919",
"a.	c #7E281C",
"b.	c #B475C5",
"c.	c #965B2C",
"d.	c #6A4524",
"e.	c #FF9225",
"f.	c #E76726",
"g.	c #9461B4",
"h.	c #9479BD",
"i.	c #BD79D5",
"j.	c #7B107B",
"k.	c #6224AC",
"l.	c #624426",
"m.	c #4D4026",
"n.	c #6D3D24",
"o.	c #A46630",
"p.	c #FEE24D",
"q.	c #F79135",
"r.	c #835DCD",
"s.	c #94189C",
"t.	c #62046A",
"u.	c #5A048B",
"v.	c #52006A",
"w.	c #412E21",
"x.	c #423D30",
"y.	c #FF7733",
"z.	c #FD8B2D",
"A.	c #AD551F",
"B.	c #2C3725",
"C.	c #F2B142",
"D.	c #9C6DBD",
"E.	c #D5C2EE",
"F.	c #4A048B",
"G.	c #9B632D",
"H.	c #FEB735",
"I.	c #795125",
"J.	c #E4832B",
"K.	c #DD5A21",
"L.	c #73047B",
"M.	c #73009C",
"N.	c #FF8630",
"O.	c #8324A4",
"P.	c #7314AC",
"Q.	c #665328",
"R.	c #6B3723",
"S.	c #C5B6DE",
"T.	c #8B24A4",
"U.	c #7B1494",
"V.	c #FE8824",
"W.	c #A34625",
"X.	c #E6C6E6",
"Y.	c #B461C5",
"Z.	c #C56DC5",
"`.	c #7B207B",
" +	c #B96B2D",
".+	c #4C412A",
"++	c #694A31",
"@+	c #7B0C62",
"#+	c #734D2B",
"$+	c #E79536",
"%+	c #733921",
"&+	c #EF6B18",
"*+	c #CD9DC5",
"=+	c #CD7DC5",
"-+	c #F48B2B",
";+	c #5A291C",
">+	c #A9672A",
",+	c #B4388B",
"'+	c #B428A4",
")+	c #A55D2B",
"!+	c #8B6130",
"~+	c #B55825",
"{+	c #FFAB2E",
"]+	c #FE6E23",
"^+	c #FF831F",
"/+	c #A4248B",
"(+	c #7F5A30",
"_+	c #F29B36",
":+	c #635031",
"<+	c #8B5C2C",
"[+	c #5E4B25",
"}+	c #EC8531",
"|+	c #D79435",
"1+	c #BA8023",
"2+	c #830494",
"3+	c #C6752C",
"4+	c #9F6430",
"5+	c #7E4621",
"6+	c #AC2073",
"7+	c #7B005A",
"8+	c #8F5D30",
"9+	c #FFE453",
"0+	c #9C1C4A",
"a+	c #83542B",
"b+	c #D97931",
"c+	c #C76D30",
"d+	c #BD7732",
"e+	c #94206A",
"f+	c #7B206A",
"g+	c #730041",
"h+	c #704D30",
"i+	c #6E4729",
"j+	c #735130",
"k+	c #F5D64D",
"l+	c #835127",
"m+	c #940041",
"n+	c #AC1862",
"o+	c #84592E",
"p+	c #92652D",
"q+	c #AC184A",
"r+	c #C52C6A",
"s+	c #42372C",
"t+	c #AD6E30",
"u+	c #AC205A",
"v+	c #AA5723",
"w+	c #6E512E",
"x+	c #AD3F22",
"y+	c #712A22",
"z+	c #AC2C6A",
"A+	c #941441",
"B+	c #5C3620",
"C+	c #474633",
"D+	c #ECB845",
"E+	c #BB4422",
"F+	c #DC8C37",
"G+	c #FAAD3C",
"H+	c #DF3322",
"I+	c #D86B27",
"J+	c #221122",
"K+	c #874B28",
"L+	c #E59E2C",
"M+	c #FFA62A",
"N+	c #A92C16",
"  . + @ @ # # $ % & * = - ; > , ' ) ! ~ ) { ! = ) ) ~ ] ) ^ / ! / ) ( _ : < [ = ",
"} | 1 2 3 4 5 6 7 8 9 ^ ) ) 9 ; ; ^ ! ! 0 ! ) a ) ! ) - ' ^ , ! / > b c d e f ! ",
"g h i j k l m n o p q , r $ @ a ) s t - ! ! ! - ! ) = = = u > - - m v w x = y ^ ",
"z < 2 A B C C D E F B G H I J K ^ ) ; L { ! ! ! { y { > ^ = M ! f N O P Q ^ ^ y ",
"R B : _ 4 S H T U V W X : Y Z t ` ~ / 9 > ! L ! ! = / = > - - >  ...A Z V y +.) ",
"@.< A #.: < _ 4 $.%.&.A A *.R =.-.;.^ M f = / { ! y y = { , m > >.,.D  .'.).!.~.",
"{.].#.^./._ Y (.4 4 _.:.<.#.A [.=.-.f }.|.1.t L ! ! ^ ^ ~ y 2.M > p u U 3.h 4.5.",
"6.7.8.(.< 9.^.0._ a.f ) f - U 0.< F }.1.1.b.) c.u / / K y y , ! - y , - d.[ e.2 ",
") z 5 V e.w * f.4./ f F f ) 9 U 9.g.h.i.j.j.k.) = { = ^ f ^ > l.- m., y = @ k 4.",
"K 3.n.o.= p.X d &.0./ d.O * q.!._ r.}.s.t.u.v.= > / w.9 9 9 9 L > = ~ ) x.h @.A ",
").y.n.= z.3.: '.A.5.%.- f B.6.C.r.D.E.s.u.u.u.F.9 - 9 m 9 / > = = f m G.H.%.A @.",
",./ I.J.x S < K.) K.4.U ~ X 8 g.D.E.E.s.L.M.M.F./ 9 f f = f f f ) a N.'.%.O $.#.",
">.y m ~ N *.Y H.K...T # 0...A g.E.E.E.O.M.M.M.u.P.f ) m.m.^ Q.~ y f B B ^.4 w 3.",
"y ! m.M m ) b I < Y e.< 4 A.R.S.E.E.|.T.M.U.U.P.k.M F ! = ~ y ^ ^ M a ~ ^ , =.B ",
"! ) M M f y 1 r V.d W.4.A n :.E.X.Y.Z.T.U.U.U.M.`. +M > = f ~ .+) ^ = ~ ) ~ f = ",
") - M m.) y G.++2.f.c 4 n 0.Y E.Z.Z.Z.T.U.U.U.@+`.#+= = m.M f m.M - - > { ] ~ ~ ",
".+m.m.M M u , y q K $+4 %+&+A *+=+=+=+T.U.U.@+@+`.= / = & = ! ) f - - ! ! f ~ ) ",
") ~ f m.~ ) = y ) & 3._ 4 -+;+>+,+'+'+T.j.j.@+@+! - G )+O l.- t y y - - ! ) f ! ",
"^ ~ F !+f = ^ ) ~+{+p.]+^+M y m.,+'+'+/+j.@+@+t.> ~ F G.f = y ^ y ) - ! ! - > > ",
") m.~ , (+= = y $.Y p._+M f > :+,+'+'+/+@+@+@+j.a ^ , <+>+^ y = = = [+M - f f f ",
"f ) m.~ ^ +.a - M }+'.|+$.1+B.W.,+'+'+/+2+2+L.j.) l.#+- ~ ~ f ^ ^ = ~ ! ! f f f ",
"f ^ - a 3+y ~ y 4+5+B _ j j W &.,+6+'+'+s.7+2+j.M = l.! = y [+/ f f ~ - ! ! f { ",
") m.~ ~ 3+8+y .++.r 2 9+< Y A e.,+/+/+6+0+7+2+j.) - u a+^ - > - ! / ! f ! / ! f ",
"f m.G.b+u u ^ ^ ^ c+T 9+_ ).$+^+d+e+/+/+e+7+@+j.m.! y u u ^ f ! ! / ^ / f f - f ",
"~ ) ~ o.a+) K m.2.+.$._ a.-.D *.W e+/+e+f+g+g+y t h+~ ~ ~ ! = i+m.~ ~ G - - ! > ",
"y y F t q l.^ j+y +.$.k+V #.9.A *.e+6+e+f+7+@+~.+.^ y ^ - - / ^ I.G G ~.y ! ! f ",
"- u = > ) ^ ^ (+y t h A k+9._ 9.o e+6+/+e+@+@+#+#+) ^ ^ ~ u l+)+R.G { ' = = ~ = ",
"^ ~ ++- a ^ ~ ) ~ ^ Q ..2 < 5 4 3 0+6+6+0+m+7+^ ^ ^ = ++9 9 ^ , i+, , ~ ) ! { = ",
"~ ^ K ~ - Q .+) ~ ' ) ;.V.$.V.$.B >.n+6+0+m+7+m.) ~ y , M ^ f u l., , ) { ! f y ",
"y - i+o+N b+4+p+4+) y a I ].[.> m ~ q+r+0+7+i+u ^ i+] ^ / = , s+Q p+9 9 L ! - ) ",
"f 2.y o+^ t+<+o.1+^ F y x F Q m.- ~ q+u+0+7+l.J i+^ ' , > ^ m f.S z.v+h t+t+#+! ",
"^ y :+m.w+o+o.(+t f f f f = ) f f ~ m.q+0+g+y > 5+d.d.5+) L z.z.} b+9.D x+y+, ^ ",
"^ ' ) ' f ) ) b+G.!+f ! - - m.- f = ^ z+A+m+y = = ) ! K .+~+*.b+n.b+_ Y 4 =.B+~.",
"~ ) m.f f m.m.y ^ w+) M f , f M , y w+, y ) = ' ' ] ' C+i $+D+G ' K.$+/ %+A E+M ",
"' f f - f f m.~ y ^ y y ~ F c.F - = y y , c+~.] ~ ^ ) !+3.F+Y _.~.{.f.d.%+k+_ E+",
") f f f f f ! - - 2.~ :+F F f ^ ! f ^ l.q a+q y = ) y c.G+4.{.].$.9.p.V.-+7.H+5.",
"^ ' y f m.~ = , ) = ! ) ) - f f ^ l.y ^ a >+) y > = x.I+#.$ ).5 d < /.A '.5 &.L ",
"w.M 9 = f m.f f ) ! ) ) ! f f f = a+) y  +^ ^ ] ' K ~.J.v+o 3 2 ].< $+C._+4 =.J+",
"[ i | 9 ^ f ! ! ! ! ! f ! ) f = u f ' ~.K+, ' y ~ { a t+L+n z.z.z.N G+V G+_+C.4 ",
"A 7 M+B.! ! ! f ! ) f ! m.^ ~ u ' { ^ u ~ u ^ ' y u 0 '.J t+C+:+|+d.5.A.N+G+S 9+"};
