/* XPM */
static char * floor (another copy)_xpm[] = {
"40 40 261 2",
"  	c #DDB23B",
". 	c #FFBD43",
"+ 	c #E7A93C",
"@ 	c #694717",
"# 	c #A42D17",
"$ 	c #994825",
"% 	c #CD4E1C",
"& 	c #985728",
"* 	c #45452E",
"= 	c #5B4326",
"- 	c #4C3C24",
"; 	c #3B2D1E",
"> 	c #5C3E24",
", 	c #6A4C2C",
"' 	c #634B30",
") 	c #54422A",
"! 	c #523D25",
"~ 	c #5B452A",
"{ 	c #533F2A",
"] 	c #5D4931",
"^ 	c #5D492C",
"/ 	c #4B3623",
"( 	c #862818",
"_ 	c #FEEC53",
": 	c #FEF356",
"< 	c #FFF559",
"[ 	c #7B4D25",
"} 	c #E9AE32",
"| 	c #8D4B1B",
"1 	c #B6762C",
"2 	c #FDD44A",
"3 	c #FFDC43",
"4 	c #FFFE55",
"5 	c #FDCD43",
"6 	c #FFC52C",
"7 	c #FBFA4B",
"8 	c #FFB829",
"9 	c #443421",
"0 	c #554432",
"a 	c #4D3E2A",
"b 	c #8C3F21",
"c 	c #FEE446",
"d 	c #FCB33D",
"e 	c #5D4018",
"f 	c #534126",
"g 	c #E3892B",
"h 	c #FEAA32",
"i 	c #D97929",
"j 	c #FC8123",
"k 	c #F67927",
"l 	c #EE8822",
"m 	c #383525",
"n 	c #C95819",
"o 	c #FEC43B",
"p 	c #262A24",
"q 	c #694C25",
"r 	c #CD6826",
"s 	c #2A211A",
"t 	c #7C532C",
"u 	c #62462B",
"v 	c #F46E21",
"w 	c #FEC241",
"x 	c #2D2B2B",
"y 	c #634A2D",
"z 	c #C2652C",
"A 	c #FFFE5B",
"B 	c #FF9B35",
"C 	c #313129",
"D 	c #EA8D2C",
"E 	c #B8551C",
"F 	c #74522C",
"G 	c #8D532B",
"H 	c #F5842C",
"I 	c #FFCC33",
"J 	c #754828",
"K 	c #594531",
"L 	c #523621",
"M 	c #453A24",
"N 	c #D2752C",
"O 	c #FE832C",
"P 	c #493913",
"Q 	c #423B2B",
"R 	c #FF732D",
"S 	c #FDA533",
"T 	c #FDD344",
"U 	c #844322",
"V 	c #E38B31",
"W 	c #FE7A2B",
"X 	c #F7561A",
"Y 	c #FFFF63",
"Z 	c #EB5617",
"` 	c #E8822F",
" .	c #CD9B33",
"..	c #F89729",
"+.	c #835A31",
"@.	c #FD9B2C",
"#.	c #FC8B30",
"$.	c #FF7523",
"%.	c #FC671A",
"&.	c #FFCB3E",
"*.	c #FE9333",
"=.	c #EE5423",
"-.	c #6D5126",
";.	c #8C622C",
">.	c #322722",
",.	c #F4C739",
"'.	c #EC772A",
").	c #B54A22",
"!.	c #693B1A",
"~.	c #7A4C2B",
"{.	c #ED7623",
"].	c #FE942D",
"^.	c #FEA238",
"/.	c #FFDC50",
"(.	c #CD3615",
"_.	c #C95624",
":.	c #552623",
"<.	c #833118",
"[.	c #CE7A29",
"}.	c #9479BD",
"|.	c #8B71D5",
"1.	c #310094",
"2.	c #6E5032",
"3.	c #FE6422",
"4.	c #FEEB4E",
"5.	c #FFEB43",
"6.	c #D95521",
"7.	c #F5A637",
"8.	c #DE4216",
"9.	c #FEDA4C",
"0.	c #FC7919",
"a.	c #7E281C",
"b.	c #8359AC",
"c.	c #9461B4",
"d.	c #835DCD",
"e.	c #3104AC",
"f.	c #965B2C",
"g.	c #6A4524",
"h.	c #FF9225",
"i.	c #E76726",
"j.	c #8348CD",
"k.	c #624426",
"l.	c #4D4026",
"m.	c #6D3D24",
"n.	c #A46630",
"o.	c #FEE24D",
"p.	c #F79135",
"q.	c #6A48CD",
"r.	c #39049C",
"s.	c #412E21",
"t.	c #423D30",
"u.	c #FF7733",
"v.	c #FD8B2D",
"w.	c #AD551F",
"x.	c #2C3725",
"y.	c #F2B142",
"z.	c #4A048B",
"A.	c #9B632D",
"B.	c #FEB735",
"C.	c #795125",
"D.	c #E4832B",
"E.	c #DD5A21",
"F.	c #945DCD",
"G.	c #5204B4",
"H.	c #FF8630",
"I.	c #9C59C5",
"J.	c #9C48C5",
"K.	c #B461C5",
"L.	c #7B1494",
"M.	c #7314AC",
"N.	c #5A048B",
"O.	c #665328",
"P.	c #6B3723",
"Q.	c #AC349C",
"R.	c #C53073",
"S.	c #9C5DAC",
"T.	c #A44CA4",
"U.	c #DEB6DE",
"V.	c #73047B",
"W.	c #62046A",
"X.	c #7B107B",
"Y.	c #FE8824",
"Z.	c #A34625",
"`.	c #AC34AC",
" +	c #AC48BD",
".+	c #E6C6E6",
"++	c #5A006A",
"@+	c #B96B2D",
"#+	c #4C412A",
"$+	c #694A31",
"%+	c #52045A",
"&+	c #734D2B",
"*+	c #E79536",
"=+	c #733921",
"-+	c #EF6B18",
";+	c #F48B2B",
">+	c #5A291C",
",+	c #A9672A",
"'+	c #A55D2B",
")+	c #8B6130",
"!+	c #B55825",
"~+	c #FFAB2E",
"{+	c #FE6E23",
"]+	c #FF831F",
"^+	c #C56DC5",
"/+	c #7F5A30",
"(+	c #F29B36",
"_+	c #635031",
":+	c #C548A4",
"<+	c #7B0C62",
"[+	c #8B5C2C",
"}+	c #5E4B25",
"|+	c #EC8531",
"1+	c #D79435",
"2+	c #BA8023",
"3+	c #C6752C",
"4+	c #9F6430",
"5+	c #7E4621",
"6+	c #8F5D30",
"7+	c #FFE453",
"8+	c #AC2C6A",
"9+	c #940041",
"0+	c #7B005A",
"a+	c #83542B",
"b+	c #D97931",
"c+	c #C76D30",
"d+	c #BD7732",
"e+	c #730041",
"f+	c #942873",
"g+	c #C52C6A",
"h+	c #5A0031",
"i+	c #704D30",
"j+	c #6E4729",
"k+	c #735130",
"l+	c #F5D64D",
"m+	c #B44094",
"n+	c #AC1083",
"o+	c #835127",
"p+	c #B4187B",
"q+	c #84592E",
"r+	c #92652D",
"s+	c #42372C",
"t+	c #AD6E30",
"u+	c #AA5723",
"v+	c #6E512E",
"w+	c #AD3F22",
"x+	c #712A22",
"y+	c #9C1C4A",
"z+	c #5C3620",
"A+	c #474633",
"B+	c #ECB845",
"C+	c #BB4422",
"D+	c #DC8C37",
"E+	c #FAAD3C",
"F+	c #DF3322",
"G+	c #D86B27",
"H+	c #221122",
"I+	c #874B28",
"J+	c #E59E2C",
"K+	c #FFA62A",
"L+	c #A92C16",
"  . + @ @ # # $ % & * = - ; > , ' ) ! ~ ) { ! = ) ) ~ ] ) ^ / ! / ) ( _ : < [ = ",
"} | 1 2 3 4 5 6 7 8 9 ^ ) ) 9 ; ; ^ ! ! 0 ! ) a ) ! ) - ' ^ , ! / > b c d e f ! ",
"g h i j k l m n o p q , r $ @ a ) s t - ! ! ! - ! ) = = = u > - - m v w x = y ^ ",
"z < 2 A B C C D E F B G H I J K ^ ) ; L { ! ! ! { y { > ^ = M ! f N O P Q ^ ^ y ",
"R B : _ 4 S H T U V W X : Y Z t ` ~ / 9 > ! L ! ! = / = > - - >  ...A Z V y +.) ",
"@.< A #.: < _ 4 $.%.&.A A *.R =.-.;.^ M f = / { ! y y = { , m > >.,.D  .'.).!.~.",
"{.].#.^./._ Y (.4 4 _.:.<.#.A [.=.-.}.|.}.1.t L ! ! ^ ^ ~ y 2.M > p u U 3.h 4.5.",
"6.7.8.(.< 9.^.0._ a.f ) f - U 0.< F b.c.d.e.1.f.u / / K y y , ! - y , - g.[ h.2 ",
") z 5 V h.w * i.4./ f F f ) 9 U 9.d.j.j.c.e.e.1.= { = ^ f ^ > k.- l., y = @ k 4.",
"K 3.m.n.= o.X d &.0./ g.O * p.!._ q.j.d.c.e.e.e.r./ s.9 9 9 9 L > = ~ ) t.h @.A ",
").u.m.= v.3.: '.w.5.%.- f x.6.y.j.j.j.d.d.c.r.r.z.- 9 m 9 / > = = f m A.B.%.A @.",
",./ C.D.x S < E.) E.4.U ~ X 8 v.j.d.d.d.F.c.z.G.z.9 f f = f f f ) a H.'.%.O $.#.",
">.y m ~ N *.Y B.E...T # 0...A < I.F.F.F.J.K.L.M.N.f ) l.l.^ O.~ y f B B ^.4 w 3.",
"y ! l.M m ) b I < Y h.< 4 w.P.Q.R.K.J.S.T.U.V.W.X.M F ! = ~ y ^ ^ M a ~ ^ , =.B ",
"! ) M M f y 1 r Y.d Z.4.A n :.`.Q.K. +T.U..+W.W.++@+M > = f ~ #+) ^ = ~ ) ~ f = ",
") - M l.) y A.$+2.i.c 4 n 0.Y Q.Q.R.K.U.U.V.W.%+= &+= = l.M f l.M - - > { ] ~ ~ ",
"#+l.l.M M u , y q K *+4 =+-+A 3 Q.Q..+U..+V.W.%+= = / = & = ! ) f - - ! ! f ~ ) ",
") ~ f l.~ ) = y ) & 3._ 4 ;+>+,+Q.Q.`..+V.V.V.++! - G '+O k.- t y y - - ! ) f ! ",
"^ ~ F )+f = ^ ) !+~+o.{+]+M y l.Q.R.`.^+V.V.V.++> ~ F A.f = y ^ y ) - ! ! - > > ",
") l.~ , /+= = y $.Y o.(+M f > _+R.R.Q.:+V.<+<+W.a ^ , [+,+^ y = = = }+M - f f f ",
"f ) l.~ ^ +.a - M |+'.1+$.2+x.Z.R.R.R.:+<+<+<+W.) k.&+- ~ ~ f ^ ^ = ~ ! ! f f f ",
"f ^ - a 3+y ~ y 4+5+B _ j j W &.R.R.R.:+<+<+<+W.M = k.! = y }+/ f f ~ - ! ! f { ",
") l.~ ~ 3+6+y #++.r 2 7+< Y A h.j 8+R.:+9+<+0+- ) - u a+^ - > - ! / ! f ! / ! f ",
"f l.A.b+u u ^ ^ ^ c+T 7+_ ).*+]+d+8+Q.:+9+0+e+) l.! y u u ^ f ! ! / ^ / f f - f ",
"~ ) ~ n.a+) K l.2.+.$._ a.-.D *.W f+R.g+9+0+h+y t i+~ ~ ~ ! = j+l.~ ~ G - - ! > ",
"y y F t q k.^ k+y +.$.l+V #.9.A *.m+8+8+9+0+h+~.+.^ y ^ - - / ^ C.G G ~.y ! ! f ",
"- u = > ) ^ ^ /+y t h A l+9._ 9.o m+8+n+g+0+h+&+&+) ^ ^ ~ u o+'+P.G { ' = = ~ = ",
"^ ~ $+- a ^ ~ ) ~ ^ Q ..2 < 5 4 3 8+n+n+g+0+h+^ ^ ^ = $+9 9 ^ , j+, , ~ ) ! { = ",
"~ ^ K ~ - Q #+) ~ ' ) ;.Y.$.Y.$.B 8+g+p+g+e+F l.) ~ y , M ^ f u k., , ) { ! f y ",
"y - j+q+N b+4+r+4+) y a I ].[.> m ~ 8+p+g+e+j+u ^ j+] ^ / = , s+Q r+9 9 L ! - ) ",
"f 2.y q+^ t+[+n.2+^ F y x F Q l.- ~ 8+p+g+e+k.J j+^ ' , > ^ m i.S v.u+h t+t+&+! ",
"^ y _+l.v+q+n./+t f f f f = ) f f ~ 8+g+e+! y > 5+g.g.5+) L v.v.} b+9.D w+x+, ^ ",
"^ ' ) ' f ) ) b+A.)+f ! - - l.- f = y+g+e+f y = = ) ! K #+!+*.b+m.b+_ Y 4 =.z+~.",
"~ ) l.f f l.l.y ^ v+) M f , f M , y v+y+y ) = ' ' ] ' A+i *+B+G ' E.*+/ =+A C+M ",
"' f f - f f l.~ y ^ y y ~ F f.F - = y y , c+~.] ~ ^ ) )+3.D+Y _.~.{.i.g.=+l+_ C+",
") f f f f f ! - - 2.~ _+F F f ^ ! f ^ k.q a+q y = ) y f.E+4.{.].$.9.o.Y.;+7.F+5.",
"^ ' y f l.~ = , ) = ! ) ) - f f ^ k.y ^ a ,+) y > = t.G+#.$ ).5 d < /.A '.5 &.L ",
"s.M 9 = f l.f f ) ! ) ) ! f f f = a+) y @+^ ^ ] ' K ~.D.u+o 3 2 ].< *+y.(+4 =.H+",
"[ i | 9 ^ f ! ! ! ! ! f ! ) f = u f ' ~.I+, ' y ~ { a t+J+n v.v.v.N E+V E+(+y.4 ",
"A 7 K+x.! ! ! f ! ) f ! l.^ ~ u ' { ^ u ~ u ^ ' y u 0 '.J t+A+_+1+g.5.w.L+E+S 7+"};
