/* XPM */
static char * floor (8th copy)_xpm[] = {
"40 40 263 2",
"  	c #DDB23B",
". 	c #FFBD43",
"+ 	c #E7A93C",
"@ 	c #694717",
"# 	c #A42D17",
"$ 	c #994825",
"% 	c #CD4E1C",
"& 	c #985728",
"* 	c #45452E",
"= 	c #5B4326",
"- 	c #4C3C24",
"; 	c #3B2D1E",
"> 	c #5C3E24",
", 	c #6A4C2C",
"' 	c #634B30",
") 	c #54422A",
"! 	c #523D25",
"~ 	c #5B452A",
"{ 	c #533F2A",
"] 	c #5D4931",
"^ 	c #5D492C",
"/ 	c #4B3623",
"( 	c #862818",
"_ 	c #FEEC53",
": 	c #FEF356",
"< 	c #FFF559",
"[ 	c #7B4D25",
"} 	c #E9AE32",
"| 	c #8D4B1B",
"1 	c #B6762C",
"2 	c #FDD44A",
"3 	c #FFDC43",
"4 	c #FFFE55",
"5 	c #FDCD43",
"6 	c #FFC52C",
"7 	c #FBFA4B",
"8 	c #FFB829",
"9 	c #443421",
"0 	c #554432",
"a 	c #4D3E2A",
"b 	c #8C3F21",
"c 	c #FEE446",
"d 	c #FCB33D",
"e 	c #5D4018",
"f 	c #534126",
"g 	c #E3892B",
"h 	c #FEAA32",
"i 	c #D97929",
"j 	c #FC8123",
"k 	c #F67927",
"l 	c #EE8822",
"m 	c #383525",
"n 	c #C95819",
"o 	c #FEC43B",
"p 	c #262A24",
"q 	c #694C25",
"r 	c #CD6826",
"s 	c #2A211A",
"t 	c #7C532C",
"u 	c #62462B",
"v 	c #F46E21",
"w 	c #FEC241",
"x 	c #2D2B2B",
"y 	c #634A2D",
"z 	c #C2652C",
"A 	c #FFFE5B",
"B 	c #FF9B35",
"C 	c #313129",
"D 	c #EA8D2C",
"E 	c #B8551C",
"F 	c #74522C",
"G 	c #8D532B",
"H 	c #F5842C",
"I 	c #FFCC33",
"J 	c #754828",
"K 	c #594531",
"L 	c #523621",
"M 	c #453A24",
"N 	c #D2752C",
"O 	c #FE832C",
"P 	c #493913",
"Q 	c #423B2B",
"R 	c #FF732D",
"S 	c #FDA533",
"T 	c #FDD344",
"U 	c #844322",
"V 	c #E38B31",
"W 	c #FE7A2B",
"X 	c #F7561A",
"Y 	c #FFFF63",
"Z 	c #EB5617",
"` 	c #E8822F",
" .	c #CD9B33",
"..	c #F89729",
"+.	c #835A31",
"@.	c #FD9B2C",
"#.	c #FC8B30",
"$.	c #FF7523",
"%.	c #FC671A",
"&.	c #FFCB3E",
"*.	c #FE9333",
"=.	c #EE5423",
"-.	c #6D5126",
";.	c #8C622C",
">.	c #322722",
",.	c #F4C739",
"'.	c #EC772A",
").	c #B54A22",
"!.	c #693B1A",
"~.	c #7A4C2B",
"{.	c #ED7623",
"].	c #FE942D",
"^.	c #FEA238",
"/.	c #FFDC50",
"(.	c #CD3615",
"_.	c #C95624",
":.	c #552623",
"<.	c #833118",
"[.	c #CE7A29",
"}.	c #AC79BD",
"|.	c #B489D5",
"1.	c #62046A",
"2.	c #52006A",
"3.	c #6E5032",
"4.	c #FE6422",
"5.	c #FEEB4E",
"6.	c #FFEB43",
"7.	c #D95521",
"8.	c #F5A637",
"9.	c #DE4216",
"0.	c #FEDA4C",
"a.	c #FC7919",
"b.	c #7E281C",
"c.	c #CD91CD",
"d.	c #CD9DC5",
"e.	c #73047B",
"f.	c #5A006A",
"g.	c #4A048B",
"h.	c #6A4524",
"i.	c #FF9225",
"j.	c #E76726",
"k.	c #A475D5",
"l.	c #A44CA4",
"m.	c #AC59A4",
"n.	c #830494",
"o.	c #5A048B",
"p.	c #624426",
"q.	c #4D4026",
"r.	c #6D3D24",
"s.	c #A46630",
"t.	c #FEE24D",
"u.	c #F79135",
"v.	c #BD50BD",
"w.	c #8B40AC",
"x.	c #AC48BD",
"y.	c #73009C",
"z.	c #412E21",
"A.	c #423D30",
"B.	c #FF7733",
"C.	c #FD8B2D",
"D.	c #AD551F",
"E.	c #2C3725",
"F.	c #9C44AC",
"G.	c #9C48C5",
"H.	c #9B632D",
"I.	c #FEB735",
"J.	c #795125",
"K.	c #E4832B",
"L.	c #DD5A21",
"M.	c #B475C5",
"N.	c #9C59C5",
"O.	c #94089C",
"P.	c #FF8630",
"Q.	c #AC59BD",
"R.	c #7B1494",
"S.	c #665328",
"T.	c #6B3723",
"U.	c #8B24A4",
"V.	c #8310AC",
"W.	c #94189C",
"X.	c #FE8824",
"Y.	c #A34625",
"Z.	c #B96B2D",
"`.	c #4C412A",
" +	c #694A31",
".+	c #7B0C62",
"++	c #5A0031",
"@+	c #734D2B",
"#+	c #E79536",
"$+	c #733921",
"%+	c #EF6B18",
"&+	c #B45DAC",
"*+	c #7B207B",
"=+	c #F48B2B",
"-+	c #5A291C",
";+	c #A9672A",
">+	c #AC4CAC",
",+	c #A55D2B",
"'+	c #8B6130",
")+	c #B55825",
"!+	c #FFAB2E",
"~+	c #FE6E23",
"{+	c #FF831F",
"]+	c #AC40AC",
"^+	c #94206A",
"/+	c #7F5A30",
"(+	c #F29B36",
"_+	c #635031",
":+	c #7B107B",
"<+	c #8B5C2C",
"[+	c #5E4B25",
"}+	c #EC8531",
"|+	c #D79435",
"1+	c #BA8023",
"2+	c #B44094",
"3+	c #C6752C",
"4+	c #9F6430",
"5+	c #7E4621",
"6+	c #B4388B",
"7+	c #8F5D30",
"8+	c #FFE453",
"9+	c #83542B",
"0+	c #D97931",
"a+	c #C76D30",
"b+	c #BD7732",
"c+	c #941441",
"d+	c #AC1862",
"e+	c #AC34AC",
"f+	c #704D30",
"g+	c #6E4729",
"h+	c #735130",
"i+	c #F5D64D",
"j+	c #B4187B",
"k+	c #7B206A",
"l+	c #730C41",
"m+	c #835127",
"n+	c #AC2C6A",
"o+	c #C53073",
"p+	c #84592E",
"q+	c #92652D",
"r+	c #AC184A",
"s+	c #42372C",
"t+	c #AD6E30",
"u+	c #730041",
"v+	c #AA5723",
"w+	c #6E512E",
"x+	c #AD3F22",
"y+	c #712A22",
"z+	c #5C3620",
"A+	c #474633",
"B+	c #ECB845",
"C+	c #BB4422",
"D+	c #965B2C",
"E+	c #DC8C37",
"F+	c #FAAD3C",
"G+	c #DF3322",
"H+	c #D86B27",
"I+	c #F2B142",
"J+	c #221122",
"K+	c #874B28",
"L+	c #E59E2C",
"M+	c #FFA62A",
"N+	c #A92C16",
"  . + @ @ # # $ % & * = - ; > , ' ) ! ~ ) { ! = ) ) ~ ] ) ^ / ! / ) ( _ : < [ = ",
"} | 1 2 3 4 5 6 7 8 9 ^ ) ) 9 ; ; ^ ! ! 0 ! ) a ) ! ) - ' ^ , ! / > b c d e f ! ",
"g h i j k l m n o p q , r $ @ a ) s t - ! ! ! - ! ) = = = u > - - m v w x = y ^ ",
"z < 2 A B C C D E F B G H I J K ^ ) ; L { ! ! ! { y { > ^ = M ! f N O P Q ^ ^ y ",
"R B : _ 4 S H T U V W X : Y Z t ` ~ / 9 > ! L ! ! = / = > - - >  ...A Z V y +.) ",
"@.< A #.: < _ 4 $.%.&.A A *.R =.-.;.^ M f = / { ! y y = { , m > >.,.D  .'.).!.~.",
"{.].#.^./._ Y (.4 4 _.:.<.#.A [.=.-.}.|.1.2.t L ! ! ^ ^ ~ y 3.M > p u U 4.h 5.6.",
"7.8.9.(.< 0.^.a._ b.f ) f - U a.< |.c.d.e.1.f.g.u / / K y y , ! - y , - h.[ i.2 ",
") z 5 V i.w * j.5./ f F f ) 9 U k.l.m.l.n.e.e.o.o.{ = ^ f ^ > p.- q., y = @ k 5.",
"K 4.r.s.= t.X d &.a./ h.O * u.k.v.w.w.w.x.e.y.y.o./ z.9 9 9 9 L > = ~ ) A.h @.A ",
").B.r.= C.4.: '.D.6.%.- f E.7.k.x.w.F.w.G.n.y.y.o.- 9 m 9 / > = = f m H.I.%.A @.",
",./ J.K.x S < L.) L.5.U ~ X 8 M.G.F.G.F.N.O.y.y.e.9 f f = f f f ) a P.'.%.O $.#.",
">.y m ~ N *.Y I.L...T # a...A M.Q.F.G.G.w.Q.n.R.y.n.) q.q.^ S.~ y f B B ^.4 w 4.",
"y ! q.M m ) b I < Y i.< 4 D.T.x.F.F.x.G.w.Q.U.V.n.W.F ! = ~ y ^ ^ M a ~ ^ , =.B ",
"! ) M M f y 1 r X.d Y.5.A n :.x.x.x.x.x.G.Q.n.U.W.Z.M > = f ~ `.) ^ = ~ ) ~ f = ",
") - M q.) y H. +3.j.c 4 n a.Y x.x.x.x.x.G.Q..+U.++@+= = q.M f q.M - - > { ] ~ ~ ",
"`.q.q.M M u , y q K #+4 $+%+A x.x.x.x.x.x.&+.+*+++= / = & = ! ) f - - ! ! f ~ ) ",
") ~ f q.~ ) = y ) & 4._ 4 =+-+;+F.x.x.>+&+.+.+W.++- G ,+O p.- t y y - - ! ) f ! ",
"^ ~ F '+f = ^ ) )+!+t.~+{+M y q.F.>+>+]+&+.+.+^+++~ F H.f = y ^ y ) - ! ! - > > ",
") q.~ , /+= = y $.Y t.(+M f > _+v.]+]+]+Q..+.+:+a ^ , <+;+^ y = = = [+M - f f f ",
"f ) q.~ ^ +.a - M }+'.|+$.1+E.Y.v.2+2+]+Q..+.+W.) p.@+- ~ ~ f ^ ^ = ~ ! ! f f f ",
"f ^ - a 3+y ~ y 4+5+B _ j j W &.A 6+2+]+&+.+.+W.M = p.! = y [+/ f f ~ - ! ! f { ",
") q.~ ~ 3+7+y `.+.r 2 8+< Y A i.j 6+2+]+Q..+U.++) - u 9+^ - > - ! / ! f ! / ! f ",
"f q.H.0+u u ^ ^ ^ a+T 8+_ ).#+{+b+l.2+2+&+.+U.++q.! y u u ^ f ! ! / ^ / f f - f ",
"~ ) ~ s.9+) K q.3.+.$._ b.-.D *.W _.c+d+e+.+*+y t f+~ ~ ~ ! = g+q.~ ~ G - - ! > ",
"y y F t q p.^ h+y +.$.i+V #.0.A *.A c+j+6+.+k+~.+.^ y ^ - - / ^ J.G G ~.y ! ! f ",
"- u = > ) ^ ^ /+y t h A i+0._ 0.o r c+j+j+6+l+@+@+) ^ ^ ~ u m+,+T.G { ' = = ~ = ",
"^ ~  +- a ^ ~ ) ~ ^ Q ..2 < 5 4 3 o n+j+j+o+++^ ^ ^ =  +9 9 ^ , g+, , ~ ) ! { = ",
"~ ^ K ~ - Q `.) ~ ' ) ;.X.$.X.$.B >.n+j+j+n+F q.) ~ y , M ^ f u p., , ) { ! f y ",
"y - g+p+N 0+4+q+4+) y a I ].[.> m ~ a r+j+n+g+u ^ g+] ^ / = , s+Q q+9 9 L ! - ) ",
"f 3.y p+^ t+<+s.1+^ F y x F Q q.- ~ ) r+o+u+p.J g+^ ' , > ^ m j.S C.v+h t+t+@+! ",
"^ y _+q.w+p+s./+t f f f f = ) f f ~ q.r+o+u+y > 5+h.h.5+) L C.C.} 0+0.D x+y+, ^ ",
"^ ' ) ' f ) ) 0+H.'+f ! - - q.- f = ^ n+n+l+y = = ) ! K `.)+*.0+r.0+_ Y 4 =.z+~.",
"~ ) q.f f q.q.y ^ w+) M f , f M , y w+, y ) = ' ' ] ' A+i #+B+G ' L.#+/ $+A C+M ",
"' f f - f f q.~ y ^ y y ~ F D+F - = y y , a+~.] ~ ^ ) '+4.E+Y _.~.{.j.h.$+i+_ C+",
") f f f f f ! - - 3.~ _+F F f ^ ! f ^ p.q 9+q y = ) y D+F+5.{.].$.0.t.X.=+8.G+6.",
"^ ' y f q.~ = , ) = ! ) ) - f f ^ p.y ^ a ;+) y > = A.H+#.$ ).5 d < /.A '.5 &.L ",
"z.M 9 = f q.f f ) ! ) ) ! f f f = 9+) y Z.^ ^ ] ' K ~.K.v+o 3 2 ].< #+I+(+4 =.J+",
"[ i | 9 ^ f ! ! ! ! ! f ! ) f = u f ' ~.K+, ' y ~ { a t+L+n C.C.C.N F+V F+(+I+4 ",
"A 7 M+E.! ! ! f ! ) f ! q.^ ~ u ' { ^ u ~ u ^ ' y u 0 '.J t+A+_+|+h.6.D.N+F+S 8+"};
