/* XPM */
static char * floor (copy)_xpm[] = {
"40 40 258 2",
"  	c #DDB23B",
". 	c #FFBD43",
"+ 	c #E7A93C",
"@ 	c #694717",
"# 	c #A42D17",
"$ 	c #994825",
"% 	c #CD4E1C",
"& 	c #985728",
"* 	c #45452E",
"= 	c #5B4326",
"- 	c #4C3C24",
"; 	c #3B2D1E",
"> 	c #5C3E24",
", 	c #6A4C2C",
"' 	c #634B30",
") 	c #54422A",
"! 	c #523D25",
"~ 	c #5B452A",
"{ 	c #533F2A",
"] 	c #5D4931",
"^ 	c #5D492C",
"/ 	c #4B3623",
"( 	c #862818",
"_ 	c #FEEC53",
": 	c #FEF356",
"< 	c #FFF559",
"[ 	c #7B4D25",
"} 	c #E9AE32",
"| 	c #8D4B1B",
"1 	c #B6762C",
"2 	c #FDD44A",
"3 	c #FFDC43",
"4 	c #FFFE55",
"5 	c #FDCD43",
"6 	c #FFC52C",
"7 	c #FBFA4B",
"8 	c #FFB829",
"9 	c #443421",
"0 	c #554432",
"a 	c #4D3E2A",
"b 	c #8C3F21",
"c 	c #FEE446",
"d 	c #FCB33D",
"e 	c #5D4018",
"f 	c #534126",
"g 	c #E3892B",
"h 	c #FEAA32",
"i 	c #D97929",
"j 	c #FC8123",
"k 	c #F67927",
"l 	c #EE8822",
"m 	c #383525",
"n 	c #C95819",
"o 	c #FEC43B",
"p 	c #262A24",
"q 	c #694C25",
"r 	c #CD6826",
"s 	c #2A211A",
"t 	c #7C532C",
"u 	c #62462B",
"v 	c #F46E21",
"w 	c #FEC241",
"x 	c #2D2B2B",
"y 	c #634A2D",
"z 	c #C2652C",
"A 	c #FFFE5B",
"B 	c #FF9B35",
"C 	c #313129",
"D 	c #EA8D2C",
"E 	c #B8551C",
"F 	c #74522C",
"G 	c #8D532B",
"H 	c #F5842C",
"I 	c #FFCC33",
"J 	c #754828",
"K 	c #594531",
"L 	c #523621",
"M 	c #453A24",
"N 	c #D2752C",
"O 	c #FE832C",
"P 	c #493913",
"Q 	c #423B2B",
"R 	c #FF732D",
"S 	c #FDA533",
"T 	c #FDD344",
"U 	c #844322",
"V 	c #E38B31",
"W 	c #FE7A2B",
"X 	c #F7561A",
"Y 	c #FFFF63",
"Z 	c #EB5617",
"` 	c #E8822F",
" .	c #CD9B33",
"..	c #F89729",
"+.	c #835A31",
"@.	c #FD9B2C",
"#.	c #FC8B30",
"$.	c #FF7523",
"%.	c #FC671A",
"&.	c #FFCB3E",
"*.	c #FE9333",
"=.	c #EE5423",
"-.	c #6D5126",
";.	c #8C622C",
">.	c #322722",
",.	c #F4C739",
"'.	c #EC772A",
").	c #B54A22",
"!.	c #693B1A",
"~.	c #7A4C2B",
"{.	c #ED7623",
"].	c #FE942D",
"^.	c #FEA238",
"/.	c #FFDC50",
"(.	c #CD3615",
"_.	c #C95624",
":.	c #552623",
"<.	c #833118",
"[.	c #CE7A29",
"}.	c #9461B4",
"|.	c #A475D5",
"1.	c #73309C",
"2.	c #6E5032",
"3.	c #FE6422",
"4.	c #FEEB4E",
"5.	c #FFEB43",
"6.	c #D95521",
"7.	c #F5A637",
"8.	c #DE4216",
"9.	c #FEDA4C",
"0.	c #FC7919",
"a.	c #7E281C",
"b.	c #9C6DBD",
"c.	c #AC79BD",
"d.	c #391494",
"e.	c #965B2C",
"f.	c #6A4524",
"g.	c #FF9225",
"h.	c #E76726",
"i.	c #390073",
"j.	c #624426",
"k.	c #4D4026",
"l.	c #6D3D24",
"m.	c #A46630",
"n.	c #FEE24D",
"o.	c #F79135",
"p.	c #BD79D5",
"q.	c #5A048B",
"r.	c #412E21",
"s.	c #423D30",
"t.	c #FF7733",
"u.	c #FD8B2D",
"v.	c #AD551F",
"w.	c #2C3725",
"x.	c #F2B142",
"y.	c #B461C5",
"z.	c #4A048B",
"A.	c #9B632D",
"B.	c #FEB735",
"C.	c #795125",
"D.	c #E4832B",
"E.	c #DD5A21",
"F.	c #52006A",
"G.	c #FF8630",
"H.	c #B475C5",
"I.	c #940041",
"J.	c #7B1494",
"K.	c #665328",
"L.	c #6B3723",
"M.	c #5A291C",
"N.	c #C56DC5",
"O.	c #CD7DC5",
"P.	c #830494",
"Q.	c #7B005A",
"R.	c #7B107B",
"S.	c #FE8824",
"T.	c #A34625",
"U.	c #9C4B23",
"V.	c #73047B",
"W.	c #B96B2D",
"X.	c #4C412A",
"Y.	c #694A31",
"Z.	c #9C44AC",
"`.	c #62046A",
" +	c #734D2B",
".+	c #E79536",
"++	c #733921",
"@+	c #EF6B18",
"#+	c #AC349C",
"$+	c #AC1083",
"%+	c #B4149C",
"&+	c #AC34AC",
"*+	c #F48B2B",
"=+	c #A9672A",
"-+	c #AC1862",
";+	c #B4187B",
">+	c #A55D2B",
",+	c #8B6130",
"'+	c #B55825",
")+	c #FFAB2E",
"!+	c #FE6E23",
"~+	c #FF831F",
"{+	c #7F5A30",
"]+	c #F29B36",
"^+	c #635031",
"/+	c #8B5C2C",
"(+	c #5E4B25",
"_+	c #EC8531",
":+	c #D79435",
"<+	c #BA8023",
"[+	c #C53073",
"}+	c #C6752C",
"|+	c #9F6430",
"1+	c #7E4621",
"2+	c #940C62",
"3+	c #730041",
"4+	c #8F5D30",
"5+	c #FFE453",
"6+	c #83542B",
"7+	c #D97931",
"8+	c #C76D30",
"9+	c #BD7732",
"0+	c #B4288B",
"a+	c #B4388B",
"b+	c #704D30",
"c+	c #6E4729",
"d+	c #735130",
"e+	c #F5D64D",
"f+	c #94206A",
"g+	c #9C1C4A",
"h+	c #730C41",
"i+	c #A4248B",
"j+	c #835127",
"k+	c #5A0031",
"l+	c #AC2073",
"m+	c #84592E",
"n+	c #92652D",
"o+	c #AC205A",
"p+	c #42372C",
"q+	c #AD6E30",
"r+	c #AA5723",
"s+	c #6E512E",
"t+	c #AD3F22",
"u+	c #712A22",
"v+	c #5C3620",
"w+	c #831441",
"x+	c #474633",
"y+	c #ECB845",
"z+	c #BB4422",
"A+	c #DC8C37",
"B+	c #FAAD3C",
"C+	c #DF3322",
"D+	c #D86B27",
"E+	c #221122",
"F+	c #874B28",
"G+	c #E59E2C",
"H+	c #FFA62A",
"I+	c #A92C16",
"  . + @ @ # # $ % & * = - ; > , ' ) ! ~ ) { ! = ) ) ~ ] ) ^ / ! / ) ( _ : < [ = ",
"} | 1 2 3 4 5 6 7 8 9 ^ ) ) 9 ; ; ^ ! ! 0 ! ) a ) ! ) - ' ^ , ! / > b c d e f ! ",
"g h i j k l m n o p q , r $ @ a ) s t - ! ! ! - ! ) = = = u > - - m v w x = y ^ ",
"z < 2 A B C C D E F B G H I J K ^ ) ; L { ! ! ! { y { > ^ = M ! f N O P Q ^ ^ y ",
"R B : _ 4 S H T U V W X : Y Z t ` ~ / 9 > ! L ! ! = / = > - - >  ...A Z V y +.) ",
"@.< A #.: < _ 4 $.%.&.A A *.R =.-.;.^ M f = / { ! y y = { , m > >.,.D  .'.).!.~.",
"{.].#.^./._ Y (.4 4 _.:.<.#.A [.=.-.f }.|.1.t L ! ! ^ ^ ~ y 2.M > p u U 3.h 4.5.",
"6.7.8.(.< 9.^.0._ a.f ) f - U 0.< }.}.b.b.c.d.e.u / / K y y , ! - y , - f.[ g.2 ",
") z 5 V g.w * h.4./ f F f ) 9 U 9.}.b.b.b.c.i.) = { = ^ f ^ > j.- k., y = @ k 4.",
"K 3.l.m.= n.X d &.0./ f.O * o.!._ }.b.b.b.p.q.i.> / r.9 9 9 9 L > = ~ ) s.h @.A ",
").t.l.= u.3.: '.v.5.%.- f w.6.x.y.y.b.b.b.b.p.z.i.- 9 m 9 / > = = f m A.B.%.A @.",
",./ C.D.x S < E.) E.4.U ~ X 8 u.y.y.y.y.y.y.p.q.F.9 f f = f f f ) a G.'.%.O $.#.",
">.y m ~ N *.Y B.E...T # 0...A < y.H.y.y.y.p.I.J.F.f ) k.k.^ K.~ y f B B ^.4 w 3.",
"y ! k.M m ) b I < Y g.< 4 v.L.M.H.H.H.N.N.O.P.Q.R.M F ! = ~ y ^ ^ M a ~ ^ , =.B ",
"! ) M M f y 1 r S.d T.4.A n :.U.H.H.H.N.N.O.V.Q.R.W.M > = f ~ X.) ^ = ~ ) ~ f = ",
") - M k.) y A.Y.2.h.c 4 n 0.Y 8 Z.O.O.O.O.O.V.Q.`. += = k.M f k.M - - > { ] ~ ~ ",
"X.k.k.M M u , y q K .+4 ++@+A 3 Z.#+$+$+%+&+Q.Q.`.= / = & = ! ) f - - ! ! f ~ ) ",
") ~ f k.~ ) = y ) & 3._ 4 *+M.=+Z.#+-+;+&+Q.Q.Q.`.- G >+O j.- t y y - - ! ) f ! ",
"^ ~ F ,+f = ^ ) '+)+n.!+~+M y k.Z.#+-+-+&+Q.I.Q.Q.~ F A.f = y ^ y ) - ! ! - > > ",
") k.~ , {+= = y $.Y n.]+M f > ^+Z.#+;+;+#+I.I.Q.Q.^ , /+=+^ y = = = (+M - f f f ",
"f ) k.~ ^ +.a - M _+'.:+$.<+w.T.Z.#+;+;+[+I.I.Q.Q.j. +- ~ ~ f ^ ^ = ~ ! ! f f f ",
"f ^ - a }+y ~ y |+1+B _ j j W &.Z.[+;+;+[+2+Q.3+M = j.! = y (+/ f f ~ - ! ! f { ",
") k.~ ~ }+4+y X.+.r 2 5+< Y A g.Z.[+;+;+[+Q.3+3+) - u 6+^ - > - ! / ! f ! / ! f ",
"f k.A.7+u u ^ ^ ^ 8+T 5+_ )..+~+9+0+;+;+[+Q.3+3+k.! y u u ^ f ! ! / ^ / f f - f ",
"~ ) ~ m.6+) K k.2.+.$._ a.-.D *.W a+[+;+[+Q.3+3+t b+~ ~ ~ ! = c+k.~ ~ G - - ! > ",
"y y F t q j.^ d+y +.$.e+V #.9.A *.a+;+;+f+g+h+~.+.^ y ^ - - / ^ C.G G ~.y ! ! f ",
"- u = > ) ^ ^ {+y t h A e+9._ 9.o i+i+%+g+g+h+ + +) ^ ^ ~ u j+>+L.G { ' = = ~ = ",
"^ ~ Y.- a ^ ~ ) ~ ^ Q ..2 < 5 4 3 o i+-+I.g+k+^ ^ ^ = Y.9 9 ^ , c+, , ~ ) ! { = ",
"~ ^ K ~ - Q X.) ~ ' ) ;.S.$.S.$.B >.l+-+I.g+k+k.) ~ y , M ^ f u j., , ) { ! f y ",
"y - c+m+N 7+|+n+|+) y a I ].[.> m ~ o+-+I.g+c+u ^ c+] ^ / = , p+Q n+9 9 L ! - ) ",
"f 2.y m+^ q+/+m.<+^ F y x F Q k.- ~ o+-+I.g+j.J c+^ ' , > ^ m h.S u.r+h q+q+ +! ",
"^ y ^+k.s+m+m.{+t f f f f = ) f f ~ k.g+I.g+y > 1+f.f.1+) L u.u.} 7+9.D t+u+, ^ ",
"^ ' ) ' f ) ) 7+A.,+f ! - - k.- f = ^ [+g+f y = = ) ! K X.'+*.7+l.7+_ Y 4 =.v+~.",
"~ ) k.f f k.k.y ^ s+) M f , f M , y s+, w+) = ' ' ] ' x+i .+y+G ' E..+/ ++A z+M ",
"' f f - f f k.~ y ^ y y ~ F e.F - = y y , 8+~.] ~ ^ ) ,+3.A+Y _.~.{.h.f.++e+_ z+",
") f f f f f ! - - 2.~ ^+F F f ^ ! f ^ j.q 6+q y = ) y e.B+4.{.].$.9.n.S.*+7.C+5.",
"^ ' y f k.~ = , ) = ! ) ) - f f ^ j.y ^ a =+) y > = s.D+#.$ ).5 d < /.A '.5 &.L ",
"r.M 9 = f k.f f ) ! ) ) ! f f f = 6+) y W.^ ^ ] ' K ~.D.r+o 3 2 ].< .+x.]+4 =.E+",
"[ i | 9 ^ f ! ! ! ! ! f ! ) f = u f ' ~.F+, ' y ~ { a q+G+n u.u.u.N B+V B+]+x.4 ",
"A 7 H+w.! ! ! f ! ) f ! k.^ ~ u ' { ^ u ~ u ^ ' y u 0 '.J q+x+^+:+f.5.v.I+B+S 5+"};
