/* XPM */
static char *result[] = {
/* columns rows colors chars-per-pixel */
"40 40 190 2 ",
"   c #101010",
".  c #101810",
"X  c #3B2D1D",
"o  c #3E301F",
"O  c #221122",
"+  c #262724",
"@  c #2A292A",
"#  c #322A22",
"$  c #373326",
"%  c #393C39",
"&  c #493913",
"*  c #71301C",
"=  c #5A0031",
"-  c #4B2F26",
";  c #443422",
":  c #493526",
">  c #453A24",
",  c #4D3C24",
"<  c #423B2B",
"1  c #4D3D2A",
"2  c #523E25",
"3  c #593A23",
"4  c #533E29",
"5  c #712A22",
"6  c #6D3A23",
"7  c #733921",
"8  c #5D4018",
"9  c #6C461A",
"0  c #4A422A",
"q  c #534126",
"w  c #5B4326",
"e  c #54422A",
"r  c #5B452A",
"t  c #5B4A29",
"y  c #5D482C",
"u  c #4F4932",
"i  c #574531",
"p  c #5D4930",
"a  c #634526",
"s  c #6A4523",
"d  c #6B4927",
"f  c #62462B",
"g  c #634A2D",
"h  c #6A4C2C",
"j  c #7A4A27",
"k  c #734D2A",
"l  c #6E502B",
"z  c #74522D",
"x  c #7D542D",
"c  c #634B30",
"v  c #6B4D30",
"b  c #665031",
"n  c #6E5031",
"m  c #785430",
"M  c #390073",
"N  c #52004A",
"B  c #52045A",
"V  c #730041",
"C  c #7B005A",
"Z  c #52006A",
"A  c #73047B",
"S  c #842818",
"D  c #A52D17",
"F  c #943F22",
"G  c #AD3F22",
"H  c #CD3615",
"J  c #DF3322",
"K  c #8C4B1B",
"L  c #AD551F",
"P  c #864724",
"I  c #984824",
"U  c #88562C",
"Y  c #965728",
"T  c #865B31",
"R  c #B74722",
"E  c #A75A28",
"W  c #B55725",
"Q  c #8B622D",
"!  c #92652D",
"~  c #9B632D",
"^  c #956130",
"/  c #A7682C",
"(  c #B6762C",
")  c #AA6B30",
"_  c #BE7930",
"`  c #CE4D1A",
"'  c #F2551B",
"]  c #FC671A",
"[  c #F1731B",
"{  c #C85423",
"}  c #D95A22",
"|  c #ED5522",
" . c #C86626",
".. c #D46C28",
"X. c #CA782B",
"o. c #D77928",
"O. c #D77830",
"+. c #E66727",
"@. c #FE6322",
"#. c #F96E23",
"$. c #EC7626",
"%. c #FE7423",
"&. c #FA7C26",
"*. c #FF7733",
"=. c #940041",
"-. c #831441",
";. c #9C1C4A",
":. c #AC044A",
">. c #BD044A",
",. c #AC184A",
"<. c #AC205A",
"1. c #940C7B",
"2. c #AC0862",
"3. c #AC1862",
"4. c #B4047B",
"5. c #AC2073",
"6. c #C52C6A",
"7. c #C53073",
"8. c #DD882E",
"9. c #DC8C37",
"0. c #CF9732",
"q. c #E9872A",
"w. c #FB8323",
"e. c #F98629",
"r. c #FD8B2D",
"t. c #E59E2C",
"y. c #FC932D",
"u. c #FC992A",
"i. c #E88831",
"p. c #FC8A31",
"a. c #E79437",
"s. c #F79835",
"d. c #FE9B36",
"f. c #DBB03A",
"g. c #FEA72B",
"h. c #F9A637",
"j. c #FFAA32",
"k. c #F0B333",
"l. c #FCB63A",
"z. c #FDC82E",
"x. c #FDC43B",
"c. c #FACA38",
"v. c #F5B346",
"b. c #F8B643",
"n. c #FDC141",
"m. c #FBCD43",
"M. c #FCD445",
"N. c #FBD946",
"B. c #FCD34A",
"V. c #FCDB4C",
"C. c #FFDC50",
"Z. c #FEE844",
"A. c #FEE34C",
"S. c #FDEB4E",
"D. c #FCFC4C",
"F. c #FDE453",
"G. c #FDEB53",
"H. c #FEF356",
"J. c #FEFE55",
"K. c #FEF55A",
"L. c #FFFF5A",
"P. c #FEFE62",
"I. c #39049C",
"U. c #5A048B",
"Y. c #73009C",
"T. c #5204B4",
"R. c #5218B4",
"E. c #5224B4",
"W. c #6224AC",
"Q. c #7B24A4",
"!. c #830494",
"~. c #94189C",
"^. c #AC089C",
"/. c #B4149C",
"(. c #A4248B",
"). c #B4388B",
"_. c #8824A4",
"`. c #B428A4",
"'. c #BD50BD",
"]. c #9461B4",
"[. c #AC79BD",
"{. c #C548A4",
"}. c #8B71D5",
"|. c #BD79D5",
" X c #CD7DC5",
".X c #B489D5",
"XX c #CD9BC7",
"oX c #C5B6DE",
"OX c #DEB6DE",
"+X c #D5C2EE",
/* pixels */
"f.b.f.9 9 D D I ` Y 0 e , $ 3 h g e 2 r 4 1 4 r 2 e e c 4 r , 2 , , S S.S.H.j q ",
"k.K ( M.M.J.c.k.D.g.> t 2 2 $ X X % % % +   e 2 q , q 2 f r g 2 , q F N.v.8 e q ",
"8.h.o.w.w.q.$ ` z.+ l h  .I s % % oXoX[.].}.    4 r e w e w 4 : , X [ c.+ t g r ",
" .K.B.L.y.$ $ t.W k d.P e.z.j % % oXoX[.].}.    2 f 4 4 f w , 3 3 X.*.& < t r g ",
"%.d.H.G.L.h.w.M.P i.&.' K.P.' % OX.X.XW.E.E.M M   r , w w , , 2 0.y.J.} i.h T 3 ",
"y.K.L.p.G.K.G.J.%.] m.L.L.r.% +X.X.X.XE.I.I.R.R.  f c w 4 h ; 4 # c.i.0.$.R 3 j ",
"$.r.e.d.C.G.P.H J.J.{ - S p.% [..X.X.XE.I.T.W.W.Z   g r r g l : 2 + a P @.j.S.Z.",
"{ h.` H K.V.h.%.S.5 w q @ @ .X.X.XQ.Q.T.T.T.T.T.W.  : t g g h , , a l 0 a j u.V.",
"r  .m.a.y.l.u +.S.- 8 n @ @ .X.X.XQ.Q.T.T.T.T.T.W.  r r q r 3 a 2 , d g w s &.G.",
"t @.6 Y w A.' l.c.w.: d + @ .X.X.X_._.T.T.T.U.U.Q.A   ; ; ; ; 3 4 w r e 0 j.u.L.",
"R *.6 t r.@.H.$.L Z.] , @ @ .XXXXX4.4.Q.T.U.Y.Y.Y.~.  o ; , q w r q < ^ l.] L.u.",
"c.- z i.@ j.K.} e } Z.P @ @ |.XX4.4.4.(.Y.Y.A A _.N   e q q q q e 1 e.$.] &.%.p.",
"# f $ r X.y.P.l.} u.c.D @ @  XXX^.^.^.4.(.!.A A _.B   q , y h t g q d.d.d.J.n.@.",
"g , , , $ e F z.J.P.u.K.@ @  XXX^.^.^.4.(.!.A A _.B   4 w t c y t > 1 r r h | d.",
"q e > > e g (  .w.n.I S.. . '.'.`.^.^.4.4.(.!.!.(.B   4 q e w e e y w y r r q r ",
"q > > 0 r g ^ n n | N.L.. . ).{.`.^.^.^.1.(.!.!.~.  q w q > e > > , 2 q e i r r ",
"0 > , , > f h g g i t.L.* [ . ).`.^.^.^.4.4.(.(.B   , 6 Y w 2 i e , , q 2 q r q ",
"t t e 0 e r w g e Y @.S.D.q.. ).`.^.^.^.^.4.`.`.B   P / r.w 2 z c t , , 2 q q 3 ",
"g r n Q q w f e W g.A.#.w.; . ).`.^.^.^.^.4.`.`.B   z ~ q r g t g w , 2 2 2 2 4 ",
"e e t l m a e t %.P.Z.s.; q . ).6././.4.^.4.`.`.B   l U / r g w w w r > 2 , q q ",
", e q e f T 1 q > i.$.9.w.( . ).6.4.4.4.^.4.6.6.B   k , w r w w a t r 2 2 q q q ",
"2 i q 1 _ v r f ~ P s.G.&.w.. ).6.>.>.2.4.4.6.6.N   f , w g t , 2 2 r , , , q q ",
"q e e r X.U f 0 m ..B.G.K.P.. ).6.2.2.:.:.6.V V N   g U w , 4 2 2 : 2 , 2 2 2 3 ",
"q q ~ O.g g p p p ..m.G.F.W . ).6.2.2.:.:.6.V V N   g t d g 4 2 2 , y , q 2 2 w ",
"e e r / U q p , n T %.G.5 d . ).6.>.>.:.:.5.V V   z r r r 2 w h 4 e r U - 4 2 4 ",
"p h l U g a y n h T %.B.9.y.. ).7.<.<.=.=.5.= =   r y y , 2 , f z U Y j f 2 2 q ",
", g w 3 e y y x g x j.L.B.C.G.. ).<.<.=.3.=.;.;.  q r r r f P / 6 Y e p w w r q ",
"y r c , 4 r p e t y $ y.B.H.m.. <.<.<.<.C =.;.;.  r e h ; ; r h d h h r e 4 4 a ",
"r r i w > < 1 1 r c q Q w.&.r.. <.<.<.<.C =.;.;.  r g h ; r r f a g v 3 4 2 q f ",
"h 1 d T O.8.~ ^ ! e h 1 z.y.o.. 7.<.<.;.=.=.    r h r r , e g < < ! ; ; 3 2 , e ",
"q c g T p ( Q ) _ t z g $ l $ . 7.<.<.;.=.=.    d c c h 3 r $ +.g.p.E j.) ) k 2 ",
"c g p e h x ) m x q w 2 2 e 0 . 7.<.<.3.=.,.    9 6 9 j i 3 r.e.k.O.N.q.G 5 h y ",
"y c e c q e e O.~ ^ q , , , , > . ,.,.,.=.  g w r e q i : W p.O.6 O.F.P.J.| 3 x ",
"e e q q 2 0 , g y b e > q h q > . ,.,.,.=.  r c y g y u o.a.v.U i } a., 7 L.R - ",
"g q q , e q q r y r g g r z ^ d . ,.,.,.=.  j r y p i Q @.a.P.W j $...9 7 B.G.R ",
"e q 0 q q q , , q n r b m z , g , . . ,.;.  g g r e r Y l.S.$.y.%.V.V.w.q.h.J S.",
"y c g q q q w h r e q e q , 2 q w     -.  / e g w q < ..p.F R m.h.H.V.K.$.m.c.3 ",
"; > ; q 3 0 q q e q 4 q 2 q q q r U e     r t y f r z q.W x.N.M.r.K.a.v.a.J.| O ",
"j o.K > t 2 q 2 2 2 2 2 e e 0 w f q p     h c y r i 1 / t.{ r.e.e.o.v.i.h.s.l.J.",
"L.D.g.# q 2 2 , , 2 2 2 q r w w p q i 6 4 f c c c f i $.k ) u p 0.a Z.L D b.h.C."
};
