/* XPM */
static char *result[] = {
/* columns rows colors chars-per-pixel */
"40 40 219 2 ",
"   c #2A211A",
".  c #3B2D1E",
"X  c #221122",
"o  c #262A24",
"O  c #2D2B2B",
"+  c #322722",
"@  c #2C3725",
"#  c #383525",
"$  c #313129",
"%  c #5A291C",
"&  c #493913",
"*  c #7E281C",
"=  c #693B1A",
"-  c #412E21",
";  c #552623",
":  c #443421",
">  c #4B3623",
",  c #453A24",
"<  c #4C3C24",
"1  c #42372C",
"2  c #423B2B",
"3  c #4D3E2A",
"4  c #523621",
"5  c #5C3620",
"6  c #523D25",
"7  c #5C3E24",
"8  c #533F2A",
"9  c #423D30",
"0  c #712A22",
"q  c #6B3723",
"w  c #6D3D24",
"e  c #733921",
"r  c #5D4018",
"t  c #694717",
"y  c #4D4026",
"u  c #45452E",
"i  c #4C412A",
"p  c #534126",
"a  c #5B4326",
"s  c #5E4B25",
"d  c #54422A",
"f  c #5B452A",
"g  c #5D492C",
"h  c #474633",
"j  c #554432",
"k  c #594531",
"l  c #5D4931",
"z  c #624426",
"x  c #6A4524",
"c  c #694C25",
"v  c #62462B",
"b  c #6E4729",
"n  c #634A2D",
"m  c #6A4C2C",
"M  c #7E4621",
"N  c #7B4D25",
"B  c #754828",
"V  c #734D2B",
"C  c #7A4C2B",
"Z  c #6D5126",
"A  c #665328",
"S  c #6E512E",
"D  c #795125",
"F  c #74522C",
"G  c #7C532C",
"H  c #634B30",
"J  c #694A31",
"K  c #704D30",
"L  c #635031",
"P  c #6E5032",
"I  c #735130",
"U  c #7F5A30",
"Y  c #862818",
"T  c #833118",
"R  c #A42D17",
"E  c #A92C16",
"W  c #8C3F21",
"Q  c #AD3F22",
"!  c #CD3615",
"~  c #DF3322",
"^  c #8D4B1B",
"/  c #AD551F",
"(  c #B8551C",
")  c #844322",
"_  c #874B28",
"`  c #9C4B23",
"'  c #994825",
"]  c #835127",
"[  c #83542B",
"{  c #8D532B",
"}  c #84592E",
"|  c #8B5C2C",
" . c #985728",
".. c #965B2C",
"X. c #835A31",
"o. c #8F5D30",
"O. c #A34625",
"+. c #BB4422",
"@. c #B54A22",
"#. c #AA5723",
"$. c #A55D2B",
"%. c #B55825",
"&. c #8C622C",
"*. c #92652D",
"=. c #9B632D",
"-. c #8B6130",
";. c #9F6430",
":. c #A9672A",
">. c #B96B2D",
",. c #B6762C",
"<. c #A46630",
"1. c #AD6E30",
"2. c #BD7732",
"3. c #CD4E1C",
"4. c #DE4216",
"5. c #C95819",
"6. c #EE4D19",
"7. c #EB5617",
"8. c #F7561A",
"9. c #EF6B18",
"0. c #FC671A",
"q. c #FC7919",
"w. c #C95624",
"e. c #D95521",
"r. c #DD5A21",
"t. c #EE5423",
"y. c #CD6826",
"u. c #C2652C",
"i. c #D86B27",
"p. c #C6752C",
"a. c #CE7A29",
"s. c #D2752C",
"d. c #D97929",
"f. c #C76D30",
"g. c #D97931",
"h. c #E76726",
"j. c #FE6422",
"k. c #F46E21",
"l. c #FE6E23",
"z. c #ED7623",
"x. c #EC772A",
"c. c #F67621",
"v. c #FF7523",
"b. c #F67927",
"n. c #FF732D",
"m. c #FE7A2B",
"M. c #FF7733",
"N. c #BA8023",
"B. c #FF831F",
"V. c #DC8C37",
"C. c #CD9B33",
"Z. c #D79435",
"A. c #EE8822",
"S. c #E4832B",
"D. c #E8822F",
"F. c #E3892B",
"G. c #EA8D2C",
"H. c #FC8123",
"J. c #FE8824",
"K. c #F5842C",
"L. c #FE832C",
"P. c #F48B2B",
"I. c #FD8B2D",
"U. c #E59E2C",
"Y. c #FF9225",
"T. c #F89729",
"R. c #FE942D",
"E. c #FD9B2C",
"W. c #EC8531",
"Q. c #E38B31",
"!. c #FF8630",
"~. c #FC8B30",
"^. c #E79536",
"/. c #F79135",
"(. c #FE9333",
"). c #F29B36",
"_. c #FF9B35",
"`. c #DDB23B",
"'. c #FFA62A",
"]. c #FFAB2E",
"[. c #FFB42B",
"{. c #FFB829",
"}. c #E9AE32",
"|. c #E7A93C",
" X c #F5A637",
".X c #FDA533",
"XX c #FEAA32",
"oX c #FEA238",
"OX c #FAAD3C",
"+X c #FEB735",
"@X c #FCB33D",
"#X c #FFC52C",
"$X c #FFCC33",
"%X c #F4C739",
"&X c #FEC43B",
"*X c #FFCB3E",
"=X c #ECB845",
"-X c #F2B142",
";X c #FFBD43",
":X c #FEC241",
">X c #FDCD43",
",X c #FDD344",
"<X c #FFDC43",
"1X c #F5D64D",
"2X c #FDD44A",
"3X c #FEDA4C",
"4X c #FFDC50",
"5X c #FEE446",
"6X c #FFEB43",
"7X c #FEE24D",
"8X c #FEEB4E",
"9X c #FBFA4B",
"0X c #FFE453",
"qX c #FEEC53",
"wX c #FEF356",
"eX c #FFFE55",
"rX c #FFF559",
"tX c #FFFE5B",
"yX c #FFFF63",
/* pixels */
"`.;X|.t t R R ' 3. .u a < . 7 m H d 6 f d 8 6 a d d f l d g > 6 > d Y qXwXrXN a ",
"}.^ ,.2X<XeX>X#X9X{.: g d d : . . g 6 6 j 6 d 3 d 6 d < H g m 6 > 7 W 5X@Xr p 6 ",
"F.XXd.H.b.A.# 5.&Xo c m y.' t 3 d   G < 6 6 6 < 6 d a a a v 7 < < # k.:XO a n g ",
"u.rX2XtX_.$ $ G.( F _.{ K.$XB k g d . 4 8 6 6 6 8 n 8 7 g a , 6 p s.L.& 2 g g n ",
"n._.wXqXeX.XK.,X) Q.m.8.wXyX7.G D.f > : 7 6 4 6 6 a > a 7 < < 7 C.T.tX7.Q.n X.d ",
"E.rXtX~.wXrXqXeXv.0.*XtXtX(.n.t.Z &.g , p a > 8 6 n n a 8 m # 7 + %XG.C.x.@.= C ",
"z.R.~.oX4XqXyX! eXeXw.; T ~.tXa.t.Z p , < < G 4 6 6 g g f n P , 7 o v ) j.XX8X6X",
"e. X4.! rX3XoXq.qX* p d p < ) q.rXF g 6 7 P d ..v > > k n n m 6 < n m < x N Y.2X",
"d u.>XQ.Y.:Xu h.8X> p F p d : ) 3Xf.d f Z n n d a 8 a g p g 7 z < y m n a t b.8X",
"k j.w <.a 7X8.@X*Xq.> x L.u /.= qX' k a  .a n a 7 > - : : : : 4 7 a f d 9 XXE.tX",
"@.M.w a I.j.wXx./ 6X0.< p @ e.-XqX) d H [ G m < : < : # : > 7 a a p # =.+X0.tXE.",
"%X> D S.O .XrXr.d r.8X) f 8.{.I.|.OXP n z N 4 : > : p p a p p p d 3 !.x.0.L.v.~.",
"+ n # f s.(.yX+Xr.T.,XR q.T.tXrX9XL.&Xd v 6 7 p p p d y y g A f n p _._.oXeX:Xj.",
"n 6 y , # d W $XrXyXY.rXeX/ q % H.wX8.s # > a p < , F 6 a f n g g , 3 f g m t._.",
"6 d , , p n ,.y.J.@XO.8XtX5.; ` q.qXyXh.R.K.$.< , >., 7 a p f i d g a f d f p a ",
"d < , y d n =.J P h.5XeX5.q.yX{.XXtX6.h.E.E.# y a V a a y , p y , < < 7 8 l f f ",
"i y y , , v m n c k ^.eXe 9.tX<XyXtXi.g.rX;XK.6 a a > a  .a 6 d p < < 6 6 p f d ",
"d f p y f d a n d  .j.qXeXP.% :.[.qXtXrX@X3Xm.p 6 < { $.L.z < G n n < < 6 d p 6 ",
"g f F -.p a g d %.].7Xl.B., n y o 3Xl.tXrXXXm.p 7 f F =.p a n g n d < 6 6 < 7 7 ",
"d y f m U a a n v.yX7X)., p 7 L w yXtX0X2XY.S.d 3 g m | :.g n a a a s , < p p p ",
"p d y f g X.3 < , W.x.Z.v.N.@ O.7. Xi.rXrXq. X# d z V < f f p g g a f 6 6 p p p ",
"p g < 3 p.n f n ;.M _.qXH.H.m.*XtXa.c.wXrXH.m.;., a z 6 a n s > p p f < 6 6 p 8 ",
"d y f f p.o.n i X.y.2X0XrXyXtXY.H.` ] M.tXK.}.< d < v [ g < 7 < 6 > 6 p 6 > 6 p ",
"p y =.g.v v g g g f.,X0XqX@.^.B.2.H A ^.rX8.u d y 6 n v v g p 6 6 > g > p p < p ",
"f d f <.[ d k y P X.v.qX* Z G.(.m.w.F.tXeXh.C n G K f f f 6 a b y f f { < < 6 7 ",
"n n F G c z g I n X.v.1XQ.~.3XtX(.tX7XF.Z.+.< C X.g n g < < > g D { { C n 6 6 p ",
"< v a 7 d g g U n G XXtX1X3XqX3X&Xy.T > 2 i 6 V V d g g f v ] $.q { 8 H a a f a ",
"g f J < 3 g f d f g 2 T.2XrX>XeX<X&X< g d n n g g g a J : : g m b m m f d 6 8 a ",
"f g k f < 2 i d f H d &.J.v.J.v._.+ a l d G F y d f n m , g p v z m m d 8 6 p n ",
"n < b } s.g.;.*.;.d n 3 $XR.a.7 # f 3 a g a b v g b l g > a m 1 2 *.: : 4 6 < d ",
"p P n } g 1.| <.N.g F n O F 2 y < f d d a n z B b g H m 7 g # h..XI.#.XX1.1.V 6 ",
"g n L y S } <.U G p p p p a d p p f y f d 6 n 7 M x x M d 4 I.I.}.g.3XG.Q 0 m g ",
"g H d H p d d g.=.-.p 6 < < y < p a g p y p n a a d 6 k i %.(.g.w g.qXyXeXt.5 C ",
"f d y p p y y n g S d , p m p , m n S m n d a H H l H h d.^.=X{ H r.^.> e tX+., ",
"H p p < p p y f n g n n f F ..F < a n n m f.C l f g d -.j.V.yXw.C z.h.x e 1XqX+.",
"d p p p p p 6 < < P f L F F p g 6 p g z c [ c n a d n ..OX8Xz.R.v.3X7XJ.P. X~ 6X",
"g H n p y f a m d a 6 d d < p p g z n g 3 :.d n 7 a 9 i.~.' @.>X@XrX4XtXx.>X*X4 ",
"- , : a p y p p d 6 d d 6 p p p a [ d n >.g g l H k C S.#.&X<X2XR.rX^.-X).eXt.X ",
"N d.^ : g p 6 6 6 6 6 p 6 d p a v p H C _ m H n f 8 3 1.U.5.I.I.I.s.OXQ.OX).-XeX",
"tX9X'.@ 6 6 6 p 6 d p 6 y g f v H 8 g v f v g H n v j x.B 1.h L Z.x 6X/ E OX.X0X"
};
