/* XPM */
static char *d44abfe3cf394625d45a752af24dca10P8HaTlHmzFNMtf24[] = {
/* columns rows colors chars-per-pixel */
"40 40 182 2 ",
"   c #2A211A",
".  c #3B2D1E",
"X  c #3E301F",
"o  c #221122",
"O  c #370434",
"+  c #262A24",
"@  c #2F2B2B",
"#  c #322A22",
"$  c #393425",
"%  c #313129",
"&  c #493913",
"*  c #63381C",
"=  c #67183C",
"-  c #402E21",
";  c #552824",
":  c #433421",
">  c #4B3523",
",  c #453A24",
"<  c #4D3C24",
"1  c #42372C",
"2  c #433B2C",
"3  c #4C3D2B",
"4  c #563521",
"5  c #523E25",
"6  c #5C3F25",
"7  c #533E28",
"8  c #442B32",
"9  c #712A22",
"0  c #6D3D24",
"q  c #733921",
"w  c #5D4018",
"e  c #694717",
"r  c #4D4127",
"t  c #45452E",
"y  c #4C4029",
"u  c #534126",
"i  c #5B4326",
"p  c #544229",
"a  c #5B452A",
"s  c #5D492C",
"d  c #494233",
"f  c #564532",
"g  c #5A4631",
"h  c #5F4930",
"j  c #614526",
"k  c #684623",
"l  c #694C25",
"z  c #62462B",
"x  c #6E4729",
"c  c #634A2D",
"v  c #6A4C2D",
"b  c #794627",
"n  c #7C4D24",
"m  c #744D2B",
"M  c #7A4B2A",
"N  c #6E512E",
"B  c #76532B",
"V  c #7B512C",
"C  c #634B30",
"Z  c #6B4D30",
"A  c #605031",
"S  c #745230",
"D  c #7F5A30",
"F  c #681848",
"G  c #651B58",
"H  c #605469",
"J  c #862818",
"K  c #A52D17",
"L  c #8C3F21",
"P  c #AD3F22",
"I  c #CD3615",
"U  c #DF3322",
"Y  c #8D4B1B",
"T  c #AF581E",
"R  c #854722",
"E  c #994924",
"W  c #83542D",
"Q  c #8D532B",
"!  c #84582E",
"~  c #955226",
"^  c #965B2C",
"/  c #B94822",
"(  c #A85927",
")  c #B65825",
"_  c #92652C",
"`  c #9C642D",
"'  c #A9692B",
"]  c #B4742A",
"[  c #A46630",
"{  c #AD6E30",
"}  c #CD4E1C",
"|  c #DE4216",
" . c #C8521C",
".. c #ED531A",
"X. c #F8571B",
"o. c #FF611C",
"O. c #FF6C1C",
"+. c #C95423",
"@. c #DA5422",
"#. c #EE5522",
"$. c #CD6321",
"%. c #C2652C",
"&. c #DB6822",
"*. c #DB7923",
"=. c #D2752C",
"-. c #C76D30",
";. c #D97831",
":. c #E76926",
">. c #FE6422",
",. c #F46E21",
"<. c #ED7624",
"1. c #EC772A",
"2. c #FE7624",
"3. c #F8772A",
"4. c #FF7733",
"5. c #B3355B",
"6. c #991E62",
"7. c #C12460",
"8. c #A68033",
"9. c #DD882F",
"0. c #DE8831",
"q. c #CD9B33",
"w. c #D69431",
"e. c #E8892A",
"r. c #F98224",
"t. c #FF842D",
"y. c #F7882A",
"u. c #FE8A2C",
"i. c #E59E2C",
"p. c #FF9922",
"a. c #FE922D",
"s. c #FF9B2C",
"d. c #ED8532",
"f. c #FD8930",
"g. c #E89337",
"h. c #FF9432",
"j. c #F19A36",
"k. c #FF9C36",
"l. c #DDB23B",
"z. c #FFA62B",
"x. c #FFB624",
"c. c #E9AD3B",
"v. c #FEA434",
"b. c #FEAA32",
"n. c #FEA238",
"m. c #F6A83A",
"M. c #FFBA36",
"N. c #FCB53C",
"B. c #FFC02A",
"V. c #FEC63A",
"C. c #F9CA38",
"Z. c #FFAF43",
"A. c #ECB845",
"S. c #F2B142",
"D. c #FFBC44",
"F. c #E08860",
"G. c #FECC43",
"H. c #FDD544",
"J. c #FFDA42",
"K. c #FDD549",
"L. c #FEDB4C",
"P. c #FEE446",
"I. c #FFEC43",
"U. c #FFE14D",
"Y. c #FEEB4E",
"T. c #FFFF49",
"R. c #FFE152",
"E. c #FFEB54",
"W. c #FEF255",
"Q. c #FFFF55",
"!. c #FFF559",
"~. c #FFFF5B",
"^. c #FFD069",
"/. c #FFFF63",
"(. c #F16585",
"). c #AF8394",
"_. c #B3A9A4",
"`. c #D5C0C4",
"'. c #D9DCD7",
"]. c #EFE4D3",
"[. c #FFF3D9",
"{. c white",
/* pixels */
"l.D.c.e e K K E  .~ t i < . i v c a 5 a p p 5 a u p s h p s < 5 < p J E.!.!.n i ",
"c.Y ] K.K.Q.G.B.Q.x., c p p : . . c 5 5 p p p < p 5 p 5 z s c 5 < i R P.Z.w u 5 ",
"e.b.*.r.r.e.$  .V.+ l v $.E k < p   G ).).6.p < p a u i i s u < < $ ,.V.@ s z s ",
"%.!.K.~.h.% % e.) B k.Q y.C.m s s G `.`.`.7.).G 7 c 7 7 s s > 5 i =.t.& 2 s a z ",
"2.k.W.E.~.b.r.H.L 0.2...W./...W ).`.`.].[.(.7.].G i < i i < < 5 q.a.~.#.0.c D a ",
"s.!.~.f.W.!.E.Q.2.O.G.~.~.u.2.@.).`.`.].[.(.7.].).c c i 6 c , u # C.d.q.:./ * b ",
"<.h.u.n.R.E./.I Q.Q.+.; J u.~.G ).).`.`.].].7.`.`.G s s s c N > 5 + j R >.b.E.P.",
"@.m.| I !.L.n.2.Y.9 u u u < n G ).).`.`.].].7.`.).G > s c c Z < < z v < k n p.K.",
"p %.G.g.a.D.t :.Y.; u S p p G G ).).].[.).].7.6.].).a a p a 6 j 5 r v z i k 1.Y.",
"s >.0 ( i U.X.N.H.).`.`.`.`.G ].).).).G ).`.`.6.G G : : : : : 4 7 i a a 2 b.H ~.",
"/ 4.0 i u.>.W.1.).].[.[.].`.).`.).`.)._.7.G [.G G ).> X : < u i i u 2 _ M.O.H s.",
"C.> B d.@ b.!.).`.[.[.].].].`.).).).].[.].].`.6.O G ).p p 7 u p p p y.3.o.O _.f.",
"# v $ a =.a.~.).).].].].`.].[.`.G ).).].].].`.`.O G ).G < s v s z u k.k.v.H '.>.",
"c u < , $ G ).`.].].].].).`.].].`.).G ).).= 8 ).).G ).G a a c s a , 3 s z H '.k.",
"r p , , p ).`.].].].].].).).].O ].`.G G = = 8 `.6.).G 7 i u i p p s O s O H '.a ",
"p < , G G `.`.].).`.`.).G `.O O [.[.].].`.).7.6.6.6.i i < , u < , O H H H H '.a ",
"r < < G ).).].].`.).).G G ).O O [.[.].].].].7.6.G 6.G 6 ^ i 5 f 7 O H H H _.'.7 ",
"p s G O = ).`.`.`.G G ).).H O H `.`.).).).).6.G G ).G O f.i < = = O O H H '._.7 ",
"c a O = 5.(.(.= ).{.{.G H H O _.G ).`.].`.`.O G ).).= = H a = ^.F.O O H H [.H 7 ",
"p 3 a H '.'.[._.H {.{.{.O H H [.).).).).).G G G O H O O = = = F.H O O H '.'.u u ",
"5 p p _.H H H '.O {.F.H O H _.[.).`.).G ).O O G H O O _.= F.^.= H O O _.[._.u u ",
"u g 5 O O = = H O F.^.O O H [.[.G `.).G G O {.G O H H O = ^.F.O H O H '.[.5 u u ",
"u p p H H [.O G F.F H O O H [.H F.= 5.= O = O {.O O O O ).G O O O _.'.'._.5 5 u ",
"u p ` _.O O H ).F H H O H _._.F.[.^.F.F.= O = = = O G O ).G O _._.'.'._.u 5 5 p ",
"a p s = 5.5.5.G `.O O O '.[.(.5.5.5.= O 5.= O G G G O G ).).O x < H i Q < 5 5 7 ",
"c F F 5.5.5.= G G O '.'.'._.(.5.5.5.F.O 5.5.G `.`.).O O `.G O s V Q Q M z 5 5 u ",
"< F ^.F (.(.(.).O = O H 5.(.(.(.= F.= = = G G ).`.).`.G O z W ( j ~ u s i i a p ",
"s F ^.F O = = O {.G ).`.5.(.(.(.F.5.O O ).`.).).).).`.)., : s Z x v v i a 5 u i ",
"a s F.a , 2 3 u O 5.G ).= 5.5.F.F.= O s O G G G G G O = O s p z z v v i 7 5 5 j ",
"c 7 x ! ;.9.` _ O O 5.5.= 5.F.5.5.O r a s O O O O = 5.5.O p v 1 1 _ : : 5 5 < p ",
"u v c ! s { ! [ O = = = O = = F.5 O p p i c O O O = = = 7 a $ :.s.u.( b.{ { m < ",
"c c c u v ! [ O O = = O O O O = 5 O u s p u O = O = = = g 4 u.t.A.;.L.e.P 9 v s ",
"s C p C p p p O = = O O < < < O u i s u u u s O O O = O 3 ) u.=.0 ;.E./.Q.#.4 S ",
"a u u u u u O 5.5.5.= O r v u , l c v v s p s C O = O 5.*.g.A.~ c &.g.< q ~./ : ",
"h p u < p O O 5.5.5.5.O a N ^ V > j c z v -.M s = = 5.5.O g./.+.M <.&.b q L.E./ ",
"a p u u u G G ).).).).).V B 5 s < u s s v W z O O 5.5.= ).G G G 2.L.R.u.y.m.U I.",
"s C C u u G ).).`.G `.].u < 5 u z z c s y ' p G O = = O G ).).`.G W.U.~.1.G.V.4 ",
"- : : p 5 u u u p p u p 5 u u u i W p z %.z s c c a V e.( V.J.K.u.!.g.S.j.Q.#.o ",
"n *.R , s 5 u 5 5 5 5 5 p u u i z 5 s V W z c c s a 3 ' i.} u.u.u.=.S.d.m.j.N.Q.",
"~.T.z.@ 5 5 7 5 u u 5 5 u s s z h u s c s s c C s z f 1.m 8.d A w.l I.T K m.v.R."
};
