/* XPM */
static char * cristal23_xpm[] = {
"32 32 47 1",
" 	c None",
".	c #9479BD",
"+	c #8B71D5",
"@	c #310094",
"#	c #8359AC",
"$	c #9461B4",
"%	c #835DCD",
"&	c #3104AC",
"*	c #8348CD",
"=	c #6A48CD",
"-	c #39049C",
";	c #4A048B",
">	c #945DCD",
",	c #5204B4",
"'	c #9C59C5",
")	c #9C48C5",
"!	c #B461C5",
"~	c #7B1494",
"{	c #7314AC",
"]	c #5A048B",
"^	c #AC349C",
"/	c #C53073",
"(	c #9C5DAC",
"_	c #A44CA4",
":	c #DEB6DE",
"<	c #73047B",
"[	c #62046A",
"}	c #7B107B",
"|	c #AC34AC",
"1	c #AC48BD",
"2	c #E6C6E6",
"3	c #5A006A",
"4	c #52045A",
"5	c #C56DC5",
"6	c #C548A4",
"7	c #7B0C62",
"8	c #AC2C6A",
"9	c #940041",
"0	c #7B005A",
"a	c #730041",
"b	c #942873",
"c	c #C52C6A",
"d	c #5A0031",
"e	c #B44094",
"f	c #AC1083",
"g	c #B4187B",
"h	c #9C1C4A",
"                                ",
"                                ",
"              .+.@              ",
"              #$%&@             ",
"             %**$&&@            ",
"             =*%$&&&-           ",
"            ***%%$--;           ",
"            *%%%>$;,;           ",
"            '>>>)!~{]           ",
"           ^/!)(_:<[}           ",
"           |^!1_:2[[3           ",
"           ^^/!::<[4            ",
"            ^^2:2<[4            ",
"            ^^|2<<<3            ",
"            ^/|5<<<3            ",
"            //^6<77[            ",
"            ///6777[            ",
"            ///6777[            ",
"             8/6970             ",
"             8^690a             ",
"             b/c90d             ",
"             e8890d             ",
"             e8fc0d             ",
"             8ffc0d             ",
"             8cgca              ",
"              8gca              ",
"              8gca              ",
"              8ca               ",
"              hca               ",
"               h                ",
"                                ",
"                                "};
