/* XPM */
static char * cristal11_xpm[] = {
"32 32 51 1",
" 	c None",
".	c #8B71D5",
"+	c #A475D5",
"@	c #AC79BD",
"#	c #5A006A",
"$	c #9479BD",
"%	c #CD7DC5",
"&	c #A4248B",
"*	c #62046A",
"=	c #8B24A4",
"-	c #73047B",
";	c #94189C",
">	c #52006A",
",	c #73009C",
"'	c #8324A4",
")	c #7B24A4",
"!	c #7B1494",
"~	c #7314AC",
"{	c #BD79D5",
"]	c #8310AC",
"^	c #B475C5",
"/	c #9C28A4",
"(	c #732CC5",
"_	c #730C41",
":	c #B428A4",
"<	c #94089C",
"[	c #9428A4",
"}	c #52045A",
"|	c #AC34AC",
"1	c #AC1083",
"2	c #940C7B",
"3	c #AC349C",
"4	c #C53073",
"5	c #AC089C",
"6	c #830494",
"7	c #B4288B",
"8	c #A428A4",
"9	c #C52C6A",
"0	c #940041",
"a	c #942873",
"b	c #7B207B",
"c	c #94206A",
"d	c #7B005A",
"e	c #940C62",
"f	c #7B0C62",
"g	c #AC2C6A",
"h	c #9C1C4A",
"i	c #AC0862",
"j	c #AC1862",
"k	c #AC044A",
"l	c #B44094",
"                                ",
"                                ",
"              .+@#              ",
"             $@@%&*             ",
"             .&==-;>            ",
"            .$=,-,'#            ",
"           .$@=,,,)*            ",
"          +@@@=!!~,=*           ",
"           +@{=]]]~'-           ",
"           ^{{/]]]~(_           ",
"           ^{:<<]]][}           ",
"           {%:]<<<][}           ",
"            %:]<<<<=            ",
"            |:<<1<<=            ",
"            |:<1122'            ",
"            34:222<'            ",
"            34:526&}            ",
"            337226&}            ",
"             89026&}            ",
"             a3&02b             ",
"             a3cdeb             ",
"             a3cfec             ",
"             g3heee             ",
"             g3heih             ",
"              gj0kh             ",
"              gj00              ",
"              gj00              ",
"               hk0              ",
"               lh               ",
"                                ",
"                                ",
"                                "};
