/* XPM */
static char * cristal7_xpm[] = {
"32 32 47 1",
" 	c None",
".	c #BD79D5",
"+	c #73309C",
"@	c #6224AC",
"#	c #9C6DBD",
"$	c #B4388B",
"%	c #7B24A4",
"&	c #7B1494",
"*	c #A44CA4",
"=	c #AC34AC",
"-	c #8324A4",
";	c #7314AC",
">	c #9C5DAC",
",	c #B461C5",
"'	c #8B24A4",
")	c #AC59BD",
"!	c #9C44AC",
"~	c #B45DAC",
"{	c #9C28A4",
"]	c #A4248B",
"^	c #94189C",
"/	c #B428A4",
"(	c #AC40AC",
"_	c #94089C",
":	c #940041",
"<	c #7B005A",
"[	c #7B107B",
"}	c #AC59A4",
"|	c #9428A4",
"1	c #94206A",
"2	c #7B0C62",
"3	c #940C7B",
"4	c #A428A4",
"5	c #940C62",
"6	c #943473",
"7	c #8310AC",
"8	c #AC349C",
"9	c #B4288B",
"0	c #831441",
"a	c #5A0031",
"b	c #C53073",
"c	c #AC2073",
"d	c #9C1C4A",
"e	c #AC2C6A",
"f	c #AC1862",
"g	c #AC184A",
"h	c #730C41",
"                                ",
"                                ",
"              .+@+              ",
"             #$%%&&             ",
"             *=---%;            ",
"            >,$'--%-;           ",
"            >,)!'---%           ",
"            >,~=''''-           ",
"           ),,,=''''-           ",
"           ),,,='{']^           ",
"           ),,,/({]$=           ",
"           ),,,{_$$:<           ",
"           ),,,{{:<<[           ",
"           },,,|1<22            ",
"           ~,,|2]<22            ",
"            },'3{:22            ",
"            },'34552            ",
"            },'_4552            ",
"            },]_452             ",
"             6{74:2             ",
"             8$44:<             ",
"             8$/9:0             ",
"             8$/530             ",
"              8151a             ",
"              bc:da             ",
"              ebfd              ",
"              ebgd              ",
"               egd              ",
"               egd              ",
"                h               ",
"                                ",
"                                "};
