/* XPM */
static char * cristal5_xpm[] = {
"32 32 40 1",
" 	c None",
".	c #9461B4",
"+	c #8359AC",
"@	c #9C5DAC",
"#	c #9C59C5",
"$	c #AC59BD",
"%	c #B461C5",
"&	c #C5B6DE",
"*	c #DEB6DE",
"=	c #E6C6E6",
"-	c #410C73",
";	c #9C6DBD",
">	c #730041",
",	c #A44CA4",
"'	c #C548A4",
")	c #B475C5",
"!	c #CD7DC5",
"~	c #AC48BD",
"{	c #C56DC5",
"]	c #7B005A",
"^	c #62046A",
"/	c #AC34AC",
"(	c #B4187B",
"_	c #52004A",
":	c #A4248B",
"<	c #940C7B",
"[	c #D5A5CD",
"}	c #B4388B",
"|	c #AC349C",
"1	c #AC2073",
"2	c #940C62",
"3	c #AC0862",
"4	c #B4288B",
"5	c #943473",
"6	c #5A0031",
"7	c #831441",
"8	c #940041",
"9	c #AC089C",
"0	c #AC205A",
"a	c #AC184A",
"                                ",
"                                ",
"              ..+.              ",
"             .@@@#.             ",
"             .@$$#.             ",
"            %$#$$##.            ",
"            %$$####&            ",
"            %$$$$$*=-           ",
"            ;%%%$**=>           ",
"           ,')%%**=!>           ",
"           ,~{%*=={]^           ",
"           ,~/===!(]_           ",
"            ,/:<<<:]^           ",
"            ,[:<<<:]^           ",
"            [[:<<<:]>           ",
"            [*:<<<:]>           ",
"            [}|1231]>           ",
"            ,//4331>            ",
"             5/4331>            ",
"             5/131>6            ",
"             ,}1317             ",
"             ,}1187             ",
"              <9187             ",
"              21887             ",
"              11887             ",
"              018>              ",
"              a08]              ",
"               a8>              ",
"               a]               ",
"                                ",
"                                ",
"                                "};
