/* XPM */
static char * cristal20_xpm[] = {
"32 32 51 1",
" 	c None",
".	c #9479BD",
"+	c #6A44BD",
"@	c #522CCD",
"#	c #8B71D5",
"$	c #6A48CD",
"%	c #AC79BD",
"&	c #6230BD",
"*	c #A475D5",
"=	c #8348CD",
"-	c #BD79D5",
";	c #732CC5",
">	c #9C48C5",
",	c #73309C",
"'	c #9428A4",
")	c #8B40AC",
"!	c #B475C5",
"~	c #CD7DC5",
"{	c #8B24A4",
"]	c #AC48BD",
"^	c #AC34AC",
"/	c #9C44AC",
"(	c #A4248B",
"_	c #830494",
":	c #C548A4",
"<	c #62046A",
"[	c #7B0C62",
"}	c #94089C",
"|	c #73047B",
"1	c #A428A4",
"2	c #AC1083",
"3	c #7B206A",
"4	c #B4149C",
"5	c #AC089C",
"6	c #730C41",
"7	c #AC2073",
"8	c #940C7B",
"9	c #AC349C",
"0	c #C52C6A",
"a	c #B4047B",
"b	c #B4187B",
"c	c #940041",
"d	c #94206A",
"e	c #7B005A",
"f	c #AC2C6A",
"g	c #AC044A",
"h	c #AC1862",
"i	c #831441",
"j	c #9C1C4A",
"k	c #BD044A",
"l	c #AC184A",
"                                ",
"                                ",
"              .+@+              ",
"            #.$@@@+             ",
"           #%.$@@@@             ",
"           #%%$@@@&+            ",
"           *%%=&&&@@            ",
"           *%-=&;;;;            ",
"           *-->,,,,')           ",
"           !-~{]>^^^/           ",
"           -~(___:^:<           ",
"           -~(____:[<           ",
"           -(}}___{[<           ",
"           ~(}}__{<<            ",
"            }}}}_{<<            ",
"            }}}}}(|[            ",
"            122}}([3            ",
"            (445}16             ",
"            7555816             ",
"            90aa813             ",
"             baccd3             ",
"             bace3              ",
"             fbce3              ",
"             fbge3              ",
"             fhcci              ",
"             fhgc               ",
"              jkc               ",
"              lkg               ",
"              lkl               ",
"               l                ",
"                                ",
"                                "};
