/* XPM */
static char * cristal22_xpm[] = {
"32 32 49 1",
" 	c None",
".	c #B489D5",
"+	c #310094",
"@	c #3104AC",
"#	c #9C6DBD",
"$	c #8B71D5",
"%	c #835DCD",
"&	c #A475D5",
"*	c #5204B4",
"=	c #39049C",
"-	c #945DCD",
";	c #9C59C5",
">	c #5A048B",
",	c #B461C5",
"'	c #AC59BD",
")	c #B475C5",
"!	c #7314AC",
"~	c #73009C",
"{	c #B4388B",
"]	c #9C5DAC",
"^	c #C56DC5",
"/	c #73047B",
"(	c #94189C",
"_	c #830494",
":	c #AC59A4",
"<	c #CD7DC5",
"[	c #B45DAC",
"}	c #7B107B",
"|	c #C548A4",
"1	c #62046A",
"2	c #A4248B",
"3	c #940C7B",
"4	c #94089C",
"5	c #7B0C62",
"6	c #B44094",
"7	c #B4187B",
"8	c #C53073",
"9	c #7B005A",
"0	c #AC2073",
"a	c #B4047B",
"b	c #940041",
"c	c #730041",
"d	c #943473",
"e	c #AC1862",
"f	c #7B206A",
"g	c #94206A",
"h	c #AC2C6A",
"i	c #C52C6A",
"j	c #9C1C4A",
"                                ",
"                                ",
"               .+@              ",
"              #$@@@             ",
"             %%$@@@@            ",
"            %%%&@@@@            ",
"           %%%%&*@@==           ",
"           #---;&***>>          ",
"           #,;;')!>~~           ",
"           {),]'^/((_           ",
"           {^,:)_///(           ",
"           {<,[^_///}           ",
"           {|^)__///}           ",
"           {|<^___/1            ",
"           {||(~__/}            ",
"            {|2____}            ",
"            {|23435}            ",
"            {673333}            ",
"            {682339             ",
"            {680ab9             ",
"             {87b9c             ",
"             d0eb9f             ",
"             g07e9f             ",
"             h0iec              ",
"             8i8bc              ",
"              e8bc              ",
"              e8b9              ",
"              88b               ",
"              b8b               ",
"               j                ",
"                                ",
"                                "};
