/* XPM */
static char * cristal12_xpm[] = {
"32 32 49 1",
" 	c None",
".	c #8B71D5",
"+	c #A475D5",
"@	c #AC79BD",
"#	c #B475C5",
"$	c #9461B4",
"%	c #9479BD",
"&	c #BD79D5",
"*	c #7B107B",
"=	c #6224AC",
"-	c #835DCD",
";	c #94189C",
">	c #62046A",
",	c #5A048B",
"'	c #52006A",
")	c #9C6DBD",
"!	c #D5C2EE",
"~	c #4A048B",
"{	c #73047B",
"]	c #73009C",
"^	c #8324A4",
"/	c #7314AC",
"(	c #C5B6DE",
"_	c #8B24A4",
":	c #7B1494",
"<	c #E6C6E6",
"[	c #B461C5",
"}	c #C56DC5",
"|	c #7B207B",
"1	c #7B0C62",
"2	c #CD9DC5",
"3	c #CD7DC5",
"4	c #B4388B",
"5	c #B428A4",
"6	c #A4248B",
"7	c #830494",
"8	c #AC2073",
"9	c #7B005A",
"0	c #9C1C4A",
"a	c #94206A",
"b	c #7B206A",
"c	c #730041",
"d	c #940041",
"e	c #AC1862",
"f	c #AC184A",
"g	c #C52C6A",
"h	c #AC205A",
"i	c #AC2C6A",
"j	c #941441",
"                                ",
"                                ",
"               .+@              ",
"              .@@#              ",
"             $%&**=             ",
"             -.;>,'             ",
"            -)!;,,,~            ",
"           $)!!;{]]~            ",
"           $!!!^]]],/           ",
"           (!!+_]::/=           ",
"           !<[}_:::]|           ",
"           !}}}_:::1|           ",
"           2333_::11|           ",
"            455_**11            ",
"            4556*11>            ",
"            4556111*            ",
"            455677{*            ",
"            4855;97*            ",
"            4668097*            ",
"             a66a91*            ",
"             a6abcc             ",
"             a8ab91             ",
"             a86a11             ",
"             0880d9             ",
"              e80d9             ",
"              fg09              ",
"              fh09              ",
"               f0c              ",
"               ijd              ",
"                                ",
"                                ",
"                                "};
