/* XPM */
static char * cristal8_xpm[] = {
"32 32 46 1",
" 	c None",
".	c #DEB6DE",
"+	c #E6C6E6",
"@	c #5A006A",
"#	c #52006A",
"$	c #AC59A4",
"%	c #830494",
"&	c #73047B",
"*	c #62046A",
"=	c #5A048B",
"-	c #9C5DAC",
";	c #A44CA4",
">	c #B461C5",
",	c #94189C",
"'	c #73009C",
")	c #AC48BD",
"!	c #8B24A4",
"~	c #9C48C5",
"{	c #9C59C5",
"]	c #A4248B",
"^	c #AC59BD",
"/	c #8310AC",
"(	c #94089C",
"_	c #9428A4",
":	c #B45DAC",
"<	c #94206A",
"[	c #7B005A",
"}	c #7B0C62",
"|	c #730041",
"1	c #AC4CAC",
"2	c #D5A5CD",
"3	c #730C41",
"4	c #BD50BD",
"5	c #7B206A",
"6	c #B4288B",
"7	c #A428A4",
"8	c #B4388B",
"9	c #B428A4",
"0	c #9C28A4",
"a	c #AC2073",
"b	c #C52C6A",
"c	c #831441",
"d	c #AC205A",
"e	c #9C1C4A",
"f	c #AC184A",
"g	c #941441",
"                                ",
"                                ",
"              .+@#              ",
"             $+%&&*=            ",
"            -;>,&''=            ",
"            -;;)!'''=           ",
"            ~)~~!''''           ",
"           {~~~~]''''           ",
"           ^))~~]%/%'           ",
"           ~)^)~]!((%           ",
"           )^^^~_(]],           ",
"           ;^:^._%<[[           ",
"           ;::.._}<[|           ",
"           1:+..!}][|           ",
"           :....!}]}|           ",
"            2..)!}]3            ",
"            2.4)!}]3            ",
"            244)!_[|            ",
"             ;4!%_[|            ",
"             ;4!%_[5            ",
"             <67__|             ",
"             86900[             ",
"              a67}5             ",
"              ab6<c             ",
"              dbaec             ",
"              dbac              ",
"               dbc              ",
"               dbc              ",
"               ffg              ",
"                                ",
"                                ",
"                                "};
