/* XPM */
static char * cristal3_xpm[] = {
"32 32 46 1",
" 	c None",
".	c #A475D5",
"+	c #8B71D5",
"@	c #8348AC",
"#	c #AC79BD",
"$	c #B489D5",
"%	c #41187B",
"&	c #B475C5",
"*	c #4A048B",
"=	c #310094",
"-	c #BD79D5",
";	c #39049C",
">	c #5A048B",
",	c #7314AC",
"'	c #52006A",
")	c #E6C6E6",
"!	c #94189C",
"~	c #5A006A",
"{	c #73047B",
"]	c #62046A",
"^	c #CD91CD",
"/	c #830494",
"(	c #940041",
"_	c #B44094",
":	c #AC349C",
"<	c #7B005A",
"[	c #7B107B",
"}	c #AC34AC",
"|	c #9C44AC",
"1	c #B4388B",
"2	c #940C62",
"3	c #C53073",
"4	c #A4248B",
"5	c #AC2073",
"6	c #94206A",
"7	c #9C1C4A",
"8	c #C548A4",
"9	c #831441",
"0	c #730C41",
"a	c #AC205A",
"b	c #730041",
"c	c #5A0031",
"d	c #AC044A",
"e	c #AC2C6A",
"f	c #AC1862",
"g	c #AC184A",
"                                ",
"                                ",
"               .+@              ",
"             ..#$%              ",
"            &###$*=             ",
"            &---$*;;            ",
"            &---$>;*            ",
"           &----$,**'           ",
"           $----)!,>~           ",
"           ----))!!{]           ",
"            -^))!/(!]           ",
"            _:))!/<<[           ",
"            _:}}!/<{[           ",
"            |:}}!(</<           ",
"            _11}!2(<            ",
"            _11342(<            ",
"            _1115((<            ",
"            _1116((7            ",
"            _1117((7            ",
"            18137<<9            ",
"             _337<0             ",
"             :3aab0             ",
"             :5(a9c             ",
"             :5dabb             ",
"             e5dabb             ",
"              fdfb              ",
"              eggb              ",
"              egg0              ",
"              _77               ",
"                c               ",
"                                ",
"                                "};
