/* XPM */
static char * cristal18_xpm[] = {
"32 32 51 1",
" 	c None",
".	c #8B71D5",
"+	c #835DCD",
"@	c #7B107B",
"#	c #A475D5",
"$	c #9479BD",
"%	c #410C73",
"&	c #52006A",
"*	c #62046A",
"=	c #390073",
"-	c #AC79BD",
";	c #B489D5",
">	c #9C6DBD",
",	c #73047B",
"'	c #4A048B",
")	c #A428A4",
"!	c #BD79D5",
"~	c #5A048B",
"{	c #9428A4",
"]	c #AC34AC",
"^	c #B461C5",
"/	c #830494",
"(	c #7B1494",
"_	c #CD7DC5",
":	c #C56DC5",
"<	c #94089C",
"[	c #9C28A4",
"}	c #940C7B",
"|	c #943473",
"1	c #8B24A4",
"2	c #7B0C62",
"3	c #D5A5CD",
"4	c #8324A4",
"5	c #A4248B",
"6	c #B4388B",
"7	c #DEB6DE",
"8	c #AC349C",
"9	c #730041",
"0	c #CD9DC5",
"a	c #5A0031",
"b	c #B4288B",
"c	c #942873",
"d	c #7B206A",
"e	c #730C41",
"f	c #AC2C6A",
"g	c #AC0862",
"h	c #941441",
"i	c #AC1083",
"j	c #C52C6A",
"k	c #AC184A",
"l	c #B4187B",
"                                ",
"                                ",
"              .+.@              ",
"            #....$%             ",
"            #$...$&             ",
"            .....$*=            ",
"           #-....$*=            ",
"           ;->>>>-,'            ",
"           )!#>>>>!~'           ",
"           {]!^^^!/('           ",
"           {]]_:_<(@*           ",
"           [){[_}/(/@           ",
"           {][|]12/1*           ",
"           {]]{342/1*           ",
"           ]]]331//5*           ",
"           ]67771}5*            ",
"           8777]5}59            ",
"            07]6[)2*            ",
"            08]6[)2a            ",
"            b88c@ca             ",
"             c|dcea             ",
"             c|ddaa             ",
"             f|ddaa             ",
"             ghcaa              ",
"              hf9a              ",
"              ij99              ",
"              kj99              ",
"              lj9               ",
"               je               ",
"                                ",
"                                ",
"                                "};
