/* XPM */
static char * cristal2_xpm[] = {
"32 32 49 1",
" 	c None",
".	c #AC79BD",
"+	c #8359AC",
"@	c #B489D5",
"#	c #5218B4",
"$	c #41187B",
"%	c #39049C",
"&	c #4A048B",
"*	c #CD91CD",
"=	c #6224AC",
"-	c #5204B4",
";	c #B428A4",
">	c #8324A4",
",	c #5A048B",
"'	c #5A006A",
")	c #BD79D5",
"!	c #A4248B",
"~	c #B4047B",
"{	c #73047B",
"]	c #62046A",
"^	c #CD9DC5",
"/	c #AC089C",
"(	c #940C7B",
"_	c #830494",
":	c #BD50BD",
"<	c #C548A4",
"[	c #B4388B",
"}	c #94189C",
"|	c #9C44AC",
"1	c #AC0862",
"2	c #B44094",
"3	c #AC2073",
"4	c #940041",
"5	c #AC044A",
"6	c #9C1C4A",
"7	c #DEB6DE",
"8	c #AC205A",
"9	c #C53073",
"0	c #940C62",
"a	c #831441",
"b	c #D5A5CD",
"c	c #AC2C6A",
"d	c #AC1083",
"e	c #AC184A",
"f	c #730041",
"g	c #7B005A",
"h	c #941441",
"i	c #B4288B",
"j	c #C52C6A",
"                                ",
"                                ",
"              ..+               ",
"             .@@#$              ",
"            .@@@#%%             ",
"            .@@@#%%             ",
"           @@@@@#%&&            ",
"           @@@@*=--&            ",
"           @@@*;>,,'            ",
"           )***!~>{]            ",
"           @^^;/(!_]            ",
"           :<<;/((!{            ",
"            [<!/(((}            ",
"            |<;/1(((            ",
"            2<;/1/(}            ",
"            2<;/1/~!            ",
"            223~114             ",
"            :2<31~4             ",
"            :2<3556             ",
"            :278446             ",
"            :79840a             ",
"            b79846a             ",
"             cde6fa             ",
"             cd9ggh             ",
"             idj4g              ",
"             cjj4g              ",
"              cj4g              ",
"              cjg               ",
"              cch               ",
"                f               ",
"                                ",
"                                "};
