/* XPM */
static char * cristal4_xpm[] = {
"32 32 43 1",
" 	c None",
".	c #9461B4",
"+	c #A475D5",
"@	c #73309C",
"#	c #9C6DBD",
"$	c #AC79BD",
"%	c #391494",
"&	c #390073",
"*	c #BD79D5",
"=	c #5A048B",
"-	c #B461C5",
";	c #4A048B",
">	c #52006A",
",	c #B475C5",
"'	c #940041",
")	c #7B1494",
"!	c #C56DC5",
"~	c #CD7DC5",
"{	c #830494",
"]	c #7B005A",
"^	c #7B107B",
"/	c #73047B",
"(	c #9C44AC",
"_	c #62046A",
":	c #AC349C",
"<	c #AC1083",
"[	c #B4149C",
"}	c #AC34AC",
"|	c #AC1862",
"1	c #B4187B",
"2	c #C53073",
"3	c #940C62",
"4	c #730041",
"5	c #B4288B",
"6	c #B4388B",
"7	c #94206A",
"8	c #9C1C4A",
"9	c #730C41",
"0	c #A4248B",
"a	c #5A0031",
"b	c #AC2073",
"c	c #AC205A",
"d	c #831441",
"                                ",
"                                ",
"               .+@              ",
"             ..##$%             ",
"             .###$&             ",
"             .###*=&            ",
"            --####*;&           ",
"            ------*=>           ",
"            -,---*')>           ",
"            ,,,!!~{]^           ",
"            ,,,!!~/]^           ",
"            (~~~~~/]_           ",
"            (:<<[}]]_           ",
"            (:|1}]]]_           ",
"            (:||}]']]           ",
"            (:11:'']]           ",
"            (:112'']]           ",
"            (21123]4            ",
"            (2112]44            ",
"             5112]44            ",
"             6212]44            ",
"             611789             ",
"             00[889             ",
"              0|'8a             ",
"              b|'8a             ",
"              c|'8              ",
"              c|'8              ",
"               8'8              ",
"               28               ",
"                d               ",
"                                ",
"                                "};
