/* XPM */
static char * cristal19_xpm[] = {
"32 32 54 1",
" 	c None",
".	c #835DCD",
"+	c #8B71D5",
"@	c #AC79BD",
"#	c #6A48CD",
"$	c #C5B6DE",
"%	c #BDAEDE",
"&	c #A475D5",
"*	c #D5C2EE",
"=	c #52045A",
"-	c #9461B4",
";	c #8348CD",
">	c #9C59C5",
",	c #E6C6E6",
"'	c #945DCD",
")	c #DEB6DE",
"!	c #9C48C5",
"~	c #B461C5",
"{	c #52006A",
"]	c #A4248B",
"^	c #AC48BD",
"/	c #7B107B",
"(	c #BD79D5",
"_	c #8B24A4",
":	c #C56DC5",
"<	c #BD50BD",
"[	c #7B0C62",
"}	c #73047B",
"|	c #94189C",
"1	c #9C44AC",
"2	c #9C28A4",
"3	c #A428A4",
"4	c #AC34AC",
"5	c #52004A",
"6	c #B428A4",
"7	c #B4388B",
"8	c #AC40AC",
"9	c #940C7B",
"0	c #7B207B",
"a	c #B4288B",
"b	c #94206A",
"c	c #942873",
"d	c #AC2073",
"e	c #7B206A",
"f	c #B4187B",
"g	c #AC1862",
"h	c #943473",
"i	c #AC349C",
"j	c #AC044A",
"k	c #940041",
"l	c #B4047B",
"m	c #BD044A",
"n	c #5A0031",
"o	c #AC184A",
"                                ",
"                                ",
"              ....              ",
"            +@.##$%             ",
"           +@.##$$%             ",
"           &*.#$$$*=            ",
"           $*-$$$$;>            ",
"           $,*$$$;;'            ",
"           $,)))!!!~{           ",
"           )]],!!!^~/           ",
"           (]_]::<:[}           ",
"           |]]__]:[[}           ",
"           |]]__1[[[/           ",
"           _2]__1}[[/           ",
"           _3]]]4}}|5           ",
"            26]]7[[/            ",
"            36638[90            ",
"            a6638/b5            ",
"             ]6]8/c5            ",
"             d]]8/e             ",
"             f]b1e5             ",
"             gdbhe5             ",
"             idbhe5             ",
"             ijkb5              ",
"             fljd5              ",
"              jmdn              ",
"              mmg               ",
"              fmo               ",
"               mo               ",
"                                ",
"                                ",
"                                "};
