/* XPM */
static char * cristal21_xpm[] = {
"32 32 57 1",
" 	c None",
".	c #391494",
"+	c #3108C5",
"@	c #8B71D5",
"#	c #522CCD",
"$	c #835DCD",
"%	c #9C6DBD",
"&	c #9461B4",
"*	c #732CC5",
"=	c #5218B4",
"-	c #5204B4",
";	c #7314AC",
">	c #5A048B",
",	c #CD9DC5",
"'	c #BD79D5",
")	c #9428A4",
"!	c #D5A5CD",
"~	c #B461C5",
"{	c #94189C",
"]	c #830494",
"^	c #9C28A4",
"/	c #8310AC",
"(	c #B475C5",
"_	c #C56DC5",
":	c #73009C",
"<	c #B428A4",
"[	c #AC34AC",
"}	c #73047B",
"|	c #8B24A4",
"1	c #52045A",
"2	c #B4388B",
"3	c #CD7DC5",
"4	c #8324A4",
"5	c #A4248B",
"6	c #E6C6E6",
"7	c #94089C",
"8	c #7B1494",
"9	c #940C7B",
"0	c #52004A",
"a	c #AC089C",
"b	c #AC1083",
"c	c #B4288B",
"d	c #C53073",
"e	c #B4047B",
"f	c #7B206A",
"g	c #B4187B",
"h	c #940041",
"i	c #7B005A",
"j	c #AC044A",
"k	c #730041",
"l	c #AC2C6A",
"m	c #5A0031",
"n	c #9C1C4A",
"o	c #C52C6A",
"p	c #AC184A",
"q	c #B44094",
"r	c #941441",
"                                ",
"                                ",
"               .+               ",
"             @@#++.             ",
"            $%%#++.             ",
"           &%%%#++..            ",
"           &%%%*..=-            ",
"           &%%%*===;>           ",
"          ,'%%%)*;;;;           ",
"          !'~%~{]^//)           ",
"           (_~_{:]<[<           ",
"           (__{]]}}|1           ",
"           23_{]]}}41           ",
"           235]]]]}41           ",
"           2657]]]]8            ",
"            25777]51            ",
"            2<777950            ",
"            2<ab9950            ",
"            2caaa9|             ",
"            2dce9]f             ",
"             !gehif             ",
"             ,gjhk              ",
"             ,gjhk              ",
"             ldghm              ",
"             ldnhk              ",
"              onh               ",
"              oph               ",
"              oph               ",
"              qph               ",
"               r                ",
"                                ",
"                                "};
