/* XPM */
static char * cristal24_xpm[] = {
"32 32 47 1",
" 	c None",
".	c #AC79BD",
"+	c #C5B6DE",
"@	c #310094",
"#	c #8348CD",
"$	c #6A48CD",
"%	c #6230BD",
"&	c #39049C",
"*	c #390073",
"=	c #D5C2EE",
"-	c #73309C",
";	c #4A048B",
">	c #AC48BD",
",	c #52006A",
"'	c #E6C6E6",
")	c #B4149C",
"!	c #9C48C5",
"~	c #9428A4",
"{	c #62046A",
"]	c #943473",
"^	c #A44CA4",
"/	c #730C41",
"(	c #B428A4",
"_	c #AC1083",
":	c #AC34AC",
"<	c #AC4CAC",
"[	c #5A006A",
"}	c #52045A",
"|	c #B4187B",
"1	c #9C28A4",
"2	c #C548A4",
"3	c #AC349C",
"4	c #C53073",
"5	c #7B005A",
"6	c #7B0C62",
"7	c #C52C6A",
"8	c #AC2C6A",
"9	c #B4288B",
"0	c #730041",
"a	c #5A0031",
"b	c #941441",
"c	c #AC1862",
"d	c #9C1C4A",
"e	c #940041",
"f	c #AC044A",
"g	c #BD044A",
"h	c #AC184A",
"                                ",
"                                ",
"              .++@              ",
"             .##$@@             ",
"             .#%%$@@            ",
"            .#%%%#&@*           ",
"            =#%%%-#;;           ",
"           =>-----#;,           ",
"           ')!----~>{           ",
"           '))!~~]^{/           ",
"           ()_>:]]<[}           ",
"           (||_>1]<[}           ",
"           (||__<^{[}           ",
"            (|__2<{}            ",
"            3|)_)2{[            ",
"            4||)456[            ",
"            4|))456[            ",
"            3|))456{            ",
"            4|__755{            ",
"            8___950a            ",
"             8b_750             ",
"             8b_c|0             ",
"             88de|0             ",
"             8cef|0             ",
"             8cffc              ",
"              dfgc              ",
"              8cgc              ",
"              8ch               ",
"               hh               ",
"               0                ",
"                                ",
"                                "};
