/* XPM */
static char * cristal1_xpm[] = {
"32 32 53 1",
" 	c None",
".	c #C5B6DE",
"+	c #AC79BD",
"@	c #9461B4",
"#	c #8B71D5",
"$	c #DEB6DE",
"%	c #B489D5",
"&	c #6224AC",
"*	c #5224B4",
"=	c #390073",
"-	c #D5C2EE",
";	c #39049C",
">	c #5218B4",
",	c #5204B4",
"'	c #52006A",
")	c #7B24A4",
"!	c #8324A4",
"~	c #5A048B",
"{	c #73047B",
"]	c #CD91CD",
"^	c #CD9DC5",
"/	c #B4047B",
"(	c #73009C",
"_	c #94189C",
":	c #BD79D5",
"<	c #A4248B",
"[	c #8B24A4",
"}	c #52004A",
"|	c #CD7DC5",
"1	c #AC089C",
"2	c #830494",
"3	c #52045A",
"4	c #BD50BD",
"5	c #B428A4",
"6	c #B4388B",
"7	c #C548A4",
"8	c #940C7B",
"9	c #C52C6A",
"0	c #B4149C",
"a	c #BD044A",
"b	c #AC0862",
"c	c #AC044A",
"d	c #730041",
"e	c #AC2073",
"f	c #C53073",
"g	c #AC205A",
"h	c #940041",
"i	c #5A0031",
"j	c #AC1862",
"k	c #9C1C4A",
"l	c #7B005A",
"m	c #AC184A",
"n	c #831441",
"                                ",
"                                ",
"              .+@#              ",
"             $%&**=             ",
"            -%%*;;>             ",
"            +%%*;,&'            ",
"           %%%),,,,&            ",
"           %%%!,,,~){           ",
"           %]^/),~((_           ",
"           :^//<(({[}           ",
"           |^11/<2{[3           ",
"           4451//<2<3           ",
"           675118<2_            ",
"            6511//<3            ",
"            65111/53            ",
"            690/1/53            ",
"            69//1/93            ",
"            69ab//9}            ",
"            69bcc9d}            ",
"            69acced             ",
"            6fghhei             ",
"             6ghjhk             ",
"             ggglhk             ",
"             fgkhh              ",
"             fgkhh              ",
"             fgjhk              ",
"              mmh               ",
"              mmh               ",
"               mk               ",
"               n                ",
"                                ",
"                                "};
