/* XPM */
static char * cristal16_xpm[] = {
"32 32 45 1",
" 	c None",
".	c #B489D5",
"+	c #9479BD",
"@	c #8348AC",
"#	c #6A389C",
"$	c #8359AC",
"%	c #7B1494",
"&	c #5218B4",
"*	c #41187B",
"=	c #7314AC",
"-	c #3104AC",
";	c #52045A",
">	c #6224AC",
",	c #39049C",
"'	c #AC79BD",
")	c #94189C",
"!	c #5A048B",
"~	c #5204B4",
"{	c #CD9DC5",
"]	c #73009C",
"^	c #AC34AC",
"/	c #830494",
"(	c #C59DCD",
"_	c #AC40AC",
":	c #9C44AC",
"<	c #B4187B",
"[	c #7B0C62",
"}	c #940C7B",
"|	c #B4149C",
"1	c #B4388B",
"2	c #B428A4",
"3	c #940C62",
"4	c #7B005A",
"5	c #730041",
"6	c #B44094",
"7	c #941441",
"8	c #730C41",
"9	c #62046A",
"0	c #942873",
"a	c #943473",
"b	c #9C1C4A",
"c	c #7B206A",
"d	c #AC1862",
"e	c #940041",
"f	c #831441",
"                                ",
"                                ",
"              .+@#              ",
"             +...$#             ",
"             +..%&*             ",
"            +...=-&;            ",
"            +...>,-=            ",
"           '....>,,=            ",
"           ....)!~~>            ",
"           {{.{)]!~=            ",
"           {{{)^/]]%            ",
"           (_^))^///            ",
"           :_^))^<))            ",
"           :_^))^//[            ",
"           ^_^))^/}[            ",
"           :_^)|^}}[            ",
"            11<1}}})            ",
"            :121}34             ",
"            11213[5             ",
"            1167[45             ",
"            1:1[859             ",
"             0a5555             ",
"             05545              ",
"             bc445              ",
"             db4e4              ",
"              fee4              ",
"              db5               ",
"              <b5               ",
"               ff               ",
"                                ",
"                                ",
"                                "};
