/* XPM */
static char * cristal13_xpm[] = {
"32 32 51 1",
" 	c None",
".	c #C5B6DE",
"+	c #9461B4",
"@	c #8359AC",
"#	c #9C6DBD",
"$	c #7B206A",
"%	c #9C5DAC",
"&	c #8348CD",
"*	c #7B107B",
"=	c #52045A",
"-	c #A475D5",
";	c #6A48CD",
">	c #B461C5",
",	c #5A006A",
"'	c #52006A",
")	c #835DCD",
"!	c #5A048B",
"~	c #62046A",
"{	c #8348AC",
"]	c #73047B",
"^	c #4A048B",
"/	c #410C73",
"(	c #AC59A4",
"_	c #9C48C5",
":	c #945DCD",
"<	c #830494",
"[	c #7B0C62",
"}	c #AC34AC",
"|	c #9C44AC",
"1	c #C56DC5",
"2	c #BD50BD",
"3	c #AC48BD",
"4	c #B4388B",
"5	c #B4149C",
"6	c #B428A4",
"7	c #940C7B",
"8	c #730C41",
"9	c #C53073",
"0	c #AC40AC",
"a	c #B4187B",
"b	c #7B005A",
"c	c #AC1083",
"d	c #AC349C",
"e	c #AC1862",
"f	c #94189C",
"g	c #941441",
"h	c #730041",
"i	c #C52C6A",
"j	c #AC184A",
"k	c #AC0862",
"l	c #AC2C6A",
"                                ",
"                                ",
"               .++              ",
"               @##+$            ",
"              %&++*=            ",
"             -+;;>,,'           ",
"             @&);>!~'           ",
"             {))+]!!!^          ",
"             {))+]!]!/          ",
"            (__:><][]!          ",
"            }>__><[[[~          ",
"            |123><[*[*          ",
"             4111<**[           ",
"             4}567*[8           ",
"             4}559[[8           ",
"             06aa9[[~           ",
"             09aa9bb~           ",
"             04aa9bb~           ",
"             4aac9bb8           ",
"             defcdb[~           ",
"              gccdhh8           ",
"              gggdhh8           ",
"              gccdbh            ",
"              gccdbh            ",
"               gaibh            ",
"               gjibh            ",
"               gjih             ",
"                kih             ",
"                llh             ",
"                                ",
"                                ",
"                                "};
