/* XPM */
static char * cristal6_xpm[] = {
"32 32 46 1",
" 	c None",
".	c #A44CA4",
"+	c #8348AC",
"@	c #6A389C",
"#	c #8B40AC",
"$	c #9C5DAC",
"%	c #BD50BD",
"&	c #9C44AC",
"*	c #BDAEDE",
"=	c #DEB6DE",
"-	c #AC48BD",
";	c #AC34AC",
">	c #AC59BD",
",	c #AC40AC",
"'	c #AC4CAC",
")	c #D5A5CD",
"!	c #E6C6E6",
"~	c #B428A4",
"{	c #C548A4",
"]	c #B461C5",
"^	c #A428A4",
"/	c #B45DAC",
"(	c #940C7B",
"_	c #830494",
":	c #94189C",
"<	c #9C28A4",
"[	c #A4248B",
"}	c #5A0031",
"|	c #AC59A4",
"1	c #9428A4",
"2	c #94206A",
"3	c #7B0C62",
"4	c #940C62",
"5	c #AC0862",
"6	c #9C1C4A",
"7	c #AC349C",
"8	c #B44094",
"9	c #B4288B",
"0	c #AC1862",
"a	c #AC2073",
"b	c #730041",
"c	c #7B005A",
"d	c #AC044A",
"e	c #AC2C6A",
"f	c #AC205A",
"g	c #AC184A",
"                                ",
"                                ",
"              .+@+              ",
"             .####@             ",
"             .#####             ",
"            $%&#####            ",
"            $%&&####            ",
"            *%&&&&&#            ",
"           *=%&&&&&&-           ",
"           *=;>&&&&,'           ",
"           )!&~>,,%%{           ",
"           )]&^//%(_:           ",
"           >]&<[:_(:}           ",
"           |]&1[23(2}           ",
"           /]&1[244[}           ",
"            |&<[2442            ",
"            |&<[2442            ",
"            |&<^[442            ",
"            |&<^[456            ",
"             &<^[42             ",
"             &^^[46             ",
"             7890ab             ",
"             78[(ab             ",
"              24[cb             ",
"              2dab              ",
"              effb              ",
"              effb              ",
"               6gb              ",
"               gg               ",
"                b               ",
"                                ",
"                                "};
