/* XPM */
static char * cristal15_xpm[] = {
"32 32 51 1",
" 	c None",
".	c #9479BD",
"+	c #AC59A4",
"@	c #73449C",
"#	c #B489D5",
"$	c #9461B4",
"%	c #8348AC",
"&	c #8B40AC",
"*	c #8324A4",
"=	c #522CCD",
"-	c #7B107B",
";	c #52045A",
">	c #732CC5",
",	c #391494",
"'	c #AC79BD",
")	c #5218B4",
"!	c #52006A",
"~	c #390073",
"{	c #9428A4",
"]	c #73309C",
"^	c #CD9DC5",
"/	c #7314AC",
"(	c #5A006A",
"_	c #410C73",
":	c #CD7DC5",
"<	c #A4248B",
"[	c #CD91CD",
"}	c #B428A4",
"|	c #A428A4",
"1	c #8310AC",
"2	c #AC34AC",
"3	c #AC40AC",
"4	c #9C44AC",
"5	c #94089C",
"6	c #94189C",
"7	c #940C7B",
"8	c #AC089C",
"9	c #52004A",
"0	c #AC349C",
"a	c #94206A",
"b	c #940C62",
"c	c #940041",
"d	c #5A0031",
"e	c #9C28A4",
"f	c #942873",
"g	c #7B0C62",
"h	c #7B005A",
"i	c #7B206A",
"j	c #943473",
"k	c #831441",
"l	c #9C1C4A",
"                                ",
"                                ",
"              .+@@              ",
"             .##$%&             ",
"            .##*==-;            ",
"            .##>,,>;            ",
"           '###>))>!~           ",
"           '##{)))]!;           ",
"           '#^{/))>(_           ",
"           :^<{///{;            ",
"           [}|}1112;            ",
"           33|<211|(            ",
"            4||}}}}}            ",
"            &|<}<556            ",
"            4<<}<576            ",
"            2}}<77<;            ",
"            2}}<87<9            ",
"            42}<77<9            ",
"            420abc6d            ",
"             efgghi             ",
"             faghhi             ",
"             jahhhi             ",
"             ihhhhk             ",
"             ihccca             ",
"              hccl              ",
"              lccl              ",
"              lccl              ",
"              lccl              ",
"               ll               ",
"                                ",
"                                ",
"                                "};
