/* XPM */
static char * cristal14_xpm[] = {
"32 32 57 1",
" 	c None",
".	c #9479BD",
"+	c #9461B4",
"@	c #8359AC",
"#	c #D5C2EE",
"$	c #A475D5",
"%	c #730C41",
"&	c #C5B6DE",
"*	c #DEB6DE",
"=	c #945DCD",
"-	c #5A006A",
";	c #52045A",
">	c #BDAEDE",
",	c #6A44BD",
"'	c #52006A",
")	c #9C48C5",
"!	c #5A048B",
"~	c #390073",
"{	c #9C59C5",
"]	c #8B40AC",
"^	c #8348CD",
"/	c #62046A",
"(	c #410C73",
"_	c #AC4CAC",
":	c #73047B",
"<	c #9428A4",
"[	c #BD50BD",
"}	c #9C44AC",
"|	c #7B0C62",
"1	c #AC34AC",
"2	c #AC59BD",
"3	c #AC40AC",
"4	c #9C28A4",
"5	c #B428A4",
"6	c #AC089C",
"7	c #AC349C",
"8	c #B4388B",
"9	c #7B005A",
"0	c #730041",
"a	c #B4288B",
"b	c #AC0862",
"c	c #B4047B",
"d	c #AC2073",
"e	c #942873",
"f	c #940C7B",
"g	c #940041",
"h	c #A4248B",
"i	c #52004A",
"j	c #94206A",
"k	c #940C62",
"l	c #5A0031",
"m	c #AC044A",
"n	c #BD044A",
"o	c #C52C6A",
"p	c #AC1862",
"q	c #AC205A",
"r	c #AC184A",
"                                ",
"                                ",
"              .+@               ",
"             .#$@@%             ",
"             &*&&=-;            ",
"            &#&>,=';            ",
"            &*>,,)-!~           ",
"            &*,,,{-!'           ",
"            >]]^^{//(           ",
"            _]]]]{/:-           ",
"            <[}}}[:|-           ",
"            11233[||-           ",
"            41[[[[|/            ",
"            415665|/            ",
"            415665|/            ",
"            115665|/            ",
"            7856659/            ",
"             756650/            ",
"             a6bcd0/            ",
"             effgh0i            ",
"             jkggjli            ",
"             jgggji             ",
"             jgggdl             ",
"              gmmdl             ",
"              gnnol             ",
"              mnnp              ",
"               gnp              ",
"               gq0              ",
"               rr0              ",
"                                ",
"                                ",
"                                "};
