/* XPM */
static char * cristal17_xpm[] = {
"32 32 54 1",
" 	c None",
".	c #9479BD",
"+	c #8B71D5",
"@	c #A475D5",
"#	c #73449C",
"$	c #B489D5",
"%	c #7B107B",
"&	c #41187B",
"*	c #D5C2EE",
"=	c #5A048B",
"-	c #310094",
";	c #39049C",
">	c #BD79D5",
",	c #AC79BD",
"'	c #73047B",
")	c #4A048B",
"!	c #8B40AC",
"~	c #E6C6E6",
"{	c #CD91CD",
"]	c #AC40AC",
"^	c #94089C",
"/	c #A4248B",
"(	c #73009C",
"_	c #9C44AC",
":	c #AC34AC",
"<	c #B428A4",
"[	c #A428A4",
"}	c #830494",
"|	c #94189C",
"1	c #9C28A4",
"2	c #7B005A",
"3	c #8B24A4",
"4	c #AC089C",
"5	c #7B0C62",
"6	c #B4149C",
"7	c #C53073",
"8	c #730041",
"9	c #B4388B",
"0	c #B44094",
"a	c #B4187B",
"b	c #62046A",
"c	c #AC349C",
"d	c #730C41",
"e	c #5A0031",
"f	c #942873",
"g	c #943473",
"h	c #94206A",
"i	c #9C1C4A",
"j	c #7B206A",
"k	c #AC1862",
"l	c #AC2073",
"m	c #831441",
"n	c #C52C6A",
"o	c #AC184A",
"                                ",
"                                ",
"              .+@#              ",
"             +..$%&             ",
"             +..*=-             ",
"            ...**=-             ",
"            +.***=-             ",
"            @***$=;;            ",
"           >***,$');            ",
"           !~~>>{'=)            ",
"           !]{{{^/(=            ",
"           _:]<^^[}||           ",
"           ___1^^^/}2           ",
"           ___3^^^<''           ",
"           _]_/^^/''            ",
"           ]]]/^4<52            ",
"           ]]]<44<52            ",
"            ]]<67558            ",
"            90:a758b            ",
"            9]c/cde             ",
"            9_fcd8e             ",
"             gff88e             ",
"             ghh888             ",
"             ihj88              ",
"             klj88              ",
"              km28              ",
"              ai88              ",
"              and               ",
"               om               ",
"                                ",
"                                ",
"                                "};
