/* XPM */
static char * cristal9_xpm[] = {
"32 32 49 1",
" 	c None",
".	c #AC79BD",
"+	c #B489D5",
"@	c #62046A",
"#	c #52006A",
"$	c #CD91CD",
"%	c #CD9DC5",
"&	c #73047B",
"*	c #5A006A",
"=	c #4A048B",
"-	c #A475D5",
";	c #A44CA4",
">	c #AC59A4",
",	c #830494",
"'	c #5A048B",
")	c #BD50BD",
"!	c #8B40AC",
"~	c #AC48BD",
"{	c #73009C",
"]	c #9C44AC",
"^	c #9C48C5",
"/	c #B475C5",
"(	c #9C59C5",
"_	c #94089C",
":	c #AC59BD",
"<	c #7B1494",
"[	c #8B24A4",
"}	c #8310AC",
"|	c #94189C",
"1	c #7B0C62",
"2	c #5A0031",
"3	c #B45DAC",
"4	c #7B207B",
"5	c #AC4CAC",
"6	c #AC40AC",
"7	c #94206A",
"8	c #7B107B",
"9	c #B44094",
"0	c #B4388B",
"a	c #941441",
"b	c #AC1862",
"c	c #AC34AC",
"d	c #B4187B",
"e	c #7B206A",
"f	c #730C41",
"g	c #AC2C6A",
"h	c #C53073",
"i	c #AC184A",
"j	c #730041",
"                                ",
"                                ",
"              .+@#              ",
"             +$%&@*=            ",
"            -;>;,&&''           ",
"           -)!!!~&{{'           ",
"           -~!]!^,{{'           ",
"           /^]^](_{{&           ",
"           /:]^^!:,<{,          ",
"           ~]]~^!:[},|          ",
"           ~~~~~^:,[|           ",
"           ~~~~~^:1[2           ",
"           ~~~~~~3142           ",
"            ]~~5311|2           ",
"            ]55631172           ",
"            )666:118            ",
"            )996:11|            ",
"             096311|            ",
"             096:1[2            ",
"             ;9931[2            ",
"              abc14             ",
"              ad01e             ",
"              add0f             ",
"              gddh2             ",
"              gddg              ",
"               idg              ",
"               ihj              ",
"               ihj              ",
"               ggf              ",
"                                ",
"                                ",
"                                "};
