/* XPM */
static char * cristal10_xpm[] = {
"32 32 54 1",
" 	c None",
".	c #AC79BD",
"+	c #B489D5",
"@	c #52045A",
"#	c #52006A",
"$	c #9479BD",
"%	c #CD91CD",
"&	c #CD9DC5",
"*	c #73047B",
"=	c #5A048B",
"-	c #C5B6DE",
";	c #9C44AC",
">	c #8B40AC",
",	c #830494",
"'	c #8324A4",
")	c #7B24A4",
"!	c #8B71D5",
"~	c #A475D5",
"{	c #BD79D5",
"]	c #8B24A4",
"^	c #9428A4",
"/	c #AC34AC",
"(	c #73009C",
"_	c #94189C",
":	c #B475C5",
"<	c #B4388B",
"[	c #9C28A4",
"}	c #7B1494",
"|	c #A428A4",
"1	c #7B206A",
"2	c #C56DC5",
"3	c #AC40AC",
"4	c #62046A",
"5	c #CD7DC5",
"6	c #B428A4",
"7	c #B44094",
"8	c #A4248B",
"9	c #AC349C",
"0	c #B4288B",
"a	c #6224AC",
"b	c #942873",
"c	c #7B0C62",
"d	c #94206A",
"e	c #940041",
"f	c #940C7B",
"g	c #940C62",
"h	c #7B107B",
"i	c #9C1C4A",
"j	c #AC0862",
"k	c #AC044A",
"l	c #C52C6A",
"m	c #AC205A",
"n	c #AC1862",
"o	c #AC184A",
"                                ",
"                                ",
"              ..+@#             ",
"             $+%&*=#            ",
"            -+;;>,*==           ",
"           -$;'))>*==           ",
"           !.;'''>,*=           ",
"          ~.{>]^^)/(=           ",
"           ~{;^^^';_*           ",
"           :<^^[[^>*}           ",
"           :/[[||^;*1           ",
"           23||/|[;41           ",
"           53|//|[;41           ",
"           67|//|[;41           ",
"            <6|||[;@            ",
"            <66|8;4@            ",
"            9<888/41            ",
"            0<888/4a            ",
"             9888341            ",
"             b<8|]c1            ",
"             bdef84             ",
"             bdgg|h             ",
"              igjjd             ",
"              ijjjd             ",
"              ikjjd             ",
"              lmkn              ",
"               oko              ",
"               oko              ",
"               oe               ",
"                                ",
"                                ",
"                                "};
